<?xml version="1.0" encoding="utf-8"?>
<!-- Generator: Adobe Illustrator 25.0.1, SVG Export Plug-In . SVG Version: 6.00 Build 0)  -->
<svg version="1.1" id="Layer_1" xmlns="http://www.w3.org/2000/svg" xmlns:xlink="http://www.w3.org/1999/xlink" x="0px" y="0px"
	 viewBox="0 0 100 50" style="enable-background:new 0 0 100 50;" xml:space="preserve">
<style type="text/css">
	.st0{fill:#8B5E3C;}
	.st1{fill:none;stroke:#603913;stroke-miterlimit:10;}
	.st2{fill:none;stroke:#009444;stroke-width:2;stroke-miterlimit:10;}
	.st3{fill:none;stroke:#BE1E2D;stroke-width:3;stroke-miterlimit:10;}
	.st4{fill:none;stroke:#FFFFFF;stroke-width:2.5;stroke-miterlimit:10;}
	.st5{fill:#8DC63F;stroke:#8DC63F;stroke-width:2.5;stroke-miterlimit:10;}
	.st6{fill:none;stroke:#8DC63F;stroke-width:3;stroke-miterlimit:10;}
</style>
<ellipse class="st0" cx="50.3" cy="28" rx="40.2" ry="5.9"/>
<line class="st1" x1="31.9" y1="29.8" x2="42.1" y2="24.6"/>
<line class="st1" x1="43.3" y1="30.4" x2="51.5" y2="25"/>
<line class="st1" x1="54.5" y1="30.6" x2="61.8" y2="25.1"/>
<line class="st2" x1="40.6" y1="28.7" x2="58.1" y2="28.2"/>
<line class="st3" x1="21" y1="22.7" x2="50.2" y2="22.3"/>
<line class="st3" x1="51" y1="21.8" x2="79.2" y2="22.8"/>
<line class="st4" x1="26.6" y1="26.6" x2="49.5" y2="26.3"/>
<line class="st4" x1="74.9" y1="26.6" x2="50" y2="26.2"/>
<path class="st5" d="M20.5,23.4c0.4-0.3,0.8-0.7,1.2-0.6c0.5,0,0.8,0.5,1.1,0.9c0.7,1.1,1,2.4,1,3.7c1.9-0.8,3.5-2.4,4.3-4.3
	c0.6-0.1,0.6,1,1.1,1.2c0.3,0.1,0.6,0,0.9-0.2c1.7-1.1,3.4-2.2,5.1-3.3c0.9,0.4,1,1.7,0.5,2.5c-0.4,0.8-1.2,1.4-1.9,2.2
	c-0.6,0.8-1,1.9-0.5,2.7c1.7-1.5,3-3.5,3.7-5.6c0.1-0.3,0.2-0.6,0.4-0.7c0.5-0.4,1.2,0.2,1.5,0.8c0.2,0.6,0.3,1.3,0.7,1.7
	c0.5-0.3,1-0.6,1.6-1c-0.6,0.8,0.7,1.9,1.6,1.6c0.9-0.3,1.4-1.3,1.8-2.2c-0.1,0.8,0.9,1.2,1.6,1s1.1-1,1.4-1.7
	c0.2,1.5,0.5,2.9,0.7,4.4c1.2-0.9,1.8-2.4,1.5-3.8c0.9-0.4,1.1,1.7,2.1,1.8c1,0.1,1.4-1.7,2.4-1.5c0.7,0.1,0.8,1.2,1.3,1.7
	s1.5,0.3,2.1,0s1.3-0.9,2-1c1.5-0.1,2.5,1.5,3.1,3c1.9-1.5,3.7-3,5.6-4.6c1.2,1.3,2.6,2.4,4,3.4c0.8,0.6,1.8,1.1,2.8,1.2
	c1,0,2.1-0.6,2.3-1.6c0.7,1.2,1.6,2.5,3,2.4c0.7,0,1.3-0.4,1.7-0.9c1.5-1.5,1.7-4,0.5-5.7c-0.8,0.9-1.4,1.8-2,2.8
	c-1.7-2.3-4.8-2.9-7.7-3c-2.8-0.1-5.8,0.1-8.4-1.2c-0.5-0.3-1-0.6-1.6-0.7c-1.8-0.5-3.6,0.9-5.5,1.4c-4.8,1.4-10-2.8-14.6-0.9
	c-0.6,0.2-1.1,0.6-1.7,0.4c-0.4-0.1-0.8-0.4-1.1-0.7c-2.4-1.9-5.8-1.5-8.8-0.9c-1.2,0.2-2.4,0.5-3.4,1.2c-0.5,0.3-1,0.8-1.5,1.1
	c-1.6,0.8-3.5,0.3-5.2,0.2c-3.4-0.1-7.7,1.8-9.1,5.1c0.8,0.5,1.9,0,2.6,0.4c0.9,0.4,0.8,1.2,1.4,1.9C17.7,26.3,19,24.7,20.5,23.4z"
	/>
<line class="st3" x1="51" y1="23.8" x2="79.2" y2="24.8"/>
<line class="st3" x1="21" y1="24.7" x2="50.2" y2="24.3"/>
<path class="st6" d="M22.6,20.5c3.3,1.2,6.9,1.4,10.4,1.3c2.3,0,4.8-0.2,6.7-1.5"/>
<path class="st6" d="M48.2,19.7c1.2,0.5,2.3,1.1,3.6,1.2c1,0.1,2-0.1,2.9,0.2"/>
</svg>
