<?xml version="1.0" encoding="utf-8"?>
<!-- Generator: Adobe Illustrator 25.0.1, SVG Export Plug-In . SVG Version: 6.00 Build 0)  -->
<svg version="1.1" id="Layer_1" xmlns="http://www.w3.org/2000/svg" xmlns:xlink="http://www.w3.org/1999/xlink" x="0px" y="0px"
	 viewBox="0 0 100 50" style="enable-background:new 0 0 100 50;" xml:space="preserve">
<style type="text/css">
	.st0{fill:#8B5E3C;}
	.st1{fill:none;stroke:#603913;stroke-miterlimit:10;}
	.st2{fill:#F7941D;stroke:#F7941D;stroke-miterlimit:10;}
	.st3{fill:none;stroke:#009444;stroke-width:2;stroke-miterlimit:10;}
	.st4{fill:#BE1E2D;}
	.st5{fill:#F9ED32;}
</style>
<ellipse class="st0" cx="50.29" cy="29" rx="40.15" ry="5.86"/>
<line class="st1" x1="31.91" y1="30.81" x2="42.09" y2="25.65"/>
<line class="st1" x1="43.3" y1="31.42" x2="51.51" y2="25.95"/>
<line class="st1" x1="54.54" y1="31.57" x2="61.84" y2="26.1"/>
<ellipse class="st0" cx="50" cy="23.06" rx="40.15" ry="5.86"/>
<line class="st1" x1="34.27" y1="24.87" x2="44.44" y2="19.71"/>
<line class="st1" x1="45.66" y1="25.48" x2="53.86" y2="20.01"/>
<line class="st1" x1="56.9" y1="25.63" x2="64.19" y2="20.16"/>
<path class="st1" d="M29.76,27.17c11.67,2.17,23.72,2.3,35.43,0.37"/>
<path class="st2" d="M27.12,29.17c0.68,0.78,1.41,1.77,2.44,1.71c1.16-0.06,2.21-1.49,3.23-0.92c0.35,0.19,0.61,0.61,1.01,0.61
	c0.26,0,0.48-0.18,0.72-0.26c1.11-0.37,1.89,1.26,3.04,1.52c0.99,0.22,1.85-0.64,2.76-1.1c2.41-1.22,5.78,0.31,7.82-1.45
	c-2.07-0.89-4.4-0.87-6.66-0.92c-6.81-0.14-13.37-1.23-20.05-2.46C23.32,27.14,25.48,27.32,27.12,29.17z"/>
<path class="st2" d="M40.92,28.72c1.73,0.18,3.46,0.36,5.2,0.38c5.3,0.06,10.5-1.35,15.59-2.86c1.46-0.43,2.96-0.88,4.48-0.76
	c1.94,0.15,3.68,1.19,5.33,2.23c0.28,0.17,0.57,0.36,0.9,0.36c0.47,0,0.85-0.35,1.22-0.64c1.46-1.13,3.39-1.37,5.23-1.51
	c1.84-0.13,3.75-0.22,5.37-1.09c1.62-0.88,2.82-2.85,2.17-4.57c-3.57-0.63-7.14-1.25-10.71-1.88c-3.5-0.61-7.01-1.23-10.56-1.4
	c-2.11-0.1-4.23-0.05-6.35,0.01c-10.27,0.27-20.55,0.53-30.82,0.8c-1.96,0.05-18.27,0.38-15.84,4.02c1.12,1.67,5.2,2.46,6.99,3.05
	c3.33,1.11,6.77,1.86,10.24,2.43C33.19,27.92,37.06,28.33,40.92,28.72z"/>
<line class="st3" x1="24.92" y1="19.67" x2="46.49" y2="20.28"/>
<line class="st3" x1="55.91" y1="19.97" x2="77.96" y2="18.78"/>
<g>
	<g>
		<path class="st4" d="M38.59,17.66c2.36,0.47,4.61,0.36,6.98,0.09c1.09-0.12,2.25-0.21,3.29,0.21c0.75,0.31,1.76,1.04,1.7,1.97
			c0.1-0.18,0.21-0.36,0.31-0.54c-0.23,0.17-1.21-0.25-1.48-0.35c-0.56-0.2-1.1-0.47-1.64-0.72c-0.99-0.46-2-0.91-3.1-1.03
			c-1.23-0.13-2.25,0.35-3.41,0.64c-1.42,0.36-2.6-0.35-3.77-1.09c-0.11,0.39-0.21,0.78-0.32,1.16c4.07,0.51,8.07,1.41,11.97,2.67
			c0.33,0.11,0.67-0.12,0.77-0.44c0.39-1.27-0.56-2.15-1.54-2.76c-0.11,0.39-0.21,0.78-0.32,1.16c0.61,0,1.12,0.13,1.65,0.44
			c0.7,0.41,1.3-0.64,0.63-1.08c-1.43-0.93-2.9-1.79-4.41-2.56c-0.55-0.28-1.17,0.29-0.86,0.86c0.55,0.97,1.18,1.89,1.89,2.75
			c0.61,0.73,1.4,1.49,2.42,1.16c0.52-0.17,0.61-0.85,0.15-1.14c-0.38-0.24-0.76-0.45-1.18-0.62c-0.33-0.14-0.91-0.18-1.18-0.4
			c-0.24-0.19-0.28-0.67-0.42-0.94c-0.16-0.3-0.38-0.54-0.64-0.75c-1.38-1.08-3.11-0.53-4.62-0.06c-0.76,0.24-0.44,1.45,0.33,1.21
			c1.25-0.4,3.31-1.18,3.95,0.51c0.2,0.53,0.4,0.94,0.94,1.18c0.74,0.34,1.48,0.49,2.19,0.94c0.05-0.38,0.1-0.76,0.15-1.14
			c-0.63,0.2-1.4-1.06-1.71-1.48c-0.44-0.59-0.83-1.21-1.19-1.85c-0.29,0.29-0.57,0.57-0.86,0.86c1.52,0.78,2.99,1.63,4.41,2.56
			c0.21-0.36,0.42-0.72,0.63-1.08c-0.71-0.41-1.46-0.61-2.28-0.61c-0.63,0-0.84,0.84-0.32,1.16c0.47,0.29,1.17,0.68,0.97,1.35
			c0.26-0.15,0.51-0.29,0.77-0.44c-4.01-1.29-8.13-2.19-12.31-2.71c-0.66-0.08-0.79,0.86-0.32,1.16c0.9,0.57,1.84,1.14,2.9,1.32
			c1.03,0.17,1.95-0.14,2.93-0.45c1.01-0.32,1.91-0.35,2.92-0.02c0.94,0.3,1.81,0.78,2.71,1.16c0.8,0.34,1.68,0.7,2.56,0.72
			c1.03,0.02,1.04-0.96,0.76-1.69c-0.69-1.77-2.66-2.54-4.43-2.57c-1.36-0.03-2.7,0.28-4.06,0.35c-1.42,0.08-2.83-0.03-4.22-0.31
			C38.14,16.3,37.8,17.5,38.59,17.66L38.59,17.66z"/>
	</g>
</g>
<g>
	<g>
		<path class="st5" d="M52.76,21.61c1.12-0.41,1.94-1.21,2.84-1.96c0.98-0.82,2.11-1.45,3.31-1.89c0.45-0.17,0.68-0.89,0.15-1.14
			c-1.32-0.62-2.71-0.6-4.14-0.49c-0.71,0.05-1.42,0.12-2.13,0.09c-0.73-0.03-1.34-0.3-2.04-0.43c-1.67-0.29-1.47,1.85-1.09,2.86
			c0.23,0.63,0.7,1.19,1.34,1.42c0.36,0.12,0.73,0.1,1.1,0.07c0.25-0.02,0.69-0.13,0.83,0.14c0.07-0.29,0.15-0.57,0.22-0.86
			c-0.42,0.2-0.96,0.07-1.27-0.26c-0.15-0.16-0.34-0.49-0.14-0.67c0.16-0.14,0.53-0.12,0.72-0.12c1.53,0,3.08,0.17,4.61,0.25
			c0.7,0.04,0.86-1.08,0.17-1.23c-0.97-0.21-1.96-0.21-2.92,0.06C53.85,17.59,53.44,17.81,53,18c-0.6,0.26-0.95-0.08-1.37-0.5
			c-0.25,0.33-0.5,0.65-0.76,0.98c0.56,0.31,1.13,0.62,1.71,0.91c0.52,0.26,1.1,0.64,1.7,0.62c0.58-0.03,0.86-0.54,1.34-0.76
			c0.5-0.23,1.08-0.24,1.62-0.26c0.8-0.03,0.81-1.24,0-1.25c-1.53-0.02-2.85,0.94-3.38,2.36c-0.14,0.37,0.22,0.81,0.6,0.79
			c0.3-0.02,0.59-0.03,0.89-0.05c-0.06-0.41-0.11-0.82-0.17-1.23c-1.36,0.36-2.71,0.79-4.09,1.07c-1.19,0.24-2.59,0.29-3.59-0.51
			c-0.2,0.35-0.41,0.7-0.61,1.04c1.61,0.38,3.26,0.48,4.91,0.29c0.79-0.09,0.8-1.34,0-1.25c-1.54,0.18-3.07,0.11-4.58-0.25
			c-0.55-0.13-1.13,0.63-0.61,1.04c2.57,2.05,6.12,0.52,8.9-0.23c0.67-0.18,0.55-1.27-0.17-1.23c-0.3,0.02-0.59,0.03-0.89,0.05
			c0.2,0.26,0.4,0.53,0.6,0.79c0.34-0.9,1.23-1.45,2.17-1.44c0-0.42,0-0.83,0-1.25c-0.96,0.04-1.97,0.12-2.74,0.74
			c-0.23,0.18-0.24,0.31-0.52,0.21c-0.26-0.09-0.52-0.25-0.77-0.38c-0.58-0.29-1.15-0.59-1.71-0.91c-0.61-0.34-1.28,0.48-0.76,0.98
			c0.82,0.79,1.7,1.27,2.8,0.74c1.09-0.53,2.15-0.78,3.36-0.52c0.06-0.41,0.11-0.82,0.17-1.23c-1.31-0.07-2.62-0.15-3.94-0.22
			c-0.85-0.05-1.94-0.12-2.49,0.69c-0.56,0.82-0.09,1.9,0.64,2.44c0.74,0.55,1.67,0.61,2.5,0.22c0.31-0.15,0.37-0.58,0.22-0.86
			c-0.24-0.44-0.66-0.69-1.14-0.76c-0.51-0.08-1.18,0.2-1.62-0.08c-0.52-0.33-0.57-1.09-0.59-1.65c0-0.06-0.01-0.13-0.01-0.19
			c0.02-0.18,0-0.19-0.04-0.04c-0.07,0.08-0.06,0.12,0.03,0.12c0.05,0.01,0.1,0.03,0.14,0.05c0.25,0.13,0.58,0.19,0.85,0.24
			c2.21,0.43,4.7-0.62,6.79,0.36c0.05-0.38,0.1-0.76,0.15-1.14c-1.17,0.43-2.27,1-3.26,1.74c-0.94,0.7-1.76,1.69-2.89,2.11
			C51.68,20.68,52,21.89,52.76,21.61L52.76,21.61z"/>
	</g>
</g>
</svg>
