<?xml version="1.0" encoding="utf-8"?>
<!-- Generator: Adobe Illustrator 25.0.1, SVG Export Plug-In . SVG Version: 6.00 Build 0)  -->
<svg version="1.1" id="Layer_1" xmlns="http://www.w3.org/2000/svg" xmlns:xlink="http://www.w3.org/1999/xlink" x="0px" y="0px"
	 viewBox="0 0 100 50" style="enable-background:new 0 0 100 50;" xml:space="preserve">
<style type="text/css">
	.st0{fill:#C99F00;stroke:#A78900;stroke-width:0.25;stroke-miterlimit:10;}
	.st1{fill:none;stroke:#A78900;stroke-width:0.25;stroke-miterlimit:10;}
</style>
<g>
	<path class="st0" d="M33.4,24.8c0.6-0.6,1.5-0.7,2.3-0.9c1.5-0.2,3-0.4,4.5-0.4c0.9,0,1.8,0,2.6,0c0.8-0.1,1.6-0.2,2.4-0.3
		c0.8-0.1,1.7-0.3,2.5-0.4c1.4-0.2,2.8-0.5,4.1-0.8c2.2-0.5,4.3-1.3,6.5-1.8c1.4-0.3,2.8-0.5,4.1-0.6c0.5-0.1,1-0.1,1.5,0
		c0.7,0.2,1.2,0.9,1.5,1.6c0.1,0.3,0.2,0.6,0.1,0.9c-0.1,0.6-0.8,0.9-1.4,1c-0.6,0.1-1.3,0-1.9,0.1c-0.9,0.2-1.6,0.9-2.4,1.1
		c-0.7,0.2-1.5,0-2.3,0.1c-1.1,0.1-2,0.8-3.1,1.1c-1.3,0.3-2.7,0.1-4.1,0.4c-0.6,0.2-1.2,0.5-1.8,0.7c-1,0.4-2,0.6-3,0.8
		c-2.5,0.5-5,0.9-7.5,1.4c-0.9,0.2-1.9,0.3-2.8,0.1C34,28.3,32,26.1,33.4,24.8z"/>
	<path class="st0" d="M66.7,26.7c-0.6-0.6-1.5-0.8-2.3-0.9c-1.5-0.3-3-0.5-4.5-0.6c-0.9-0.1-1.8,0-2.6-0.1c-0.8-0.1-1.6-0.3-2.4-0.4
		c-0.8-0.2-1.7-0.4-2.5-0.5c-1.4-0.3-2.7-0.6-4.1-1c-2.2-0.6-4.3-1.4-6.5-2c-1.4-0.3-2.7-0.5-4.1-0.8c-0.5-0.1-1-0.1-1.5,0
		c-0.7,0.2-1.3,0.9-1.6,1.6c-0.1,0.3-0.2,0.6-0.1,0.9c0.1,0.6,0.8,1,1.4,1.1c0.6,0.1,1.3,0,1.9,0.2c0.9,0.2,1.5,0.9,2.4,1.1
		c0.7,0.2,1.5,0,2.3,0.2c1.1,0.2,2,0.9,3.1,1.2c1.3,0.4,2.7,0.2,4,0.6c0.6,0.2,1.2,0.5,1.8,0.8c0.9,0.4,2,0.6,3,0.9
		c2.5,0.5,4.9,1.1,7.4,1.6c0.9,0.2,1.9,0.4,2.8,0.2C65.9,30.2,68,28.1,66.7,26.7z"/>
	<path class="st0" d="M46.5,22.6c0.8,1.5,1.7,3,2.5,4.4c0.3,0.5,0.6,1,1,1.4c0.4,0.4,1,0.6,1.6,0.5c0.7-0.1,1.2-0.8,1.6-1.4
		c0.1-0.2,0.2-0.3,0.2-0.5c0-0.3-0.1-0.6-0.2-0.8c-0.3-0.6-0.6-1.2-0.9-1.8c-0.3-0.6-0.6-1.1-0.9-1.7c-0.6-0.9-1.3-1.6-2.1-2.2
		c-0.5-0.3-1-0.7-1.6-0.8c-1.7-0.5-3.5,0.5-5,1.5"/>
	<path class="st1" d="M49,22.9c0.8,0.7,1.6,1.6,1.6,2.6c0,0.2-0.1,0.4,0,0.6c0.1,0.3,0.3,0.6,0.6,0.8"/>
</g>
</svg>
