<?xml version="1.0" encoding="utf-8"?>
<!-- Generator: Adobe Illustrator 25.0.1, SVG Export Plug-In . SVG Version: 6.00 Build 0)  -->
<svg version="1.1" id="Layer_1" xmlns="http://www.w3.org/2000/svg" xmlns:xlink="http://www.w3.org/1999/xlink" x="0px" y="0px"
	 viewBox="0 0 100 50" style="enable-background:new 0 0 100 50;" xml:space="preserve">
<style type="text/css">
	.st0{fill:#5F4800;stroke:#5F4800;stroke-width:0.25;stroke-miterlimit:10;}
	.st1{fill:#AA6E00;stroke:#AA6E00;stroke-width:0.25;stroke-miterlimit:10;}
	.st2{fill:#FFFFFF;stroke:#FFFFFF;stroke-width:0.25;stroke-miterlimit:10;}
	.st3{fill:#6A0400;}
</style>
<g>
	<path class="st0" d="M29.7,36.1c1.9-0.7,4.2-0.1,6.3,0.3c4.2,0.9,8.5,1.1,12.8,1.3c10,0.5,20,0.9,30,1.4c0.4-1,0.2-2.2-0.6-3
		c-10.7-1.5-21.6-2.5-32.5-2.9c-4.3-0.2-8.6-0.3-12.8-1c-0.6-0.1-3.5-9.1-4.2-10.2c-1.4-2.2-4.6-5.1-7.8-2.9
		c-0.8,0.6-2.1,2.4-1.2,3.3c0.9,0.9,2.2-0.1,3.3,0.2c1.5,0.5,1.2,0.8,1.8,2C26.8,28.2,28.1,32.3,29.7,36.1z"/>
	<path class="st1" d="M46.3,22c10.1,0.7,20.2,1.4,30.3,2.1c1.7,0.1,4,0.6,4.1,2c0.1,0.6-0.4,1.2-0.7,1.8c-1.6,2.4-2.2,5.3-1.8,8
		c-10.4,0.8-20.7-2.1-31.1-1.8c-3.7,0.1-7.3,0.7-11,0.4c-0.7,0-1.4-0.1-2-0.5c-0.6-0.3-0.9-0.9-1.2-1.4c-1-1.9-5.5-11-3.7-12.3
		c1.3-0.9,6.1,0.6,7.5,0.8C39.8,21.6,43,21.8,46.3,22z"/>
	<path class="st2" d="M63.1,33.9c-4.6-0.9-9.5-1.1-14.2-0.5c-2.1,0.3-4.3,0.6-6.3,0.3c-1.6-0.2-3-0.9-4.6-1.1
		c-0.8-0.1-1.7-0.1-2.5-0.3c-2.7-0.6-3.4-2.6-4.4-4.7c6.7-0.2,13.4,0.3,20.1,0.8c1.3,0.1,2.6,0.2,3.9,0.3c6.2,0.5,12.5,0.9,18.7,1.4
		c0.6,0,1.3,0.1,1.6,0.5c0.2,0.3,0.2,0.7,0.1,1c-0.2,1.3-0.5,2.7-0.7,4"/>
	<path class="st2" d="M31.5,28.9c1.1,0.9,1.6,2.3,1.2,3.5c1.3,0.2,2,1.3,3.2,1.8c1.1,0.4,2.3,0.3,3.5,0.2c1.4-0.2,2.7-0.3,4.1-0.5"
		/>
	<path class="st2" d="M36.6,35.5c4,0.5,8.2,0,12.2-0.2c5.3-0.2,10.6,0.1,15.8,0.8c3.3,0.5,6.8,1.1,10,0.4c0.3-0.1,0.6-0.1,0.8-0.3
		c0.9-0.8-0.7-1.9-0.6-3c-9.2-1.8-19-0.1-28.3-1.7c-2.9-0.5-12.3-4.1-14.7-2.7C27.2,31.5,33.7,35.2,36.6,35.5z"/>
	<path class="st1" d="M76.5,32.8c-0.5-1.2-2.4-1.6-4-1.4s-3,0.9-4.6,1.1c-2.2,0.2-4.3-0.4-6.4-0.7c-1.7-0.2-3.4-0.2-5,0.1
		c-0.6,0.1-1.2,0.2-1.8,0.2c-1.8-0.2-2.3-2.1-3.4-3.2c-1.2-1.3-3.5-1.7-5.5-1.4c-2,0.3-3.7,1.2-5.3,2.3c-0.9,0.6-1.8,1.3-2.9,1.6
		s-2.5,0.4-3.4-0.2c-0.8-0.6-1-1.5-1.5-2.3s-1.4-1.6-2.4-1.3c4.5-2.2,10.2-2.5,15.5-2.3c8.9,0.4,17.8,1.1,26.6,2
		c1.2,0.1,2.5,0.3,3.5,0.8C77.7,29.1,78,31.5,76.5,32.8z"/>
	<path class="st2" d="M29.3,17c1.3-0.9,3-1.5,4.4-2.3c1.7-1,3.2-2.3,4.1-3.8c-0.8,1.4,2,4.9,3.5,5.2c2.5,0.4,5.3-1.9,5.8-3.6
		c0.2-0.6,0.4-1.4,1.2-1.4c0.6,0-0.9,8.3,4.4,5.8c0.9-0.4,1.6-1.2,2.2-1.9c0.8-1.1,1.5-2.2,2.1-3.4c0.4,1.8,0.8,3.7,2.3,5.1
		c0.6,0.6,1.5,1.1,1.8,1.9c0.5,1-0.2,2.2-0.9,3.1c-0.3,0.4-0.8,0.9-1.4,1.1c-1.2,0.4-2.3-0.4-3.5-0.7c-3.3-0.8-5.6,2.7-8.8,0.9
		c-0.5-0.2-0.8-0.6-1.3-0.8c-2.2-1-6,0-8.5-0.5c-2.2-0.5-5.6-0.3-7.4-0.9C27,20.1,27.3,18.5,29.3,17z"/>
	<g>
		<g>
			<path class="st3" d="M27.5,20.1c0.5,0.5,1.3,0.4,1.9,0.1c0.4-0.2,0.6-0.4,0.9-0.7c0.2-0.3,0.4-0.7,0.6-0.9
				c0.3-0.6,0.8-0.6,1.6-0.2c0,0.1,0.1,0.3,0.2,0.4c0.6,0.5,0.9,0.6,1.8,0.5c1.3-0.3,2.1-1.6,3.3-1.7c-0.1,0-0.2,0-0.3,0
				c-0.1,1.1,1.6,1.1,2.3,1.1c1,0,1.9,0.1,1.9,1.2c0,0.6-0.1,1,0.5,1.3c0.2,0.1,0.6,0,0.7-0.2c0.3-0.9,1.5-3.8,2.6-2.9
				c0.9,0.7,0.6,2.1,1.3,2.9c1.3,1.6,3.5-0.5,4.7-1.3c-0.2,0-0.4,0.1-0.6,0.1c0.3,0.3,0.7,0.7,1,1c0.1,0.1,0.6,0,0.7-0.1
				c0.8-0.9,1.7-1.7,2.7-2.3c-0.2,0-0.4,0.1-0.6,0.1c0.5,0.9,1,1.9,1.4,2.8c0.1,0.2,0.6,0,0.7-0.1c0.8-0.7,1.7-1.3,2.5-2
				c-0.2,0-0.4,0.1-0.7,0.1c0.8,0.8,0.7,1.9-0.1,2.7c-1.2,1.3-3.4,1.2-5.1,1.1c-0.1,0-0.7,0.1-0.6,0.3c1.4,1.2,3.3,0.8,4.9,0.5
				c1.2-0.2,3.8-0.5,4.2,1.2c0.2,1-0.8,1.6-1.1,2.4c-0.4,1.3,1.4,1.5,2.3,1.2c0.7-0.2,1.2-0.8,1.8-1.1c1-0.5,1.3,0.2,1.8,1
				c0.3,0.6,0.6,1.2,0.8,1.8c0.1,0.2,0.7,0,0.7-0.2c0.1-2.6-6.1-1.6-5.4-4.2c0.1-0.5,0.7-0.8,0.6-1.4c-0.1-0.3-0.4-0.6-0.6-0.7
				c-0.8-0.5-1.9-0.6-2.6-1.4c-0.1-0.1-0.8,0.1-0.7,0.3c0.6,0.8,1.6,0.9,2.5,1.3c1.5,0.8-0.2,1.5,0.1,2.6c0.5,2.3,5.5,1.1,5.5,3.7
				c0.2-0.1,0.5-0.1,0.7-0.2c-0.4-1.1-1.2-3.6-2.7-3.3c-0.6,0.1-1,0.6-1.5,1c-0.6,0.5-2.6,1-2.4-0.4c0-0.4,0.4-0.7,0.6-1
				c0.4-0.6,0.8-1.2,0.4-1.9c-0.4-0.6-1.2-0.9-1.8-1c-2.3-0.4-5.2,1.4-7.2-0.4c-0.2,0.1-0.4,0.2-0.6,0.3c1.8,0,3.8,0,5.4-0.9
				c1.3-0.7,2.2-2.4,0.9-3.6c-0.1-0.1-0.5,0.1-0.7,0.1c-0.8,0.7-1.7,1.3-2.5,2c0.2,0,0.5-0.1,0.7-0.1c-0.5-0.9-1-1.9-1.4-2.8
				c-0.1-0.2-0.5,0-0.6,0.1c-1.1,0.6-2,1.4-2.8,2.4c0.2,0,0.4-0.1,0.7-0.1c-0.3-0.3-0.7-0.7-1-1c-0.1-0.1-0.5,0-0.6,0.1
				c-0.8,0.5-1.6,1.3-2.5,1.4c-0.9,0.1-1.2-0.6-1.4-1.4c-0.2-0.8-0.3-1.9-1.3-2.2c-1.8-0.7-3.1,2.3-3.5,3.6c0.2-0.1,0.5-0.1,0.7-0.2
				c-1-0.4,0-1.8-1.1-2.4C41,18,38,18.8,38.2,17.3c0-0.1-0.3,0-0.3,0c-0.7,0.1-1.3,0.4-1.8,0.8c-0.2,0.1-0.4,0.3-0.5,0.4
				c-0.6,0.1-1.2,0.3-1.8,0.4c-0.1-0.1-0.2-0.3-0.3-0.4c-0.2-0.3-0.2-0.5-0.5-0.7c-0.5-0.2-1.2-0.1-1.6,0.1c-0.8,0.3-2.2,2.7-3,2
				C28.1,19.8,27.4,20,27.5,20.1L27.5,20.1z"/>
		</g>
	</g>
	<g>
		<g>
			<path class="st3" d="M52.6,22.4c2.3,1.1,4.7,1.6,7.1,1.6c0.2,0,0.6-0.3,0.3-0.5c-2.5-1.9-6.1-2.3-9.1-1.1
				c-2.1,0.9-4.3,2.6-6.7,1.6c-1.6-0.7-2.7-1.2-4.5-0.4c-0.3,0.1-0.2,0.5,0.1,0.5c4-0.4,8.1-0.8,12.1-1.1c0.4,0,0.6-0.6,0.1-0.5
				c-3,0.1-5.9,0.7-8.7,1.9c-0.4,0.1-0.2,0.5,0.1,0.5c2.6,0.1,5.1-0.4,7.5-1.4c0.2-0.1,0.3-0.4,0-0.5c-2.9-1-6-1.4-9.1-1.3
				c-2.1,0.1-5,0.3-6.2,2.3c-0.1,0.1,0.1,0.3,0.2,0.3c3.2,0.1,6.1-2,9.3-1.6c0.1-0.2,0.1-0.4,0.2-0.5c-2.6,0.3-5.3,0.6-7.9,1
				c0,0.2,0,0.4-0.1,0.5c3.3-0.4,6.5-0.5,9.8-0.3c0.1-0.2,0.1-0.4,0.2-0.5c-3.1,0.1-6.3,0.1-9.3,0.4c-2,0.2-4.3,0.8-5.2,2.8
				c-0.1,0.2,0.1,0.3,0.3,0.3c0.5,0,1,0,1.5,0c0.4,0,0.6-0.5,0.1-0.5c-0.5,0-1,0-1.5,0c0.1,0.1,0.2,0.2,0.3,0.3
				c1.1-2.4,4.5-2.4,6.8-2.4c2.3-0.1,4.7-0.2,7-0.2c0.3,0,0.6-0.5,0.2-0.5c-3.3-0.3-6.7-0.2-10,0.3c-0.4,0.1-0.6,0.6-0.1,0.5
				c2.6-0.3,5.3-0.6,7.9-1c0.3,0,0.6-0.5,0.2-0.5c-3.3-0.4-6.1,1.8-9.3,1.6c0.1,0.1,0.1,0.2,0.2,0.3c1.2-2,4.7-1.9,6.8-1.9
				c2.5,0,5,0.5,7.4,1.3c0-0.2,0-0.3,0-0.5c-2.3,1-4.7,1.4-7.2,1.3c0,0.2,0.1,0.3,0.1,0.5c2.7-1.1,5.5-1.7,8.3-1.8
				c0-0.2,0-0.4,0.1-0.5c-4,0.4-8.1,0.8-12.1,1.1c0,0.2,0.1,0.3,0.1,0.5c2.1-0.9,3.4,0.8,5.4,0.8c1.4,0,2.7-0.5,3.9-1.1
				c1.7-0.9,3.4-1.5,5.4-1.4c1.7,0.1,3.3,0.6,4.7,1.7c0.1-0.2,0.2-0.3,0.3-0.5c-2.4,0-4.7-0.6-6.8-1.6
				C52.7,21.7,52.2,22.2,52.6,22.4L52.6,22.4z"/>
		</g>
	</g>
	<g>
		<g>
			<path class="st3" d="M50.4,22.4c2.6,0.7,5.2,1.4,7.7,2.1c1.2,0.3,2.4,0.6,3.6,1c0.6,0.2,1.4,0.4,1.8,1.1c0.5,0.4,0.3,0.7-0.5,1
				c-0.3,0.6-0.7,0.7-1.2,0.5c-0.5-0.1-1-0.4-1.4-0.6c-0.1,0.2-0.2,0.3-0.3,0.5c2,0,4,0.1,5.9,0.1c0.2,0,0.6-0.3,0.3-0.5
				c-0.8-0.6-1.6-1.2-2.4-1.8c-0.7-0.5-2.4-1.4-2.2-2.4c-0.1,0.1-0.3,0.2-0.4,0.3c2.3-0.1,4.5,0.1,6.8,0.5c0.2,0,0.7-0.3,0.4-0.5
				c-1.3-0.8-2.7-1.4-4.2-1.8c-0.3-0.1-0.9,0.3-0.4,0.5c1.9,0.8,4,1.2,6.1,1.3c2.3,0.1,4.9-0.6,7.1,0.4c0-0.2,0.1-0.3,0.1-0.5
				c-1.4,0.4-2.6,1-3.8,1.8c0.2,0.1,0.3,0.2,0.5,0.3c0.6-0.5,1.2-1.1,1.9-1.6c0.1-0.1,0.2-0.2,0.1-0.3c-0.6-0.7-1.4-0.7-2.2-0.7
				c-1.7,0-3.4,0.1-5.1,0.2c-2.6,0.2-6.4,1.2-8.5-0.8c-0.1,0.2-0.2,0.3-0.3,0.5c2.2,0,4.3-0.3,6.4-0.7c0.2,0,0.5-0.4,0.1-0.5
				c-2.9-0.8-5.9-1-8.8-0.4c-0.5,0.1-0.3,0.6,0.1,0.5c2.8-0.5,5.6-0.4,8.3,0.4c0-0.2,0.1-0.3,0.1-0.5c-2.1,0.4-4.1,0.6-6.2,0.7
				c-0.2,0-0.5,0.3-0.3,0.5c1.5,1.4,3.9,1.3,5.8,1.2c1.5-0.1,3-0.3,4.4-0.3c0.8,0,1.7-0.1,2.5-0.1c0.9,0,2.4-0.3,3,0.5
				c0-0.1,0.1-0.2,0.1-0.3c-0.6,0.5-1.2,1.1-1.9,1.6c-0.4,0.3,0.2,0.5,0.5,0.3c1.1-0.7,2.2-1.2,3.5-1.6c0.2-0.1,0.4-0.4,0.1-0.5
				c-1.8-0.9-3.8-0.6-5.7-0.5c-2.6,0.1-5.1-0.3-7.4-1.2c-0.1,0.2-0.3,0.3-0.4,0.5c1.5,0.4,2.8,0.9,4.1,1.7c0.1-0.2,0.3-0.3,0.4-0.5
				c-2.3-0.4-4.6-0.6-6.9-0.5c-0.2,0-0.4,0.1-0.4,0.3c-0.2,0.9,0.6,1.5,1.3,1.9c1.2,0.9,2.4,1.7,3.6,2.6c0.1-0.2,0.2-0.3,0.3-0.5
				c-2,0-4-0.1-5.9-0.1c-0.2,0-0.6,0.3-0.3,0.5c1.1,0.7,2.6,1.3,3.9,0.5c1.2-0.7,0.9-2-0.1-2.7c-1.6-1.1-4-1.4-5.8-1.9
				c-2.3-0.6-4.7-1.3-7-1.9C50.5,21.8,50,22.2,50.4,22.4L50.4,22.4z"/>
		</g>
	</g>
	<g>
		<g>
			<path class="st3" d="M43,16.1c-0.1,0.5-0.1,1,0,1.5c0,0.2,0.1,0.6,0.2,0.7c0.1,0.1,0.3,0.1,0.4,0.1c0.3,0,0.7-0.2,0.9-0.5
				c0.1-0.2,0.1-0.4,0.3-0.6c0.1-0.1,0.4-0.1,0.6-0.1c0.4,0.1,0.8,0.4,1.3,0.5c0.4,0.1,0.9,0.1,1.4,0.1c0.5,0,1-0.1,1.5,0.1
				c0.3,0.2,0.8,0.6,0.5,1c0.2,0,0.4-0.1,0.7-0.1c-0.9-0.7-2-1-3.1-1c-0.2,0-0.6,0-0.8,0.2c-0.2,0.2-0.3,0.3-0.6,0.4
				c-0.5,0-1.1-0.4-1-1c0-0.2-0.7-0.1-0.7,0.2c0,0.7,0.6,1.1,1.2,1.1c0.6,0,1.4-0.2,1.7-0.7c-0.1,0.1-0.3,0.1-0.4,0.2
				c1.1-0.1,2.2,0.2,3,0.9c0.2,0.1,0.6,0,0.7-0.1c0.5-0.7-0.4-1.3-1-1.4c-0.5-0.1-1,0-1.5,0c-0.6,0-1.1-0.1-1.6-0.4
				c-0.7-0.3-1.6-0.5-2.3,0c-0.2,0.1-0.3,0.3-0.3,0.4c0,0-0.1,0.4-0.2,0.4c0.1,0,0-0.3,0-0.3c-0.1-0.6-0.1-1.1,0-1.7
				C43.8,15.7,43,15.9,43,16.1L43,16.1z"/>
		</g>
	</g>
	<g>
		<g>
			<path class="st3" d="M43,17c1,1,2.1,2,3.1,3c0.6,0.6,1.2,1.3,2.1,1.3c0.8,0,1.5-0.3,2.1-0.6c0.7-0.3,1.4-0.8,2.2-0.7
				c0.6,0.1,0.6,0.6,1,1c0.5,0.4,1.3,0.3,1.9,0.2c0.4-0.1,0.9-0.2,1.3-0.3c0.7-0.2,0.9-0.2,1.2,0.4c1,2,3.4,1,5.1,1.7
				c0.2-0.1,0.4-0.2,0.6-0.3c-1-0.3-1.9-0.8-2.7-1.5c-0.2,0.1-0.4,0.2-0.6,0.3c0.9,0.2,1.8,0.4,2.8,0.6c0.1,0,0.8-0.1,0.6-0.3
				c-0.6-0.5-1.3-0.8-2.1-1c-0.2,0-0.8,0.2-0.5,0.4c1.3,0.5,2.6,1.1,3.8,1.7c0.2-0.1,0.3-0.2,0.5-0.4c-0.9-0.2-1.7-0.2-2.6-0.2
				c-0.2,0-0.8,0.3-0.4,0.4c0.8,0.2,1.6,0.4,2.3,0.6c0.2,0.1,0.8-0.3,0.4-0.4c-0.8-0.2-1.6-0.4-2.3-0.6c-0.1,0.1-0.2,0.3-0.4,0.4
				c0.8,0,1.6,0,2.4,0.2c0.1,0,0.8-0.2,0.5-0.4c-1.2-0.6-2.5-1.2-3.8-1.7c-0.2,0.1-0.3,0.2-0.5,0.4c0.7,0.1,1.3,0.4,1.9,0.9
				c0.2-0.1,0.4-0.2,0.6-0.3c-0.9-0.2-1.8-0.4-2.8-0.6c-0.1,0-0.8,0.1-0.6,0.3c0.8,0.7,1.7,1.2,2.8,1.5c0.2,0.1,0.9-0.2,0.6-0.3
				c-0.9-0.4-1.8-0.3-2.7-0.4c-0.6,0-1.3-0.1-1.7-0.5c-0.4-0.3-0.4-0.7-0.7-1.1c-0.3-0.4-0.7-0.5-1.2-0.4c-0.5,0.1-0.9,0.3-1.4,0.4
				c-0.3,0.1-0.8,0.2-1.1,0.2c-0.4-0.1-0.7-0.5-0.9-0.7c-0.8-0.8-2.1-0.6-3.1-0.1c-0.5,0.2-0.9,0.6-1.4,0.7c-0.6,0.1-1.5-0.2-2-0.5
				c-0.3-0.2-0.5-0.5-0.8-0.7c-1-0.9-2-1.9-2.9-2.8C43.5,16.6,42.8,16.9,43,17L43,17z"/>
		</g>
	</g>
</g>
</svg>
