<?xml version="1.0" encoding="utf-8"?>
<!-- Generator: Adobe Illustrator 25.0.1, SVG Export Plug-In . SVG Version: 6.00 Build 0)  -->
<svg version="1.1" id="Layer_1" xmlns="http://www.w3.org/2000/svg" xmlns:xlink="http://www.w3.org/1999/xlink" x="0px" y="0px"
	 viewBox="0 0 100 50" style="enable-background:new 0 0 100 50;" xml:space="preserve">
<style type="text/css">
	.st0{fill:#8B5E3C;}
	.st1{fill:none;stroke:#603913;stroke-miterlimit:10;}
	.st2{fill:#F7941D;stroke:#F7941D;stroke-miterlimit:10;}
	.st3{fill:#69020D;}
	.st4{fill:#69020D;stroke:#69020D;stroke-miterlimit:10;}
</style>
<ellipse class="st0" cx="50.29" cy="29" rx="40.15" ry="5.86"/>
<line class="st1" x1="31.91" y1="30.81" x2="42.09" y2="25.65"/>
<line class="st1" x1="43.3" y1="31.42" x2="51.51" y2="25.95"/>
<line class="st1" x1="54.54" y1="31.57" x2="61.84" y2="26.1"/>
<ellipse class="st0" cx="50" cy="23.06" rx="40.15" ry="5.86"/>
<line class="st1" x1="34.27" y1="24.87" x2="44.44" y2="19.71"/>
<line class="st1" x1="45.66" y1="25.48" x2="53.86" y2="20.01"/>
<line class="st1" x1="56.9" y1="25.63" x2="64.19" y2="20.16"/>
<path class="st1" d="M29.76,27.17c11.67,2.17,23.72,2.3,35.43,0.37"/>
<path class="st2" d="M27.12,29.17c0.68,0.78,1.41,1.77,2.44,1.71c1.16-0.06,2.21-1.49,3.23-0.92c0.35,0.19,0.61,0.61,1.01,0.61
	c0.26,0,0.48-0.18,0.72-0.26c1.11-0.37,1.89,1.26,3.04,1.52c0.99,0.22,1.85-0.64,2.76-1.1c2.41-1.22,5.78,0.31,7.82-1.45
	c-2.07-0.89-4.4-0.87-6.66-0.92c-6.81-0.14-13.37-1.23-20.05-2.46C23.32,27.14,25.48,27.32,27.12,29.17z"/>
<path class="st2" d="M40.92,28.72c1.73,0.18,3.46,0.36,5.2,0.38c5.3,0.06,10.5-1.35,15.59-2.86c1.46-0.43,2.96-0.88,4.48-0.76
	c1.94,0.15,3.68,1.19,5.33,2.23c0.28,0.17,0.57,0.36,0.9,0.36c0.47,0,0.85-0.35,1.22-0.64c1.46-1.13,3.39-1.37,5.23-1.51
	c1.84-0.13,3.75-0.22,5.37-1.09c1.62-0.88,2.82-2.85,2.17-4.57c-3.57-0.63-7.14-1.25-10.71-1.88c-3.5-0.61-7.01-1.23-10.56-1.4
	c-2.11-0.1-4.23-0.05-6.35,0.01c-10.27,0.27-20.55,0.53-30.82,0.8c-1.96,0.05-18.27,0.38-15.84,4.02c1.12,1.67,5.2,2.46,6.99,3.05
	c3.33,1.11,6.77,1.86,10.24,2.43C33.19,27.92,37.06,28.33,40.92,28.72z"/>
<path class="st3" d="M21.46,20.98c1.65-0.57,3.02-1.72,4.52-2.61c1.5-0.88,3.33-1.52,4.98-0.93c1.52,0.55,2.51,2.01,3.9,2.83
	c2.18,1.29,5,0.83,7.29-0.25c2.29-1.08,4.28-2.72,6.56-3.83c2.28-1.11,5.08-1.64,7.3-0.42c1.62,0.89,2.7,2.58,4.37,3.38
	c1.53,0.74,3.36,0.62,4.97,0.05c1.6-0.57,3.02-1.54,4.42-2.51c-0.66-0.52-1.31-1.03-1.97-1.55c-2.28,2.04-5.81,2.54-8.58,1.23
	c-1.32-0.63-2.46-1.62-3.82-2.17c-3.38-1.36-7.16,0.31-10.39,2.02c-3.22,1.71-6.88,3.53-10.36,2.44c-2.07-0.65-3.79-2.29-5.93-2.61
	c-4.34-0.66-8.08,4.25-12.43,3.6c1,0.7,2.11,1.24,3.28,1.59c0.49,0.15,0.99,0.27,1.5,0.23c1.38-0.09,2.43-1.24,3.31-2.31"/>
<path class="st4" d="M45.09,16.5c0.79-0.73,1.65-1.5,2.72-1.63c1.1-0.13,2.15,0.45,3.1,1c1.52,0.88,3.04,1.77,4.55,2.65
	c1.56,0.91,3.26,1.85,5.05,1.62c2.36-0.3,4.04-2.54,6.34-3.16c3.33-0.9,7.33,1.71,10.12-0.33c0.59,1.18,1.55,2.18,2.71,2.81
	c-3.4,2.55-8.17,3.15-12.1,1.52c-1.12-0.46-2.27-1.11-3.46-0.88c-1.08,0.21-1.88,1.08-2.85,1.59c-2.24,1.16-4.95,0.22-7.24-0.84
	c-2.29-1.06-4.79-2.27-7.22-1.6c-1.62,0.45-2.9,1.67-4.1,2.86c-1.25,1.23-2.5,2.46-3.76,3.69c-0.8,0.78-2.17,2.78-3.26,3.12
	c-1.54,0.48-4.3-1.36-3.11-3.02c1.12-1.57,4.24-2.41,5.81-3.57C40.77,20.59,42.92,18.52,45.09,16.5z"/>
</svg>
