<?xml version="1.0" encoding="utf-8"?>
<!-- Generator: Adobe Illustrator 25.0.1, SVG Export Plug-In . SVG Version: 6.00 Build 0)  -->
<svg version="1.1" id="Layer_1" xmlns="http://www.w3.org/2000/svg" xmlns:xlink="http://www.w3.org/1999/xlink" x="0px" y="0px"
	 viewBox="0 0 100 50" style="enable-background:new 0 0 100 50;" xml:space="preserve">
<style type="text/css">
	.st0{fill:#FF8F00;stroke:#BE740F;stroke-width:0.25;stroke-miterlimit:10;}
	.st1{fill:#CCCC33;stroke:#CCCC33;stroke-width:0.25;stroke-miterlimit:10;}
	.st2{fill:#8EB133;}
</style>
<g>
	<g>
		<ellipse class="st0" cx="39.5" cy="26.5" rx="3.9" ry="2.9"/>
		<ellipse class="st1" cx="39.5" cy="26.8" rx="2.4" ry="1.8"/>
		<g>
			<g>
				<path class="st2" d="M38.1,27.9c0.3,0,0.8-0.5,0.3-0.5C38.1,27.4,37.6,27.9,38.1,27.9L38.1,27.9z"/>
			</g>
		</g>
		<g>
			<g>
				<path class="st2" d="M38.6,26.6c0.2,0,0.8-0.3,0.5-0.3C38.9,26.3,38.3,26.6,38.6,26.6L38.6,26.6z"/>
			</g>
		</g>
		<g>
			<g>
				<path class="st2" d="M39.2,27c0.3,0,0.8-0.4,0.3-0.4C39.2,26.6,38.7,27,39.2,27L39.2,27z"/>
			</g>
		</g>
		<g>
			<g>
				<path class="st2" d="M39.4,27.7c0.1,0,0.2,0,0.3,0c0,0,0.1,0,0.1,0c0,0,0.1,0,0.1,0c0,0,0.1,0,0.1,0c0,0,0.1,0,0.1-0.1
					c0,0,0,0,0,0c0,0,0,0,0-0.1c0,0,0,0,0,0c0,0-0.1,0-0.1,0c-0.1,0-0.2,0-0.3,0c0,0-0.1,0-0.1,0c0,0-0.1,0-0.1,0c0,0-0.1,0-0.1,0
					c0,0-0.1,0-0.1,0.1c0,0,0,0,0,0c0,0,0,0,0,0.1c0,0,0,0,0,0C39.3,27.7,39.3,27.7,39.4,27.7L39.4,27.7z"/>
			</g>
		</g>
		<g>
			<g>
				<path class="st2" d="M39.9,26.9c0.1,0.1,0.2,0.1,0.3,0.2c0,0,0.1,0,0.1,0c0,0,0.1,0,0.1,0c0,0,0.1,0,0.1,0c0,0,0.1,0,0.1-0.1
					c0,0,0,0,0.1,0c0,0,0.1-0.1,0.1-0.1c0,0,0,0,0,0c0,0,0-0.1-0.1-0.1c-0.1-0.1-0.2-0.1-0.3-0.2c0,0-0.1,0-0.1,0c0,0-0.1,0-0.1,0
					c0,0-0.1,0-0.1,0c0,0-0.1,0-0.1,0.1c0,0,0,0-0.1,0c0,0-0.1,0.1-0.1,0.1C39.9,26.8,39.9,26.8,39.9,26.9
					C39.9,26.9,39.9,26.9,39.9,26.9L39.9,26.9z"/>
			</g>
		</g>
		<g>
			<g>
				<path class="st2" d="M39.3,25.7c0.1,0,0.2,0,0.3,0c0.1,0,0.1,0,0.1,0c0,0,0.1,0,0.1-0.1c0,0,0.1-0.1,0.1-0.1c0,0,0-0.1,0-0.1
					c0,0,0,0,0-0.1c0,0,0-0.1-0.1-0.1c0,0,0,0-0.1,0c-0.1,0-0.1,0-0.2,0c-0.1,0-0.2,0-0.3,0c-0.1,0-0.1,0-0.1,0c0,0-0.1,0-0.1,0.1
					c0,0-0.1,0.1-0.1,0.1c0,0,0,0.1,0,0.1c0,0,0,0,0,0.1c0,0,0,0.1,0.1,0.1c0,0,0,0,0.1,0C39.2,25.7,39.2,25.7,39.3,25.7L39.3,25.7z
					"/>
			</g>
		</g>
		<g>
			<g>
				<path class="st2" d="M40.7,26.2c0.2,0,0.8-0.3,0.3-0.3C40.8,25.8,40.2,26.2,40.7,26.2L40.7,26.2z"/>
			</g>
		</g>
	</g>
	<g>
		<ellipse class="st0" cx="45.5" cy="26.5" rx="3.9" ry="2.9"/>
		<ellipse class="st1" cx="45.5" cy="26.8" rx="2.4" ry="1.8"/>
		<g>
			<g>
				<path class="st2" d="M44.1,27.9c0.3,0,0.8-0.5,0.3-0.5C44.1,27.4,43.6,27.9,44.1,27.9L44.1,27.9z"/>
			</g>
		</g>
		<g>
			<g>
				<path class="st2" d="M44.6,26.6c0.2,0,0.8-0.3,0.5-0.3C44.9,26.3,44.3,26.6,44.6,26.6L44.6,26.6z"/>
			</g>
		</g>
		<g>
			<g>
				<path class="st2" d="M45.2,27c0.3,0,0.8-0.4,0.3-0.4C45.2,26.6,44.7,27,45.2,27L45.2,27z"/>
			</g>
		</g>
		<g>
			<g>
				<path class="st2" d="M45.4,27.7c0.1,0,0.2,0,0.3,0c0,0,0.1,0,0.1,0c0,0,0.1,0,0.1,0c0,0,0.1,0,0.1,0c0,0,0.1,0,0.1-0.1
					c0,0,0,0,0,0c0,0,0,0,0-0.1c0,0,0,0,0,0c0,0-0.1,0-0.1,0c-0.1,0-0.2,0-0.3,0c0,0-0.1,0-0.1,0c0,0-0.1,0-0.1,0c0,0-0.1,0-0.1,0
					c0,0-0.1,0-0.1,0.1c0,0,0,0,0,0c0,0,0,0,0,0.1c0,0,0,0,0,0C45.3,27.7,45.3,27.7,45.4,27.7L45.4,27.7z"/>
			</g>
		</g>
		<g>
			<g>
				<path class="st2" d="M45.9,26.9c0.1,0.1,0.2,0.1,0.3,0.2c0,0,0.1,0,0.1,0c0,0,0.1,0,0.1,0c0,0,0.1,0,0.1,0c0,0,0.1,0,0.1-0.1
					c0,0,0,0,0.1,0c0,0,0.1-0.1,0.1-0.1c0,0,0,0,0,0c0,0,0-0.1-0.1-0.1c-0.1-0.1-0.2-0.1-0.3-0.2c0,0-0.1,0-0.1,0c0,0-0.1,0-0.1,0
					c0,0-0.1,0-0.1,0c0,0-0.1,0-0.1,0.1c0,0,0,0-0.1,0c0,0-0.1,0.1-0.1,0.1C45.9,26.8,45.9,26.8,45.9,26.9
					C45.9,26.9,45.9,26.9,45.9,26.9L45.9,26.9z"/>
			</g>
		</g>
		<g>
			<g>
				<path class="st2" d="M45.3,25.7c0.1,0,0.2,0,0.3,0c0.1,0,0.1,0,0.1,0c0,0,0.1,0,0.1-0.1c0,0,0.1-0.1,0.1-0.1c0,0,0-0.1,0-0.1
					c0,0,0,0,0-0.1c0,0,0-0.1-0.1-0.1c0,0,0,0-0.1,0c-0.1,0-0.1,0-0.2,0c-0.1,0-0.2,0-0.3,0c-0.1,0-0.1,0-0.1,0c0,0-0.1,0-0.1,0.1
					c0,0-0.1,0.1-0.1,0.1c0,0,0,0.1,0,0.1c0,0,0,0,0,0.1c0,0,0,0.1,0.1,0.1c0,0,0,0,0.1,0C45.2,25.7,45.2,25.7,45.3,25.7L45.3,25.7z
					"/>
			</g>
		</g>
		<g>
			<g>
				<path class="st2" d="M46.7,26.2c0.2,0,0.8-0.3,0.3-0.3C46.8,25.8,46.2,26.2,46.7,26.2L46.7,26.2z"/>
			</g>
		</g>
	</g>
	<g>
		<ellipse class="st0" cx="55.5" cy="26.5" rx="3.9" ry="2.9"/>
		<ellipse class="st1" cx="55.5" cy="26.8" rx="2.4" ry="1.8"/>
		<g>
			<g>
				<path class="st2" d="M54.1,27.9c0.3,0,0.8-0.5,0.3-0.5C54.1,27.4,53.6,27.9,54.1,27.9L54.1,27.9z"/>
			</g>
		</g>
		<g>
			<g>
				<path class="st2" d="M54.6,26.6c0.2,0,0.8-0.3,0.5-0.3C54.9,26.3,54.3,26.6,54.6,26.6L54.6,26.6z"/>
			</g>
		</g>
		<g>
			<g>
				<path class="st2" d="M55.2,27c0.3,0,0.8-0.4,0.3-0.4C55.2,26.6,54.7,27,55.2,27L55.2,27z"/>
			</g>
		</g>
		<g>
			<g>
				<path class="st2" d="M55.4,27.7c0.1,0,0.2,0,0.3,0c0,0,0.1,0,0.1,0c0,0,0.1,0,0.1,0c0,0,0.1,0,0.1,0c0,0,0.1,0,0.1-0.1
					c0,0,0,0,0,0c0,0,0,0,0-0.1c0,0,0,0,0,0c0,0-0.1,0-0.1,0c-0.1,0-0.2,0-0.3,0c0,0-0.1,0-0.1,0c0,0-0.1,0-0.1,0c0,0-0.1,0-0.1,0
					c0,0-0.1,0-0.1,0.1c0,0,0,0,0,0c0,0,0,0,0,0.1c0,0,0,0,0,0C55.3,27.7,55.3,27.7,55.4,27.7L55.4,27.7z"/>
			</g>
		</g>
		<g>
			<g>
				<path class="st2" d="M55.9,26.9c0.1,0.1,0.2,0.1,0.3,0.2c0,0,0.1,0,0.1,0c0,0,0.1,0,0.1,0c0,0,0.1,0,0.1,0c0,0,0.1,0,0.1-0.1
					c0,0,0,0,0.1,0c0,0,0.1-0.1,0.1-0.1c0,0,0,0,0,0c0,0,0-0.1-0.1-0.1c-0.1-0.1-0.2-0.1-0.3-0.2c0,0-0.1,0-0.1,0c0,0-0.1,0-0.1,0
					c0,0-0.1,0-0.1,0c0,0-0.1,0-0.1,0.1c0,0,0,0-0.1,0c0,0-0.1,0.1-0.1,0.1C55.9,26.8,55.9,26.8,55.9,26.9
					C55.9,26.9,55.9,26.9,55.9,26.9L55.9,26.9z"/>
			</g>
		</g>
		<g>
			<g>
				<path class="st2" d="M55.3,25.7c0.1,0,0.2,0,0.3,0c0.1,0,0.1,0,0.1,0c0,0,0.1,0,0.1-0.1c0,0,0.1-0.1,0.1-0.1c0,0,0-0.1,0-0.1
					c0,0,0,0,0-0.1c0,0,0-0.1-0.1-0.1c0,0,0,0-0.1,0c-0.1,0-0.1,0-0.2,0c-0.1,0-0.2,0-0.3,0c-0.1,0-0.1,0-0.1,0c0,0-0.1,0-0.1,0.1
					c0,0-0.1,0.1-0.1,0.1c0,0,0,0.1,0,0.1c0,0,0,0,0,0.1c0,0,0,0.1,0.1,0.1c0,0,0,0,0.1,0C55.2,25.7,55.2,25.7,55.3,25.7L55.3,25.7z
					"/>
			</g>
		</g>
		<g>
			<g>
				<path class="st2" d="M56.7,26.2c0.2,0,0.8-0.3,0.3-0.3C56.8,25.8,56.2,26.2,56.7,26.2L56.7,26.2z"/>
			</g>
		</g>
	</g>
	<g>
		<ellipse class="st0" cx="60.5" cy="26.5" rx="3.9" ry="2.9"/>
		<ellipse class="st1" cx="60.5" cy="26.8" rx="2.4" ry="1.8"/>
		<g>
			<g>
				<path class="st2" d="M59.1,27.9c0.3,0,0.8-0.5,0.3-0.5C59.1,27.4,58.6,27.9,59.1,27.9L59.1,27.9z"/>
			</g>
		</g>
		<g>
			<g>
				<path class="st2" d="M59.6,26.6c0.2,0,0.8-0.3,0.5-0.3C59.9,26.3,59.3,26.6,59.6,26.6L59.6,26.6z"/>
			</g>
		</g>
		<g>
			<g>
				<path class="st2" d="M60.2,27c0.3,0,0.8-0.4,0.3-0.4C60.2,26.6,59.7,27,60.2,27L60.2,27z"/>
			</g>
		</g>
		<g>
			<g>
				<path class="st2" d="M60.4,27.7c0.1,0,0.2,0,0.3,0c0,0,0.1,0,0.1,0c0,0,0.1,0,0.1,0c0,0,0.1,0,0.1,0c0,0,0.1,0,0.1-0.1
					c0,0,0,0,0,0c0,0,0,0,0-0.1c0,0,0,0,0,0c0,0-0.1,0-0.1,0c-0.1,0-0.2,0-0.3,0c0,0-0.1,0-0.1,0c0,0-0.1,0-0.1,0c0,0-0.1,0-0.1,0
					c0,0-0.1,0-0.1,0.1c0,0,0,0,0,0c0,0,0,0,0,0.1c0,0,0,0,0,0C60.3,27.7,60.3,27.7,60.4,27.7L60.4,27.7z"/>
			</g>
		</g>
		<g>
			<g>
				<path class="st2" d="M60.9,26.9c0.1,0.1,0.2,0.1,0.3,0.2c0,0,0.1,0,0.1,0c0,0,0.1,0,0.1,0c0,0,0.1,0,0.1,0c0,0,0.1,0,0.1-0.1
					c0,0,0,0,0.1,0c0,0,0.1-0.1,0.1-0.1c0,0,0,0,0,0c0,0,0-0.1-0.1-0.1c-0.1-0.1-0.2-0.1-0.3-0.2c0,0-0.1,0-0.1,0c0,0-0.1,0-0.1,0
					c0,0-0.1,0-0.1,0c0,0-0.1,0-0.1,0.1c0,0,0,0-0.1,0c0,0-0.1,0.1-0.1,0.1C60.9,26.8,60.9,26.8,60.9,26.9
					C60.9,26.9,60.9,26.9,60.9,26.9L60.9,26.9z"/>
			</g>
		</g>
		<g>
			<g>
				<path class="st2" d="M60.3,25.7c0.1,0,0.2,0,0.3,0c0.1,0,0.1,0,0.1,0c0,0,0.1,0,0.1-0.1c0,0,0.1-0.1,0.1-0.1c0,0,0-0.1,0-0.1
					c0,0,0,0,0-0.1c0,0,0-0.1-0.1-0.1c0,0,0,0-0.1,0c-0.1,0-0.1,0-0.2,0c-0.1,0-0.2,0-0.3,0c-0.1,0-0.1,0-0.1,0c0,0-0.1,0-0.1,0.1
					c0,0-0.1,0.1-0.1,0.1c0,0,0,0.1,0,0.1c0,0,0,0,0,0.1c0,0,0,0.1,0.1,0.1c0,0,0,0,0.1,0C60.2,25.7,60.2,25.7,60.3,25.7L60.3,25.7z
					"/>
			</g>
		</g>
		<g>
			<g>
				<path class="st2" d="M61.7,26.2c0.2,0,0.8-0.3,0.3-0.3C61.8,25.8,61.2,26.2,61.7,26.2L61.7,26.2z"/>
			</g>
		</g>
	</g>
	<g>
		<ellipse class="st0" cx="55.5" cy="23.5" rx="3.9" ry="2.9"/>
		<ellipse class="st1" cx="55.5" cy="23.8" rx="2.4" ry="1.8"/>
		<g>
			<g>
				<path class="st2" d="M54.1,24.9c0.3,0,0.8-0.5,0.3-0.5C54.1,24.4,53.6,24.9,54.1,24.9L54.1,24.9z"/>
			</g>
		</g>
		<g>
			<g>
				<path class="st2" d="M54.6,23.6c0.2,0,0.8-0.3,0.5-0.3C54.9,23.3,54.3,23.6,54.6,23.6L54.6,23.6z"/>
			</g>
		</g>
		<g>
			<g>
				<path class="st2" d="M55.2,24c0.3,0,0.8-0.4,0.3-0.4C55.2,23.6,54.7,24,55.2,24L55.2,24z"/>
			</g>
		</g>
		<g>
			<g>
				<path class="st2" d="M55.4,24.7c0.1,0,0.2,0,0.3,0c0,0,0.1,0,0.1,0c0,0,0.1,0,0.1,0c0,0,0.1,0,0.1,0c0,0,0.1,0,0.1-0.1
					c0,0,0,0,0,0c0,0,0,0,0-0.1c0,0,0,0,0,0c0,0-0.1,0-0.1,0c-0.1,0-0.2,0-0.3,0c0,0-0.1,0-0.1,0c0,0-0.1,0-0.1,0c0,0-0.1,0-0.1,0
					c0,0-0.1,0-0.1,0.1c0,0,0,0,0,0c0,0,0,0,0,0.1c0,0,0,0,0,0C55.3,24.7,55.3,24.7,55.4,24.7L55.4,24.7z"/>
			</g>
		</g>
		<g>
			<g>
				<path class="st2" d="M55.9,23.9c0.1,0.1,0.2,0.1,0.3,0.2c0,0,0.1,0,0.1,0c0,0,0.1,0,0.1,0c0,0,0.1,0,0.1,0c0,0,0.1,0,0.1-0.1
					c0,0,0,0,0.1,0c0,0,0.1-0.1,0.1-0.1c0,0,0,0,0,0c0,0,0-0.1-0.1-0.1c-0.1-0.1-0.2-0.1-0.3-0.2c0,0-0.1,0-0.1,0c0,0-0.1,0-0.1,0
					c0,0-0.1,0-0.1,0c0,0-0.1,0-0.1,0.1c0,0,0,0-0.1,0c0,0-0.1,0.1-0.1,0.1C55.9,23.8,55.9,23.8,55.9,23.9
					C55.9,23.9,55.9,23.9,55.9,23.9L55.9,23.9z"/>
			</g>
		</g>
		<g>
			<g>
				<path class="st2" d="M55.3,22.7c0.1,0,0.2,0,0.3,0c0.1,0,0.1,0,0.1,0c0,0,0.1,0,0.1-0.1c0,0,0.1-0.1,0.1-0.1c0,0,0-0.1,0-0.1
					c0,0,0,0,0-0.1c0,0,0-0.1-0.1-0.1c0,0,0,0-0.1,0c-0.1,0-0.1,0-0.2,0c-0.1,0-0.2,0-0.3,0c-0.1,0-0.1,0-0.1,0c0,0-0.1,0-0.1,0.1
					c0,0-0.1,0.1-0.1,0.1c0,0,0,0.1,0,0.1c0,0,0,0,0,0.1c0,0,0,0.1,0.1,0.1c0,0,0,0,0.1,0C55.2,22.7,55.2,22.7,55.3,22.7L55.3,22.7z
					"/>
			</g>
		</g>
		<g>
			<g>
				<path class="st2" d="M56.7,23.2c0.2,0,0.8-0.3,0.3-0.3C56.8,22.8,56.2,23.2,56.7,23.2L56.7,23.2z"/>
			</g>
		</g>
	</g>
	<g>
		<ellipse class="st0" cx="44.5" cy="23.5" rx="3.9" ry="2.9"/>
		<ellipse class="st1" cx="44.5" cy="23.8" rx="2.4" ry="1.8"/>
		<g>
			<g>
				<path class="st2" d="M43.1,24.9c0.3,0,0.8-0.5,0.3-0.5C43.1,24.4,42.6,24.9,43.1,24.9L43.1,24.9z"/>
			</g>
		</g>
		<g>
			<g>
				<path class="st2" d="M43.6,23.6c0.2,0,0.8-0.3,0.5-0.3C43.9,23.3,43.3,23.6,43.6,23.6L43.6,23.6z"/>
			</g>
		</g>
		<g>
			<g>
				<path class="st2" d="M44.2,24c0.3,0,0.8-0.4,0.3-0.4C44.2,23.6,43.7,24,44.2,24L44.2,24z"/>
			</g>
		</g>
		<g>
			<g>
				<path class="st2" d="M44.4,24.7c0.1,0,0.2,0,0.3,0c0,0,0.1,0,0.1,0c0,0,0.1,0,0.1,0c0,0,0.1,0,0.1,0c0,0,0.1,0,0.1-0.1
					c0,0,0,0,0,0c0,0,0,0,0-0.1c0,0,0,0,0,0c0,0-0.1,0-0.1,0c-0.1,0-0.2,0-0.3,0c0,0-0.1,0-0.1,0c0,0-0.1,0-0.1,0c0,0-0.1,0-0.1,0
					c0,0-0.1,0-0.1,0.1c0,0,0,0,0,0c0,0,0,0,0,0.1c0,0,0,0,0,0C44.3,24.7,44.3,24.7,44.4,24.7L44.4,24.7z"/>
			</g>
		</g>
		<g>
			<g>
				<path class="st2" d="M44.9,23.9c0.1,0.1,0.2,0.1,0.3,0.2c0,0,0.1,0,0.1,0c0,0,0.1,0,0.1,0c0,0,0.1,0,0.1,0c0,0,0.1,0,0.1-0.1
					c0,0,0,0,0.1,0c0,0,0.1-0.1,0.1-0.1c0,0,0,0,0,0c0,0,0-0.1-0.1-0.1c-0.1-0.1-0.2-0.1-0.3-0.2c0,0-0.1,0-0.1,0c0,0-0.1,0-0.1,0
					c0,0-0.1,0-0.1,0c0,0-0.1,0-0.1,0.1c0,0,0,0-0.1,0c0,0-0.1,0.1-0.1,0.1C44.9,23.8,44.9,23.8,44.9,23.9
					C44.9,23.9,44.9,23.9,44.9,23.9L44.9,23.9z"/>
			</g>
		</g>
		<g>
			<g>
				<path class="st2" d="M44.3,22.7c0.1,0,0.2,0,0.3,0c0.1,0,0.1,0,0.1,0c0,0,0.1,0,0.1-0.1c0,0,0.1-0.1,0.1-0.1c0,0,0-0.1,0-0.1
					c0,0,0,0,0-0.1c0,0,0-0.1-0.1-0.1c0,0,0,0-0.1,0c-0.1,0-0.1,0-0.2,0c-0.1,0-0.2,0-0.3,0c-0.1,0-0.1,0-0.1,0c0,0-0.1,0-0.1,0.1
					c0,0-0.1,0.1-0.1,0.1c0,0,0,0.1,0,0.1c0,0,0,0,0,0.1c0,0,0,0.1,0.1,0.1c0,0,0,0,0.1,0C44.2,22.7,44.2,22.7,44.3,22.7L44.3,22.7z
					"/>
			</g>
		</g>
		<g>
			<g>
				<path class="st2" d="M45.7,23.2c0.2,0,0.8-0.3,0.3-0.3C45.8,22.8,45.2,23.2,45.7,23.2L45.7,23.2z"/>
			</g>
		</g>
	</g>
	<g>
		<ellipse class="st0" cx="50.5" cy="26.5" rx="3.9" ry="2.9"/>
		<ellipse class="st1" cx="50.5" cy="26.8" rx="2.4" ry="1.8"/>
		<g>
			<g>
				<path class="st2" d="M49.1,27.9c0.3,0,0.8-0.5,0.3-0.5C49.1,27.4,48.6,27.9,49.1,27.9L49.1,27.9z"/>
			</g>
		</g>
		<g>
			<g>
				<path class="st2" d="M49.6,26.6c0.2,0,0.8-0.3,0.5-0.3C49.9,26.3,49.3,26.6,49.6,26.6L49.6,26.6z"/>
			</g>
		</g>
		<g>
			<g>
				<path class="st2" d="M50.2,27c0.3,0,0.8-0.4,0.3-0.4C50.2,26.6,49.7,27,50.2,27L50.2,27z"/>
			</g>
		</g>
		<g>
			<g>
				<path class="st2" d="M50.4,27.7c0.1,0,0.2,0,0.3,0c0,0,0.1,0,0.1,0c0,0,0.1,0,0.1,0c0,0,0.1,0,0.1,0c0,0,0.1,0,0.1-0.1
					c0,0,0,0,0,0c0,0,0,0,0-0.1c0,0,0,0,0,0c0,0-0.1,0-0.1,0c-0.1,0-0.2,0-0.3,0c0,0-0.1,0-0.1,0c0,0-0.1,0-0.1,0c0,0-0.1,0-0.1,0
					c0,0-0.1,0-0.1,0.1c0,0,0,0,0,0c0,0,0,0,0,0.1c0,0,0,0,0,0C50.3,27.7,50.3,27.7,50.4,27.7L50.4,27.7z"/>
			</g>
		</g>
		<g>
			<g>
				<path class="st2" d="M50.9,26.9c0.1,0.1,0.2,0.1,0.3,0.2c0,0,0.1,0,0.1,0c0,0,0.1,0,0.1,0c0,0,0.1,0,0.1,0c0,0,0.1,0,0.1-0.1
					c0,0,0,0,0.1,0c0,0,0.1-0.1,0.1-0.1c0,0,0,0,0,0c0,0,0-0.1-0.1-0.1c-0.1-0.1-0.2-0.1-0.3-0.2c0,0-0.1,0-0.1,0c0,0-0.1,0-0.1,0
					c0,0-0.1,0-0.1,0c0,0-0.1,0-0.1,0.1c0,0,0,0-0.1,0c0,0-0.1,0.1-0.1,0.1C50.9,26.8,50.9,26.8,50.9,26.9
					C50.9,26.9,50.9,26.9,50.9,26.9L50.9,26.9z"/>
			</g>
		</g>
		<g>
			<g>
				<path class="st2" d="M50.3,25.7c0.1,0,0.2,0,0.3,0c0.1,0,0.1,0,0.1,0c0,0,0.1,0,0.1-0.1c0,0,0.1-0.1,0.1-0.1c0,0,0-0.1,0-0.1
					c0,0,0,0,0-0.1c0,0,0-0.1-0.1-0.1c0,0,0,0-0.1,0c-0.1,0-0.1,0-0.2,0c-0.1,0-0.2,0-0.3,0c-0.1,0-0.1,0-0.1,0c0,0-0.1,0-0.1,0.1
					c0,0-0.1,0.1-0.1,0.1c0,0,0,0.1,0,0.1c0,0,0,0,0,0.1c0,0,0,0.1,0.1,0.1c0,0,0,0,0.1,0C50.2,25.7,50.2,25.7,50.3,25.7L50.3,25.7z
					"/>
			</g>
		</g>
		<g>
			<g>
				<path class="st2" d="M51.7,26.2c0.2,0,0.8-0.3,0.3-0.3C51.8,25.8,51.2,26.2,51.7,26.2L51.7,26.2z"/>
			</g>
		</g>
	</g>
</g>
</svg>
