<?xml version="1.0" encoding="utf-8"?>
<!-- Generator: Adobe Illustrator 25.0.1, SVG Export Plug-In . SVG Version: 6.00 Build 0)  -->
<svg version="1.1" id="Layer_1" xmlns="http://www.w3.org/2000/svg" xmlns:xlink="http://www.w3.org/1999/xlink" x="0px" y="0px"
	 viewBox="0 0 100 50" style="enable-background:new 0 0 100 50;" xml:space="preserve">
<style type="text/css">
	.st0{fill:#FFC63F;stroke:#FFC63F;stroke-miterlimit:10;}
	.st1{fill:none;stroke:#FFC63F;stroke-miterlimit:10;}
	.st2{fill:#DD9A19;stroke:#DD9A19;stroke-miterlimit:10;}
	.st3{fill:#8B5E3C;}
	.st4{fill:#69020D;}
	.st5{fill:none;stroke:#A67619;stroke-miterlimit:10;}
	.st6{fill:#902F30;}
	.st7{fill:#942D2F;}
</style>
<path class="st0" d="M42.3,29.6c0.8,0.8,1.7,1.5,2.7,2.1c0.7,0.4,1.4,0.8,2.2,0.7c1-0.2,1.5-1.2,2.3-1.7c0.5-0.3,1.1-0.4,1.6-0.6
	c0.9-0.3,1.8-1,2.2-1.9c-1.2,0.4-2.4,0.8-3.7,0.8c-2.2,0-4.2-1.3-6.4-1.4c-0.9,0-2.3-0.1-3.1,0.2C40.8,28.3,41.6,28.9,42.3,29.6z"/>
<path class="st1" d="M39.6,27.5c-1.1-0.5-2.3-0.9-3.5-0.8c-0.3,0-0.7,0.1-1,0.2c-0.9,0.1-1.9-0.1-2.8-0.5"/>
<path class="st2" d="M12.8,26.8c-0.9,1.7,0,3.9,1.4,5.3c2.9,3,7.5,3.6,11.7,3.7c1.7,0,3.4,0,5-0.4c1.9-0.4,3.7-1.1,5.6-1.6
	c1.8-0.5,3.6-0.7,5.4-0.9c2.6-0.3,5.1-0.7,7.7-1c7.5-1,15.6,2.3,23.1,1.7c3-0.2,6-0.5,8.8-1.5c0.8-0.3,1.5-0.7,2.2-1.2
	c1.2-1,1.9-2.5,2.5-3.9"/>
<ellipse class="st3" cx="50" cy="24.5" rx="40.2" ry="7.3"/>
<ellipse class="st3" cx="49.9" cy="19.7" rx="40.2" ry="7.3"/>
<path class="st0" d="M15.2,23.8c0.6,0.8,0.9,1.8,1.4,2.6c0.1,0.2,0.3,0.5,0.5,0.5c0.2,0,0.4-0.1,0.5-0.2c0.9-0.5,1.8-1.1,2.7-0.7
	c0.6,0.3,0.9,1,0.9,1.6c0,0.6-0.2,1.3-0.4,1.9c0.4,0.2,0.8-0.1,1-0.4c0.2-0.4,0.3-0.8,0.3-1.2c0.1-0.6,0.2-1.3,0.5-1.8
	c0.3-0.5,1-0.9,1.6-0.8c0.9,0.2,1.2,1.3,1.5,2.2c0.3,0.9,1.2,1.8,2,1.4c0.3-0.1,0.4-0.4,0.7-0.5c0.4-0.1,0.9,0,1.1-0.3
	c0.1-0.2,0.1-0.4,0.2-0.6c0.1-0.2,0.3-0.2,0.5-0.3c0.8-0.2,1.6-0.4,2.4-0.6c-0.9-0.5-1.8-0.9-2.7-1.4c-0.4-0.2-0.9-0.4-1.3-0.6
	c-0.7-0.2-1.5,0-2.3,0c-0.8,0-1.6-0.1-2.4-0.3c-1.8-0.3-8.8-2.9-10-1.9C14.5,22.9,14.9,23.3,15.2,23.8z"/>
<path class="st0" d="M27.4,21.4c2.6,0.6,5.3,1.3,7,3.4c0.8,1,1.8,2.4,3,1.8c1-0.5,1.4-2.2,2.4-1.8c0.3,0.1,0.5,0.4,0.7,0.5
	c0.3,0.2,0.7,0.3,1,0.3c2.6,0.6,4.8,2.8,5.4,5.4c0.1,0.7,0.3,1.5,1,1.6c0.7-2.3,1.3-4.6,1.7-7c0.1-0.6,0.2-1.1,0.6-1.5
	c0.5-0.6,1.4-0.6,2.2-0.5c2.3,0.3,4.5,1.6,6.7,1.1c0.7-0.2,1.4-0.5,2.1-0.6c1.3-0.2,2.6,0.2,3.8,0.6c0.5,1,1,2,1.4,3
	c0.1,0.3,0.3,0.6,0.6,0.7c0.5,0.1,0.9-0.5,1-1c0.4-1.2,0.7-2.4,1.1-3.6c4.4,1.2,8.7-2.1,13.3-2.4c0.7,0,1.4,0,2.1-0.1
	c1.9-0.2,3.6-1.1,5-2.4c0.2-0.2,0.4-0.4,0.3-0.6c0-0.2-0.2-0.3-0.4-0.4c-4.4-2.3-9.5-3-14.5-3.6c-4.3-0.5-8.6-1-12.9-1.6
	c-5.8-0.7-11.6-1.4-17.4-1c-2.6,0.2-5.3,0.6-7.9,0.9c-2.7,0.4-5.4,0.8-8.2,1.2c-1.7,0.3-12.5,1.4-12.5,3.8
	C15.9,19.7,26.1,21.1,27.4,21.4z"/>
<path class="st4" d="M25.8,23c1.9-0.8,3.4-2.2,5-3.3c1.7-1.1,3.7-2,5.7-1.4c1.8,0.5,3,2.1,4.6,3c2.6,1.3,5.8,0.6,8.3-0.7
	s4.7-3.4,7.3-4.8c2.5-1.4,5.7-2.2,8.3-0.9c1.9,0.9,3.3,2.8,5.2,3.6c1.8,0.8,3.9,0.5,5.7-0.3c1.8-0.8,3.4-2,4.9-3.2
	c-0.8-0.6-1.6-1.1-2.4-1.7c-2.5,2.5-6.5,3.3-9.8,1.9c-1.6-0.6-2.9-1.7-4.5-2.3c-4-1.3-8.2,0.8-11.8,3c-3.6,2.2-7.7,4.5-11.7,3.4
	c-2.4-0.6-4.5-2.4-7-2.6c-5-0.5-9,5.4-14,4.9c1.2,0.7,2.5,1.3,3.9,1.6c0.6,0.1,1.2,0.2,1.7,0.2c1.6-0.2,2.7-1.6,3.7-2.9"/>
<path class="st4" d="M24.7,17.5c1.6-0.6,3-1.7,4.5-2.6c1.5-0.9,3.3-1.5,5-0.9c1.5,0.5,2.5,2,3.9,2.8c2.2,1.3,5,0.8,7.3-0.2
	s4.3-2.7,6.6-3.8c2.3-1.1,5.1-1.6,7.3-0.4c1.6,0.9,2.7,2.6,4.4,3.4c1.5,0.7,3.4,0.6,5,0c1.6-0.6,3-1.5,4.4-2.5c-0.7-0.5-1.3-1-2-1.6
	c-2.3,2-5.8,2.5-8.6,1.2c-1.3-0.6-2.5-1.6-3.8-2.2c-3.4-1.4-7.2,0.3-10.4,2c-3.2,1.7-6.9,3.5-10.4,2.4c-2.1-0.6-3.8-2.3-5.9-2.6
	c-4.3-0.7-8.1,4.2-12.4,3.6c1,0.7,2.1,1.2,3.3,1.6c0.5,0.1,1,0.3,1.5,0.2c1.4-0.1,2.4-1.2,3.3-2.3"/>
<path class="st5" d="M15.9,30.8c-0.1-0.3,0-0.7,0.3-0.9"/>
<path class="st5" d="M17.1,31.4c0-0.3,0-0.5,0-0.8"/>
<path class="st5" d="M19.6,32.7c0.1-0.4,0.1-0.7,0.2-1.1"/>
<path class="st5" d="M22.8,33.6c-0.1-0.2-0.1-0.3-0.2-0.5"/>
<path class="st5" d="M20.3,33.6c0.3-0.5,0.6-0.9,0.9-1.4"/>
<path class="st5" d="M23.9,33.2c0.2,0,0.3-0.1,0.3-0.3"/>
<path class="st5" d="M25.9,34.3c0.1-0.2,0.1-0.3,0.2-0.5"/>
<path class="st5" d="M27.5,34.5c0.5-0.3,0.8-1,0.8-1.6"/>
<path class="st5" d="M29.8,32.9c0.1-0.1,0.2-0.1,0.3-0.2"/>
<path class="st5" d="M31.2,34c0.1-0.1,0.1-0.1,0.2-0.2"/>
<path class="st5" d="M33.1,33.7c0.1-0.2,0.1-0.3,0.2-0.5"/>
<path class="st5" d="M64.5,32.5c0.3,0.2,0.6,0.4,0.9,0.6"/>
<path class="st5" d="M66.8,31.4c0.2,0.5,0.4,1,0.6,1.5"/>
<path class="st5" d="M68.9,32.3c-0.1,0.4,0,0.8,0.1,1.2"/>
<path class="st5" d="M70.4,32.2c0.1,0.3,0.2,0.5,0.3,0.8"/>
<path class="st5" d="M72.5,31.8c0.1,0.1,0.2,0.2,0.3,0.3"/>
<path class="st5" d="M74.5,30.4c0.2,0.2,0.2,0.4,0.1,0.6"/>
<path class="st5" d="M74.8,32.2c-0.2,0.2-0.3,0.5-0.3,0.8"/>
<path class="st5" d="M76.8,31c-0.1,0.4,0,0.8,0.1,1.2"/>
<path class="st5" d="M77.9,32c0,0.2,0.1,0.5,0.3,0.6"/>
<path class="st5" d="M79.2,30.4c0,0.2,0,0.4,0,0.6"/>
<path class="st5" d="M81,30.4c0.1,0.1,0.2,0.2,0.3,0.3"/>
<path class="st0" d="M33.9,26.8c4,0.9,8.2,0.8,12.3,0.8c3.3,0,6.6-0.1,9.9-0.1c2.8,0,5.8,0,7.9,1.8c0.5,0.4,1,1,1.7,1.3
	c0.9,0.3,1.9,0,2.7-0.6c0.8-0.6,1.4-1.3,2.2-1.9c2.5-1.9,5.9-1.9,9-2c3.1-0.1,6.6-0.8,8.4-3.3c0-0.3-0.5-0.3-0.9-0.3
	c-6.6,1.7-13.3,3.5-19.9,5.2c-2.4,0.6-5.1,1.2-7.2-0.2"/>
<path class="st1" d="M34.4,26.7c-0.8,0.4-1.8,0.2-2.3-0.5"/>
<g>
	<g>
		<path class="st6" d="M26.8,15c3.1-1.3,7.1,1.1,9.8-1.4c0.1-0.1,0.1-1.3-0.1-1.2c-1.3,0.4-2.6,0.7-4,1.1c-0.2,0.1-0.2,1.1,0,1.2
			c2.5,2,6.2,1.6,9.3,1.7c0.2,0,0.2-1.1,0-1.2c-1.5-0.9-3.1-1.6-4.9-2c0,0.4,0,0.8,0,1.2c1.9-1,4.3-0.6,5.6,1.2c0-0.4,0-0.8,0-1.2
			c-2.1,0.1-4.2,0.3-6.3,0.4c-0.2,0-0.2,1.2,0,1.2c2.5,0.4,4.9,0.7,7.4,1.1c0.2,0,0.2-1.1,0-1.2c-2.7-1.9-5.9-2.7-9.2-2.3
			c0,0.4,0,0.8,0,1.2c5-3,10.4,0.2,14.7,2.9c0-0.4,0-0.8,0-1.2c-2.6,0.4-5.2-0.1-7.6-1.3c0,0.4,0,0.8,0,1.2c1.1,0.4,2.3,0.3,3.5,0.3
			c1.2,0.1,2.5,0.3,3.6,0.7c2.4,0.7,4.7,1.8,6.9,3c0,0,0.3-1.1,0-1.2c-2.5-1.2-4.9-2.5-7.4-3.7c0,0.4,0,0.8,0.1,1.2
			c1.6-1.2,3.7-1.5,5.6-0.9c0-0.4,0-0.8,0-1.2c-2-0.3-4.1-0.3-6.1-0.1c-0.2,0-0.2,1.3,0,1.2c3.2-0.2,7-0.4,9.1,2.5
			c0-0.4,0-0.8,0-1.2c-0.8,0.2-7.3,0.8-6.9-0.8c0.2-1.1,2.1-0.7,2.8-0.4c1.1,0.5,2,1.3,3.2,1.6c0.1,0,0.2-1.2,0-1.2
			c-1.4-0.4-2.9-0.9-4.3-1.3c-0.1,0-0.2,1.1,0,1.2c1.1,1,2.5,1.5,4,1.5c0.2,0,0.2-1.2,0-1.2c-1.7-0.2-3.4-0.6-5-1.1
			c-0.1,0-0.2,1.2,0,1.2c5.2,1.5,10.6,1.8,15.9,0.9c0.2,0,0.2-1.2,0-1.2c-2.9-0.3-5.9-0.7-8.8-1c0,0.4,0,0.8,0,1.2
			c1.7-0.2,3.3-0.1,5,0.3c0.1,0,0.2-1.2,0-1.2c-2.1-0.6-4.1-1.5-6-2.5c-0.1,0-0.2,1.1,0,1.2c0.5,0.4,1,0.9,1.5,1.3
			c0-0.4,0-0.8,0-1.2c-1.8,0.1-3.6-0.2-5.4-0.8c0,0.4,0,0.8,0,1.2c0.9,0,1.7,0,2.6,0c0.2,0,0.2-1.2,0-1.2c-4.2-1.1-8.5-1.4-12.8-0.8
			c-0.2,0-0.2,1.1,0,1.2c3.2,1.8,6.7,2.4,10.3,2c0.2,0,0.2-1.2,0-1.2c-1.5-0.2-2.8-0.7-4-1.5c0,0.4,0,0.8,0,1.2
			c3.1-0.5,5.9-0.3,8.8,0.8c2.9,1.1,5.8,1.3,8.8,1.3c0.2,0,0.2-1.2,0-1.2c-2.7-0.7-5.4-1.2-8.2-1.3c0,0.4,0,0.8,0,1.2
			c1.3-0.1,2.6-0.2,3.9-0.3c0.2,0,0.2-1.1,0-1.2c-1.5-1-3.1-1.7-4.9-2.1c-1.7-0.4-3.9-0.7-5.6,0c-0.9,0.3-1.6,0.9-2.5,1.1
			c-1,0.2-2,0-3-0.1c-2.2-0.2-4.3-0.5-6.5-0.7c-0.2,0-0.2,1.2,0,1.2c2,0.2,4,0.4,6.1,0.6c1,0.1,2.1,0.3,3.1,0.2c1-0.1,1.7-0.5,2.6-1
			c1.6-0.8,3.7-0.6,5.4-0.3c2,0.4,3.8,1.1,5.4,2.2c0-0.4,0-0.8,0-1.2c-1.3,0.1-2.6,0.2-3.9,0.3c-0.2,0-0.2,1.2,0,1.2
			c2.8,0.2,5.5,0.6,8.2,1.3c0-0.4,0-0.8,0-1.2c-3.1,0-5.9-0.2-8.8-1.3c-2.9-1.1-5.7-1.3-8.8-0.8c-0.2,0-0.2,1.1,0,1.2
			c1.2,0.8,2.6,1.4,4,1.6c0-0.4,0-0.8,0-1.2c-3.6,0.5-7.1-0.2-10.3-2c0,0.4,0,0.8,0,1.2c4.3-0.6,8.6-0.3,12.8,0.8c0-0.4,0-0.8,0-1.2
			c-0.9,0-1.7,0-2.6,0c-0.2,0-0.2,1.2,0,1.2c1.7,0.6,3.5,0.8,5.4,0.8c0.2,0,0.1-1.1,0-1.2c-0.5-0.4-1-0.9-1.5-1.3c0,0.4,0,0.8,0,1.2
			c1.9,1,3.9,1.9,6,2.5c0-0.4,0-0.8,0-1.2c-1.7-0.4-3.3-0.5-5-0.3c-0.2,0-0.2,1.2,0,1.2c2.9,0.3,5.9,0.7,8.8,1c0-0.4,0-0.8,0-1.2
			c-5.3,1-10.7,0.7-15.9-0.9c0,0.4,0,0.8,0,1.2c1.7,0.5,3.3,0.8,5,1.1c0-0.4,0-0.8,0-1.2c-1.5,0-2.8-0.4-3.9-1.5c0,0.4,0,0.8,0,1.2
			c1.4,0.4,2.9,0.9,4.3,1.3c0-0.4,0-0.8,0-1.2c-1.6-0.4-3-2.1-4.8-1.9c-1.1,0.1-1.6,1.1-1.6,2.1c0,1,0.3,1.6,1.4,1.9
			c1.9,0.6,4.1,0.4,6,0c0.3-0.1,0.1-1.1,0-1.2c-2.2-2.9-5.9-2.8-9.2-2.6c0,0.4,0,0.8,0,1.2c2.1-0.2,4.1-0.2,6.1,0.1
			c0.1,0,0.2-1.2,0-1.2c-2-0.6-4-0.3-5.7,1c-0.2,0.1-0.1,1.1,0.1,1.2c2.5,1.2,4.9,2.5,7.4,3.7c0-0.4,0-0.8,0-1.2
			c-2.2-1.1-4.5-2.3-6.9-3c-1.1-0.3-2.3-0.6-3.4-0.7c-1.2-0.1-2.5,0.1-3.7-0.4c-0.1,0-0.2,1.1,0,1.2c2.4,1.2,4.9,1.6,7.6,1.3
			c0.2,0,0.2-1.1,0-1.2c-4.3-2.8-9.8-6-14.7-3c-0.2,0.1-0.2,1.3,0,1.2c3.2-0.4,6.4,0.3,9.1,2.2c0-0.4,0-0.8,0-1.2
			c-2.5-0.4-4.9-0.7-7.4-1.1c0,0.4,0,0.8,0,1.2c2.1-0.1,4.2-0.3,6.3-0.4c0.2,0,0.1-1.1,0-1.2c-1.4-1.7-3.8-2.2-5.7-1.2
			c-0.2,0.1-0.2,1.2,0,1.2c1.7,0.4,3.3,1.1,4.8,2c0-0.4,0-0.8,0-1.2c-3-0.1-6.7,0.3-9.2-1.7c0,0.4,0,0.8,0,1.2
			c1.3-0.4,2.6-0.7,4-1.1c0-0.4,0-0.8-0.1-1.2c-2.7,2.5-6.7,0.1-9.8,1.4C26.5,13.9,26.8,15.1,26.8,15L26.8,15z"/>
	</g>
</g>
<g>
	<g>
		<path class="st6" d="M37,14c3.1,0.1,6.1,0.1,9.2,0.2c0-0.4,0-0.8-0.1-1.2c-1.4,1.1-3.1,1.5-4.9,1.2c0,0.4,0,0.8,0,1.2
			c2.3,0.4,4.6,0.5,6.9,0.3c0.2,0,0.2-1.2,0-1.2c-2-0.1-4.1-0.3-6.1-0.7c0,0.4,0,0.8,0,1.2c2.3-0.8,4.8-1.2,7.2-1.2
			c0-0.4,0-0.8,0-1.2c-1.9,0.3-3.8,0.6-5.7,0.9c-0.2,0-0.2,1.2,0,1.2c3.2,0.5,6.3,1,9.5,1.5c0-0.4,0-0.8,0-1.2
			c-1.6,0.3-3.2,0.5-4.9,0.8c-0.2,0-0.2,1.2,0,1.2c1.6,0.4,3.2,0.7,4.9,0.8c0.2,0,0.2-1.2,0-1.2c-1.1-0.4-2.3-0.9-3.4-1.3
			c0,0.4,0,0.8,0,1.2c1.6,0.3,3.1,0.7,4.6,1.3c0-0.4,0-0.8,0-1.2c-0.6,0-1.2,0.1-1.8,0.4c-0.2,0.1-0.2,1.1,0,1.2
			c1.1,1.1,2.4,1.7,4,1.6c0.2,0,0.2-1.2,0-1.2c-1.3-0.1-2.5-0.1-3.8-0.2c0,0.4,0,0.8,0,1.2c2-0.1,3.9-0.4,5.8-0.9
			c0.2-0.1,0.2-1.2,0-1.2c-0.9-0.1-1.7-0.1-2.6,0c0,0.4,0,0.8,0,1.2c0.9-0.6,1.8-1.1,2.7-1.7c0.2-0.1,0.2-1.2,0-1.2
			c-1.3-0.2-2.5-0.4-3.8-0.6c0,0.4,0,0.8,0,1.2c1.5-0.2,3-0.3,4.5-0.5c0.2,0,0.2-1.2,0-1.2c-1.8-0.6-3.6-1.2-5.4-1.9
			c0,0.4,0,0.8,0,1.2c1.5-0.1,2.9-0.1,4.4,0.1c0-0.4,0-0.8,0-1.2c-2.2,0.7-4.4,0.7-6.5-0.1c0,0.4,0,0.8,0,1.2c1.4,0,2.7,0.1,4.1,0.1
			c0-0.4,0-0.8,0-1.2c-2.4,0.8-4.9,1.1-7.5,1c0,0.4,0,0.8,0,1.2c2.8-1.3,5.8-2,8.9-1.9c0.2,0,0.2-1.1,0-1.2
			c-1.3-0.6-2.5-1.1-3.9-1.4c-0.1,0-0.2,1.1,0,1.2c1.7,0.9,3.4,1.7,5.2,2.3c0-0.4,0-0.8,0-1.2c-2.1-0.3-4.3-0.5-6.4-0.8
			c0,0.4,0,0.8,0,1.2c2.4,0.3,4.8,0.5,7.2,0.8c0.2,0,0.2-1.1,0-1.2c-0.7-0.4-1.5-0.8-2.2-1.2c0,0.4,0,0.8,0,1.2
			c0.7,0.2,2.5,1,2.6,1.9c0-0.3,0.1-0.5,0.1-0.8c-0.5,0.7-2.1,0.5-2.9,0.6c-1,0.1-2.1,0.2-3.1,0.3c-0.2,0-0.2,1.2,0,1.2
			c1.9,0.8,3.8,1.2,5.8,1.2c0.2,0,0.2-1.2,0-1.2c-2.1-0.3-4.1-0.2-6.2,0.2c-0.2,0-0.1,1.3,0,1.2c4.2-0.5,8.4-1.2,12.5-2.2
			c0.2,0,0.2-1.2,0-1.2c-2.1-0.3-4.2-0.6-6.3-0.8c-0.2,0-0.1,1.1,0,1.2c1.4,1.2,3.2,0.9,4.8,0.8c2.2-0.2,4.4,0,6.6,0.6
			c0-0.4,0-0.8,0-1.2c-3.2,0-6.5,0.1-9.7,0.1c-0.2,0-0.2,1.2,0,1.2c3.2,0.9,6.4,1.3,9.7,1.2c0.2,0,0.2-1.2,0-1.2
			c-2.4-1-4.9-1.5-7.5-1.3c-0.2,0-0.2,1.2,0,1.2c3.7,0.2,7.4,0.3,11.1,0.5c0.2,0,0.2-1.2,0-1.2c-2.7-0.5-5.4-0.9-8.1-1
			c-0.2,0-0.2,1.2,0,1.2c2.5,0.4,5,0.8,7.6,1.1c0-0.4,0-0.8,0-1.2c-2.2-0.2-4.5-0.3-6.7-0.2c-0.2,0-0.2,1.2,0,1.2
			c2.3,0.8,4.8,1.1,7.2,1c0.2,0,0.2-1.2,0-1.2c-1.8-0.3-3.6-0.7-5.4-1c-0.1,0-0.2,1.2,0,1.2c1.8,0.3,3.6,0.7,5.4,1
			c0-0.4,0-0.8,0-1.2c-2.5,0.1-4.9-0.2-7.2-1c0,0.4,0,0.8,0,1.2c2.2-0.1,4.5,0,6.7,0.2c0.1,0,0.2-1.2,0-1.2c-2.5-0.4-5-0.8-7.6-1.1
			c0,0.4,0,0.8,0,1.2c2.7,0.1,5.4,0.4,8.1,1c0-0.4,0-0.8,0-1.2c-3.7-0.2-7.4-0.3-11.1-0.5c0,0.4,0,0.8,0,1.2
			c2.6-0.2,5.1,0.2,7.5,1.3c0-0.4,0-0.8,0-1.2c-3.3,0.1-6.6-0.3-9.7-1.2c0,0.4,0,0.8,0,1.2c3.2,0,6.5-0.1,9.7-0.1
			c0.2,0,0.2-1.2,0-1.2c-2-0.6-4.1-0.8-6.2-0.6c-1.8,0.1-3.7,0.5-5.1-0.7c0,0.4,0,0.8,0,1.2c2.1,0.3,4.2,0.6,6.3,0.8
			c0-0.4,0-0.8,0-1.2c-4.1,0.9-8.3,1.6-12.5,2.2c0,0.4,0,0.8,0,1.2c2.1-0.4,4.1-0.5,6.2-0.2c0-0.4,0-0.8,0-1.2c-2-0.1-4-0.5-5.8-1.2
			c0,0.4,0,0.8,0,1.2c1.4-0.2,2.9-0.3,4.3-0.5c0.8-0.1,1.7,0,1.8-0.9c0.3-1.7-1.5-2.8-2.8-3.3c-0.1,0-0.2,1.1,0,1.2
			c0.7,0.4,1.5,0.8,2.2,1.2c0-0.4,0-0.8,0-1.2c-2.4-0.3-4.8-0.5-7.2-0.8c-0.1,0-0.2,1.2,0,1.2c2.1,0.3,4.3,0.5,6.4,0.8
			c0.2,0,0.2-1.2,0-1.2c-1.8-0.7-3.5-1.4-5.2-2.3c0,0.4,0,0.8,0,1.2c1.4,0.3,2.7,0.7,3.9,1.4c0-0.4,0-0.8,0-1.2
			c-3.1-0.1-6.1,0.6-8.9,1.9c-0.2,0.1-0.2,1.2,0,1.2c2.6,0.1,5-0.2,7.5-1c0.2-0.1,0.2-1.2,0-1.2c-1.4,0-2.7-0.1-4.1-0.1
			c-0.2,0-0.2,1.2,0,1.2c2.1,0.8,4.4,0.8,6.5,0.1c0.2-0.1,0.2-1.2,0-1.2c-1.5-0.2-2.9-0.2-4.4-0.1c-0.2,0-0.2,1.2,0,1.2
			c1.8,0.6,3.6,1.2,5.4,1.9c0-0.4,0-0.8,0-1.2c-1.5,0.2-3,0.3-4.5,0.5c-0.2,0-0.2,1.2,0,1.2c1.3,0.2,2.5,0.4,3.8,0.6
			c0-0.4,0-0.8,0-1.2c-0.9,0.6-1.8,1.1-2.7,1.7c-0.2,0.1-0.2,1.3,0,1.2c0.9-0.1,1.7-0.1,2.6,0c0-0.4,0-0.8,0-1.2
			c-1.9,0.5-3.9,0.8-5.8,0.9c-0.2,0-0.2,1.2,0,1.2c1.3,0.1,2.5,0.1,3.8,0.2c0-0.4,0-0.8,0-1.2c-1.5,0.1-2.9-0.4-3.9-1.6
			c0,0.4,0,0.8,0,1.2c0.6-0.3,1.1-0.4,1.8-0.4c0.2,0,0.2-1.2,0-1.2c-1.5-0.6-3-1-4.6-1.3c-0.1,0-0.2,1.1,0,1.2
			c1.1,0.4,2.3,0.9,3.4,1.3c0-0.4,0-0.8,0-1.2c-1.7-0.1-3.3-0.4-4.9-0.8c0,0.4,0,0.8,0,1.2c1.6-0.3,3.2-0.5,4.9-0.8
			c0.2,0,0.2-1.2,0-1.2c-3.2-0.5-6.3-1-9.5-1.5c0,0.4,0,0.8,0,1.2c1.9-0.3,3.8-0.6,5.7-0.9c0.2,0,0.2-1.2,0-1.2
			c-2.5,0-4.9,0.3-7.2,1.2c-0.2,0.1-0.2,1.2,0,1.2c2,0.4,4,0.6,6.1,0.7c0-0.4,0-0.8,0-1.2c-2.3,0.1-4.6,0-6.9-0.3
			c-0.1,0-0.2,1.2,0,1.2c1.8,0.3,3.5-0.1,4.9-1.2c0.1-0.1,0.1-1.2-0.1-1.2c-3.1-0.1-6.1-0.1-9.2-0.2C36.8,12.7,36.8,14,37,14L37,14z
			"/>
	</g>
</g>
<g>
	<g>
		<path class="st7" d="M34,14.2c1.4,0,2.8,0.4,3.9,1.3c0-0.4,0-0.8,0-1.2c-1.1,0-2.2,0-3.3,0c0,0.4,0,0.8,0,1.2
			c1.4,0,2.8-0.1,4.1-0.4c0.2,0,0.2-1.2,0-1.2c-0.9-0.3-1.9-0.3-2.8-0.2c-0.1,0-0.1,0.2-0.1,0.2c0,0.3-0.1,0.8,0,1.1
			c0.2,0.5,0.7,0.3,1.2,0.3c1.4-0.2,2.8-0.4,4.2-0.6c2.9-0.5,5.8-0.9,8.8-0.5c0-0.4,0-0.8,0-1.2c-0.8,0-1.5-0.1-2.3-0.1
			c-0.2,0-0.2,1.1,0,1.2c0.7,0.3,1.3,0.5,2.1,0.5c0-0.4,0-0.8,0-1.2c-0.8,0.4-1.6,0.5-2.4,0.5c-0.2,0-0.2,1.2,0,1.2
			c0.3,0.1,0.4,0,0.6-0.1c0.2-0.2,0-1.3-0.1-1.2c-0.2,0.2-0.4,0.2-0.5,0.1c0,0.4,0,0.8,0,1.2c0.9,0,1.6-0.1,2.4-0.5
			c0.2-0.1,0.2-1.2,0-1.2c-0.7,0-1.4-0.2-2.1-0.5c0,0.4,0,0.8,0,1.2c0.8,0,1.5,0.1,2.3,0.1c0.2,0,0.2-1.2,0-1.2
			c-2.4-0.3-4.7-0.1-7.1,0.2c-1.2,0.2-2.3,0.4-3.5,0.6c-0.6,0.1-1.2,0.2-1.8,0.3c-0.4,0.1-1.3,0.3-1.6,0c0,0.3,0.1,0.7,0.1,1
			c0,0,0-0.1,0-0.1c0,0.1-0.1,0.1-0.1,0.2c1-0.1,1.9-0.1,2.8,0.2c0-0.4,0-0.8,0-1.2c-1.4,0.2-2.8,0.4-4.1,0.4c-0.2,0-0.2,1.2,0,1.2
			c1.1,0,2.2,0,3.3,0c0.2,0,0.1-1.1,0-1.2c-1.1-0.9-2.5-1.4-4-1.3C33.7,12.9,33.8,14.2,34,14.2L34,14.2z"/>
	</g>
</g>
<path class="st4" d="M25.8,23c1.9-0.8,3.4-2.2,5-3.3c1.7-1.1,3.7-2,5.7-1.4c1.8,0.5,3,2.1,4.6,3c2.6,1.3,5.8,0.6,8.3-0.7
	s4.7-3.4,7.3-4.8c2.5-1.4,5.7-2.2,8.3-0.9c1.9,0.9,3.3,2.8,5.2,3.6c1.8,0.8,3.9,0.5,5.7-0.3c1.8-0.8,3.4-2,4.9-3.2
	c-0.8-0.6-1.6-1.1-2.4-1.7c-2.5,2.5-6.5,3.3-9.8,1.9c-1.6-0.6-2.9-1.7-4.5-2.3c-4-1.3-8.2,0.8-11.8,3c-3.6,2.2-7.7,4.5-11.7,3.4
	c-2.4-0.6-4.5-2.4-7-2.6c-5-0.5-9,5.4-14,4.9c1.2,0.7,2.5,1.3,3.9,1.6c0.6,0.1,1.2,0.2,1.7,0.2c1.6-0.2,2.7-1.6,3.7-2.9"/>
</svg>
