<?xml version="1.0" encoding="utf-8"?>
<!-- Generator: Adobe Illustrator 25.0.1, SVG Export Plug-In . SVG Version: 6.00 Build 0)  -->
<svg version="1.1" id="Layer_1" xmlns="http://www.w3.org/2000/svg" xmlns:xlink="http://www.w3.org/1999/xlink" x="0px" y="0px"
	 viewBox="0 0 100 50" style="enable-background:new 0 0 100 50;" xml:space="preserve">
<style type="text/css">
	.st0{fill:#FFF777;stroke:#F4B600;stroke-width:0.25;stroke-miterlimit:10;}
	.st1{fill:#F4B692;stroke:#F4B692;stroke-width:0.25;stroke-miterlimit:10;}
	.st2{fill:#A2AA00;}
</style>
<g>
	<path class="st0" d="M40.6,24c1-0.6,2.1-0.9,3.2-1.2c2.3-0.6,4.6-1.2,6.9-1.8c0.2-0.1,0.5-0.1,0.7-0.1c0.6,0.2,0.6,1.2,0.2,1.6
		c-0.5,0.5-1.2,0.5-1.8,0.6c-2.7,0.4-5.1,1.7-7.5,2.8c-1.7,0.8-4.6,2.5-6.4,1.9C36.7,26.5,39.2,24.8,40.6,24z"/>
	<path class="st0" d="M53.5,20.3c0.5,0.1,0.9,0.3,1.4,0.5c1.7,0.6,3.5,1,5.3,1.3c0.3,0.7,0.1,1.6-0.3,2.2c-0.5,0.6-1.3,0.9-2.1,0.8
		c-1.4-1.3-3.4-2.1-5.3-2.5c-1.2-0.2-8.1,0-7.1-1.7C46.6,19.1,52.1,19.9,53.5,20.3z"/>
	<path class="st0" d="M57.7,20.8c0.2-0.3,0.3-0.8,0.1-1c-0.1-0.1-0.3-0.2-0.5-0.3c-1.6-0.4-3.1,0.7-4.4,1.6c-4,2.6-8.5,3.3-12.9,4.7
		c2.3,2.1,6.3,0.6,8.9-0.2C52,24.5,55.9,23.9,57.7,20.8z"/>
	<path class="st0" d="M37.4,26.3c-0.3-0.4-0.6-0.9-0.6-1.4c-0.1-0.5,0.1-1.1,0.6-1.4c0.7-0.5,1.7-0.1,2.4,0.4
		c1.9,1.1,3.8,2.3,5.9,2.9c1.2,0.3,5.9,0.6,2.3,2.2C45.3,30.2,39.3,28.5,37.4,26.3z"/>
	<path class="st0" d="M64.9,23.9c0.2,0.7,0.3,1.4,0.2,2.1c-2.6,0.3-4.9,1.4-7.3,2.3c-1.5,0.6-5.3,2.3-7,1.5c-1.1-0.6,0.1-1,1-1.5
		C55.9,26.3,60.6,25.5,64.9,23.9z"/>
	<path class="st0" d="M58.1,23.1c2.7-1.5,5.8-1.6,8.9-1.6c0.4,0.8-0.1,1.8-0.9,2.3c-0.7,0.5-1.6,0.6-2.5,0.8c-2.2,0.4-4.4,1.1-6.5,2
		c-0.6,0.3-1.2,0.5-1.8,0.5c-0.6,0-1.4-0.5-1.5-1.1c-0.2-0.9,0-0.5,0.5-1C55,24.3,57.1,23.6,58.1,23.1z"/>
	<path class="st0" d="M54.6,22.9c0.6-0.4,1.3-0.7,1.8-0.4c0.4,0.2,0.5,0.8,0.4,1.2c-0.1,0.4-0.4,0.8-0.7,1.2
		c-0.8,0.8-7.8,6.1-8.1,5.8C45.7,29,53.6,23.6,54.6,22.9z"/>
	<path class="st0" d="M43.4,26.7c0.5,0,1.1,0,1.6,0.3c0.2,0.2,0.4,0.4,0.7,0.6c0.5,0.4,1.1,0.5,1.7,0.9s0.8,1.2,0.4,1.6
		c-0.4,0.4-1.1,0.2-1.6,0c-2.1-0.9-4.4-1.6-6.6-1.6c-1.4,0-2.6,0.3-3.8-0.4c1.6,0,3.2,0.1,4.8,0c1.8-0.2,3.7-0.5,5.5-0.2
		c1.1,0.2,2.1,0.6,3.2,0.7c1.1,0.1,2.2,0,3.2,0.3c1,0.2,2.1,1,2.2,2c-2.1,0-4.2-0.5-6.2-0.8c-3.2-0.5-6.4-0.5-9.6-0.6
		c-1.2,0-5.3,0.1-5.8-1.2C32.1,26.4,42.2,26.8,43.4,26.7z"/>
	<path class="st1" d="M40.4,26c0.4,0.8,1.1,1.6,2.1,1.7c0.9,0.2,2-0.4,2.2-1.3c0.4,0.5,0.7,1,1.1,1.5c0.1-0.4,0.7-0.5,1.1-0.3
		s0.8,0.4,1.2,0.4c1.1-0.1,1.2-2,2.3-2.3c0.9,1.4,2.3,2.4,3.9,2.8c0.2,0.1,0.5,0.1,0.7,0c1.1-0.3,0.7-2.3,1.8-2.6
		c1.3,0.7,2.6,1.3,4,1.8c0.2,0.1,0.5,0.2,0.8,0.1c0.2-0.1,0.4-0.3,0.5-0.5c0.7-1.3,1.1-2.7,1.2-4.2c0.7,0.2,1.5-0.2,1.8-0.9
		c0.3-0.7,0-1.6-0.7-1.9c-1.2-0.6-2.6,0.5-4,0.3c-1.4-0.2-2.6-1.7-3.9-1.3c-0.7,0.3-1.2,1.1-2,1.1c-1.1,0.1-1.9-1.3-2.9-1.1
		c-0.3,0.1-0.6,0.3-0.9,0.4c-0.5,0.1-1-0.1-1.4-0.2c-1.7-0.2-2.9,1.6-3.7,3.2c0.2-0.5-3.5-1-3.9-0.9c-1.2,0.2-2.2,1.1-3.3,1.5
		c-1.9,0.9-3,1.8-2.9,4.3C37.2,27.7,39,26.9,40.4,26z"/>
	<path class="st0" d="M45.9,25.8c-0.1,0.2-0.2,0.5-0.2,0.7c0,0.5,0.7,0.8,1.2,0.7c0.5-0.1,0.9-0.5,1.2-0.9c1.2-1.6,2.1-2.8,3.7-3.9
		C49.1,21.8,47,23.7,45.9,25.8z"/>
	<path class="st0" d="M56.7,23.2c0.9-0.2,1.6,0.7,2,1.6c0.2,0.4,0.4,0.9,0.7,1.2c0.3,0.3,0.9,0.5,1.3,0.2c0.4-0.2,0.5-0.8,0.3-1.2
		c-0.1-0.4-0.5-0.8-0.8-1c-0.8-0.6-1.6-1.1-2.6-1.5c-0.4-0.2-1.1-0.2-1.2,0.3c-0.1,0.4,0.4,0.7,0.8,0.8"/>
	<path class="st0" d="M40.9,23c-0.4-0.6-1-1-1.7-1.2c0.1-0.4,0.4-0.7,0.8-0.7c0.4,0,0.7,0.2,1,0.5c0.8,0.7,1.6,1.3,2.5,2
		c-1.1,0.4-2.4-0.1-3-1"/>
	<g>
		<g>
			<path class="st2" d="M38.7,25.8c0.4,0,0.6-0.5,0.1-0.5C38.3,25.3,38.2,25.8,38.7,25.8L38.7,25.8z"/>
		</g>
	</g>
	<g>
		<g>
			<path class="st2" d="M40.5,25.5c0.3,0,0.8-0.4,0.3-0.4C40.5,25,40,25.5,40.5,25.5L40.5,25.5z"/>
		</g>
	</g>
	<g>
		<g>
			<path class="st2" d="M42.8,25.9c0.3,0,0.8-0.4,0.3-0.4C42.8,25.5,42.3,25.9,42.8,25.9L42.8,25.9z"/>
		</g>
	</g>
	<g>
		<g>
			<path class="st2" d="M40.2,24.1c0.3,0,0.8-0.5,0.3-0.5C40.2,23.6,39.7,24.1,40.2,24.1L40.2,24.1z"/>
		</g>
	</g>
	<g>
		<g>
			<path class="st2" d="M43.1,25.3c0.3,0,0.8-0.4,0.3-0.4C43.1,24.9,42.6,25.3,43.1,25.3L43.1,25.3z"/>
		</g>
	</g>
	<g>
		<g>
			<path class="st2" d="M45.2,23.9c0.3,0,0.8-0.4,0.3-0.4C45.2,23.5,44.7,23.9,45.2,23.9L45.2,23.9z"/>
		</g>
	</g>
	<g>
		<g>
			<path class="st2" d="M44.8,26.2c0.2,0,0.8-0.3,0.3-0.3C44.8,25.8,44.3,26.2,44.8,26.2L44.8,26.2z"/>
		</g>
	</g>
	<g>
		<g>
			<path class="st2" d="M46.9,22.1c0.3,0,0.8-0.4,0.3-0.4C46.9,21.7,46.4,22.1,46.9,22.1L46.9,22.1z"/>
		</g>
	</g>
	<g>
		<g>
			<path class="st2" d="M49.2,21.2c0.3,0,0.8-0.4,0.3-0.4C49.2,20.8,48.7,21.2,49.2,21.2L49.2,21.2z"/>
		</g>
	</g>
	<g>
		<g>
			<path class="st2" d="M52.6,22c0.4,0,0.6-0.5,0.1-0.5C52.3,21.5,52.1,22,52.6,22L52.6,22z"/>
		</g>
	</g>
	<g>
		<g>
			<path class="st2" d="M51.9,24.4c0.3,0,0.8-0.4,0.3-0.4C51.9,24,51.4,24.4,51.9,24.4L51.9,24.4z"/>
		</g>
	</g>
	<g>
		<g>
			<path class="st2" d="M49,26c0.2,0,0.8-0.3,0.3-0.3C49.1,25.7,48.5,26,49,26L49,26z"/>
		</g>
	</g>
	<g>
		<g>
			<path class="st2" d="M53,25.3c0.3,0,0.7-0.5,0.3-0.5C52.9,24.8,52.5,25.3,53,25.3L53,25.3z"/>
		</g>
	</g>
	<g>
		<g>
			<path class="st2" d="M53.3,26.4c0.3,0,0.8-0.5,0.3-0.5C53.2,25.9,52.8,26.4,53.3,26.4L53.3,26.4z"/>
		</g>
	</g>
	<g>
		<g>
			<path class="st2" d="M53.7,25.9c0.3,0,0.8-0.4,0.3-0.4C53.8,25.5,53.2,25.9,53.7,25.9L53.7,25.9z"/>
		</g>
	</g>
	<g>
		<g>
			<path class="st2" d="M55.3,25.6c0.3,0,0.8-0.5,0.3-0.5C55.2,25.2,54.8,25.6,55.3,25.6L55.3,25.6z"/>
		</g>
	</g>
	<g>
		<g>
			<path class="st2" d="M53.9,23.2c0.3,0,0.8-0.5,0.3-0.5C53.8,22.7,53.4,23.2,53.9,23.2L53.9,23.2z"/>
		</g>
	</g>
	<g>
		<g>
			<path class="st2" d="M55.4,21.2c0.2,0,0.8-0.4,0.3-0.4C55.5,20.8,54.9,21.2,55.4,21.2L55.4,21.2z"/>
		</g>
	</g>
	<g>
		<g>
			<path class="st2" d="M56.4,24.4c0.4,0,0.6-0.5,0.1-0.5C56.1,23.9,55.9,24.4,56.4,24.4L56.4,24.4z"/>
		</g>
	</g>
	<g>
		<g>
			<path class="st2" d="M58.3,24.6c0.2,0,0.8-0.3,0.3-0.3C58.4,24.3,57.8,24.6,58.3,24.6L58.3,24.6z"/>
		</g>
	</g>
	<g>
		<g>
			<path class="st2" d="M60.9,26.9c0.2,0,0.8-0.3,0.3-0.3C61,26.6,60.4,26.9,60.9,26.9L60.9,26.9z"/>
		</g>
	</g>
	<g>
		<g>
			<path class="st2" d="M62.1,22.7c0.3,0,0.8-0.4,0.3-0.4C62.1,22.3,61.6,22.7,62.1,22.7L62.1,22.7z"/>
		</g>
	</g>
	<g>
		<g>
			<path class="st2" d="M59.4,21.5c0.3,0,0.7-0.5,0.3-0.5C59.3,21,58.9,21.5,59.4,21.5L59.4,21.5z"/>
		</g>
	</g>
	<g>
		<g>
			<path class="st2" d="M61.5,22.8c0.2,0,0.8-0.3,0.3-0.3C61.5,22.5,61,22.8,61.5,22.8L61.5,22.8z"/>
		</g>
	</g>
	<g>
		<g>
			<path class="st2" d="M61.7,21c0.2,0,0.8-0.3,0.5-0.3C62,20.7,61.3,21,61.7,21L61.7,21z"/>
		</g>
	</g>
	<g>
		<g>
			<path class="st2" d="M62.6,22.1c0.3,0,0.8-0.5,0.3-0.5C62.5,21.7,62.1,22.1,62.6,22.1L62.6,22.1z"/>
		</g>
	</g>
	<g>
		<g>
			<path class="st2" d="M61,24.3c0.4,0,0.6-0.5,0.1-0.5C60.6,23.7,60.5,24.3,61,24.3L61,24.3z"/>
		</g>
	</g>
	<g>
		<g>
			<path class="st2" d="M57.8,21.1c0.4,0,0.6-0.5,0.1-0.5C57.5,20.6,57.3,21.1,57.8,21.1L57.8,21.1z"/>
		</g>
	</g>
</g>
</svg>
