<?xml version="1.0" encoding="utf-8"?>
<!-- Generator: Adobe Illustrator 25.0.1, SVG Export Plug-In . SVG Version: 6.00 Build 0)  -->
<svg version="1.1" id="Layer_1" xmlns="http://www.w3.org/2000/svg" xmlns:xlink="http://www.w3.org/1999/xlink" x="0px" y="0px"
	 viewBox="0 0 100 50" style="enable-background:new 0 0 100 50;" xml:space="preserve">
<style type="text/css">
	.st0{fill:#FFFFE0;stroke:#FFFFE0;stroke-width:0.25;stroke-miterlimit:10;}
	.st1{fill:#9F6200;stroke:#9F6200;stroke-width:0.25;stroke-miterlimit:10;}
	.st2{fill:#D13FA5;stroke:#D13FA5;stroke-width:0.25;stroke-miterlimit:10;}
</style>
<g>
	<path class="st0" d="M25.2,23.2c1.2,2.5,4.6,3.1,7.4,2.7c2.8-0.3,5.7-1.1,8.3-0.1c2.3,0.9,3.9,3.2,6.3,4.1c1.9,0.7,4,0.3,5.9-0.1
		c4.1-0.8,8.3-1.6,12.4-2.5c2-0.4,4-0.8,6-1.2c0.7-0.1,1.5-0.3,2.1-0.7c0.6-0.4,1.1-1.2,0.9-1.9c-2.2-1.8-5.3-2.1-8.2-1.9
		c-2.9,0.2-5.7,0.9-8.6,0.5c-2.8-0.4-5.3-1.7-8.1-2c-1.6-0.2-3.2-0.1-4.8,0c-3.5,0.2-7.2,0.1-10.7,0.6
		C31.2,21.1,28.1,22.3,25.2,23.2z"/>
	<path class="st1" d="M53.2,22.9c0.2,0.3,0.5,0.5,0.6,0.8c0.5,0.9-0.3,2.1-1.3,2.6c-1,0.4-2.1,0.4-3.2,0.8c-0.2,0.1-0.5,0.2-0.6,0.4
		c-0.5,0.7,0.7,1.5,1.5,1.4c1.6-0.3,3.1-1.9,4.6-1.3c0.8,0.3,1.3,1.2,2.1,1.2c0.3,0,0.6-0.2,0.9-0.3c1-0.3,2-0.1,3,0.1
		c3.4,0.6,7.1,0.6,10.1-1.2c1.8-1.1,3.4-2.9,5.4-2.8c0.4-0.5,0.1-1.4-0.4-1.8c-0.5-0.4-1.2-0.6-1.9-0.7c-1.5-0.3-2.9-0.6-4.4-0.9
		c-1.1-0.2-2.3-0.5-3.5-0.4c-0.9,0.1-1.7,0.3-2.5,0.4C62.4,21.3,51.4,19.9,53.2,22.9z"/>
	<path class="st2" d="M24.1,23.7c-0.5,0.4-1,1-0.7,1.6c0.1,0.2,0.3,0.3,0.5,0.4c1.6,1,3.3,1.7,5.2,2.1c0.6,0.1,1.3,0.2,1.8,0.6
		c0.4,0.3,0.7,0.7,1.2,1c0.8,0.4,1.8,0.1,2.6-0.3c0.8-0.5,1.5-1.1,2.4-1.4c0.8-0.3,1.6-0.2,2.4-0.4c1.3-0.3,2.3-1.3,2.8-2.5
		c0.2-0.5,0.3-1.1,0-1.6c-0.3-0.7-1.2-1-1.7-1.6c-0.3-0.4-0.6-0.9-1-1.2c-0.4-0.2-0.8-0.3-1.3-0.3c-1.8-0.1-3.5-0.2-5.3-0.3
		C29.1,19.5,27.1,21.3,24.1,23.7z"/>
</g>
</svg>
