<?xml version="1.0" encoding="utf-8"?>
<!-- Generator: Adobe Illustrator 25.0.1, SVG Export Plug-In . SVG Version: 6.00 Build 0)  -->
<svg version="1.1" id="Layer_1" xmlns="http://www.w3.org/2000/svg" xmlns:xlink="http://www.w3.org/1999/xlink" x="0px" y="0px"
	 viewBox="0 0 100 50" style="enable-background:new 0 0 100 50;" xml:space="preserve">
<style type="text/css">
	.st0{fill:#8B5E3C;}
	.st1{fill:none;stroke:#603913;stroke-miterlimit:10;}
	.st2{fill:#FFCD05;}
	.st3{fill:#FDB515;}
</style>
<ellipse class="st0" cx="50.29" cy="25.27" rx="40.15" ry="5.86"/>
<ellipse class="st0" cx="50.29" cy="29.86" rx="40.15" ry="5.86"/>
<path class="st1" d="M24.46,28.5c2.93,1.17,6.14,1.38,9.29,1.51c11.96,0.5,23.93,0.1,35.89-0.29c0.81-0.03,1.68-0.07,2.33-0.56"/>
<g>
	<path class="st2" d="M25.1,30.05c3.35-1.22,6.65,2.91,10.16,2.34c0.76-0.12,1.49-0.47,2.26-0.52c1.42-0.1,2.7,0.8,4.08,1.15
		c3,0.77,6.05-1.07,9.15-1.11c1.77-0.02,3.48,0.54,5.24,0.75c1.84,0.21,3.73,0.02,5.5-0.56c0.56-0.19,1.13-0.42,1.73-0.39
		c1.48,0.06,2.55,1.62,4.03,1.74c1.58,0.13,2.77-1.38,4.25-1.94c1.51-0.57,3.22-0.1,4.81-0.38c1.24-0.22,2.35-0.89,3.55-1.28
		c1.71-0.56,3.61-0.53,5.3,0.08c0.49-0.3,0.98-0.6,1.47-0.89c0.35-0.62-0.13-1.45-0.79-1.73c-0.66-0.28-1.41-0.16-2.12-0.04
		c-1.58,0.27-3.17,0.54-4.7,0.99c-2.28,0.67-4.46,1.74-6.82,2.05c-1.17,0.15-2.35,0.11-3.53,0.16c-3.54,0.15-6.99,1.11-10.52,1.47
		c-2.77,0.28-5.57,0.18-8.36,0.08c-8.49-0.3-17.01-0.6-25.38-2.07c-4.07-0.71-8.08-1.7-12.02-2.96c0.58,1.75,2.61,2.54,4.44,2.75
		c1.83,0.21,3.78,0.11,5.39,0.99c-2.23-1.37-4.86-2.07-7.47-1.98"/>
	<g>
		<path class="st3" d="M25.27,30.66c3.52-1.12,6.52,2.95,10.16,2.34c1.23-0.21,2.16-0.68,3.43-0.31c1.09,0.31,2.06,0.88,3.19,1.06
			c2.17,0.33,4.26-0.42,6.34-0.89c2.51-0.56,4.68,0.03,7.16,0.37c1.23,0.17,2.45,0.18,3.68,0.02c0.52-0.07,1.03-0.16,1.53-0.29
			c0.77-0.2,1.64-0.68,2.45-0.63c0.97,0.06,1.76,0.88,2.59,1.3c0.71,0.36,1.46,0.54,2.25,0.38c0.83-0.17,1.54-0.67,2.24-1.12
			c1.15-0.75,2.18-1.07,3.57-1.06c1.09,0.01,2.15,0.05,3.21-0.25c1.16-0.33,2.21-0.95,3.37-1.26c1.37-0.36,2.75-0.29,4.11,0.06
			c0.89,0.23,1.76-0.2,2.44-0.87c1.1-1.08-0.27-2.69-1.41-2.94c-0.97-0.21-2.04,0.08-2.99,0.24c-1.26,0.22-2.52,0.47-3.76,0.83
			c-2.44,0.72-4.75,1.87-7.31,2.09c-2.4,0.21-4.77,0.19-7.16,0.58c-2.64,0.43-5.26,0.97-7.94,1.11c-2.7,0.14-5.41,0-8.11-0.1
			c-12.12-0.44-24.13-1.28-35.76-4.96c-0.42-0.13-0.94,0.32-0.77,0.77c1.66,4.25,6.88,2.51,10.12,4.12
			c0.72,0.35,1.33-0.66,0.63-1.08c-2.38-1.41-5.02-2.12-7.79-2.07c-0.8,0.01-0.81,1.26,0,1.25c2.56-0.04,4.96,0.59,7.16,1.9
			c0.21-0.36,0.42-0.72,0.63-1.08c-1.62-0.8-3.31-0.86-5.07-1.01c-1.67-0.15-3.79-0.59-4.48-2.36c-0.26,0.26-0.51,0.51-0.77,0.77
			c9.67,3.05,19.63,4.25,29.72,4.74c5.03,0.24,10.18,0.67,15.22,0.31c2.31-0.16,4.58-0.61,6.86-1c2.45-0.42,4.83-0.47,7.29-0.63
			c2.31-0.15,4.42-0.99,6.59-1.74c1.11-0.38,2.23-0.69,3.37-0.93c1.07-0.22,3.17-0.97,4.17-0.41c0.48,0.27,0.73,0.39,0.3,0.89
			c-0.16,0.19-0.48,0.32-0.71,0.35c-0.46,0.06-1.01-0.2-1.48-0.26c-1-0.14-2.03-0.1-3.02,0.11c-1.13,0.24-2.14,0.78-3.22,1.17
			c-1.23,0.44-2.42,0.39-3.7,0.4c-0.91,0-1.79,0.09-2.63,0.45c-0.85,0.37-1.55,0.99-2.37,1.42c-2.04,1.08-3.19-1.08-5.1-1.34
			c-1.02-0.14-1.93,0.31-2.89,0.58c-1.37,0.37-2.79,0.5-4.2,0.39c-2.28-0.18-4.44-0.99-6.76-0.71c-2.48,0.3-4.99,1.58-7.52,1.14
			c-1.17-0.2-2.2-0.86-3.36-1.13c-0.97-0.23-1.84-0.08-2.79,0.18c-4.01,1.13-7.09-3.38-11.1-2.1C24.17,29.7,24.5,30.9,25.27,30.66
			L25.27,30.66z"/>
	</g>
</g>
<g>
	<path class="st2" d="M14.93,23.83c-1.33,1.2-0.74,3.61,0.78,4.55s3.51,0.69,5.15-0.02c1.46-0.63,3.07-1.61,4.5-0.92
		c0.51,0.25,0.91,0.69,1.29,1.12c0.79,0.89,1.57,1.78,2.36,2.66c0.11,0.12,0.23,0.25,0.39,0.28c0.15,0.03,0.31-0.03,0.45-0.1
		c2.4-1.16,4-3.75,6.57-4.48c4.96-1.42,9.67,4.87,14.67,3.56c2.1-0.55,4.21-2.39,6.13-1.39c0.55,0.29,0.98,0.79,1.57,1.01
		c1.11,0.41,2.28-0.32,3.36-0.79c2.42-1.05,5.18-0.86,7.82-0.67c1.52,0.11,3.14,0.19,4.45-0.58c0.37-0.22,0.7-0.5,1.11-0.62
		c1.01-0.29,1.98,0.47,2.93,0.91c1.86,0.86,4.24,0.41,5.66-1.05c0.8-0.82,1.49-2.02,2.64-2.06c0.93-0.03,2.23,0.57,2.55-0.3
		c-2.86-2.16-6.42-3.39-10-3.44c-1.66-0.03-3.31,0.19-4.97,0.06c-1.44-0.11-2.84-0.48-4.27-0.65c-3.76-0.45-7.53,0.46-11.3,0.71
		c-7.16,0.48-14.25-1.4-21.42-1.71c-7.87-0.35-15.7,1.2-23.29,3.31"/>
	<g>
		<path class="st3" d="M14.49,23.38c-1.58,1.63-0.95,4.38,0.91,5.53c1.12,0.7,2.5,0.81,3.78,0.6c1.73-0.29,3.34-1.69,5.09-1.68
			c1.63,0.01,3.02,2.42,4.01,3.5c0.85,0.94,1.45,0.92,2.52,0.26c2.55-1.55,4.39-4.56,7.73-4.23c2.72,0.28,5.09,2.09,7.57,3.1
			c2.53,1.04,4.67,0.95,7.15-0.16c0.81-0.36,1.67-0.84,2.58-0.88c1.02-0.05,1.5,0.6,2.3,1.05c1.36,0.76,2.68,0.1,3.96-0.46
			c1.8-0.8,3.7-0.95,5.65-0.88c1.62,0.06,3.27,0.34,4.89,0.13c0.96-0.12,1.6-0.51,2.45-0.89c1.32-0.59,2.03,0.08,3.2,0.58
			c1.45,0.62,3.09,0.59,4.53-0.03c0.66-0.28,1.24-0.68,1.74-1.18c0.65-0.65,1.2-1.73,2.2-1.87c1.13-0.16,2.37,0.69,3.09-0.61
			c0.18-0.32,0.05-0.65-0.22-0.86c-3.66-2.7-7.87-3.67-12.35-3.48c-1.28,0.05-2.53,0.09-3.8-0.09c-1.29-0.18-2.57-0.48-3.87-0.6
			c-2.52-0.23-5.04,0.12-7.53,0.42c-5.21,0.64-10.25,0.28-15.43-0.4c-5.18-0.68-10.31-1.25-15.54-0.87
			c-5.84,0.42-11.57,1.68-17.2,3.24c-0.77,0.21-0.45,1.42,0.33,1.21c4.98-1.38,10.04-2.53,15.19-3.05c5.06-0.5,10.04-0.2,15.07,0.45
			c4.89,0.63,9.8,1.38,14.74,0.99c2.52-0.2,5.01-0.66,7.54-0.77c2.51-0.11,4.85,0.49,7.32,0.73c2.65,0.25,5.27-0.27,7.92,0.23
			c2.54,0.48,4.9,1.55,6.98,3.09c-0.07-0.29-0.15-0.57-0.22-0.86c-0.24,0.44-1.3,0.01-1.72,0c-0.44-0.01-0.84,0.04-1.24,0.23
			c-1.3,0.6-1.88,2.09-3.15,2.77c-1.34,0.72-2.9,0.68-4.24,0.01c-1.2-0.59-2.28-1.23-3.59-0.57c-0.72,0.36-1.3,0.79-2.11,0.93
			c-0.9,0.16-1.84,0.08-2.75,0.02c-1.62-0.11-3.25-0.24-4.87-0.07c-1.44,0.15-2.69,0.58-4,1.16c-0.96,0.43-1.7,0.63-2.64,0.09
			c-0.63-0.37-1.09-0.81-1.84-0.96c-2.69-0.53-4.89,2.09-7.65,1.76c-2.46-0.29-4.62-1.83-6.83-2.82c-1.95-0.88-4.12-1.49-6.22-0.75
			c-1.13,0.4-2.09,1.13-3,1.89c-0.47,0.4-0.92,0.81-1.4,1.2c-0.34,0.28-0.67,0.55-1.04,0.79c-0.2,0.14-0.41,0.26-0.62,0.38
			c-0.32,0.19-0.55,0.11-0.7-0.25c-1.25-0.87-1.87-2.53-3.18-3.37c-1.22-0.78-2.59-0.47-3.85,0.04c-1.67,0.68-3.34,1.63-5.2,1.1
			c-1.6-0.45-2.9-2.55-1.54-3.95C15.93,23.69,15.05,22.8,14.49,23.38L14.49,23.38z"/>
	</g>
</g>
<g>
	<g>
		<path class="st3" d="M43.32,20.41c4.44,0.29,8.89,0.59,13.33,0.88c4.15,0.27,8.36,0.75,12.49,0.09c0.79-0.13,0.46-1.33-0.33-1.21
			c-4.17,0.67-8.47,0.11-12.66-0.17c-4.28-0.28-8.56-0.57-12.84-0.85C42.51,19.1,42.52,20.36,43.32,20.41L43.32,20.41z"/>
	</g>
</g>
</svg>
