<?xml version="1.0" encoding="utf-8"?>
<!-- Generator: Adobe Illustrator 25.0.1, SVG Export Plug-In . SVG Version: 6.00 Build 0)  -->
<svg version="1.1" id="Layer_1" xmlns="http://www.w3.org/2000/svg" xmlns:xlink="http://www.w3.org/1999/xlink" x="0px" y="0px"
	 viewBox="0 0 100 50" style="enable-background:new 0 0 100 50;" xml:space="preserve">
<style type="text/css">
	.st0{fill:#B48400;stroke:#CC9900;stroke-width:0.5;stroke-miterlimit:10;}
	.st1{fill:none;stroke:#CC9900;stroke-width:0.5;stroke-miterlimit:10;}
	.st2{fill:none;stroke:#CB2026;stroke-width:3;stroke-miterlimit:10;}
	.st3{fill:#2AA200;stroke:#2AA200;stroke-width:0.5;stroke-miterlimit:10;}
	.st4{fill:#FFFFFF;}
</style>
<path class="st0" d="M29.3,21.4c0.6,0.1,1.3,0.2,1.9,0.1c0.5,0,0.9-0.2,1.4-0.3c1.9-0.3,3.9,0.4,5.8,0.7c2.2,0.4,4.6,0.3,6.9,0.2
	c4.7-0.3,9.4-0.6,14.1-1c1.8-0.2,3.7-0.3,5.4,0c0.9,0.2,1.8,0.4,2.7,0.3c0.6-0.1,1-0.3,1.6-0.5c1.7-0.6,3.9-0.3,5.9-0.1
	c1.5,0.2,3.1,0.4,4.3,1c0.8,0.4,1.3,0.9,1.7,1.4c0.7,1.1,0.7,2.4-0.5,3.3c-1.2,1-3.6,1.4-5.4,0.9c-0.4-0.1-0.7-0.3-1.2-0.2
	c-0.4,0-0.8,0.2-1.1,0.3c-1.2,0.4-2.6,0.6-4,0.7c-5.3,0.5-10.6,1-15.9,0.9c-1.1,0-2.1-0.1-3.2,0c-0.9,0.1-1.8,0.2-2.8,0.3
	c-2.3,0.2-4.6-0.1-6.9-0.3c-6.7-0.4-13.9,0.6-20-0.9c-0.9-0.2-1.9-0.8-1.3-1.3c0.2-0.2,0.6-0.2,0.8-0.4c1.1-0.6-0.4-1.5-0.8-2.3
	c-0.7-1.4,1.8-1.7,3.2-2.3c1.4-0.5,0.9-0.7,2.8-0.8C26.2,21,27.9,21.2,29.3,21.4z"/>
<path class="st1" d="M22.7,23c-0.3,0-0.6,0-0.8,0.2c-0.2,0.6-0.2,1.3,0,2c0.1,0.2,0.1,0.3,0.1,0.5c0,0.3-0.3,0.6-0.6,0.8
	c-0.2,0.2-0.5,0.6-0.2,0.9"/>
<line class="st2" x1="24.1" y1="19.5" x2="48.5" y2="22.1"/>
<line class="st2" x1="49.4" y1="22.7" x2="76.6" y2="20.1"/>
<path class="st3" d="M21.3,20.9c-0.5-1.1-0.6-2.6,0.3-3.3c0.7-0.5,1.6-0.3,2.5-0.2c2.2,0.1,4.3-1.4,5.1-3.6c0.8,1.1,1.5,2.2,2.6,3
	c1.1,0.7,2.5,1.1,3.6,0.4c0.4-0.2,0.9-0.6,1.3-0.6c0.5,0,1,0.4,1.5,0.7c1.1,0.6,2.5,0.3,3.3-0.6c0.9,1.1,1.8,2.2,2.7,3.3
	c1.2,0.6,2.3-1.1,3.6-1.5c0.6-0.2,1.1-0.1,1.7,0c3,0.2,6-0.4,8.6-1.9c0.4-0.2,0.7-0.4,1.2-0.4c0.8,0,1.3,1,1.9,1.5
	c1.1,0.9,2.6,0.6,3.9,0.2c2.2-0.6,4.3-1.3,6.5-2.1c1-0.4,2.1-0.8,3.2-0.6c0.6,0.1,1.2,0.5,1.8,0.8c0.7,0.4,1.3,0.8,2,1.1
	c0.7,0.4,1.5,0.9,2,1.6c0.5,0.7,0.7,1.8,0.2,2.6c-1.6,0.3-3.2-0.6-4.7-1.3s-3.4-1.2-4.6-0.1c-1.3,1.1-2,3.5-3.5,3.1
	c-1.1-0.2-1.5-1.7-2.6-2.2c-1-0.4-2.1,0.4-3.2,0.5c-1.4,0.1-2.9-1.2-4.1-0.4c-0.7,0.4-1.1,1.4-1.9,1.4c-0.5,0-0.8-0.4-1.3-0.6
	c-1.9-1-3.9,0.9-5.8,1.6c-2,0.7-4.2,0-6.2-1c-2-0.9-3.9-2.1-6-2.4c-2.1-0.3-4.6,0.5-5.5,2.6c0.6-1.4-3.6-2.8-4.3-2.8
	C25.3,19.8,23.2,20.6,21.3,20.9z"/>
<path class="st3" d="M20.9,19c-1,1.7-1.9,3.4-2.7,5.1c1.3,0,2.5-0.5,3.5-1.4c0.1-0.1,0.3-0.3,0.5-0.3c0.6-0.2,1.1,0.4,1.8,0.5
	c0.8,0.1,1.4-0.8,1.7-1.5s1.1-1.6,1.9-1.3"/>
<path class="st3" d="M73.5,19.1c0.6,0.5,1.3,0.9,1.9,1.4c0.5,0.4,1.1,0.8,1.4,1.5c0.1,0.3,0.2,0.7,0.3,1.1c0.1,0.5,0.4,1,0.8,1.3
	c0.3,0.3,0.9,0.5,1.2,0.2c0.2-0.2,0.2-0.7,0.5-0.9c0.1-0.1,0.3-0.1,0.5-0.1c0.5,0,1,0,1.5,0c0.1,0,0.3,0,0.4-0.1
	c0.1-0.1,0.1-0.3,0.1-0.4c0-1.4-0.5-2.9-1.3-4"/>
<g>
	<g>
		<path class="st4" d="M26.7,16.8c2.8,0.5,5.6,0.7,8.4,0.8c0.3,0,2.8-0.5,2.3-1.1c-0.7-0.8-1.6-1.1-2.6-1.1c-0.3,0-2.7,0.6-2.4,1
			c1.2,1.4,2.9,2,4.7,2.4c2.4,0.4,4.9,0.7,7.4,1c0.3,0,3.1-0.6,2.6-1c-2.4-1.9-5.2-2.8-8.3-3c-0.3,0-2.9,0.5-2.3,1.1
			c4.2,4,10.4,3.1,15.6,2.3c0.1,0,2.2-0.7,1.6-1c-2.6-1.5-5.7-1.2-8.3,0c-0.2,0.1-1,0.6-0.4,0.7c2.8,0.4,5.6,0.1,8.4-0.5
			c2.9-0.6,5.8-1.8,8.7-0.6c0.9-0.3,1.7-0.7,2.6-1c-2.2-0.7-4.6-0.8-6.9-0.2c-0.1,0-2.2,0.6-1.6,1c2.1,1.4,4.8,1.2,7.2,0.6
			c3.1-0.7,6.2-1.7,9.3-2.6c-0.2-0.2-0.4-0.5-0.6-0.7c-4.2,1.6-8.6,1.7-12.9,0.6c-0.8,0.4-1.6,0.7-2.4,1.1c1.2,0.2,2.2,0.5,3.3,0.9
			c0.9-0.3,1.8-0.6,2.7-1c-5.3-2.1-11-0.7-16.2,0.7c-0.2,0-2,0.8-1.1,1c3.5,0.7,7.1,0.8,10.7,0.4c0.2,0,2.8-0.8,1.8-1.1
			c-2.6-0.8-5.2-0.8-7.8-0.2c-0.7,0.2-2.1,1.1-0.5,1c1.7-0.1,3.4-0.3,5.1-0.4c0.2,0,2.4-0.6,2.1-0.9c-1-1.3-2.4-1.4-3.9-1.1
			c-0.3,0.1-1.7,0.3-1.7,0.8c0,0.5,0.8,0.3,1.2,0.2c0.5-0.1,1.3,0.5,1.6,0.9c0.7-0.3,1.4-0.6,2.1-0.9c-1.7,0.1-3.4,0.3-5.1,0.4
			c-0.2,0.3-0.3,0.7-0.5,1c1.7-0.4,3.5-0.1,5.2,0.4c0.6-0.4,1.2-0.7,1.8-1.1c-3.2,0.4-6.4,0.3-9.6-0.3c-0.4,0.3-0.7,0.6-1.1,1
			c4.3-1.2,8.9-2.3,13.3-0.6c0.6,0.2,1.3,0,1.9-0.2c0.1,0,1.3-0.6,0.9-0.8c-1.2-0.5-2.4-0.9-3.6-1c-0.7-0.1-1.4,0.1-2,0.4
			c-0.3,0.1-1,0.5-0.4,0.7c5.4,1.4,11.1,1,16.3-1.1c0.2-0.1,1.1-0.4,0.9-0.7c-0.2-0.3-1.3,0-1.5,0c-2.5,0.7-4.9,1.4-7.4,2.1
			c-2.1,0.6-4.2,1-6.2-0.3c-0.5,0.3-1.1,0.7-1.6,1c1.7-0.4,3.4-0.2,5,0.3c0.5,0.2,1.4-0.1,1.9-0.3c0.1,0,1.1-0.5,0.7-0.7
			c-2.5-1-5.2-0.8-7.8-0.2c-3.2,0.7-6.3,1.6-9.6,1.2c-0.1,0.2-0.2,0.5-0.4,0.7c1.3-0.6,2.8,0,3.9,0.6c0.5-0.3,1.1-0.7,1.6-1
			c-4.6,0.7-9.7,1.2-13.4-2.3c-0.8,0.4-1.5,0.7-2.3,1.1c2.7,0.1,5.3,1.1,7.4,2.8c0.9-0.3,1.7-0.7,2.6-1c-2.2-0.3-4.4-0.5-6.6-0.9
			c-1.8-0.3-3.7-0.7-4.9-2.2c-0.8,0.3-1.6,0.6-2.4,1c0.7,0,1.3,0.4,1.7,0.9c0.8-0.4,1.5-0.7,2.3-1.1c-2.7-0.1-5.3-0.3-7.9-0.8
			c-0.7-0.1-1.4,0.1-2,0.4C26.9,16.2,26,16.7,26.7,16.8L26.7,16.8z"/>
	</g>
</g>
</svg>
