<?xml version="1.0" encoding="utf-8"?>
<!-- Generator: Adobe Illustrator 25.0.1, SVG Export Plug-In . SVG Version: 6.00 Build 0)  -->
<svg version="1.1" id="Layer_1" xmlns="http://www.w3.org/2000/svg" xmlns:xlink="http://www.w3.org/1999/xlink" x="0px" y="0px"
	 viewBox="0 0 100 50" style="enable-background:new 0 0 100 50;" xml:space="preserve">
<style type="text/css">
	.st0{fill:#8B5E3C;}
	.st1{fill:none;stroke:#603913;stroke-miterlimit:10;}
	.st2{fill:#FCF6B0;stroke:#FCF6B0;stroke-miterlimit:10;}
	.st3{fill:#FDF6AE;stroke:#F8F4B0;stroke-miterlimit:10;}
	.st4{fill:#69020D;}
	.st5{fill:#69020D;stroke:#69020D;stroke-miterlimit:10;}
	.st6{fill:none;stroke:#EF3F3B;stroke-width:3;stroke-miterlimit:10;}
	.st7{fill:#FFFFFF;}
</style>
<ellipse class="st0" cx="50" cy="24.8" rx="40.2" ry="8.6"/>
<line class="st1" x1="34.3" y1="24.9" x2="44.4" y2="19.7"/>
<line class="st1" x1="45.7" y1="25.5" x2="53.9" y2="20"/>
<line class="st1" x1="56.9" y1="25.6" x2="64.2" y2="20.2"/>
<path class="st1" d="M29.8,27.2c11.7,2.2,23.7,2.3,35.4,0.4"/>
<path class="st2" d="M27.1,29.2c0.7,0.8,1.4,1.8,2.4,1.7c1.2-0.1,2.2-1.5,3.2-0.9c0.3,0.2,0.6,0.6,1,0.6c0.3,0,0.5-0.2,0.7-0.3
	c1.1-0.4,1.9,1.3,3,1.5c1,0.2,1.8-0.6,2.8-1.1c2.4-1.2,5.8,0.3,7.8-1.5c-2.1-0.9-4.4-0.9-6.7-0.9c-6.8-0.1-13.4-1.2-20-2.5
	C23.3,27.1,25.5,27.3,27.1,29.2z"/>
<path class="st3" d="M40.8,28.7c1.7,0.2,3.5,0.4,5.2,0.4c5.3,0.1,10.5-1.4,15.6-3c1.5-0.5,3-0.9,4.5-0.8c1.9,0.2,3.7,1.3,5.3,2.4
	c0.3,0.2,0.6,0.4,0.9,0.4c0.5,0,0.9-0.4,1.2-0.7c1.5-1.2,3.4-1.5,5.2-1.6c1.8-0.1,3.8-0.2,5.4-1.2c1.6-0.9,2.8-3,2.2-4.8
	c-3.6-0.7-7.2-1.3-10.7-2c-3.5-0.6-7-1.3-10.6-1.5c-2.1-0.1-4.2-0.1-6.4,0c-10.3,0.3-20.6,0.6-30.9,0.8c-2,0.1-18.3,0.4-15.9,4.3
	c1.1,1.8,5.2,2.6,7,3.2c3.3,1.2,6.8,2,10.3,2.6C33,27.8,36.9,28.3,40.8,28.7z"/>
<path class="st4" d="M21.5,21c1.6-0.6,3-1.7,4.5-2.6c1.5-0.9,3.3-1.5,5-0.9c1.5,0.5,2.5,2,3.9,2.8c2.2,1.3,5,0.8,7.3-0.2
	s4.3-2.7,6.6-3.8c2.3-1.1,5.1-1.6,7.3-0.4c1.6,0.9,2.7,2.6,4.4,3.4c1.5,0.7,3.4,0.6,5,0c1.6-0.6,3-1.5,4.4-2.5c-0.7-0.5-1.3-1-2-1.6
	c-2.3,2-5.8,2.5-8.6,1.2c-1.3-0.6-2.5-1.6-3.8-2.2c-3.4-1.4-7.2,0.3-10.4,2c-3.2,1.7-6.9,3.5-10.4,2.4c-2.1-0.6-3.8-2.3-5.9-2.6
	c-4.3-0.7-8.1,4.2-12.4,3.6c1,0.7,2.1,1.2,3.3,1.6c0.5,0.1,1,0.3,1.5,0.2c1.4-0.1,2.4-1.2,3.3-2.3"/>
<path class="st5" d="M45.1,16.5c0.8-0.7,1.7-1.5,2.7-1.6c1.1-0.1,2.2,0.4,3.1,1c1.5,0.9,3,1.8,4.5,2.7c1.6,0.9,3.3,1.9,5,1.6
	c2.4-0.3,4-2.5,6.3-3.2c3.3-0.9,7.3,1.7,10.1-0.3c0.6,1.2,1.6,2.2,2.7,2.8c-3.4,2.5-8.2,3.1-12.1,1.5c-1.1-0.5-2.3-1.1-3.5-0.9
	c-1.1,0.2-1.9,1.1-2.8,1.6c-2.2,1.2-5,0.2-7.2-0.8c-2.3-1.1-4.8-2.3-7.2-1.6c-1.6,0.5-2.9,1.7-4.1,2.9c-1.2,1.2-2.5,2.5-3.8,3.7
	c-0.8,0.8-2.2,2.8-3.3,3.1c-1.5,0.5-4.3-1.4-3.1-3c1.1-1.6,4.2-2.4,5.8-3.6C40.8,20.6,42.9,18.5,45.1,16.5z"/>
<path class="st3" d="M40.1,33.7c1,0.2,2,0.6,2.9,1.1c0.4,0.2,2.3,1.6,2.6,1.5c4.8-1.5,9.7-2.6,14.7-3.5c-2.1-0.1-4.2,0.1-6.2,0.2
	c-2.5,0.2-5,0.4-7.6,0.7c-1.2,0.1-4.4,1.3-5-0.1c1.6-0.5,3.8-0.2,5.5-0.3"/>
<line class="st6" x1="20.6" y1="16.2" x2="49.1" y2="17.6"/>
<line class="st6" x1="46.7" y1="14.7" x2="74.6" y2="19.1"/>
<g>
	<g>
		<path class="st7" d="M21.5,17.9c5.5-0.3,11-0.8,16.4-1.4c0-0.4,0-0.8,0-1.2c-2.8,0.4-5.6,0.2-8.3-0.7c0,0.4,0,0.8,0,1.2
			c4.4,0,8.9,0.1,13.3,0.1c0.2,0,0.2-1.2,0-1.2c-1.3-0.2-2.5-0.4-3.8-0.6c0,0.4,0,0.8,0,1.2c2.2,0.4,4.3,1,6.3,2
			c1.2,0.6,3.3,1.8,3.7-0.3c0-0.2,0.1-1-0.1-1.1c-2.4-0.6-4.8-1.1-7.2-1.7c0,0.4,0,0.8,0,1.2c6.6-0.5,13.4-0.1,20,0.1
			c0-0.4,0-0.8,0-1.2c-5.6,0-11-3.4-16.7-1.9c-0.2,0.1-0.2,1.1,0,1.2c3.7,2.2,7.9,3.2,12.1,2.9c0.2,0,0.2-1.2,0-1.2
			c-3.6-1.5-7.5-2.3-11.4-2.5c0,0.4,0,0.8,0,1.2c3.9,0,7.9,0.1,11.7,0.7c1.9,0.3,3.8,0.7,5.6,1.3c1.8,0.6,3.6,1.6,5.5,1.4
			c0.2,0,0.2-1.2,0-1.2c-4.8-0.7-9.7-0.9-14.6-0.8c-0.2,0-0.2,1.2,0,1.2c1.9,0.3,3.5-0.5,5.4-0.8c1.9-0.3,3.6,0.3,5.5,0.7
			c1.9,0.4,4,0.4,5.9,0.2c0.9-0.1,1.8-0.4,2.7-0.5c0.4,0,0.9-0.1,1.3,0c0.3,0.1,1.4,0.5,1.4,1c0-0.2,0.1-0.3,0.1-0.5
			c-1.5,0.4-2.9-0.4-4.3-0.6c-1.4-0.3-2.9-0.4-4.4-0.4c-2.9-0.1-5.9-0.1-8.7-1.1c-0.1,0-0.3,1.1,0,1.2c2.8,1,5.8,1,8.7,1.1
			c1.4,0.1,2.8,0.1,4.2,0.4c1.5,0.3,3,1.1,4.5,0.7c0.1,0,0.1-0.4,0.1-0.5c0-1.4-0.6-2.5-2.1-2.7c-1-0.1-2.1,0.3-3.1,0.4
			c-1.3,0.2-2.5,0.2-3.8,0.2c-2.3-0.1-4.5-1.1-6.8-1.1c-2.3,0-4.3,1.2-6.6,0.9c0,0.4,0,0.8,0,1.2c4.9-0.2,9.8,0.1,14.6,0.8
			c0-0.4,0-0.8,0-1.2c-1.9,0.2-3.7-0.9-5.5-1.4c-1.8-0.6-3.7-1-5.6-1.3c-3.9-0.6-7.8-0.7-11.7-0.7c-0.2,0-0.2,1.2,0,1.2
			c3.9,0.2,7.8,1,11.4,2.5c0-0.4,0-0.8,0-1.2c-4.2,0.3-8.4-0.7-12.1-2.8c0,0.4,0,0.8,0,1.2C51,12,56.4,15.5,62,15.5
			c0.2,0,0.2-1.2,0-1.2c-6.6-0.1-13.4-0.6-20-0.1c-0.2,0-0.2,1.2,0,1.2c2.4,0.6,4.8,1.1,7.2,1.7c0-0.4-0.1-0.7-0.1-1.1
			c-0.4,2.1-3.6-0.1-4.5-0.5c-1.7-0.7-3.5-1.2-5.4-1.5c-0.1,0-0.2,1.2,0,1.2c1.3,0.2,2.5,0.4,3.8,0.6c0-0.4,0-0.8,0-1.2
			c-4.4,0-8.9-0.1-13.3-0.1c-0.2,0-0.2,1.2,0,1.2c2.7,0.9,5.5,1.1,8.3,0.7c0.2,0,0.1-1.3,0-1.2c-5.5,0.7-10.9,1.1-16.4,1.4
			C21.3,16.7,21.3,17.9,21.5,17.9L21.5,17.9z"/>
	</g>
</g>
<g>
	<g>
		<path class="st7" d="M25.9,17.1c3.3-0.6,6.1-3.9,9.7-2.8c0-0.4,0-0.8,0-1.2c-0.9,0.1-1.7,0.2-2.6,0.3c-0.7,0.1-1.6,0.1-2.3,0.3
			c-0.9,0.3-1,0.9-1,1.8c0,0.1,0,0.5,0.1,0.5c5.7,0,11.1-4.3,16.8-2.1c0-0.4,0-0.8,0-1.2c-3.2,0.6-6.5,1.2-9.8,1.7
			c0,0.4,0,0.8,0.1,1.2c1.9-1.2,4.1-1.8,6.3-1.6c0.2,0,0.2-1.2,0-1.2c-0.9-0.1-0.8,0.9-0.6,1.5c0,0,0,0.2,0.1,0.2
			c0.5,0.1,0.3-1,0.3-1.3c-0.1-0.5-0.2,0.7-0.2,0.9c0,0,0,0.1,0,0.1c0-0.3,0-0.7,0-1c-0.1,0-0.1,0-0.2,0c0,0.3,0,0.7,0,1
			c0.1-0.2,0.3-0.3,0.5-0.2c0-0.4,0-0.8,0-1.2c-2.3-0.2-4.5,0.4-6.4,1.7c-0.2,0.1-0.1,1.2,0.1,1.2c3.3-0.5,6.5-1.1,9.8-1.7
			c0.2,0,0.2-1.2,0-1.2c-5.7-2.2-11.1,2.1-16.8,2.1c0,0.2,0.1,0.3,0.1,0.5c0,0.3,0.8-0.2,1-0.3c0.5-0.1,1-0.1,1.5-0.2
			c1.1-0.1,2.1-0.2,3.2-0.3c0.2,0,0.2-1.2,0-1.2c-3.6-1.1-6.4,2.3-9.7,2.8C25.6,15.9,25.8,17.1,25.9,17.1L25.9,17.1z"/>
	</g>
</g>
<g>
	<g>
		<path class="st7" d="M46.1,16.8c0.8,0.1,1.5,0.3,2.3,0.4c0.1,0,0.1-0.2,0.1-0.2c0-0.1,0-0.3,0-0.4c0-0.1,0-0.3-0.1-0.4
			c0-0.1,0-0.2-0.1-0.2c-0.8-0.1-1.5-0.3-2.3-0.4c-0.1,0-0.1,0.2-0.1,0.2c0,0.1,0,0.3,0,0.4c0,0.1,0,0.3,0.1,0.4
			C46.1,16.6,46.1,16.7,46.1,16.8L46.1,16.8z"/>
	</g>
</g>
<g>
	<g>
		<path class="st7" d="M48.5,15.9c-0.5,0-0.9,0-1.4,0c-0.1,0-0.1,0.2-0.1,0.2c0,0.1,0,0.3,0,0.4c0,0.1,0,0.3,0.1,0.4
			c0,0,0,0.2,0.1,0.2c0.5,0,0.9,0,1.4,0c0.1,0,0.1-0.2,0.1-0.2c0-0.1,0-0.3,0-0.4c0-0.1,0-0.3-0.1-0.4
			C48.6,16.1,48.6,15.9,48.5,15.9L48.5,15.9z"/>
	</g>
</g>
<g>
	<g>
		<path class="st7" d="M37.1,14c-0.5,0.7-1.3,0.9-2.1,1.2c-0.9,0.3-1.7,0.6-2.6,0.8c-0.9,0.2-1.8,0.5-2.6,0.6
			c-0.4,0.1-0.9,0.2-1.3,0.3c-0.3,0.1-1.2,0.4-1.4-0.1c0,0.2,0.1,0.5,0.1,0.7c0,0,0-0.1,0-0.1c0,0.1-0.1,0.3-0.1,0.4
			c0.1-0.1,0.8,0,0.9,0c0.3,0,0.7,0,1-0.1c0.6-0.1,1.2-0.3,1.8-0.6c0.2-0.1,0.2-1.1,0-1.2c-0.9-0.7-2.2-1.4-3.2-0.5
			c-0.1,0.1-0.2,1.2,0.1,1.2c1.9,0.3,3.8,0.1,5.6-0.4c0.2-0.1,0.1-1.3,0-1.2c-0.5,0.1-0.9,0.2-1.4,0.1c-0.2,0-0.4-0.1-0.6-0.3
			c-0.1-0.1-0.1-0.1-0.2-0.2c0,0-0.1-0.1-0.1-0.1c-0.1-0.2-0.1-0.1,0,0.2c0.1-0.2,0.1-0.5,0.1-0.8c0,0-0.1-0.6-0.2-0.4
			c-0.3,0.6-0.3,1.6,0,2.1c0.5,0.9,1.6,0.7,2.4,0.6c0-0.4,0-0.8,0-1.2c-1.8,0.6-3.7,0.7-5.6,0.4c0,0.4,0,0.8,0.1,1.2
			c1-0.9,2.2-0.1,3.1,0.5c0-0.4,0-0.8,0-1.2c-1.2,0.5-2.4,0.7-3.7,0.6c0,0,0,0,0,0c-0.3,0.6-0.2,1.8,0.6,1.7
			c1.2-0.1,2.4-0.4,3.6-0.7c1.2-0.3,2.3-0.6,3.4-1c0.9-0.3,2-0.6,2.5-1.4c0.1-0.2,0.1-0.5,0.1-0.8C37.3,14.4,37.2,13.9,37.1,14
			L37.1,14z"/>
	</g>
</g>
<g>
	<g>
		<path class="st7" d="M65.4,17.3c1.7,0.7,2.6,2.5,4.3,3.1c1.6,0.6,3.4,0.1,4.6-1.2c0.1-0.2,0.2-1.1-0.1-1.2
			c-2.8-1.1-5.9-2.2-8.9-1.5c-0.2,0-0.2,1.2,0,1.2c1.3,0.4,2.5,0.8,3.8,1.3c0.8,0.3,2.1,1,2.9,0.4c0.2-0.1,0.1-1.1-0.1-1.2
			c-1.6-0.7-3.3-1.4-4.9-2.1c0,0.4,0,0.8,0,1.2c1.6,0.1,3.1,0.2,4.7,0.2c1.4,0.1,2.8,0.2,4.1-0.4c0.2-0.1,0.2-1.1,0-1.2
			c-1.2-0.5-2.4-0.8-3.7-0.7c-0.2,0-0.2,1.2,0,1.2c1.2,0,2.3,0.2,3.5,0.5c0-0.4,0-0.8-0.1-1.2c-0.5,0.7-1.6,0.4-2.3,0.8
			c-0.8,0.5-1.4,1.8-2.6,1.5c0,0.4,0,0.8,0,1.2c0.6,0.2,1.3,0.3,1.9,0.5c0-0.4,0-0.8,0-1.2c-1.3,0-2.6,0.1-3.9,0.4
			c-0.5,0.1-1.3,0.6-1.7,0.1c-0.2-0.2-0.3-0.5-0.4-0.7c-0.2-0.3-0.5-0.7-0.6-1c0,0.3,0,0.6,0,1c0.1-0.2,0.9,0,1.1,0
			c0.4,0,0.9,0.1,1.3,0.1c0.9,0.1,1.8,0.2,2.7,0.3c0.1,0,0.2-1.2,0-1.2c-1.4-0.2-2.8-0.3-4.3-0.5c-0.5-0.1-1-0.2-1.1,0.4
			c-0.1,0.5,0,1,0.3,1.4c0.3,0.5,0.5,1.1,0.9,1.5c0.4,0.4,1.1,0.1,1.6-0.1c1.3-0.4,2.7-0.5,4.1-0.5c0.2,0,0.2-1.2,0-1.2
			c-0.6-0.2-1.3-0.3-1.9-0.5c-0.1,0-0.2,1.2,0,1.2c1.1,0.4,1.8-0.9,2.5-1.4c0.7-0.5,1.9-0.2,2.4-0.9c0.1-0.2,0.2-1.2-0.1-1.2
			c-1.1-0.3-2.3-0.4-3.5-0.5c0,0.4,0,0.8,0,1.2c1.3-0.1,2.5,0.2,3.7,0.7c0-0.4,0-0.8,0-1.2c-1.3,0.6-2.7,0.5-4.1,0.4
			c-1.6-0.1-3.1-0.2-4.7-0.2c-0.2,0-0.2,1.2,0,1.2c1.6,0.7,3.3,1.4,4.9,2.1c0-0.4,0-0.8-0.1-1.2c-0.4,0.3-0.9,0.2-1.3,0.1
			c-0.6-0.2-1.1-0.4-1.7-0.6c-1.2-0.4-2.4-0.8-3.6-1.2c0,0.4,0,0.8,0,1.2c3.1-0.7,6.1,0.4,8.9,1.5c0-0.4,0-0.8-0.1-1.2
			c-1.1,1.3-3,1.7-4.6,1.1c-1.6-0.7-2.5-2.4-4.2-3.1C65.3,16,65.1,17.2,65.4,17.3L65.4,17.3z"/>
	</g>
</g>
<g>
	<g>
		<path class="st7" d="M66.6,19.1c0-0.3,0-0.6,0-0.9c-0.1,0.2-0.1,0.4-0.2,0.6c0.8,0.7,1.7,1.3,2.5,2c0,0,0,0,0.1,0
			c0.1-0.2,0.2-0.3,0.3-0.5c0.1-0.2,0.1-0.5,0.1-0.8c0-0.1,0-0.3-0.1-0.4c0,0-0.1-0.1-0.1-0.1c-0.1,0.2-0.2,0.3-0.3,0.5
			c0,0,0,0,0.1,0c-0.8-0.7-1.7-1.3-2.5-2c-0.1-0.1-0.2,0.6-0.2,0.6c0,0.3,0,0.6,0,0.9c0,0.1,0,0.3,0.1,0.4c0,0,0,0.2,0.1,0.2
			C66.6,19.8,66.6,19.2,66.6,19.1L66.6,19.1z"/>
	</g>
</g>
<g>
	<g>
		<path class="st7" d="M72.7,18.7c0.3,0.2,0.5,0.3,0.8,0.5c0,0,0,0,0.1,0c0,0,0,0,0-0.1c0-0.1,0-0.1,0-0.2c0-0.1,0-0.1,0-0.2
			c0-0.2,0-0.3,0-0.5c0,0,0-0.1,0-0.1c0-0.1,0-0.1-0.1-0.2c-0.3-0.2-0.5-0.3-0.8-0.5c0,0,0,0-0.1,0c0,0,0,0,0,0.1c0,0.1,0,0.1,0,0.2
			c0,0.1,0,0.1,0,0.2c0,0.2,0,0.3,0,0.5c0,0,0,0.1,0,0.1C72.6,18.6,72.6,18.6,72.7,18.7L72.7,18.7z"/>
	</g>
</g>
<g>
	<g>
		<path class="st7" d="M72.4,19.1c0.3,0.1,0.6,0.2,0.9,0.3c0.1,0,0.1-0.2,0.1-0.2c0-0.1,0-0.3,0-0.4c0-0.1,0-0.3-0.1-0.4
			c0-0.1,0-0.2-0.1-0.2c-0.3-0.1-0.6-0.2-0.9-0.3c-0.1,0-0.1,0.2-0.1,0.2c0,0.1,0,0.3,0,0.4c0,0.1,0,0.3,0.1,0.4
			C72.3,19,72.3,19.1,72.4,19.1L72.4,19.1z"/>
	</g>
</g>
<g>
	<g>
		<path class="st7" d="M29.7,14.8c2.2-0.3,4.3-0.4,6.5-0.3c0.2,0,0.2-1.2,0-1.2c-2.2-0.2-4.4-0.1-6.5,0.3
			C29.5,13.6,29.6,14.8,29.7,14.8L29.7,14.8z"/>
	</g>
</g>
<g>
	<g>
		<path class="st7" d="M35.5,12.3c-1.9,0.1-3.8,0.5-5.6,1.2c-0.3,0.1,0,1.3,0,1.2c1.8-0.7,3.7-1.1,5.6-1.2
			C35.7,13.5,35.6,12.3,35.5,12.3L35.5,12.3z"/>
	</g>
</g>
</svg>
