<?xml version="1.0" encoding="utf-8"?>
<!-- Generator: Adobe Illustrator 25.0.1, SVG Export Plug-In . SVG Version: 6.00 Build 0)  -->
<svg version="1.1" id="Layer_1" xmlns="http://www.w3.org/2000/svg" xmlns:xlink="http://www.w3.org/1999/xlink" x="0px" y="0px"
	 viewBox="0 0 100 50" style="enable-background:new 0 0 100 50;" xml:space="preserve">
<style type="text/css">
	.st0{fill:#FFB872;stroke:#FFB872;stroke-width:0.25;stroke-miterlimit:10;}
	.st1{fill:none;stroke:#FF6400;stroke-width:0.5;stroke-miterlimit:10;}
	.st2{fill:#FFA972;stroke:#FF8B72;stroke-width:0.25;stroke-miterlimit:10;}
	.st3{fill:#FFB872;stroke:#FA9A72;stroke-width:0.25;stroke-miterlimit:10;}
</style>
<g>
	<path class="st0" d="M48.2,23.7c5.2-0.4,10.3-1.7,15-3.9c0.4,1.2,0.6,2.6,0.7,3.8c0,1.3,0,2.6-0.7,3.7c-1.1,1.8-3.6,2.2-5.7,2
		c-1.1-0.1-2.2-0.3-3.2-0.6C51.5,27.8,49.6,26.1,48.2,23.7z"/>
	<path class="st1" d="M48.7,23.8c1.6,2.9,4.7,4.8,8,5.2c1.8,0.2,3.6-0.1,5-1.1s2.3-3,1.7-4.6c-0.2-0.7-0.7-1.5-0.3-2.1"/>
	<path class="st2" d="M41.2,24.7c5.2-0.4,10.3-1.7,15-3.9c0.4,1.2,0.6,2.6,0.7,3.8c0,1.3,0,2.6-0.7,3.7c-1.1,1.8-3.6,2.2-5.7,2
		c-1.1-0.1-2.2-0.3-3.2-0.6C44.5,28.8,42.6,27.1,41.2,24.7z"/>
	<path class="st1" d="M41.7,24.8c1.6,2.9,4.7,4.8,8,5.2c1.8,0.2,3.6-0.1,5-1.1s2.3-3,1.7-4.6c-0.2-0.7-0.7-1.5-0.3-2.1"/>
	<path class="st3" d="M51.8,24.7c-5.2-0.4-10.3-1.7-15-3.9c-0.4,1.2-0.6,2.6-0.7,3.8c0,1.3,0,2.6,0.7,3.7c1.1,1.8,3.6,2.2,5.7,2
		c1.1-0.1,2.2-0.3,3.2-0.6C48.5,28.8,50.4,27.1,51.8,24.7z"/>
	<path class="st1" d="M51.3,24.8c-1.6,2.9-4.7,4.8-8,5.2c-1.8,0.2-3.6-0.1-5-1.1s-2.3-3-1.7-4.6c0.2-0.7,0.7-1.5,0.3-2.1"/>
</g>
</svg>
