<?xml version="1.0" encoding="utf-8"?>
<!-- Generator: Adobe Illustrator 25.0.1, SVG Export Plug-In . SVG Version: 6.00 Build 0)  -->
<svg version="1.1" id="Layer_1" xmlns="http://www.w3.org/2000/svg" xmlns:xlink="http://www.w3.org/1999/xlink" x="0px" y="0px"
	 viewBox="0 0 100 50" style="enable-background:new 0 0 100 50;" xml:space="preserve">
<style type="text/css">
	.st0{fill:none;stroke:#FFF4CD;stroke-width:0.25;stroke-miterlimit:10;}
	.st1{fill:#FFB61F;stroke:#FFB61F;stroke-width:0.5;stroke-miterlimit:10;}
	.st2{fill:#FFB752;stroke:#FF9049;stroke-width:0.25;stroke-miterlimit:10;}
	.st3{fill:none;stroke:#FF9049;stroke-width:0.25;stroke-miterlimit:10;}
	.st4{fill:#FFFFFF;}
	.st5{fill:#2E7400;}
</style>
<g>
	<g>
		<path class="st0" d="M51.7,36.3"/>
	</g>
</g>
<g>
	<path class="st1" d="M34.7,34.1c1,1.6,1.7,3.5,2.9,4.9c0.5,0.6,1.2,1.3,2.1,1.2c1-0.1,1.7-1.1,2.5-1.7c1.3-1.1,3.2-1.3,4.6-2.3
		c0.2-0.2,0.5-0.4,0.6-0.7c0.1-0.4-0.1-0.9-0.3-1.3c-1.4-2.3-4.2-3.1-6.8-3.5c-2.9-0.5-6.3-0.9-9.2-0.3
		C31.5,31.6,33.9,32.8,34.7,34.1z"/>
	<path class="st2" d="M39.7,34.1c2.4,0.8,4.8,1.5,7.3,1.7c2.4,0.1,4.7-0.4,7-1c7-2,13.6-5.5,20.8-7.1c1.7-0.4,3.6-0.8,4.3-2.4
		c0.9-2.1-1-4.3-3-5.3c-2.4-1.2-5.1-1.5-7.8-1.9c-5.3-0.7-10.6-1.3-15.9-2c-1.7-0.2-3.4-0.4-5.1-0.3c-2.3,0.1-4.5,0.8-6.6,1.5
		c-4.9,1.5-9.8,3.1-14.8,4.6c-3.8,1.2-8.7,5.7-2.6,7.2C29,30.4,34.4,32.4,39.7,34.1z"/>
	<path class="st3" d="M25,24.9c2.4,0.7,4.9,0.7,7.3,1.2c5.4,1.2,10.2,4.9,15.7,4.7c1.6-0.1,3.1-0.4,4.7-0.8c3.4-0.8,6.8-1.7,9.9-3.2
		c1.2-0.6,2.3-1.3,3.5-1.9c2.8-1.4,5.9-2.1,9-2.8"/>
	<g>
		<path class="st4" d="M29.2,24.4c0.3,1.1,0.6,2.3,0.9,3.4c0,0.2,0.1,0.4,0.2,0.5c0.2,0.2,0.6,0.1,0.9,0c1-0.5,1.9-1.2,2.6-2.1
			c-0.8-0.6-1.9-0.5-2.7,0.1c-0.2-0.5-0.3-1.1-0.3-1.7c-0.2-0.2-0.5,0.3-0.3,0.5s0.5,0.2,0.8,0.2c2.1-0.1,4.2-0.6,6.3-1.3
			c-1.8,0.2-3.6,0.3-5.3,0.5c4.6-1.8,8.6-5.2,13.5-5.8c3.9-0.5,7.9,0.9,11.8,0.2c0.9-0.2,1.8-0.5,2.8-0.4c0.9,0,1.9,0.5,2.2,1.4
			c0.2,0.5,0.1,1.1,0.2,1.7c0.2,1.2,1.2,2.1,1.9,3.1c0.6,1.1,0.6,2.8-0.5,3.2c-1.1,0.3-2-0.9-2.9-1.7c-2.2-1.9-5.5-1-8.4-1
			c-2.5,0-5-0.9-7.5-1c-2.7-0.1-5.3,0.6-7.9,1c-2.6,0.4-5.5,0.3-7.8-1.1c2.2-1.1,4.6-2,7-2.7c2.8-0.8,5.7-1.3,8.5-1
			c2.6,0.2,5.4,1,7.5-0.5"/>
		<g>
			<path class="st4" d="M28.6,24.5c0.3,1.1,0.5,2.3,0.9,3.4c0.2,0.5,0.4,0.8,0.9,0.9c1.4,0.3,3.1-1.4,3.9-2.4
				c0.2-0.2,0.1-0.5-0.2-0.6c-1.1-0.7-2.4-0.6-3.4,0.1c0.3,0.1,0.7,0.2,1,0.3c-0.2-0.5-0.3-1-0.3-1.6c0-0.3-0.3-0.5-0.6-0.5
				c-1.4-0.1-1.2,1.5,0.1,1.7c2.2,0.3,4.9-0.6,7-1.4c0.7-0.3,0.1-0.9-0.4-0.9c-1.8,0.2-3.6,0.3-5.3,0.5c0.1,0.3,0.3,0.6,0.4,0.9
				c4.3-1.8,8.2-5,12.9-5.7c2.6-0.4,5.3,0.1,7.9,0.3c1.2,0.1,2.4,0.1,3.5-0.1c1.2-0.2,3-1,4.2-0.3c1.2,0.7,0.7,2.2,1.2,3.3
				c0.4,0.9,1.2,1.6,1.7,2.5c0.3,0.5,0.4,1.1,0.3,1.6c-0.1,0.9-1.1,0.9-1.6,0.4c-0.7-0.6-1.3-1.3-2.1-1.8c-1.8-0.9-3.9-0.7-5.8-0.5
				c-2.7,0.2-5.1-0.4-7.8-0.7c-2.9-0.4-5.7,0.2-8.6,0.6c-2.9,0.5-5.9,0.7-8.5-0.9c0,0.2,0.1,0.5,0.1,0.7c4-2,8.6-3.6,13.2-3.7
				c3.3,0,6.9,1.4,9.9-0.6c0.6-0.4-0.4-1-0.8-0.7c-1.8,1.2-3.9,0.8-5.9,0.6c-1.9-0.2-3.7-0.3-5.6,0c-4,0.5-7.9,1.9-11.5,3.7
				c-0.4,0.2-0.2,0.6,0.1,0.7c5.3,3.2,11.1-0.3,16.7,0.3c1.5,0.1,3,0.5,4.4,0.7c1.5,0.2,2.9,0.2,4.4,0.1c1.3-0.1,2.6-0.3,3.8,0
				c1.6,0.3,2.3,1.4,3.5,2.3c1.3,0.9,3.1,0.6,3.4-1.1c0.2-0.9-0.2-1.8-0.7-2.5c-0.3-0.5-0.7-0.9-1-1.3c-0.6-0.8-0.6-1.6-0.7-2.5
				c-0.3-2.2-2.7-2.5-4.5-2.2c-1.6,0.3-3.1,0.6-4.8,0.5c-1.5-0.1-3-0.3-4.5-0.4c-3.2-0.2-6.1,0.3-9,1.6c-2.9,1.3-5.5,3-8.5,4.2
				c-0.7,0.3-0.1,0.9,0.4,0.9c1.8-0.2,3.6-0.3,5.3-0.5c-0.1-0.3-0.3-0.6-0.4-0.9c-1,0.4-2.1,0.7-3.2,0.9c-0.4,0.1-0.9,0.2-1.4,0.2
				c-0.2,0-1.5,0-1.6,0.1C31,24.9,30.8,25,30.7,25c0.1,0,0.1,0,0.2,0c-0.2-0.2-0.4-0.3-0.6-0.5c0,0.7,0.1,1.2,0.3,1.8
				c0.1,0.4,0.7,0.5,1,0.3c0.6-0.4,1.3-0.4,1.9-0.1c-0.1-0.2-0.1-0.4-0.2-0.6c-0.5,0.6-2,2.4-2.6,1.6c-0.2-0.3-0.3-1.1-0.4-1.5
				c-0.1-0.6-0.3-1.1-0.4-1.7C29.7,23.8,28.4,23.9,28.6,24.5L28.6,24.5z"/>
		</g>
	</g>
	<g>
		<g>
			<path class="st4" d="M47.3,19.4c1.1,0.1,2.2,0.1,3.3,0.2c0.2,0,0.3,0,0.5,0c0.1,0,0.2,0,0.3-0.1c0.1-0.1-0.4-0.2-0.4-0.2
				c-1.1-0.1-2.2-0.1-3.3-0.2c-0.2,0-0.3,0-0.5,0c-0.1,0-0.2,0-0.3,0.1C46.7,19.3,47.2,19.4,47.3,19.4L47.3,19.4z"/>
		</g>
	</g>
	<g>
		<g>
			<path class="st4" d="M47,19.8c1.3-0.5,2.7-0.8,4.2-0.7c0-0.1-0.1-0.2-0.1-0.3c-1.6,0.5-3.2,0.7-4.8,0.7c-0.2,0-0.5,0-0.7,0.1
				c-0.1,0.1,0,0.2,0.1,0.2c1.9,0.4,3.9,0.5,5.8,0.4c0.1,0,0.6,0,0.6-0.2c0-0.2-0.5-0.2-0.6-0.1c-1.6,0-3.3-0.1-4.9-0.4
				c-0.2,0.1-0.4,0.2-0.6,0.3c2,0.1,4.1-0.2,6-0.8c0.3-0.1,0.1-0.3-0.1-0.3c-1.9-0.2-3.9,0.1-5.7,0.8c-0.2,0.1-0.2,0.2,0,0.3
				C46.3,19.9,46.7,19.9,47,19.8L47,19.8z"/>
		</g>
	</g>
	<g>
		<g>
			<path class="st5" d="M30.6,27.3c0.8,0,0.7-1.1,0-1.1C29.7,26.2,29.8,27.3,30.6,27.3L30.6,27.3z"/>
		</g>
	</g>
	<g>
		<g>
			<path class="st5" d="M33.6,23.5c0.8,0,0.6-1.2-0.1-1.2C32.7,22.3,32.9,23.5,33.6,23.5L33.6,23.5z"/>
		</g>
	</g>
	<g>
		<g>
			<path class="st5" d="M36.1,25.2c0.6,0,0.1-1.2-0.4-1.2C35.2,24.1,35.6,25.2,36.1,25.2L36.1,25.2z"/>
		</g>
	</g>
	<g>
		<g>
			<path class="st5" d="M39,23.4c0.4,0,1.2-0.9,0.5-0.9C39.1,22.5,38.3,23.4,39,23.4L39,23.4z"/>
		</g>
	</g>
	<g>
		<g>
			<path class="st5" d="M43,21.8c0.5,0,0-1.1-0.5-1.1C42.1,20.6,42.6,21.8,43,21.8L43,21.8z"/>
		</g>
	</g>
	<g>
		<g>
			<path class="st5" d="M46.1,23.3c0.7,0,0.3-1.2-0.3-1.2C45.1,22.2,45.5,23.3,46.1,23.3L46.1,23.3z"/>
		</g>
	</g>
	<g>
		<g>
			<path class="st5" d="M48.8,19.7c0.8,0,0.6-1.2-0.1-1.2C48,18.5,48.1,19.7,48.8,19.7L48.8,19.7z"/>
		</g>
	</g>
	<g>
		<g>
			<path class="st5" d="M55.6,20.4c0.7,0,0.2-1.1-0.3-1.1C54.6,19.3,55.1,20.4,55.6,20.4L55.6,20.4z"/>
		</g>
	</g>
	<g>
		<g>
			<path class="st5" d="M55.6,23.5c0,0-0.3-1.1-0.6-1.1C54.9,22.4,55.2,23.5,55.6,23.5L55.6,23.5z"/>
		</g>
	</g>
	<g>
		<g>
			<path class="st5" d="M50.1,23c0.8,0,0.7-1-0.1-1C49.2,22,49.3,23,50.1,23L50.1,23z"/>
		</g>
	</g>
	<g>
		<g>
			<path class="st5" d="M58.7,24.6c-0.1,0-0.3-1.1-0.6-1.1C58.2,23.5,58.4,24.6,58.7,24.6L58.7,24.6z"/>
		</g>
	</g>
	<g>
		<g>
			<path class="st5" d="M62.6,25.6c0.3,0,1.4-0.4,0.6-0.4C62.8,25.2,61.8,25.6,62.6,25.6L62.6,25.6z"/>
		</g>
	</g>
	<g>
		<g>
			<path class="st5" d="M59.2,20.1c0.4,0,1.2-0.9,0.7-0.9C59.5,19.2,58.6,20.1,59.2,20.1L59.2,20.1z"/>
		</g>
	</g>
	<g>
		<g>
			<path class="st5" d="M62,23c0.8,0,0.5-1.2-0.2-1.2C61.1,21.8,61.3,23,62,23L62,23z"/>
		</g>
	</g>
	<g>
		<g>
			<path class="st4" d="M35.1,22.9c-1.9,0.7-3.8,1.4-5.7,2.2c-0.6,0.2,0.2,1,0.5,1c3.2,0,6.4-1.2,8.8-3.3c0.4-0.4-0.4-1.3-0.8-0.9
				c-2.3,2-5.3,3.2-8.4,3.2c0.2,0.3,0.4,0.7,0.5,1c1.9-0.7,3.8-1.4,5.7-2.2C36.3,23.7,35.5,22.7,35.1,22.9L35.1,22.9z"/>
		</g>
	</g>
	<g>
		<g>
			<path class="st4" d="M40.2,21.7c0.2,0,0.3,0,0.5,0c0,0,0.1,0,0.1,0c0,0,0.2,0,0.1,0c0,0,0.1,0,0.1,0c0,0,0.2,0,0,0
				c0,0,0.1,0,0.1,0c0.1,0-0.1,0,0,0c0,0,0.1,0,0.1,0c0,0,0,0-0.1,0c0,0,0.1,0,0.1,0c0,0,0.2,0,0,0c0,0,0.1,0,0.1,0c0,0,0.1,0,0.1,0
				c0,0,0,0,0,0c0,0,0.1,0,0.1,0c0.3,0.1,0.6,0.2,0.9,0.2c0,0,0.2,0,0.2,0c0,0-0.2-0.1-0.2-0.1c-1.1-0.4-2.2-0.6-3.4-0.6
				c-0.3,0,0.2,0.2,0.2,0.2C39.6,21.7,39.9,21.8,40.2,21.7L40.2,21.7z"/>
		</g>
	</g>
	<g>
		<g>
			<path class="st4" d="M43.8,22.3c0.7,0,1.5,0,2.2,0c0.1,0,0.1-0.1,0.2-0.2c0-0.1-0.1-0.3-0.1-0.4c-0.1-0.2-0.4-0.5-0.6-0.5
				c-0.7,0-1.5,0-2.2,0c-0.1,0-0.1,0.1-0.2,0.2c0,0.1,0.1,0.3,0.1,0.4C43.3,22.1,43.6,22.3,43.8,22.3L43.8,22.3z"/>
		</g>
	</g>
	<g>
		<g>
			<path class="st4" d="M46.4,22c0.9-0.2,1.7-0.4,2.6-0.6c0.2,0,0.3-0.1,0.4-0.2c0.1-0.1,0.2-0.2,0.2-0.3c0.1-0.3-0.2-0.4-0.4-0.3
				c-0.9,0.2-1.7,0.4-2.6,0.6c-0.2,0-0.3,0.1-0.4,0.2c-0.1,0.1-0.2,0.2-0.2,0.3C45.9,21.9,46.2,22,46.4,22L46.4,22z"/>
		</g>
	</g>
	<g>
		<g>
			<path class="st4" d="M50.1,20.5c0.3,0.2,0.7,0.4,1.1,0.2c0.2-0.1,0.3-0.3,0.3-0.6c0-0.4-0.4-0.7-0.7-0.9
				c-0.3-0.2-0.6-0.3-0.9-0.3c-1.2-0.2-2.5-0.4-3.6,0.3c-0.1,0-0.1,0.1-0.1,0.1c0,0.5,0.4,0.8,0.8,1.1c0.2,0.1,0.6,0.3,0.7,0
				c0.1-0.2-0.3-0.5-0.4-0.6c0,0,0.1,0.1,0.1,0.1c0,0,0,0,0-0.1c0-0.1,0-0.1,0-0.1c0,0-0.1,0.1-0.1,0.1c0.7-0.4,1.5-0.5,2.3-0.4
				c0.2,0,0.4,0,0.6,0.1c0,0,0.1,0,0.1,0c0.2,0,0,0,0.1,0c0,0,0.1,0,0.1,0c0,0,0.1,0,0,0c0.1,0,0,0,0,0c0,0-0.1-0.1-0.1-0.1
				c0,0,0,0,0,0c0,0,0,0.1,0,0.1c0,0.1-0.1,0.1-0.1,0.2c-0.1,0.1-0.1,0,0,0c0.1,0,0.2,0,0.3,0.1c0.1,0,0.1,0.1,0.2,0.1
				c-0.2-0.1-0.6-0.3-0.8-0.2C49.7,20.1,50,20.4,50.1,20.5L50.1,20.5z"/>
		</g>
	</g>
	<g>
		<g>
			<path class="st4" d="M48.3,20.4c2,0.8,4.3,0.7,6.3-0.1c0.1-0.1,0.6-0.2,0.5-0.5c-0.1-0.2-0.6-0.1-0.7,0c-1.7,0.7-3.5,0.6-5.2-0.1
				c-0.2-0.1-0.6,0.1-0.8,0.2C48.3,20.1,48.1,20.3,48.3,20.4L48.3,20.4z"/>
		</g>
	</g>
	<g>
		<g>
			<path class="st4" d="M55.3,20.3c0.6,0.2,1.1,0.4,1.7,0.6c0.1,0.1,0.3,0.1,0.5,0c0.1,0,0.3-0.1,0.4-0.2c0.2-0.2,0-0.4-0.2-0.5
				c-0.6-0.2-1.1-0.4-1.7-0.6c-0.1-0.1-0.3-0.1-0.5,0c-0.1,0-0.3,0.1-0.4,0.2C54.9,20,55.1,20.3,55.3,20.3L55.3,20.3z"/>
		</g>
	</g>
	<g>
		<g>
			<path class="st4" d="M56.2,21.8c0.7,0.5,1.4,1.1,2.1,1.6c0.1,0.1,0.2,0.1,0.3,0.2c0,0,0.1,0.1,0.1,0.1c0,0,0,0.1-0.1,0.1
				c0,0-0.1,0.1-0.1,0.1c-0.1,0-0.1,0-0.1,0.1c-0.1,0,0.1,0,0,0c0.2-0.1,0.4-0.1,0.6-0.1c0.1,0,0,0,0,0c0,0,0.1,0,0,0
				c0,0-0.1,0-0.1,0c-0.1,0-0.2,0-0.3-0.1c-0.2-0.1-0.4-0.3-0.5-0.6c0-0.1-0.6,0-0.6,0c-0.1,0-0.6,0.1-0.6,0.2
				c0.1,0.3,0.3,0.5,0.5,0.6c0.4,0.2,0.8,0.1,1.1,0.1c0.3-0.1,0.6-0.1,0.9-0.3c0.1-0.1,0.3-0.1,0.3-0.3c0,0,0.1-0.1,0.1-0.1
				c0,0-0.1-0.1-0.1-0.1c-0.1-0.1-0.2-0.2-0.3-0.3c-0.2-0.2-0.4-0.3-0.6-0.5c-0.5-0.4-0.9-0.7-1.4-1.1c0,0-0.1,0-0.2,0
				c-0.1,0-0.3,0-0.4,0.1c-0.1,0-0.3,0.1-0.4,0.1C56.4,21.8,56.2,21.8,56.2,21.8L56.2,21.8z"/>
		</g>
	</g>
	<g>
		<g>
			<path class="st4" d="M59.8,21.5c0.1-0.2,0.3-0.3,0.5-0.4c0.1,0,0.2-0.1,0.3-0.1c0,0,0.1,0,0.1,0c0,0,0.1,0,0,0c0,0,0.1,0,0,0
				c-0.1,0,0,0,0,0c-0.1,0-0.1,0-0.2,0c0.1,0-0.1-0.1,0,0c0,0-0.1-0.1,0,0c-0.1-0.1,0,0,0,0c0,0,0,0,0,0c0,0,0.1,0,0.1,0.1
				c0,0,0.1,0.1,0.1,0.1c0.1,0.1,0.2,0.4,0.3,0.6c0,0.1,0.2,0.2,0.2,0.2c0.1,0.1,0.3,0.1,0.5,0.2c0.1,0,0.5,0.1,0.5-0.1
				c-0.2-0.8-1-1.2-1.7-1.4c-0.4-0.1-0.8-0.1-1.1,0c-0.3,0.1-0.5,0.3-0.7,0.5c0,0.1,0.1,0.2,0.1,0.2c0.1,0.1,0.3,0.1,0.4,0.2
				c0.1,0,0.3,0.1,0.4,0.1C59.7,21.5,59.8,21.5,59.8,21.5L59.8,21.5z"/>
		</g>
	</g>
	<g>
		<g>
			<path class="st4" d="M61.6,22.5c0.2,0.5,0,1.2-0.4,1.5c0,0,0.2,0.1,0.2,0.1c0.1,0.1,0.3,0.1,0.4,0.2c0.1,0,0.3,0.1,0.4,0.1
				c0.1,0,0.1,0,0.2,0c0.5-0.3,0.6-1,0.4-1.5c0-0.1-0.1-0.1-0.2-0.1c-0.1-0.1-0.3-0.1-0.4-0.2c-0.1,0-0.3-0.1-0.4-0.1
				C61.7,22.5,61.6,22.5,61.6,22.5L61.6,22.5z"/>
		</g>
	</g>
	<g>
		<g>
			<path class="st4" d="M47.1,22.5c0.8,0.5,1.6,1,2.4,1.6c0.1,0,0.2,0,0.3,0c0.2,0,0.3,0,0.5-0.1c0.1,0,0.5-0.2,0.4-0.2
				c-0.8-0.5-1.6-1-2.4-1.6c-0.1,0-0.2,0-0.3,0c-0.2,0-0.3,0-0.5,0.1C47.4,22.2,46.9,22.4,47.1,22.5L47.1,22.5z"/>
		</g>
	</g>
	<g>
		<g>
			<path class="st4" d="M51.4,24.2c0.3-1.3,0.1-2.7-0.4-3.9C50.9,20,50.5,20,50.3,20c-0.1,0-0.6,0-0.5,0.3c0.5,1.2,0.7,2.5,0.4,3.7
				C50.1,24.4,51.3,24.6,51.4,24.2L51.4,24.2z"/>
		</g>
	</g>
</g>
</svg>
