<?xml version="1.0" encoding="utf-8"?>
<!-- Generator: Adobe Illustrator 25.0.1, SVG Export Plug-In . SVG Version: 6.00 Build 0)  -->
<svg version="1.1" id="Layer_1" xmlns="http://www.w3.org/2000/svg" xmlns:xlink="http://www.w3.org/1999/xlink" x="0px" y="0px"
	 viewBox="0 0 100 50" style="enable-background:new 0 0 100 50;" xml:space="preserve">
<style type="text/css">
	.st0{fill:#6A4A00;stroke:#6A4A00;stroke-width:0.25;stroke-miterlimit:10;}
	.st1{opacity:0.79;}
	.st2{fill:#8A0006;}
	.st3{fill:none;stroke:#8A9506;stroke-width:2;stroke-miterlimit:10;}
	.st4{fill:none;stroke:#FFFFFF;stroke-miterlimit:10;}
</style>
<g>
	<rect x="15.6" y="25" class="st0" width="69.5" height="4.6"/>
	<rect x="22.7" y="22.8" class="st0" width="3.9" height="5"/>
	<rect x="35.7" y="22.8" class="st0" width="3.9" height="5"/>
	<rect x="47.7" y="22.8" class="st0" width="3.9" height="5"/>
	<rect x="60.7" y="22.8" class="st0" width="3.9" height="5"/>
	<rect x="73.7" y="22.8" class="st0" width="3.9" height="5"/>
	<path class="st0" d="M15.6,24.8c-0.3,0-0.5,0.1-0.8,0.1c-0.6,0.5-1.1,1-1.7,1.4c-0.1,0.1-0.2,0.2-0.2,0.3c0,0.1,0,0.2,0,0.3
		c0.3,0.9,1,1.8,1.8,2.5c0.3,0,0.6,0.1,0.9,0.2"/>
	<path class="st0" d="M22.5,22.9c0.5-0.5,1.2-0.9,2-0.9c0.8,0,1.6,0.3,2,0.8"/>
	<path class="st0" d="M35.5,23.1c0.1-0.5,0.6-1,1.2-1.1c0.7-0.2,1.5,0,2.1,0.2c0.3,0.1,0.7,0.3,0.6,0.6"/>
	<path class="st0" d="M47.8,22.7c0.7-0.4,1.4-0.8,2.2-0.8s1.7,0.3,1.9,1"/>
	<path class="st0" d="M60.6,22.7c-0.1-0.3,0.2-0.6,0.6-0.8c0.4-0.1,0.8-0.1,1.2-0.1c0.4,0,0.7,0,1.1,0c0.4,0,0.8,0,1,0.2
		c0.3,0.2,0.2,0.7-0.1,0.7"/>
	<path class="st0" d="M73.5,23.2c-0.2-0.4-0.1-0.9,0.3-1.2c0.4-0.3,0.9-0.5,1.4-0.6c0.8-0.2,1.7-0.1,2.2,0.4
		c0.4,0.5,0.3,1.1,0.1,1.7"/>
	<path class="st0" d="M85.1,25c0.3-0.3,0.9-0.2,1.3,0.1c0.3,0.3,0.5,0.7,0.6,1c0.2,0.6,0.3,1.3,0,1.9c-0.3,0.8-1.2,1.4-2.2,1.4
		c0-0.1-0.1-0.1-0.1-0.2"/>
	<g class="st1">
		<g>
			<path class="st2" d="M18.2,27.7c0.7-0.6,1.4-0.5,2.2-0.5c1,0,2.1,0.1,3.1-0.2c0.2,0,0.5-0.1,0.7-0.2c1.1-0.6-1.2-0.2-1.4-0.6
				c0.2,0.4,1.4,0.6,1.8,0.7c1.2,0.3,2.5,0.3,3.6-0.3c1-0.6-2.9-1.5-2.1-0.6c0.1,0.1,0.3,0.3,0.4,0.4c0.4,0.4,0.9,0.7,1.4,1
				c1.2,0.7,2.7,1.2,4.1,1.2c1.2,0,2.3-0.3,3.3-0.7c1.2-0.5,2.4-0.7,3.7-0.9c5.1-0.5,10.2-0.4,15.4-0.2c5.2,0.2,10.5,0.6,15.7,0
				c1.4-0.1,2.7-0.4,4.1-0.5c1.3-0.1,2.4,0.2,3.6,0.5c3,0.7,5.8,0.4,8.8-0.2c0.9-0.2,1.2-0.8,0.4-1.4c-0.8-0.7-2.4-1.2-3.4-1
				c-1.2,0.3-2.4,0.5-3.6,0.6c-1.2,0.1-2.2-0.2-3.4-0.5c-2.6-0.6-5-0.5-7.6-0.2c-5.2,0.8-10.4,0.5-15.5,0.2
				c-5.2-0.2-10.5-0.3-15.7,0.1c-2.4,0.2-5,0.4-7.2,1.5c-0.1,0-0.1,0-0.2,0c-0.4,0.1-0.2,0.1,0.5,0.2c0,0-0.7-0.5-0.5-0.4
				c-0.3-0.3-0.6-0.6-1-0.8c-1.2-0.7-2.7-1.2-4.1-1c-0.3,0-0.5,0.1-0.7,0.2c-0.8,0.3-0.8,0.2,0.3,0.5c2.1,0.6-0.3-0.4-0.8-0.5
				c-0.8-0.2-1.7-0.4-2.5-0.2c-0.5,0.1-1,0.4-1.5,0.5c-1,0.3-2.2,0-3.2,0c-1.1,0-2.2,0.3-3.1,1.1C12.6,26.8,17,28.7,18.2,27.7
				L18.2,27.7z"/>
		</g>
	</g>
	<g class="st1">
		<g>
			<path class="st2" d="M20.6,24.3c0.1,0.8-0.2,1.5-0.8,2c-0.3,0.2-0.7,0.4-0.8,0.8c-0.1,0.5,0.2,1,0.6,1.2c0.7,0.4,1.6,0.2,2.3-0.2
				c0.7-0.4,1.2-1.1,1.7-1.8c0.2-0.4,0.5-0.8,0.7-1.3c0.1-0.2,0.2-0.4,0.4-0.6c0.1-0.1,0.2-0.2,0.2-0.3C25,24,25,24,25,24
				c0.1-0.1,0.1-0.1,0-0.1c-0.1,0-0.2-0.1-0.3-0.1c-0.4-0.3-0.1-0.3-0.2-0.1c0,0.1,0,0.2,0,0.2c0,0.2,0,0.4-0.1,0.5
				c-0.1,0.3-0.1,0.7-0.2,1c-0.2,0.7-0.3,1.4-0.3,2.1c0.3,0,0.5,0,0.8,0c-0.5-0.6-0.8-1.2-1.1-2c-0.2,0.1-0.3,0.2-0.5,0.3
				c-0.1-0.1-0.1-0.2-0.1,0c0,0.1,0,0.3,0.1,0.4c0,0.4,0.1,0.7,0.3,1.1c0.3,0.5,1,1,1.6,0.5c0.4-0.3-0.5-1.2-0.9-0.9c0,0,0,0-0.1,0
				c-0.1,0.1-0.1-0.1,0,0c0,0,0.1,0.1,0.1,0.1c0,0,0,0,0-0.1c0-0.3,0-0.5-0.1-0.8c-0.1-0.5-0.5-1-0.9-1.3c-0.2-0.1-0.6-0.1-0.5,0.3
				c0.3,1,0.8,1.9,1.5,2.7c0.1,0.2,0.8,0.5,0.8,0c-0.1-1.2,0.4-2.3,0.5-3.5c0.1-0.6-0.1-1.3-0.7-1.6c-0.6-0.3-1,0.3-1.3,0.7
				c-0.6,0.9-1,2-1.8,2.8c-0.4,0.4-0.8,0.7-1.3,0.9c-0.2,0.1-0.5,0.1-0.7,0.1c-0.1,0-0.2-0.1-0.3-0.1c-0.2,0,0.4,0.3,0.3,0.4
				c0,0,0.1-0.1,0.1-0.2c0.2-0.2,0.5-0.3,0.7-0.5c0.2-0.2,0.4-0.4,0.5-0.6c0.3-0.5,0.4-1.1,0.3-1.7c0-0.3-0.2-0.6-0.5-0.7
				C20.9,24,20.5,24,20.6,24.3L20.6,24.3z"/>
		</g>
	</g>
	<g class="st1">
		<g>
			<path class="st2" d="M25.4,26c0.3,0.4,0.2,1,0.5,1.3c0.3,0.3,0.8,0.4,1.2,0.4c0.5,0,0.9-0.2,1.3-0.5c0.4-0.3,0.8-0.9,1.3-1.1
				c-0.3-0.1-0.6-0.1-1-0.2c0,1.1-0.1,2.3-0.1,3.4c0,0.4,0.9,0.3,1.1,0.1c0.9-0.8,1.7-1.6,2.5-2.5c-0.4,0-0.8,0-1.1,0.1
				c0.1,0.2,0.1,0.3,0.1,0.5c0,0.3,0.7,0.3,0.8,0.2c1-0.3,1.4-1.6,0.5-2.2c-1.1-0.8-2.5-0.3-3.6,0.3c-0.2,0.1-0.4,0.3-0.2,0.5
				c0.2,0.2,0.6,0.1,0.9,0c0.3-0.1,0.6-0.3,0.9-0.4c0.1-0.1,0.2-0.1,0.4-0.2c0,0,0.4-0.2,0.3-0.1c-0.2,0-0.3,0-0.5,0
				c0.2,0.1,0.3,0.2,0.5,0.3c0.2,0.1,0.4,0.1,0.6,0.1c0.4,0,0.8-0.1,1.2-0.3c-0.4,0-0.7-0.1-1.1-0.1c-0.1,0.8,0.6,1.4,1.3,1.5
				c0.4,0.1,0.8,0,1.2-0.2c0.2-0.1,0.4-0.2,0.6-0.3c0.1-0.1,0.2-0.1,0.3-0.2c0.1,0,0.3-0.1,0.1-0.1c-0.2,0-0.4-0.1-0.6-0.1
				c0.2,0.1,0.3,0.5,0.3,0.7c0.1,0.3,0.2,0.6,0.3,0.9c0.2,0.4,1.4,0.2,1.2-0.3c-0.2-0.5-0.3-1-0.6-1.5c-0.2-0.4-0.8-0.4-1.1-0.3
				c-0.4,0.1-0.7,0.6-1.2,0.7c-0.5,0.1-0.7-0.5-0.6-0.9c0.1-0.4-0.9-0.2-1.1-0.1c0,0-0.4-0.3-0.5-0.3c-0.3-0.1-0.6-0.1-0.8,0
				c-0.6,0.2-1.2,0.5-1.8,0.8c0.2,0.2,0.5,0.3,0.7,0.5c0.5-0.3,1.1-0.7,1.7-0.4c0.2,0.1,0.4,0.3,0.5,0.6c0,0.1,0,0.6-0.2,0.6
				c0.3,0.1,0.5,0.2,0.8,0.2c0-0.3-0.1-0.5-0.2-0.7c-0.2-0.4-0.9-0.2-1.1,0.1c-0.7,0.8-1.5,1.6-2.3,2.3c0.4,0,0.7,0.1,1.1,0.1
				C30,28,30,26.9,30,25.7c0-0.4-0.8-0.3-1-0.2c-0.3,0.2-0.6,0.4-0.8,0.6c-0.3,0.3-0.5,0.6-0.8,0.8c-0.6,0.3-0.5-0.9-0.8-1.2
				C26.3,25.3,25.1,25.6,25.4,26L25.4,26z"/>
		</g>
	</g>
	<g class="st1">
		<g>
			<path class="st2" d="M28.3,25.8c0.6,0.1,1.3,0.7,1.8,1.1c0.4,0.3,0.9,0.6,1.4,0.8c0.3,0.1,0.9,0.4,1.2,0.1
				c0.2-0.1,0.2-0.4,0.3-0.6c0.2-0.3,0.4-0.5,0.8-0.6c0.2,0-0.4-0.3-0.4-0.3c-0.2-0.1-0.5-0.2-0.8-0.1c-0.9,0.2-1.8,0.4-2.7,0.5
				c-0.1,0-0.2,0-0.3,0c0.4,0.2,0.5,0.2,0.4,0c0.1-0.1,0-0.3,0.1-0.4c0.3-0.4,1-0.4,1.4-0.4c0.5,0,0.9-0.1,1.3,0.1
				c0.3,0.1,0.6,0.2,0.9,0.3c0.3,0.1,0.6,0.1,0.8,0c0.1,0,0.4-0.1,0.5-0.2c0.1,0,0.1,0,0.2-0.1c-0.3-0.2-0.4-0.2-0.3,0
				c0.1,0.2,1,0.5,1.2,0.3c0.8-0.8,1-2,1.2-3.1c-0.4-0.1-0.8-0.2-1.1-0.3c0.8,0.6,0.3,2,0.8,2.8c0.1,0.1,1.1,0.5,1.2,0.3
				c0.2-0.5,0.3-1,0.5-1.6c-0.1,0-0.2,0-0.3,0c0,0,0.1,0,0.1,0c-0.3-0.1-0.5-0.2-0.8-0.3c0.2,0.2,0.1,0.5,0.2,0.7
				c0.1,0.2,0.3,0.3,0.5,0.4c0.3,0.1,0.9,0.4,1.2,0.1c-0.4-0.1-0.8-0.2-1.2-0.3c0.4,0.4,0.7,0.8,1.1,1.2c0.3,0.4,0.8,0.8,0.2,1.2
				c-0.4,0.3-0.9,0.4-1.4,0.5c-0.5,0.1-1.1,0.4-1.6,0.3c0.3,0.1,0.5,0.2,0.8,0.3c-0.4-0.3,0.6-0.8,0.8-0.9c0.4-0.2,0.8-0.3,1.3-0.3
				c0.5,0,1.6,0.2,1.6-0.6c0-0.3-1.2-0.4-1.2-0.4c0,0.8-1.1,0.5-1.7,0.5c-0.6,0.1-1.1,0.3-1.6,0.6c-0.3,0.2-0.7,0.5-0.3,0.8
				c0.3,0.3,0.8,0.4,1.2,0.4c0.5,0,1.1-0.1,1.7-0.2c0.5-0.1,1.2-0.3,1.7-0.6c0.4-0.3,0.3-0.6,0-0.9c-0.4-0.5-0.9-1.1-1.4-1.6
				c-0.1-0.2-1-0.5-1.2-0.3c0,0-0.1,0-0.1,0.1c0.3,0.1,0.6,0.2,0.9,0.3c-0.3-0.1-0.2-0.7-0.4-0.9c-0.2-0.3-0.7-0.3-1-0.4
				c0,0-0.3-0.1-0.3,0c-0.2,0.5-0.3,1-0.5,1.6c0.4,0.1,0.8,0.2,1.2,0.3c-0.5-0.9,0-2.2-0.9-2.9c-0.1-0.1-1.1-0.5-1.1-0.3
				c-0.2,1.1-0.4,2.2-1.2,3.1c0.4,0.1,0.8,0.2,1.2,0.3c-0.1-0.4-0.7-0.6-1.1-0.7c-0.5-0.1-0.9-0.1-1.4,0.2c0,0-0.2,0.2-0.2,0.2
				c-0.1,0-0.5-0.2-0.5-0.2c-0.3-0.1-0.6-0.2-0.9-0.2c-0.7-0.1-1.3-0.1-2,0c-0.5,0.1-1.2,0.2-1.2,0.8c0,0.5,0.6,0.6,0.9,0.7
				c0.5,0.1,0.9,0.1,1.4,0c0.9-0.2,1.7-0.3,2.6-0.5c-0.4-0.1-0.8-0.3-1.1-0.4c-0.3,0.1-0.5,0.2-0.7,0.4c-0.1,0.2-0.3,0.8-0.5,0.8
				c0.2,0,0.5,0.1,0.7,0.1c-0.8-0.3-1.5-1.1-2.3-1.5c-0.7-0.4-1.5-0.7-2.3-0.7c-0.2,0-0.2,0.1-0.1,0.2
				C27.7,25.7,28.1,25.7,28.3,25.8L28.3,25.8z"/>
		</g>
	</g>
	<g class="st1">
		<g>
			<path class="st2" d="M36.8,28.2c-0.2,0.2,0,0.5,0.2,0.6c0.4,0.1,0.8,0,1.1-0.1c0.6-0.2,1.1-0.5,1.6-0.8c1-0.6,1.8-1.5,2.4-2.5
				c0.1-0.2-0.1-0.3-0.3-0.3c-0.2,0-0.7,0.1-0.8,0.3c-0.4,0.7-1,1.4-1.7,1.9c-0.1,0.1-0.3,0.2-0.5,0.3c-0.1,0.1-0.2,0.1-0.3,0.2
				c0,0-0.1,0.1-0.1,0.1c0,0-0.1,0,0,0c-0.2,0.1-0.4,0.2-0.6,0.3c0,0-0.1,0,0,0c0,0-0.1,0-0.2,0.1c-0.1,0.1,0.2,0,0.2,0c0,0,0,0,0,0
				c0.2-0.2-0.2-0.3-0.3-0.3C37.3,27.8,37,27.9,36.8,28.2L36.8,28.2z"/>
		</g>
	</g>
	<g class="st1">
		<g>
			<path class="st2" d="M43.2,25c0.2,0,0.3,0.5,0.4,0.7c0.1,0.2,0.3,0.4,0.5,0.6c0.3,0.3,0.8,0.5,1.2,0.6c0.5,0.1,1,0,1.5-0.1
				c0.3-0.1,0.5-0.2,0.7-0.3c0.1-0.1,0.3-0.1,0.4-0.2c0.1,0,0.1-0.1,0.2-0.1c0.3,0,0.3-0.2,0-0.5c0.3,0.3,0.6,0.5,0.9,0.8
				c0.1-0.6,0.4-1.1,0.6-1.6c0.1-0.2,0-0.2,0.1,0c0.1,0.1,0.1,0.2,0.2,0.2c0.1,0.2,0.3,0.4,0.6,0.5c0.1,0.1,0.2,0.1,0.3,0.1
				c0,0,0.1,0,0.1,0c0.2,0,0.2,0,0-0.1c-0.1-0.1-0.1-0.1-0.1-0.1c0,0,0,0.1,0,0.1c0,0.1,0,0.2,0,0.3c0.1,0.4,0.2,0.8,0.4,1.1
				c0.1,0.1,0.4,0.4,0.6,0.3c0.4-0.2,0.7-0.4,1-0.8c-0.3-0.1-0.6-0.3-0.9-0.4c0.1,0.2,0.1,0.4,0.1,0.7c0.3,0.2,0.7,0.3,1,0.5
				c0-0.1,0-0.2,0-0.3c0-0.3-0.7-1-1-0.6c-0.3,0.5-0.3,1.1-0.1,1.6c0.1,0.4,1,1,1,0.2c0-0.8-0.3-1.6-0.8-2.2
				c-0.1-0.2-0.6-0.5-0.8-0.2c-0.2,0.4-0.4,0.8-0.5,1.2c-0.1,0.2-0.3,1-0.5,1c0.1,0,0.2,0.1,0.4,0.1c0.1,0.1-0.1-0.2-0.2-0.2
				c-0.1-0.2-0.2-0.3-0.3-0.5c-0.2-0.3-0.4-0.6-0.6-0.9c-0.2-0.3-0.9-0.5-0.8,0.1c0.1,0.4,0.2,0.8,0.2,1.1c0.2-0.1,0.4-0.2,0.6-0.3
				c-0.9-0.4-1.7-0.9-2.6-1.3c-0.2-0.1-0.4,0-0.4,0.2c-0.1,1.3,1.7,2.3,2.9,2.1c0.7-0.1,1-0.7,1.1-1.3c0,0,0.1-0.2,0-0.2
				c0,0,0.2,0.2,0.3,0.3c0.2,0.2,0.5,0.3,0.8,0.4c0.7,0,0.1-0.8-0.1-1c-0.5-0.4-1.1-0.6-1.8-0.7c-0.3,0-0.4,0.3-0.3,0.5
				c0.1,0.3,0.3,0.5,0.6,0.6c0.5,0.1,0.9,0.3,1.3,0.5c0-0.3-0.1-0.7-0.1-1c0,0-0.2-0.2-0.2-0.2c-0.1-0.1-0.3-0.3-0.5-0.3
				c-0.5-0.2-0.8,0.2-0.9,0.6c-0.2,0.5-0.3,1-0.9,0.9c-0.2,0-0.5-0.1-0.7-0.2c-0.1,0-0.2-0.1-0.3-0.2c0,0-0.1,0-0.1-0.1
				c-0.1-0.1-0.1-0.1,0,0c-0.1,0.1-0.3,0.1-0.4,0.2c0.8,0.4,1.6,0.8,2.4,1.2c0.2,0.1,0.7,0.1,0.6-0.3c-0.1-0.4-0.2-0.8-0.2-1.1
				c-0.3,0-0.5,0.1-0.8,0.1c0.3,0.5,0.6,0.9,0.9,1.4c0.2,0.3,0.6,0.9,1.1,0.8c0.4-0.1,0.5-0.6,0.7-0.9c0.2-0.6,0.5-1.1,0.7-1.7
				c-0.3-0.1-0.5-0.1-0.8-0.2c0.3,0.4,0.4,0.9,0.5,1.4c0.3,0.1,0.6,0.1,1,0.2c-0.1-0.3,0-0.6,0.1-0.9c-0.3-0.2-0.6-0.4-1-0.6
				c0,0.1,0,0.2,0,0.3c0,0.4,0.9,1.1,1,0.5c0.1-0.4,0-0.8-0.1-1.2c-0.1-0.3-0.6-0.9-0.9-0.4c-0.2,0.2-0.4,0.4-0.6,0.5
				c0.2,0.1,0.4,0.2,0.6,0.3c-0.1-0.1-0.1-0.4-0.1-0.5c0-0.2-0.1-0.5-0.2-0.7c-0.1-0.3-0.4-0.5-0.6-0.6c-0.1-0.1-0.4,0-0.5-0.1
				c0,0-0.1-0.2-0.2-0.3c-0.3-0.4-1-1-1.5-0.6c-0.3,0.2-0.4,0.6-0.5,0.9c-0.2,0.4-0.3,0.8-0.4,1.2c-0.1,0.4,0.5,1.1,0.9,0.8
				c0.5-0.4,0.1-1.2-0.4-1.5c-0.7-0.4-1.5,0.3-2.2,0.5c-0.5,0.2-1.5,0.4-1.8-0.2c-0.2-0.3-0.3-0.7-0.6-1c-0.3-0.3-0.6-0.5-1-0.5
				C42.2,23.9,42.7,25,43.2,25L43.2,25z"/>
		</g>
	</g>
	<g class="st1">
		<g>
			<path class="st2" d="M38.9,26.9c0,0.5-0.2,1-0.4,1.5c0,0,0,0,0,0c0.2,0.1,0.4,0.1,0.6,0c0.4-0.1,0.7-0.3,1.1-0.5
				c0,0,0.2-0.1,0.1-0.2c-0.2,0-0.3-0.1-0.4-0.3c-0.3,0.2-0.6,0.3-0.8,0.5c0.4-0.1,0.7-0.2,1.1-0.3c0.2-0.1,0.4-0.3,0.6-0.4
				c-0.2,0.1-0.4,0.1-0.6,0.2c-0.2,0.1-0.5,0.1-0.7,0.2c-0.5,0.1-1.1,0.2-1.6,0.2c-0.3,0.2-0.6,0.3-0.9,0.5c1-0.2,2-0.5,3-0.7
				c0.3-0.1,0.6-0.2,0.8-0.4c0,0,0.2-0.1,0.1-0.1c0,0-0.2,0-0.2,0c-1,0.2-2,0.5-3,0.7c-0.3,0.1-0.5,0.2-0.8,0.3
				c-0.1,0-0.3,0.2-0.1,0.2c1.3-0.1,2.5-0.3,3.7-0.8c0.2-0.1,0.4-0.2,0.6-0.3c0.1-0.1,0.2-0.1,0-0.1c-0.5,0.1-1.1,0.2-1.6,0.4
				c-0.1,0-0.9,0.3-0.8,0.5c0.1,0.2,0.3,0.3,0.5,0.3c0-0.1,0.1-0.1,0.1-0.2c0.6-0.2,0.8-0.3,0.5-0.2c0,0-0.1,0-0.1,0
				c-0.1,0-0.1,0-0.2,0c0,0,0,0,0,0c0.2-0.5,0.4-1,0.4-1.6c0-0.1-0.6,0.1-0.6,0.2c-0.1,0.1-0.3,0.1-0.4,0.2
				C38.9,26.8,38.9,26.9,38.9,26.9L38.9,26.9z"/>
		</g>
	</g>
	<g class="st1">
		<g>
			<path class="st2" d="M40.5,27.6c0.1,0.2,0.2,0.3,0.3,0.5c0,0,0.1,0.1,0.1,0.1c0.1,0,0.1,0,0.2,0c0.1,0,0.2,0,0.2,0
				c0.1,0,0.2,0,0.2-0.1c0,0,0.1,0,0.1-0.1c0.1,0,0.1-0.1,0.2-0.2c0,0,0-0.1,0-0.1c0-0.1,0-0.1,0-0.2c-0.1-0.2-0.2-0.3-0.3-0.5
				c0,0-0.1-0.1-0.1-0.1c-0.1,0-0.1,0-0.2,0c-0.1,0-0.2,0-0.2,0c-0.1,0-0.2,0-0.2,0.1c0,0-0.1,0-0.1,0.1c-0.1,0-0.1,0.1-0.2,0.2
				c0,0,0,0.1,0,0.1C40.4,27.5,40.4,27.5,40.5,27.6L40.5,27.6z"/>
		</g>
	</g>
	<g class="st1">
		<g>
			<path class="st2" d="M44.7,26.5c1.1-0.2,1.4,0.8,2.3,1.2c0.3,0.1,0.6,0.2,0.9,0.2c0.4,0,0.7-0.2,1.1-0.3
				c-0.3-0.1-0.6-0.1-0.8-0.2c0.5,0.2,1,0.5,1.6,0.5c0.2,0,0.5,0,0.7-0.2c0.3-0.2,0.4-0.5,0.7-0.6c-0.3-0.1-0.7-0.2-1-0.2
				c0.5,0.2,0.9,0.5,1.5,0.5c0.5,0,0.8-0.6,1.3-0.7c-0.4-0.1-0.8-0.2-1.2-0.4c0.1,0.8,1,1.1,1.6,1.2c0.9,0.2,1.6-0.3,2.2-0.9
				c-0.4-0.1-0.8-0.2-1.2-0.3c0.4,1.2,2,1.5,3.1,1.8c0.1,0,0.9,0.1,0.8,0.1c-0.9-0.9-1.8-1.6-2.9-2.3c-0.5-0.3-1.5-0.9-2.1-0.5
				c-0.3,0.2-0.5,0.7-0.4,1.1c0.1,0.3,0.6,0.4,0.8,0.4c1,0.3,2.1-0.3,3-0.7c0.1-0.1-0.4-0.2-0.4-0.3c-0.2-0.1-0.6-0.2-0.8-0.1
				c-0.7,0.3-1.6,0.8-2.3,0.8c0.3,0.1,0.6,0.1,0.8,0.2c-0.2-0.1,0.2-0.8,0.3-0.8c0-0.3-0.4-0.4,0-0.2c0.2,0.1,0.4,0.3,0.6,0.4
				c0.8,0.5,1.5,1.1,2.2,1.8c0.3,0,0.5,0,0.8,0.1c-0.9-0.3-1.9-0.5-2.3-1.4c-0.1-0.2-1-0.4-1.2-0.3c-0.3,0.3-0.6,0.5-1,0.8
				c-0.1,0-0.1,0.1-0.2,0.1c0,0.1,0,0.1,0.1,0.2c-0.2,0-0.3-0.5-0.3-0.6c0-0.2-1-0.4-1.2-0.4c-0.5,0.1-0.8,0.7-1.2,0.7
				c0.2,0,0.5,0.1,0.7,0.1c0.1,0-0.2-0.1-0.3-0.2c-0.2-0.1-0.4-0.1-0.6-0.2c-0.3,0-0.4,0-0.7,0.2c-0.1,0.1-0.2,0.2-0.3,0.3
				c-0.2,0-0.2,0.1-0.1,0.2c-0.1,0-0.4-0.2-0.4-0.2c-0.3-0.1-0.7-0.2-1.1-0.2c-0.2,0-0.6,0.1-0.2,0.3c-0.2-0.1-0.4-0.4-0.5-0.5
				c-0.3-0.3-0.6-0.5-0.9-0.6c-0.8-0.3-1.7-0.5-2.5-0.3c-0.1,0,0.4,0.2,0.4,0.3C44.1,26.4,44.4,26.5,44.7,26.5L44.7,26.5z"/>
		</g>
	</g>
	<g class="st1">
		<g>
			<path class="st2" d="M56.2,26.1c0.3,0.4,0.5,0.9,0.9,1.3c0.3,0.3,0.8,0.3,1.2,0.2c0.4-0.1,0.6-0.3,0.6-0.7c0-0.2,0.1-0.5,0.2-0.7
				c0.1-0.1,0.1-0.2,0.2-0.3c0.1-0.1,0.3-0.2,0-0.2c-0.2,0-0.5,0-0.7-0.1c0.2,0.1,0.1,0.8,0.2,0.9c0,0.3,0,0.7,0,1
				c0,0.2,1.1,0.1,1.2,0c0.9-0.7,1.7-1.4,2.5-2.1c0.1-0.1-0.4-0.2-0.4-0.2c-0.2,0-0.6,0-0.8,0.1c-1.1,0.9-2.5,1.4-3.9,1.4
				c-0.7,0-1.4-0.1-2-0.3c-0.7-0.2-1.6-0.3-2.3,0c-0.1,0-0.1,0.1,0,0.1c0.9,0.4,1.9,0.6,2.9,0.6c0.3,0,0.5,0,0.8,0
				c0.2,0,0.5-0.1,0.7,0c0.4,0.2,0.6,0.6,0.4,1c0,0.1,0.5,0.1,0.5,0.1c0.2,0,0.5,0,0.7-0.1c0.8-0.6,1.6-1.2,2.2-2
				c0.1-0.1-0.4-0.2-0.4-0.2c-0.2,0-0.7-0.1-0.8,0.1c-0.6,0.8-1.3,1.5-2.2,2c0.4,0,0.8,0,1.2,0c0.2-0.3,0-0.7-0.3-1
				C58.4,27,57.9,27,57.5,27c-0.5,0-1,0.1-1.6,0.1c-0.6,0-1.2-0.2-1.7-0.5c0,0,0,0.1,0,0.1c-0.1,0-0.1,0,0.1,0
				c0.1,0,0.2,0.1,0.3,0.1c0.2,0,0.3,0.1,0.5,0.1c0.4,0.1,0.7,0.1,1.1,0.2c0.8,0.1,1.6,0.1,2.4,0c1.4-0.2,2.8-0.7,3.9-1.6
				c-0.4,0-0.8,0-1.2-0.1c-0.8,0.8-1.6,1.5-2.5,2.1c0.4,0,0.8,0,1.2,0c0-0.6,0-1.1-0.1-1.7c-0.1-0.5-0.6-0.4-1-0.4
				c-0.5,0-0.7,0.2-1,0.6c-0.1,0.2-0.2,0.4-0.3,0.6c0,0.1,0,0.3-0.1,0.4c0,0.2-0.3,0.3,0,0.3c0.2,0,0.5,0,0.7,0.1
				c-0.2-0.1-0.4-0.5-0.5-0.7c-0.2-0.3-0.3-0.5-0.5-0.8c-0.1-0.2-0.6-0.1-0.8-0.1C56.5,26,56.1,26,56.2,26.1L56.2,26.1z"/>
		</g>
	</g>
	<g class="st1">
		<g>
			<path class="st2" d="M61.7,25.7c0,0,0.1-0.1,0.2-0.2c0.2-0.1,0-0.2-0.6-0.2c0,0,0,0.1,0,0.1c-0.1,0.2-0.1,0.4-0.1,0.6
				c-0.1,0.5-0.1,0.9-0.2,1.4c-0.1,0.4,0.6,0.5,0.9,0.4c0.8-0.2,1.4-0.8,1.9-1.4c-0.3,0.1-0.5,0.1-0.8,0.2c-0.3-0.1-0.2-0.2-0.2,0.1
				c0,0.1,0,0.2,0,0.3c0,0.3,0.1,0.5,0.3,0.7c0.4,0.5,1,0.7,1.6,0.6c0.6,0,1.3-0.2,1.9-0.4c0.7-0.2,1.3-0.4,2-0.7
				c0.3-0.1,0.3-0.4,0.1-0.5c-0.2-0.2-0.6-0.2-0.9-0.1c-0.5,0.2-1.1,0.4-1.6,0.6c-0.5,0.2-1.1,0.4-1.6,0.4c-0.4,0-0.5-0.4-0.4-0.7
				c0-0.5-0.1-0.8-0.6-1c-0.3-0.1-0.6-0.1-0.8,0.2c-0.4,0.4-0.8,0.9-1.3,1c0.3,0.1,0.6,0.3,0.9,0.4c0.1-0.5,0.1-0.9,0.2-1.4
				c0-0.3,0.2-0.7,0-1c-0.4-0.7-1.5-0.4-1.9,0.1c-0.2,0.2,0.2,0.5,0.4,0.5C61.2,26,61.5,26,61.7,25.7L61.7,25.7z"/>
		</g>
	</g>
	<g class="st1">
		<g>
			<path class="st2" d="M70.4,24.3c-1.1,0.5-1.7,1.4-2.2,2.5c-0.1,0.2-0.2,0.6-0.3,0.8c0,0,0,0.1,0,0.1c-0.1,0-0.2,0-0.3-0.1
				c-0.2,0-0.4-0.1-0.5-0.1c-0.8-0.1-1.5-0.2-2.3-0.4c0.2,0.2,0.3,0.3,0.5,0.5c0.1-0.3,0.3-0.5,0.6-0.6c-0.4-0.1-0.7-0.2-1.1-0.4
				c-0.1,0.3-0.3,0.6-0.5,0.9C64,28,64.6,28.3,65,28.2c0.8-0.2,1.7-0.4,2.5-0.7c0.4-0.1,0.8-0.2,1.2-0.3c0.3-0.1,0.9-0.3,1.1-0.3
				c-0.1-0.1-0.3-0.1-0.4-0.2c0.1,0.1,0,0.6,0,0.8c0,0.3,0,0.6,0,0.9c0,0.5,0.7,0.4,1,0.3c1.2-0.4,1.1-1.8,2-2.4
				c-0.4-0.1-0.7-0.2-1.1-0.3c0,0.5,0,1,0.3,1.5c0.2,0.4,0.9,0.4,1.1,0.1c0.5-0.8,1.1-1.5,1.6-2.3c-0.4-0.1-0.8-0.1-1.2-0.2
				c0,0.5-0.1,1-0.1,1.5c0,0.5,0.8,0.4,1.1,0.3c0.3-0.2,0.6-0.4,0.9-0.6c-0.4-0.1-0.7-0.2-1.1-0.3c0.1,0.7,0.5,1.4,1.1,1.7
				c0.6,0.2,1.5,0,1.5-0.7c0-0.6-1.2-0.5-1.2,0c0.4,0,0.4,0,0.2-0.2c-0.1-0.1-0.1-0.1-0.2-0.2c-0.1-0.2-0.2-0.4-0.2-0.6
				c0-0.5-0.8-0.4-1.1-0.3c-0.3,0.2-0.6,0.4-0.9,0.6c0.4,0.1,0.7,0.2,1.1,0.3c0-0.5,0.1-1,0.1-1.5c0-0.5-1-0.5-1.2-0.2
				c-0.5,0.8-1.1,1.5-1.6,2.3c0.4,0,0.8,0,1.1,0.1c-0.2-0.4-0.2-0.8-0.2-1.3c0-0.5-0.8-0.4-1.1-0.3c-0.4,0.3-0.7,0.7-0.9,1.1
				c-0.2,0.4-0.4,0.9-0.9,1.1c0.3,0.1,0.6,0.2,1,0.3c0-0.4,0-0.7,0-1.1c0-0.2,0.1-0.6,0-0.8c-0.3-0.6-1-0.4-1.5-0.3
				c-1.5,0.4-3,0.8-4.5,1.2c0.2,0.2,0.5,0.4,0.7,0.6c0.2-0.4,0.5-0.7,0.6-1.2c0.2-0.5-0.8-0.6-1.1-0.4c-0.4,0.3-0.7,0.6-0.9,1
				c-0.2,0.3,0.3,0.5,0.5,0.5c0.8,0.1,1.7,0.3,2.5,0.4c0.6,0.1,1.4,0.3,1.9-0.2c0.4-0.4,0.5-1.2,0.8-1.7c0.3-0.6,0.8-1.2,1.4-1.5
				C71.8,24.6,71,24,70.4,24.3L70.4,24.3z"/>
		</g>
	</g>
	<g class="st1">
		<g>
			<path class="st2" d="M76.1,25.9c0.1,0.7,0.2,1.5,0.3,2.2c0,0.3,0.7,1.1,1,0.7c0.2-0.2,0.3-0.5,0.5-0.7c0.1-0.1,0.1-0.2,0.2-0.3
				c0,0,0.1-0.1,0.1-0.1c0.2-0.2,0-0.2-0.5-0.2c-0.1,0.3,0.1,0.5,0.3,0.7c0.1,0.1,0.5,0.3,0.6,0.1c0.3-0.4,0.5-0.8,0.8-1.1
				c-0.1,0-0.3,0-0.4,0c-0.3-0.2-0.4-0.4-0.2-0.1c0,0.1,0.1,0.2,0.1,0.3c0.1,0.2,0.3,0.4,0.5,0.5c0.2,0.1,0.5,0.2,0.7,0.2
				c0.3,0,0.3,0.1,0.6,0.2c0.5,0.2,0.9,0,1.3-0.2c0.4-0.3,0.7-0.8,1.1-0.9c-0.3-0.2-0.6-0.5-0.9-0.7c0,0.6,0.4,1.2,1,1.5
				c0.3,0.1,0.6,0.2,0.8,0.1c0.1,0,0.8-0.4,0.6-0.5c-0.1-0.1-0.3-0.2-0.4-0.3c0.3,0.4,0.5,0.7,0.8,1c0.3,0.3,0.7,0.4,1.1,0.6
				c0.2,0.1,0.5,0.1,0.5-0.2c0-0.3-0.3-0.6-0.5-0.7c-0.1,0-0.2-0.1-0.3-0.1c-0.2-0.1-0.5-0.1-0.5,0.2c0,0.3,0.3,0.6,0.5,0.7
				c0.1,0,0.2,0.1,0.3,0.1c0-0.3,0-0.6,0-0.9c-0.3-0.1-0.7-0.3-0.9-0.5c-0.2-0.3-0.3-0.6-0.7-0.8c-0.3-0.1-0.5-0.2-0.8,0
				c-0.1,0.1-0.3,0.2-0.4,0.3c-0.1,0-0.2,0-0.1,0.1c0-0.1,0-0.1,0-0.2c0-0.4-0.5-0.8-0.9-0.7c-0.4,0.1-0.6,0.4-0.9,0.7
				c-0.2,0.2-0.3,0.3-0.5,0.4c-0.2,0.1-0.3,0.1-0.5-0.1c-0.2-0.1-0.4-0.2-0.6-0.2c0,0-0.3,0-0.3,0c0-0.1,0.3,0.6,0.3,0.1
				c-0.1-0.4-0.4-0.7-0.7-0.9c-0.1-0.1-0.4-0.1-0.4,0c-0.3,0.4-0.5,0.8-0.8,1.1c0.3,0.3,0.6,0.5,1,0.8c0.1-0.6-0.1-1.3-0.8-1.5
				c-0.3-0.1-0.5,0-0.6,0.2c-0.3,0.3-0.5,0.7-0.8,1.1c0.3,0.2,0.7,0.4,1,0.7c-0.1-0.7-0.2-1.5-0.3-2.2c0-0.3-0.3-0.6-0.5-0.7
				C76.4,25.6,76.1,25.6,76.1,25.9L76.1,25.9z"/>
		</g>
	</g>
	<g class="st1">
		<g>
			<path class="st2" d="M78.2,27c-0.3-0.2-0.7-0.3-1-0.5c-0.4-0.2-0.8-0.4-1.2-0.4c-0.3,0-0.6,0.1-0.8,0.3c-0.1,0.1-0.1,0.3-0.1,0.4
				c-0.1,0.4-0.2,0.7-0.3,1.1c0.4,0,0.8,0,1.2,0c-0.2-0.3-0.3-0.7-0.4-1.1c-0.4,0-0.8,0.1-1.2,0.1c0.6,1.2,2.8,1.1,3-0.4
				c0-0.3-0.4-0.4-0.6-0.4c-0.2,0-0.6,0.1-0.6,0.3c0,0,0,0.1,0,0.1c0-0.1,0,0,0,0.1c0,0,0,0.1-0.1,0.1c0,0-0.1,0.1,0,0
				c0,0-0.1,0.1-0.1,0.1c0,0-0.1,0.1,0,0c0,0-0.1,0.1-0.1,0.1c0.1,0,0.1,0,0,0c-0.1,0-0.1,0,0,0c0,0,0,0,0,0c-0.1,0-0.1,0,0,0
				c0.1,0,0.1,0,0,0c0.1,0,0.1,0,0.1,0c0,0,0,0-0.1,0c0.1,0,0.1,0,0.1,0c0,0-0.1-0.1-0.1,0c0.1,0,0,0-0.1,0c0,0,0,0,0,0c0,0,0,0,0,0
				c0,0-0.1-0.1-0.1-0.1c0,0,0,0,0,0c0,0,0,0,0-0.1c-0.2-0.4-1.3-0.4-1.2,0.1c0.1,0.4,0.2,0.7,0.4,1.1c0.2,0.4,1.1,0.4,1.2,0
				c0.1-0.3,0.1-0.6,0.2-0.9c0-0.1,0-0.1,0.1-0.2c0,0,0-0.1,0-0.1c0-0.1,0-0.1,0,0c0,0,0,0,0-0.1c0,0,0,0,0,0c-0.6,0-0.8,0-0.5,0.1
				c0,0,0.1,0,0.1,0c0.5,0.2,1.1,0.5,1.6,0.7c0.2,0.1,0.7,0.1,0.9-0.1C78.6,27.3,78.4,27.1,78.2,27L78.2,27z"/>
		</g>
	</g>
	<g class="st1">
		<g>
			<path class="st2" d="M77.1,25.2c0,0,0,0.1,0,0.1c0,0,0,0,0,0c0,0.1,0,0.1,0,0c0,0,0,0.2,0,0.2c0,0,0,0.1,0,0.1c0,0.1,0.1-0.1,0,0
				c0,0.1-0.1,0.1-0.1,0.2c0,0,0,0.1-0.1,0.1c0,0,0,0,0,0c0,0,0,0,0,0c0,0-0.1,0.1-0.1,0.1c0,0-0.1,0-0.1,0.1c0,0-0.1,0.1,0,0
				c0,0-0.1,0.1-0.2,0.1c0,0-0.1,0-0.1,0c0,0,0,0-0.1,0c0,0,0,0,0,0c0,0-0.2,0-0.2,0c0,0-0.1,0-0.1,0c-0.1,0,0.1,0,0,0
				c-0.1,0-0.1,0-0.2,0c-0.1,0,0,0,0,0c0,0-0.1,0-0.1,0c0,0-0.1,0-0.1,0c0,0-0.1-0.1,0,0c0.1,0,0,0,0,0c0,0-0.1,0-0.1-0.1
				c0,0,0,0,0,0c0,0,0,0,0.1,0c0,0-0.1-0.1-0.1-0.1c-0.2-0.2-0.6-0.4-0.8-0.1c-0.2,0.2-0.2,0.6,0,0.8c0.6,0.7,1.5,0.9,2.4,0.6
				c0.8-0.3,1.3-1.1,1.2-1.9c0-0.3-0.3-0.6-0.6-0.7C77.4,24.7,77.1,24.9,77.1,25.2L77.1,25.2z"/>
		</g>
	</g>
	<g class="st1">
		<g>
			<path class="st2" d="M75.6,25.9c0-0.5,0-1,0-1.5c0-0.2,0-0.4,0-0.6c0-0.1,0-0.2,0.1-0.3c0.1-0.1,0.2-0.1,0.1-0.1
				c-0.2-0.2-0.4-0.5-0.6-0.7c0,0.4-0.2,0.8-0.5,1c-0.3,0.2-0.6,0.3-1,0.4c-0.3,0.1-0.6,0.2-0.9,0.3c-0.1,0.1-0.3,0.2-0.4,0.3
				c0,0-0.3,0.4-0.3,0.4c0.1,0.1,0.3,0.1,0.4,0.2c0,0,0,0-0.1,0c0.1,0.2,0.2,0.4,0.3,0.6c0.6-1.4,2.3-1.4,3.6-1.4
				c0.1,0,0.3,0.1,0.5,0c0.2,0-0.1,0.1,0-0.1c0,0,0.1,0.1,0.1,0.1c0.2,0.3,0.3,0.6,0.5,0.8c0.4,0.6,1.1,1,1.8,1.1
				c-0.2-0.3-0.4-0.6-0.5-0.9c-0.4,0-0.7,0-1.1,0.1c-0.4,0.1,0.4,1,0.8,0.9c0.3-0.1,0.6-0.1,0.9-0.1c0.2,0,0.2-0.2,0.1-0.4
				c-0.1-0.2-0.4-0.5-0.6-0.5c-0.2,0-0.4-0.1-0.6-0.3c-0.2-0.2-0.3-0.6-0.5-0.9c-0.2-0.3-0.5-0.6-0.9-0.8c-0.4-0.2-0.7-0.2-1.1-0.2
				c-1.4-0.1-3.1,0.1-3.7,1.5c-0.1,0.2,0.1,0.5,0.3,0.6c0.2,0.2,0.5,0.3,0.7,0.3c0.2,0,0.4-0.2,0.5-0.4c0.3-0.3,0.6-0.5,1-0.6
				c0.4-0.1,0.8-0.2,1.2-0.5c0.4-0.3,0.6-0.8,0.6-1.3c0-0.3-0.3-0.6-0.6-0.7c-0.6-0.2-1,0-1,0.7c-0.1,0.7,0,1.4,0,2
				c0,0.3,0.2,0.5,0.5,0.6C75.1,25.9,75.6,26.1,75.6,25.9L75.6,25.9z"/>
		</g>
	</g>
	<g class="st1">
		<g>
			<path class="st2" d="M58.5,23.9c-0.5,0.3-1,0.8-0.6,1.4c0.3,0.5,0.9,0.6,1.5,0.6c1.3-0.1,2.6-0.2,3.8-0.4c0.3,0,0.6-0.2,0.6-0.6
				c0-0.3-0.4-0.5-0.7-0.5c-1,0-2.1-0.1-3.1-0.1c-0.8,0-1.8,0.2-2,1c-0.1,0.4,0.3,0.6,0.7,0.7c1.4,0.1,2.8,0,4.1-0.4
				c0.3-0.1,0.5-0.4,0.4-0.7c-0.1-0.3-0.5-0.5-0.8-0.4c-1.2,0.4-2.5,0.5-3.8,0.4c0.2,0.2,0.4,0.5,0.7,0.7c0-0.1,0-0.1,0,0
				c0-0.1,0-0.1,0,0c0,0,0-0.1,0.1-0.1c0,0,0,0,0,0c0,0,0,0,0.1,0c-0.1,0,0,0,0,0c0,0,0.2-0.1,0.1,0c0.3-0.1,0.7,0,1,0
				c0.9,0,1.8,0.1,2.7,0.1c0-0.4-0.1-0.7-0.1-1.1c-1,0.1-1.9,0.2-2.9,0.3c-0.4,0-0.9,0.1-1.3,0.1c0.1,0,0.1,0,0,0c-0.1,0-0.1,0,0,0
				c0.1,0.1,0.1,0.1,0.1,0.2c0,0,0,0,0,0c0,0,0,0,0,0c0.1,0,0.1-0.1,0.2-0.1C59.8,24.4,59.1,23.5,58.5,23.9L58.5,23.9z"/>
		</g>
	</g>
	<g class="st1">
		<g>
			<path class="st2" d="M65.6,25.1c0.2-0.3,0.5-0.3,0.9-0.2c0.1,0,0,0,0,0c-0.1-0.1,0,0,0,0c0.1,0.1,0.2,0.3,0.3,0.5
				c0.1,0,0.1-0.1,0.2-0.1c-1.4-0.7-3-1.5-4.6-0.9c-0.2,0.1,0.1,0.3,0.1,0.4c0.2,0.2,0.4,0.4,0.6,0.5c1.2,0.2,2.3,0.4,3.4,0.8
				c0.2,0.1,0.1-0.1,0.1-0.2c-0.1-0.2-0.4-0.4-0.6-0.5c-0.1-0.1-0.2-0.1-0.3-0.2c-0.1-0.1-0.4-0.2-0.3,0c0.1,0.2,0.4,0.5,0.6,0.6
				c0.1,0.1,0.2,0.1,0.3,0.2c-0.2-0.2-0.3-0.5-0.5-0.7c-1.1-0.4-2.3-0.7-3.4-0.8c0.3,0.3,0.5,0.6,0.8,0.8c1.5-0.5,3,0.2,4.3,0.8
				c0.1,0,0.3,0.1,0.2-0.1c-0.4-0.7-0.8-1.3-1.5-1.7c-0.5-0.3-1.1-0.4-1.5,0C64.5,24.4,65.4,25.2,65.6,25.1L65.6,25.1z"/>
		</g>
	</g>
	<g class="st1">
		<g>
			<path class="st2" d="M56.5,24c-1.3,0.5-2.8,0.2-4.1,0.1c-1.1-0.1-2.4-0.4-3.5,0.1c-0.2,0.1-0.5,0.3-0.6,0.4
				c-0.1,0.1-0.4,0.4-0.5,0.5c0.2,0.4,0.3,0.6,0.5,0.4c0,0,0,0,0.1,0c0.2,0,0.3,0,0.5,0c0.3,0,0.5,0,0.8-0.1c1-0.3,1.4-1.5,1.1-2.4
				c-0.3,0.1-0.6,0.3-0.9,0.4c0.4,0.6,0.9,1.2,1.3,1.7c0.3,0.4,1.1,0.2,0.9-0.4c-0.4-1-1.5-1.6-2.5-1.3c-0.3,0.1-0.3,0.5-0.2,0.7
				c0.2,0.3,0.5,0.4,0.8,0.3c0.3-0.1,0.7,0.1,0.9,0.4c0.3-0.1,0.6-0.3,0.9-0.4c-0.4-0.6-0.9-1.2-1.3-1.7c-0.3-0.4-1.1-0.2-0.9,0.4
				c0.2,0.5-0.1,1-0.5,1.2c-0.5,0.3-1.2-0.2-1.7,0.3c-0.4,0.4-0.4,1.1,0.1,1.5c0.6,0.5,1.1,0.1,1.5-0.4c0.8-1,2.5-0.6,3.6-0.5
				c1.5,0.1,3.1,0.4,4.5-0.2C57.8,24.8,57.1,23.8,56.5,24L56.5,24z"/>
		</g>
	</g>
	<g class="st1">
		<g>
			<path class="st2" d="M22.6,25.1c0.6,0,1-0.2,1.4-0.6c0.2-0.2,0.3-0.3,0.5-0.4c0.1,0,0.2,0,0.3-0.1c0,0,0,0,0,0c0,0-0.1,0-0.1,0
				c0,0,0-0.1,0,0c0,0.1,0.2,0.2,0.3,0.3c0.1,0.1,0.3,0.2,0.5,0.3c0.3,0.1,0.6,0,1-0.1c0.6-0.2,1.2-0.4,1.7-0.7
				c-0.3-0.2-0.7-0.4-1-0.5c0.1,0.3-0.2,0.6-0.4,0.9c-0.2,0.3-0.3,0.6-0.3,1c0,0.4,0.2,0.7,0.5,1c0.4,0.3,0.9,0.2,1.3,0.1
				c0.7-0.3-0.1-1.2-0.6-1c-0.1,0-0.1,0-0.2,0.1c-0.1,0-0.1,0,0,0c0,0,0.2,0.2,0.2,0.2c0,0,0,0,0,0c0-0.2,0.1-0.3,0.2-0.5
				c0.3-0.5,0.7-0.9,0.6-1.5c-0.1-0.5-0.6-0.8-1-0.5c-0.5,0.3-1,0.4-1.5,0.6c-0.1,0-0.1,0-0.2,0c-0.1,0-0.2,0,0,0.1
				c0.2,0.1,0.1,0,0-0.1c-0.2-0.2-0.5-0.4-0.8-0.5c-0.5-0.1-1,0.1-1.3,0.4c-0.2,0.1-0.3,0.3-0.5,0.4c-0.1,0.1-0.3,0.3-0.4,0.3
				c-0.3,0-0.6,0.1-0.5,0.4C22,24.8,22.3,25.1,22.6,25.1L22.6,25.1z"/>
		</g>
	</g>
	<g>
		<g>
			<path class="st2" d="M24.7,26.8c0.3,0,1.4-0.5,0.8-0.5C25.2,26.3,24.1,26.8,24.7,26.8L24.7,26.8z"/>
		</g>
	</g>
	<g>
		<g>
			<path class="st2" d="M21.9,25.7c2-0.2,4-0.4,6-0.5c0.9-0.1,1.8,0.1,2.7,0.2c1,0.1,1.9,0,2.9,0c0.8-0.1,0.7-1.1-0.1-1
				c-1,0.1-1.9,0.1-2.9,0c-0.9-0.1-1.8-0.2-2.7-0.2c-2,0.2-4,0.4-6,0.5C21.1,24.7,21.1,25.8,21.9,25.7L21.9,25.7z"/>
		</g>
	</g>
	<g>
		<g>
			<path class="st2" d="M27.6,25.4c3.6,1.7,7.5,0.5,11-0.7c0.3-0.1,0.4-0.5,0.3-0.7c-0.2-0.3-0.5-0.4-0.8-0.3
				c-3.1,1-6.6,2.2-9.8,0.8c-0.3-0.1-0.7-0.1-0.9,0.1C27.2,24.9,27.3,25.3,27.6,25.4L27.6,25.4z"/>
		</g>
	</g>
	<g>
		<g>
			<path class="st2" d="M37.2,24.9c4.3,0.2,8.5,0.3,12.8,0.5c0.8,0,0.8-0.8,0-0.9c-4.3-0.2-8.5-0.3-12.8-0.5
				C36.4,24,36.4,24.9,37.2,24.9L37.2,24.9z"/>
		</g>
	</g>
	<g>
		<g>
			<path class="st2" d="M50.4,25.1c1-0.1,1.9-0.3,2.9-0.4c0.4-0.1,0.9-0.2,1.4-0.1c0.4,0.1,0.8,0.3,1.1,0.5c1.6,0.6,3.3,0.9,5,0.6
				c0.2,0,0.6-0.1,0.7-0.4c0-0.3-0.3-0.4-0.5-0.4c-0.9,0.1-1.8,0.1-2.7-0.1c-0.9-0.2-1.7-0.6-2.6-0.9c-0.8-0.3-1.6-0.2-2.4-0.1
				c-1,0.1-2,0.3-3,0.4c-0.2,0-0.6,0.2-0.5,0.5C49.8,25.1,50.2,25.1,50.4,25.1L50.4,25.1z"/>
		</g>
	</g>
	<g>
		<g>
			<path class="st2" d="M57.8,24.9c1.5-0.7,3.3-0.2,4.8-0.2c1.5,0.1,2.9,0,4.4,0c3.2-0.1,6.4-0.1,9.5-0.2c0.4,0,1.3-0.6,0.5-0.6
				c-3.6,0.1-7.1,0.2-10.7,0.2c-1.8,0-3.5-0.1-5.2-0.2c-1.3-0.1-2.6,0-3.9,0.6C56.6,25,57.3,25.2,57.8,24.9L57.8,24.9z"/>
		</g>
	</g>
	<g>
		<g>
			<path class="st2" d="M77.2,25.1c1.8,0.6,3.7,0.3,5.6,0.3c0.8,0,1.8-0.1,2.5,0.2c0.2,0.1,0.2,0.1,0.2,0.2c0,0.2,0,0.4,0,0.5
				c0,0.4,0.2,0.8,0.4,1.1c0-0.2,0-0.5,0-0.7c-0.3,0-0.7,0-0.9-0.3c0,0.3,0.1,0.6,0.1,0.9c0.3-0.1,0.6,0,0.8,0.2
				c0.2,0.1,0.4,0.2,0.5-0.1c0.1-0.3-0.2-0.6-0.4-0.8c-0.4-0.4-0.9-0.5-1.4-0.4c-0.4,0.1,0,0.7,0.1,0.9c0.5,0.5,1.1,0.8,1.8,0.7
				c0.3,0,0.1-0.6,0-0.7c-0.2-0.2-0.1-0.8-0.2-1.1c-0.1-0.4-0.4-0.8-0.7-1.1c-0.7-0.6-1.6-0.6-2.4-0.6c-2.1,0-4.3,0.4-6.4-0.2
				c-0.3-0.1-0.3,0.3-0.2,0.4C76.7,24.7,76.9,25,77.2,25.1L77.2,25.1z"/>
		</g>
	</g>
	<line class="st3" x1="25.1" y1="24.5" x2="40.6" y2="23.5"/>
	<line class="st3" x1="34.2" y1="21.3" x2="48" y2="25"/>
	<line class="st3" x1="45.1" y1="23.5" x2="59.5" y2="20.4"/>
	<line class="st3" x1="52.3" y1="24" x2="67.2" y2="21.3"/>
	<line class="st3" x1="63.1" y1="22.9" x2="76.6" y2="23.5"/>
	<line class="st4" x1="20.2" y1="24" x2="36.8" y2="21.9"/>
	<line class="st4" x1="31.1" y1="22" x2="46.4" y2="24"/>
	<line class="st4" x1="42.3" y1="21.8" x2="53.8" y2="24.8"/>
	<line class="st4" x1="51.6" y1="22.8" x2="60.6" y2="24.7"/>
	<line class="st4" x1="83.9" y1="23.8" x2="70.8" y2="24.6"/>
	<line class="st4" x1="70.3" y1="21.3" x2="81.6" y2="23.8"/>
</g>
</svg>
