<?xml version="1.0" encoding="utf-8"?>
<!-- Generator: Adobe Illustrator 25.0.1, SVG Export Plug-In . SVG Version: 6.00 Build 0)  -->
<svg version="1.1" id="Layer_1" xmlns="http://www.w3.org/2000/svg" xmlns:xlink="http://www.w3.org/1999/xlink" x="0px" y="0px"
	 viewBox="0 0 100 50" style="enable-background:new 0 0 100 50;" xml:space="preserve">
<style type="text/css">
	.st0{fill:#C99F00;stroke:#A78900;stroke-width:0.25;stroke-miterlimit:10;}
	.st1{fill:none;stroke:#A78900;stroke-width:0.25;stroke-miterlimit:10;}
</style>
<g>
	<path class="st0" d="M44,31.3c1.2-0.3,2.2-1.1,3.2-1.9c0.6-0.4,1.1-0.9,1.7-1.3c1-0.8,2.2-2,1.9-3.2c-0.1-0.4-0.4-0.8-0.5-1.2
		c0-0.2-0.1-0.4-0.2-0.6c-0.1-0.2-0.4-0.2-0.6-0.3c-1.7-0.3-3.3-0.5-5-0.7c-0.4-0.1-0.9-0.1-1.3,0c-1.3,0.2-2.1,1.5-3.2,2.2
		c-1.2,0.8-2.9,0.9-3.8,2.1c-0.6,0.7-0.6,1.8-0.2,2.6C37,30.6,42.2,31.7,44,31.3z"/>
	<path class="st0" d="M56,33.3c-1.2-0.3-2.2-1.1-3.2-1.9c-0.6-0.4-1.1-0.9-1.7-1.3c-1-0.8-2.2-2-1.9-3.2c0.1-0.4,0.4-0.8,0.5-1.2
		c0-0.2,0.1-0.4,0.2-0.6c0.1-0.2,0.4-0.2,0.6-0.3c1.7-0.3,3.3-0.5,5-0.7c0.4-0.1,0.9-0.1,1.3,0c1.3,0.2,2.1,1.5,3.2,2.2
		c1.2,0.8,2.9,0.9,3.8,2.1c0.6,0.7,0.6,1.8,0.2,2.6C63,32.7,57.8,33.8,56,33.3z"/>
	<path class="st1" d="M37.6,26.4c1.9-0.5,3.5,2,5.4,1.8c0.8-0.1,1.4-0.5,2-1c1.7-1.3,3.5-2.6,5.2-3.8"/>
	<path class="st1" d="M50.8,25c1.2,0,2.1,1.2,2.6,2.3c0.6,1.1,1.3,2.3,2.5,2.5c0.8,0.1,1.5-0.3,2.2-0.7c0.8-0.4,1.7-0.8,2.5-0.4
		c0.5,0.2,1.1,0.6,1.4,0.2"/>
	<path class="st0" d="M51.3,16.7c1.2,0.3,2.2,1.1,3.2,1.9c0.6,0.4,1.1,0.9,1.7,1.3c1,0.8,2.2,2,1.9,3.2c-0.1,0.4-0.4,0.8-0.5,1.2
		c0,0.2-0.1,0.4-0.2,0.6c-0.1,0.2-0.4,0.2-0.6,0.3c-1.7,0.3-3.3,0.5-5,0.7c-0.4,0.1-0.9,0.1-1.3,0c-1.3-0.2-2.1-1.5-3.2-2.2
		c-1.2-0.8-2.9-0.9-3.8-2.1c-0.6-0.7-0.6-1.8-0.2-2.6C44.2,17.3,49.5,16.2,51.3,16.7z"/>
	<path class="st1" d="M45.2,19.4c0.8-0.3,1.8,0.1,2.5,0.7s1.2,1.4,1.8,2s1.4,1.2,2.3,1.2c0.3,0,0.5-0.1,0.8-0.1
		c1.2-0.3,2.4-0.5,3.7-0.8"/>
</g>
</svg>
