<?xml version="1.0" encoding="utf-8"?>
<!-- Generator: Adobe Illustrator 25.0.1, SVG Export Plug-In . SVG Version: 6.00 Build 0)  -->
<svg version="1.1" id="Layer_1" xmlns="http://www.w3.org/2000/svg" xmlns:xlink="http://www.w3.org/1999/xlink" x="0px" y="0px"
	 viewBox="0 0 100 50" style="enable-background:new 0 0 100 50;" xml:space="preserve">
<style type="text/css">
	.st0{fill:#FFB61F;stroke:#FFB61F;stroke-width:0.5;stroke-miterlimit:10;}
	.st1{fill:#7A4118;stroke:#7A4118;stroke-width:0.5;stroke-miterlimit:10;}
	.st2{fill:#FFDE00;stroke:#FFDE00;stroke-miterlimit:10;}
	.st3{fill:none;stroke:#FFCC00;stroke-width:0.5;stroke-miterlimit:10;}
</style>
<path class="st0" d="M39.5,34.2c2.3-1.8,5.7-2.5,9-2.7c3.3-0.1,6.6,0.4,9.8,0.9c0.8,0.1,1.5,0.2,2.2,0.6c0.5,0.3,0.9,0.7,1.3,1.1
	c0.8,0.9,1.6,1.8,2.4,2.7c0.7,0.2,1.3-0.5,1.4-1.1c0.5-1.6,1-3.2,1.5-4.8c-5.9-0.2-11.8-0.4-17.7-0.6c-2.2-0.1-4.4-0.1-6.6,0.2
	c-1.6,0.2-3.1,0.7-4.7,0.7c-1.1,0.1-4-0.6-4.8,0c-1.3,0.9,1.2,4.6,1.7,5.6C37,36.7,38.3,35.1,39.5,34.2z"/>
<ellipse class="st1" cx="50" cy="30.8" rx="17.9" ry="2"/>
<path class="st2" d="M32.7,25.6c-1.5,0.3-3.4,0.9-3.2,2.1c0.2,0.9,1.5,1.3,2.6,1.5c5.6,0.9,11.3-0.6,17-0.6c7.1,0,14.4,2.2,20.9,0.2
	c0.8-0.7,0.4-1.9-0.6-2.5c-1-0.6-2.2-0.8-3.5-0.9C54.7,24.1,43.8,23.6,32.7,25.6z"/>
<path class="st3" d="M32.7,28c3-2.2,7.7-1.9,11.8-1.8c7.6,0.1,15.7-1.2,22.7,1.2"/>
<path class="st3" d="M34.9,27.2c-0.5-0.3-1.2,0.3-1,0.7c0.2,0.4,0.8,0.7,1.3,0.8c1,0.2,2,0.3,3.1,0.1"/>
</svg>
