<?xml version="1.0" encoding="utf-8"?>
<!-- Generator: Adobe Illustrator 25.0.1, SVG Export Plug-In . SVG Version: 6.00 Build 0)  -->
<svg version="1.1" id="Layer_1" xmlns="http://www.w3.org/2000/svg" xmlns:xlink="http://www.w3.org/1999/xlink" x="0px" y="0px"
	 viewBox="0 0 100 50" style="enable-background:new 0 0 100 50;" xml:space="preserve">
<style type="text/css">
	.st0{fill:#FFB61F;stroke:#FFB61F;stroke-width:0.5;stroke-miterlimit:10;}
	.st1{fill:#FFFFFF;stroke:#FFFFFF;stroke-width:0.5;stroke-miterlimit:10;}
	.st2{fill:none;stroke:#FFF5E1;stroke-width:0.25;stroke-miterlimit:10;}
	.st3{fill:none;stroke:#FFF4CD;stroke-width:0.25;stroke-miterlimit:10;}
	.st4{opacity:0.9;}
	.st5{fill:#FFF1BE;}
	.st6{fill:#FFF6D5;}
	.st7{fill:#FFE483;}
	.st8{fill:#FFDF6F;}
	.st9{fill:#FFECA8;}
	.st10{fill:#FFE896;}
	.st11{fill:#FFDA57;}
	.st12{fill:none;stroke:#AA0037;stroke-width:1.5;stroke-miterlimit:10;}
</style>
<g>
	<path class="st0" d="M39.6,26.9c2.3-1.8,5.7-2.5,9-2.7c3.3-0.1,6.6,0.4,9.8,0.9c0.8,0.1,1.5,0.2,2.2,0.6c0.5,0.3,0.9,0.7,1.3,1.1
		c0.8,0.9,1.6,1.8,2.4,2.7c0.7,0.2,1.3-0.5,1.4-1.1c0.5-1.6,1-3.2,1.5-4.8c-5.9-0.2-11.8-0.4-17.7-0.6c-2.2-0.1-4.4-0.1-6.6,0.2
		c-1.6,0.2-3.1,0.7-4.7,0.7c-1.1,0.1-4-0.6-4.8,0c-1.3,0.9,1.2,4.6,1.7,5.6C37.1,29.4,38.4,27.8,39.6,26.9z"/>
	<path class="st1" d="M50.1,20.5c4.1,0,8.3,0.1,12.4,0.3c1.3,0.1,2.6,0.2,3.9,0.4c0.4,0.1,0.8,0.2,1.1,0.5c0.3,0.3,0.2,0.5,0.3,0.8
		c0,0.1-0.1,0.2-0.1,0.4c0,0.2,0.3,0.2,0.3,0.5c0,1.4-8,2.5-17.9,2.5c-4.1,0-8.1-0.1-12.2-0.7c-1.2-0.2-5.7-0.4-5.8-2.1
		c-0.1-0.6,0.4-1.4,1-1.7c0.2-0.1,0.4-0.1,0.6-0.1C39.1,20.9,44.6,20.6,50.1,20.5z"/>
	<g>
		<g>
			<path class="st2" d="M42.8,23.4"/>
		</g>
	</g>
	<g>
		<g>
			<path class="st3" d="M53.4,27.7"/>
		</g>
	</g>
	<g>
		<g>
			<g>
				<g class="st4">
					<g class="st4">
						<g>
							<path class="st5" d="M40.4,25.1c0,0.1,0.1,0.1,0,0.2l-0.2,0C40.3,25.1,40.3,25,40.4,25.1z"/>
						</g>
						<g>
							<path class="st5" d="M41.4,23.5c0.1,0,0.2,0,0.3,0c0.1,0,0.1,0,0.2,0l0,0c0.1,0,0.1,0,0.2,0c0.1,0,0.1,0,0.2,0c0,0,0,0,0,0
								c0.1,0,0.1,0,0.2,0c0,0,0,0,0,0.1c0,0,0.1,0,0.1-0.1c0.1,0,0.1,0,0.2,0c0,0,0,0,0,0c0.1,0,0.3,0,0.4,0c0.2,0,0.5,0,0.7,0.1
								l0,0.1c0,0,0.1,0,0.1,0l0-0.1c0.1,0,0.2,0,0.4,0c0,0,0.1,0,0.1,0c0.1,0.1,0.1,0,0.1,0l0.2,0.1c0,0,0,0,0.1,0l0.1,0.1
								c0.3,0,0.5,0,0.7,0c0.2,0,0.5-0.1,0.6,0.1c0.1-0.1,0.2,0,0.3,0c0,0.1,0.1,0,0.1,0.1c0,0,0.1,0,0.1,0c0,0,0.1,0,0.1,0
								c0,0,0.1,0,0.1,0l0.5,0c0.1,0,0.1,0,0.2,0c0,0,0.1,0,0.2,0c0,0,0.1,0,0.2,0c0.1,0,0.1,0,0.2-0.1c0,0,0,0,0,0
								c0.1,0,0.1,0,0.2,0c0.1,0,0.1,0,0.2,0c0,0,0.1,0,0.1,0c0.1-0.1,0.2-0.1,0.2-0.1c0.1,0,0.3,0,0.4,0c0,0,0.1-0.1,0.1-0.1
								c0,0,0,0.1,0,0.1c0.1,0,0.2,0,0.4,0c0-0.1,0-0.1,0-0.2c0.1,0,0.1-0.1,0.1-0.2c0,0,0.1,0,0.2,0c0.2,0,0.3,0.1,0.3,0
								c0.1,0,0.2,0,0.3-0.1c0.2,0.1,0.3,0,0.3,0c0,0,0.1,0,0.1,0l0.2,0c0.1,0.1,0.2,0,0.2-0.1c0.1,0,0.1,0,0.2,0c0.1,0,0.2,0,0.2,0
								c0.1,0,0.1,0,0.2-0.1c0,0,0.1,0,0.1,0l0,0c0-0.1,0.1-0.1,0.2-0.1l0,0C52.9,23,53,23,53,23c0,0,0-0.1,0-0.1c0.1,0,0.1,0,0.2,0
								l0.1,0c0,0,0-0.1,0-0.1l0.1,0c0.1,0,0.2,0,0.3,0c0,0.1,0,0.1,0,0.2c0,0-0.1,0.1-0.1,0.1c0,0,0,0,0,0c0-0.1,0-0.1-0.1-0.2
								c0,0-0.1,0-0.1,0c-0.1,0.1-0.1,0-0.2,0.1c0,0-0.1,0-0.1,0c-0.1,0-0.1,0-0.2,0l-0.1,0.1c0,0.1-0.1,0.1-0.2,0.1c0,0,0,0,0,0.1
								c0,0,0,0,0,0c-0.1,0-0.1,0-0.2,0c-0.1,0-0.1,0.1-0.2,0.1c-0.1,0-0.1,0-0.1,0c0,0-0.1,0-0.1,0c0,0,0,0,0,0.1
								c-0.1,0-0.3,0-0.4,0c0,0-0.1,0.1-0.1,0.1l-0.2,0c0,0-0.1,0-0.2,0l-0.1,0l0,0c-0.1,0-0.1,0-0.2,0l0,0c-0.1,0-0.1,0.1-0.2,0.1
								c-0.1,0-0.1,0-0.2,0c0,0.1,0.2,0.2,0.2,0.1c0,0,0,0,0,0c0.1,0,0.1,0.1,0.1,0.1c-0.2,0.2-0.3,0.1-0.4,0.1
								c-0.2,0-0.2,0.2-0.3,0.1c-0.1-0.1-0.2,0-0.2,0.1l-0.4,0c0-0.1-0.1,0-0.1,0c-0.3,0.2-0.5-0.1-0.8,0.1c-0.1-0.1-0.2,0-0.3,0
								c-0.1,0-0.2,0-0.2,0c-0.1,0.2-0.3-0.1-0.4,0c-0.1,0-0.2,0-0.2,0c-0.1,0-0.2,0.1-0.3,0c-0.1,0-0.1-0.1-0.2-0.1
								c-0.1,0.1-0.3,0-0.4,0.1c-0.2-0.1-0.5,0.1-0.7-0.1c-0.1,0.1-0.4,0-0.6,0l-0.1,0c0-0.1-0.1-0.1-0.1-0.1c0,0-0.1,0-0.1,0
								c0,0-0.1,0-0.1-0.1c0,0,0,0,0,0c0,0,0.1-0.1,0.1-0.1c-0.1-0.1-0.1-0.1-0.2-0.1l0,0.1c0,0-0.1,0-0.1,0.1c0,0-0.1-0.1-0.1-0.1
								c-0.1-0.1-0.1,0.1-0.1,0.1l-0.2-0.1c-0.2,0-0.3-0.1-0.4,0l0-0.1c0,0-0.1,0-0.1,0c-0.1,0-0.2,0-0.2,0c0,0.1-0.2,0.1-0.2,0
								l-0.2,0l-0.1,0.1c0,0.1-0.1,0.2-0.1,0.1c0,0,0-0.1,0-0.1l-0.1,0c0,0-0.1-0.1-0.1-0.1l-0.1,0c0,0-0.1,0-0.1,0
								c-0.1,0-0.1,0-0.2,0.1c0,0,0,0.1,0,0.1c0,0-0.1,0.1-0.1,0.1c-0.1,0-0.2-0.1-0.3-0.1c-0.2-0.1-0.1-0.2-0.1-0.3l-0.1,0
								c0-0.1,0-0.1-0.1-0.2C41.2,23.5,41.3,23.5,41.4,23.5z"/>
						</g>
						<g>
							<path class="st5" d="M42,25.5c0.1-0.1,0.1,0,0.2,0C42.1,25.6,42,25.7,42,25.5z"/>
						</g>
						<g>
							<path class="st6" d="M42.5,25C42.5,25,42.6,24.9,42.5,25c0.3,0,0.4-0.1,0.6,0c0.1-0.2-0.1-0.2,0-0.3c0-0.1,0.1,0,0.1-0.1
								c0,0,0,0,0,0c0.1-0.1,0.1-0.2,0.1-0.2c0.1,0,0.1,0,0.2,0c0,0.1,0.1,0.1,0.1,0.2c0,0.1-0.1,0-0.1,0.2l-0.1,0
								c0.2,0.1,0.3,0.1,0.4,0.1c0,0,0.1,0.1,0.1,0.1c0,0,0,0.1-0.1,0.1c0,0-0.1,0-0.1,0c-0.1,0-0.2,0-0.3,0c0,0-0.1,0-0.1,0
								c0,0.1,0,0.1-0.1,0.2l-0.1,0.1c-0.1,0-0.1,0-0.2-0.1c-0.1,0-0.1,0-0.2,0l0,0c-0.1,0-0.2,0-0.2-0.1C42.5,25.1,42.5,25,42.5,25
								z"/>
						</g>
						<g>
							<path class="st7" d="M41.1,25.2l0.3-0.1l0.3,0l0,0c0,0.1,0,0.1,0.1,0.2c0.1,0,0.1-0.1,0.1-0.1c0.1,0,0.2,0,0.3,0
								c0,0,0.1,0,0.1,0c0,0,0,0.1,0.1,0.2c0.1,0,0.2,0,0.3-0.1l0,0c0.1,0,0.1-0.1,0.2,0c0,0,0.1,0,0.2,0.1l0.1-0.1
								c0.1,0,0.1,0,0.2,0c0,0,0-0.1,0-0.2c0.1,0,0.2,0,0.3,0l0,0.3c0.2,0.2,0.4,0,0.6,0.1c0.3,0.1,0.5,0,0.7,0.1
								c-0.4,0.1-0.8,0-1,0.1c0,0,0,0,0,0c-0.2,0-0.4-0.1-0.6-0.1c-0.1,0-0.2,0.1-0.2,0l-0.1,0c0,0,0,0,0,0c-0.1,0-0.1,0-0.2,0
								c0,0,0,0.1,0,0.1c-0.1,0-0.2,0.1-0.2,0.1c-0.2,0-0.3,0-0.5,0c0-0.1-0.1-0.1-0.2,0l-1-0.2C41,25.3,41.1,25.3,41.1,25.2z"/>
						</g>
						<g>
							<path class="st8" d="M42.7,25.6c0,0,0.1-0.1,0.2-0.1c0,0,0-0.1,0-0.1c0.1,0,0.1,0,0.2,0c0,0,0,0,0,0l0.1,0
								c0,0.1,0.1,0.1,0.2,0c0.2,0,0.4,0.1,0.6,0.1c0,0,0,0,0,0c0.3-0.1,0.7,0,1-0.1c-0.2-0.1-0.4,0-0.7-0.1
								c-0.2-0.1-0.5,0.1-0.6-0.1l0-0.3c0,0,0.1,0,0.1,0c0,0,0.1,0.1,0.1,0.1c0.1,0,0-0.1,0.1-0.1c0.1,0,0.1,0,0.2,0
								c0.1,0,0.3,0,0.4,0c0.1,0,0.2,0,0.3,0c0,0,0.1,0,0.1,0.1c0.1,0.1,0.2,0.1,0.2,0.1c0,0,0.1,0.1,0.1,0.1c0,0,0.1,0,0.1-0.1
								c0.1,0,0.1,0,0.2,0.1c0.1,0,0.1-0.1,0.2-0.1c0.1,0,0.1,0,0.2,0l0.1,0c0.1,0.2,0.1-0.1,0.2,0c0,0,0,0,0,0c0.1-0.1,0.2,0,0.3,0
								l0.1,0.1c0,0,0.1,0,0.1,0l0.2,0c0,0,0,0,0,0c0.1,0,0.2,0,0.3,0c0.2,0,0.2-0.1,0.3-0.1c0.1,0.1,0.2,0,0.2,0c0.1,0,0.2,0,0.2,0
								c0.1,0,0.2,0,0.3,0c0,0,0.1-0.1,0.1-0.1c0,0,0,0,0,0c0,0,0.1,0,0.1,0c0.1,0,0.2,0.1,0.3,0c0.1,0,0.2,0,0.3,0
								c0.1,0,0.2,0,0.3-0.1c0.1,0,0.1,0,0.2-0.1c0.2,0,0.3-0.1,0.4-0.1l0.2-0.1l0.2-0.1c0,0,0.1,0,0.1,0c0.3,0.1,0.4,0,0.6-0.1
								c0.1,0,0.2,0,0.2-0.1c0,0,0.1,0,0.1,0c0.1,0.1,0.1,0,0.2,0l0,0c0.1,0,0.1,0,0.2,0c0,0,0,0,0,0c0.1,0,0.1,0,0.1,0c0,0,0,0,0,0
								c0,0,0.1,0,0.2,0c0,0,0.1,0,0.1,0c0,0,0.1,0,0.1,0l0.3,0c-0.1,0.1-0.2,0.2-0.3,0.1c0,0-0.1,0-0.1,0c-0.1,0.1-0.2,0.1-0.3,0
								l0,0.1c0,0-0.1,0-0.1,0c0,0.1-0.1,0.1-0.1,0.1l0,0.1L52,24.9c0,0-0.1-0.1-0.1-0.1c0,0.1,0.1,0.4-0.1,0.3
								c-0.2,0-0.4,0.1-0.6,0c-0.1,0.1-0.1,0.1-0.2,0.1c0-0.1-0.1-0.1-0.1-0.1c-0.1,0-0.1,0.1-0.3,0.1c0,0,0,0-0.1,0
								c-0.1,0.1-0.1,0.1-0.1,0.1c0.1,0.1,0.1,0,0.2,0l0,0l0.1,0c-0.1,0-0.1,0-0.1,0c0,0.1,0,0.1,0,0.2l-0.1,0
								c-0.1-0.1-0.2-0.1-0.3-0.2c0,0,0,0-0.1,0c-0.1,0-0.1,0.1-0.1,0.1c0,0,0,0,0,0l-0.1,0.1c-0.1,0-0.1,0-0.1,0c0,0,0,0,0,0
								c-0.1,0-0.1,0-0.1,0c0,0-0.1,0-0.1-0.1c0,0,0-0.1,0-0.2c0,0,0,0,0-0.1c0,0,0,0,0,0c-0.1,0.1-0.2,0.1-0.2,0.2c0,0,0,0,0,0
								c-0.1,0-0.2,0-0.3,0c-0.1,0-0.1,0-0.1,0.1c-0.1,0-0.2,0-0.3-0.1c-0.2,0.1-0.3,0.1-0.4,0c-0.1,0-0.2,0-0.3,0c0,0,0,0-0.1,0
								c0,0-0.1,0-0.1,0l-0.1,0c0,0-0.1,0.1-0.1,0.1c-0.1,0-0.2,0-0.2,0c-0.2,0-0.5,0-0.7,0c-0.1,0-0.1,0.1-0.2,0.1c0,0,0,0-0.1,0
								l-0.1-0.1c-0.1,0-0.2,0-0.3,0c-0.1,0-0.2,0-0.2,0c0,0-0.1,0-0.1,0c-0.6,0-1.2-0.1-1.8-0.1c-0.1-0.1-0.1,0-0.1,0
								c-0.1,0-0.3,0-0.4-0.1C42.8,25.6,42.8,25.6,42.7,25.6z"/>
						</g>
						<g>
							<path class="st5" d="M43.3,25c0,0,0.1,0,0.1,0c0,0,0,0.1,0,0.2c-0.1,0-0.1,0-0.2,0C43.3,25.1,43.3,25,43.3,25z"/>
						</g>
						<g>
							<path class="st9" d="M41.9,23.9c0,0,0.1,0,0.2-0.1c0,0,0.1,0,0.1,0l0.1,0c0,0,0,0,0-0.1l0.1,0.1l0.1,0c0,0,0,0.1,0,0.1
								c0.1,0,0.2,0,0.1-0.1l0.1-0.1l0.2,0c0,0.1,0.1,0.1,0.2,0c0.1,0,0.1,0,0.2,0c0,0,0.1,0,0.1,0l0,0.1c0.1-0.1,0.3,0.1,0.4,0
								l0.2,0.1c0.1,0,0-0.2,0.1-0.1c0,0,0.1,0.1,0.1,0.1c0,0,0.1-0.1,0.1-0.1l0-0.1c0,0,0,0,0.1,0c0,0.1,0.1,0.1,0.1,0.2l-0.1,0.1
								c0.1,0.1,0.1,0.1,0.1,0.1c0,0,0.1,0,0.1,0c0,0,0.1,0,0.1,0.1l0.1,0c0.2,0,0.4,0.1,0.6,0c0.2,0.1,0.5,0,0.7,0.1
								c0.1-0.1,0.3,0,0.4-0.1c0.1,0,0.1,0.1,0.2,0.1c0,0.1,0.2,0,0.3,0c0.1,0,0.1,0,0.2,0c0.2-0.1,0.3,0.2,0.4,0c0.1,0,0.2,0,0.2,0
								c0.1,0,0.2-0.1,0.3,0c0.3-0.2,0.5,0.1,0.8-0.1c0.1,0,0.1-0.1,0.1,0l0.4,0c0-0.1,0.1-0.1,0.2-0.1c0.2,0.1,0.2-0.1,0.3-0.1
								c0.1-0.1,0.3,0.1,0.4-0.1c-0.1,0-0.1-0.1-0.1-0.1c0,0,0,0,0,0c0,0.1-0.2,0.1-0.2-0.1c0,0,0.1,0,0.2,0c0.1,0,0.1-0.1,0.2-0.1
								l0,0c0.1,0,0.2,0,0.2,0l0,0l0.1,0c0,0,0.1,0,0.1,0c0,0,0,0,0,0l0.2,0c0,0,0-0.1,0-0.1c0,0,0,0,0,0c0.2,0,0.3,0,0.4,0
								c0,0,0,0,0-0.1c0,0,0.1,0,0.1,0c0,0,0,0.1,0,0.1c0,0,0.1,0.1,0.1,0.1c0,0,0,0.1-0.1,0.1c-0.1,0.1-0.3,0.2-0.4,0.2
								c-0.1-0.1-0.1,0-0.3,0c0,0,0,0,0,0.1c-0.1,0-0.2,0-0.4,0.1c-0.1,0-0.1,0.1-0.1,0.1c0,0-0.1,0-0.1,0c-0.1,0.1-0.2,0.1-0.3,0.2
								c-0.6,0-1,0.1-1.5,0.2c-0.1,0-0.1-0.1-0.3,0c0,0-0.1,0-0.2,0c-0.2-0.1-0.3,0-0.4-0.1c-0.1,0-0.1,0.1-0.1,0.1c0,0-0.1,0-0.1,0
								c-0.1,0-0.2,0-0.2,0c-0.1-0.1-0.1,0-0.2,0l0,0c-0.1,0-0.2,0-0.3,0c0,0,0,0-0.1,0c-0.1,0-0.2-0.1-0.2-0.1c-0.1,0-0.2,0-0.3,0
								l-0.1,0c0,0,0,0,0,0c-0.2-0.1-0.6,0-0.8-0.1c-0.1,0.1-0.3,0-0.4,0c0-0.1-0.1,0-0.2-0.1c0,0-0.1,0-0.1,0c-0.2,0-0.4,0-0.5-0.1
								c-0.1,0-0.2,0.1-0.2,0.1c0,0,0,0,0-0.1c-0.1,0-0.1,0-0.1,0c0,0,0-0.1,0-0.1c-0.1,0-0.2,0.1-0.2,0.1c-0.1,0-0.1,0-0.1-0.1
								c0,0-0.1,0-0.1,0c0,0-0.1,0.1-0.1,0.1c0-0.1-0.1-0.1-0.1-0.2c-0.1,0-0.1,0-0.2,0c0,0-0.1,0-0.2,0l0,0l-0.2,0l-0.1-0.1
								c-0.1,0-0.2,0.1-0.4,0c-0.1,0-0.2,0-0.3,0c-0.1,0-0.1-0.1-0.2-0.1C41.9,24,41.9,23.9,41.9,23.9z"/>
						</g>
						<g>
							<path class="st10" d="M43.5,24.6c0,0,0.1,0,0.1,0c0.1,0,0.1-0.1,0.1-0.1c0,0,0.1,0,0.1,0c0,0,0.1-0.1,0.1-0.1
								c0,0,0-0.1,0-0.1c0.1-0.1,0.1-0.1,0.2-0.1c0,0,0,0.1,0,0.1c0,0,0,0,0.1,0c0,0,0,0.1,0,0.1c0.1,0,0.2-0.1,0.2-0.1
								c0.1,0.1,0.3,0.1,0.5,0.1c0,0,0.1,0,0.1,0c0.1,0.1,0.2,0,0.2,0.1c0.1,0,0.3,0,0.4,0c0.2,0.1,0.5,0,0.8,0.1c0,0,0,0,0,0l0.1,0
								c0.1,0,0.2,0,0.3,0c0.1,0,0.1,0.1,0.2,0.1c0,0,0.1,0,0.1,0c0.1,0,0.2,0,0.3,0l0,0c0,0,0.1-0.1,0.2,0c0,0,0.1-0.1,0.2,0
								c0,0,0.1,0,0.1,0c0,0,0-0.1,0.1-0.1c0.1,0.1,0.2,0,0.4,0.1c0,0,0.1,0,0.2,0c0.2-0.1,0.2,0,0.3,0c0.5-0.1,1-0.2,1.5-0.2
								c0.1-0.1,0.2-0.1,0.3-0.2c0,0,0.1,0,0.1,0c0,0,0-0.1,0.1-0.1c0.1,0,0.3,0,0.4-0.1c0,0,0,0,0-0.1c0.1,0,0.2,0,0.3,0
								c0.1,0,0.3-0.2,0.4-0.2c0,0,0-0.1,0.1-0.1c0,0-0.1-0.1-0.1-0.1c0,0,0,0,0-0.1c0,0,0.1,0,0.1,0c0-0.1,0.1-0.2,0.2-0.1
								c0.1,0,0.2,0,0.2,0c0,0,0,0,0,0c0,0,0.1,0,0.1,0c0.1-0.1,0.3-0.1,0.4-0.2c0.1,0,0.2,0,0.4,0c0,0,0,0,0,0c0,0,0,0.1,0,0.1
								c0,0-0.1,0-0.1,0.1c0,0-0.1,0,0,0.1c0.2,0,0.2,0.1,0.4,0.1c0,0,0.1,0,0.1,0l0.2,0.1L54,23.7c-0.2,0-0.5,0.1-0.7,0
								c-0.1,0-0.1,0.2-0.2,0.1c-0.1,0.1-0.3,0.2-0.4,0.2l-0.1,0.1c0,0-0.1,0-0.2,0c0,0,0,0,0,0l-0.2-0.1l-0.1,0.2l0.1,0.1
								c0,0,0,0,0,0.1c0,0,0,0,0,0c-0.1,0-0.1,0-0.2,0c-0.1,0-0.1,0-0.2,0c0,0,0,0.1,0,0.1c0,0-0.1,0-0.1,0c-0.1,0-0.2,0-0.2,0.1
								c-0.1,0.1-0.3,0.1-0.6,0.1c-0.1,0-0.1,0-0.1,0l-0.2,0.1c-0.1,0-0.2,0-0.2,0l-0.4,0.1c0,0-0.1,0-0.1,0c-0.1,0-0.1,0-0.1,0.1
								c-0.2,0-0.3,0-0.5,0c-0.2,0-0.3,0-0.4,0.1c0,0,0,0,0,0c0,0,0,0,0,0c0,0-0.1,0-0.1-0.1c-0.1,0-0.2,0-0.3,0c0,0,0,0-0.1-0.1
								L48,24.9c0,0-0.1,0-0.1,0c0,0-0.1,0.1-0.1,0.1l-0.1,0c0,0-0.1,0-0.1,0c-0.1,0-0.2,0-0.2,0c0,0-0.1,0-0.1,0l0,0
								c0,0-0.1,0-0.1,0c0,0,0,0,0,0c-0.1,0-0.1,0-0.1,0c0,0-0.1,0-0.1,0c-0.1,0-0.2,0-0.3,0L46.3,25c-0.1,0-0.2,0-0.2,0.1
								c0,0-0.1-0.1-0.1-0.1c0,0-0.1,0-0.1,0.1c-0.1,0-0.1,0-0.2,0c0,0,0,0,0,0l-0.1,0c-0.1,0-0.2,0-0.2,0l0,0
								c0.1-0.1,0.2-0.1,0.4-0.1l0,0c-0.2-0.1-0.4,0-0.5-0.1c-0.2,0-0.5-0.1-0.7,0c0,0-0.1-0.1-0.1-0.1c0,0,0,0-0.1,0
								c-0.1,0-0.1,0-0.1,0c0,0,0,0.1,0,0.1c-0.1,0.1-0.1,0.1-0.2,0.2c0,0,0,0.1,0.1,0.1C44,24.9,44,25,44,25c0,0-0.1-0.1-0.1-0.1
								c0,0,0-0.1,0.1-0.1c0,0-0.1-0.1-0.1-0.1c-0.1,0-0.3,0-0.4-0.1L43.5,24.6z"/>
						</g>
						<g>
							<path class="st5" d="M43.7,24.3c0,0,0.1,0,0.1,0c0,0,0.1,0,0.1,0.1c0,0,0,0,0,0.1c0,0-0.1,0.1-0.1,0.1c0,0-0.1,0-0.1,0
								C43.7,24.5,43.7,24.4,43.7,24.3C43.7,24.4,43.7,24.3,43.7,24.3z"/>
						</g>
						<g>
							<path class="st5" d="M51.3,25.6C51.4,25.6,51.4,25.6,51.3,25.6c0.2,0,0.3,0,0.4,0c0,0,0,0.1,0,0.1c0.1,0,0.1,0,0.2,0
								c0,0,0,0,0.1,0.1c0,0.1-0.2,0.1-0.3,0c0,0,0,0,0,0.1c-0.1,0-0.2,0-0.4,0c-0.1,0-0.2,0-0.3,0c0-0.1,0-0.1,0-0.2
								C51.1,25.7,51.2,25.6,51.3,25.6z"/>
						</g>
						<g>
							<path class="st7" d="M54.3,23.2c-0.1-0.2,0.3,0,0.2-0.3l0-0.1c0,0,0-0.1,0-0.1c0,0,0.1,0,0.1,0c0,0,0-0.1,0-0.1
								c0.1,0,0.1-0.1,0.2-0.1c0.1,0.1,0.1,0.2,0.1,0.2c0,0-0.1,0-0.1,0.1c0,0.1,0,0.1,0,0.2c0,0,0,0,0,0c0,0,0,0.1,0,0.1
								c0.1,0,0.1,0,0.2,0l0,0.1c0,0.1,0,0.1,0.1,0.2c-0.1,0-0.2,0-0.2,0c0,0,0,0,0,0l0-0.1c0,0,0,0-0.1,0c-0.1,0-0.1,0.1-0.2,0.1
								c0,0.1,0,0.1,0.1,0.2c0,0,0,0,0,0c0,0,0,0.1,0,0.1c0,0,0.1,0,0.1,0.1c0,0.1,0,0.1,0,0.2c0,0,0,0,0,0L54.7,24
								c-0.1,0-0.1-0.1-0.2-0.2l0-0.1l0-0.1l0.1-0.1c0,0,0-0.1,0-0.1c0,0,0,0,0-0.1C54.5,23.3,54.4,23.3,54.3,23.2z"/>
						</g>
						<g>
							<path class="st5" d="M54.6,22.4c0,0,0.1,0.1,0.1,0.1c0,0,0,0.1,0,0.1c0,0-0.1,0-0.1,0c0,0,0-0.1-0.1-0.1
								C54.5,22.5,54.5,22.5,54.6,22.4z"/>
						</g>
						<g>
							<path class="st5" d="M55.5,23.7l-0.1-0.3l0,0c0,0,0-0.1,0-0.1c0-0.1,0-0.2-0.1-0.3c0-0.1-0.1-0.2,0-0.2l0.1,0
								c0,0.1,0,0.1,0,0.2c0.1,0.1,0.2,0.2,0.1,0.3C55.6,23.4,55.7,23.6,55.5,23.7c0,0.1,0,0.2,0,0.3l-0.1,0c0,0,0,0,0-0.1
								C55.4,23.9,55.5,23.8,55.5,23.7z"/>
						</g>
						<g>
							<path class="st6" d="M41.4,23.8c0,0.1-0.1,0.2,0.1,0.3c-0.1,0-0.1,0-0.2,0c-0.1-0.1-0.1-0.3,0-0.3L41.4,23.8z"/>
						</g>
						<g>
							<path class="st6" d="M41.2,25.1c0-0.1,0-0.1,0.1-0.2c0.3-0.2,0.1,0.1,0.3,0.1l0.1,0l0.1,0.1l-0.3,0l-0.3,0.1
								C41.1,25.2,41.1,25.1,41.2,25.1z"/>
						</g>
						<g>
							<path class="st6" d="M42,25.1c0.1-0.1,0-0.3,0.2-0.2c0.1,0.1,0.1,0.1,0.1,0.2C42.2,25.1,42.1,25.1,42,25.1z"/>
						</g>
						<g>
							<path class="st6" d="M42.4,23.4c0,0,0.1,0,0.1,0.1c0,0,0.1,0,0.1,0c0,0,0.1,0,0.1,0c0,0,0,0,0,0.1c0,0,0,0,0,0
								c-0.1,0-0.1,0-0.2,0c0,0-0.1,0.1-0.1,0.1c0,0,0,0,0-0.1c0,0-0.1,0-0.2,0c0,0,0,0,0,0C42.3,23.5,42.3,23.5,42.4,23.4z"/>
						</g>
						<g>
							<path class="st6" d="M42.4,24.6c0.2-0.1,0.3-0.1,0.3,0C42.5,24.7,42.4,24.7,42.4,24.6z"/>
						</g>
						<g>
							<path class="st6" d="M42.9,25.6c0.1,0,0.3,0,0.4,0.1c0,0,0,0,0,0.1c0,0,0.1,0,0.1,0c0.6,0,1.2,0.1,1.8,0.1c0,0.1,0,0.1,0,0.2
								c-0.2,0-0.3-0.1-0.5,0c-0.2-0.1-0.3,0.1-0.5,0.1c0,0,0-0.1,0-0.1c-0.2,0-0.3,0.2-0.5,0c-0.1,0-0.1,0-0.2,0.1
								c-0.1,0-0.1,0-0.2-0.1l0-0.1c-0.1,0-0.1,0-0.2,0c-0.1,0-0.2,0.1-0.3,0c0,0-0.1,0.1-0.1,0c0-0.1-0.1-0.1-0.1-0.2
								C42.8,25.6,42.8,25.6,42.9,25.6z"/>
						</g>
						<g>
							<path class="st6" d="M43.8,23.6c0,0,0.1,0,0.1,0l0,0.1C43.9,23.7,43.9,23.7,43.8,23.6L43.8,23.6z"/>
						</g>
						<g>
							<path class="st6" d="M44.4,23.6c0.1-0.1,0.1-0.1,0.1,0C44.5,23.6,44.4,23.6,44.4,23.6z"/>
						</g>
						<g>
							<path class="st6" d="M44.9,23.7c0.3-0.1,0.5,0,0.8,0c0.3-0.1,0.7,0,1.1,0c0,0,0.1,0,0.1,0c0,0,0,0,0,0c0.5-0.1,1,0.1,1.4-0.1
								c0,0,0.1,0,0.2,0c0.2-0.1,0.4,0,0.7-0.1c0.1-0.1,0.3,0,0.4-0.1c0.3,0,0.5-0.2,0.7-0.1c0,0,0,0.1-0.1,0.2c0,0.1,0,0.1,0,0.2
								c-0.1,0-0.2,0-0.4,0c0,0,0-0.1,0-0.1c0,0-0.1,0.1-0.1,0.1c-0.1,0-0.3,0-0.4,0c-0.1,0-0.2,0-0.2,0.1c0,0-0.1,0-0.1,0
								c-0.1,0-0.2,0-0.2,0c-0.1,0-0.2,0-0.2,0c0,0,0,0,0,0c0,0-0.1,0-0.2,0.1c0,0-0.1,0-0.2,0c-0.1,0-0.1,0-0.2,0
								c-0.1,0-0.1,0-0.2,0l-0.5,0c0,0-0.1,0-0.1,0c0,0-0.1,0-0.1,0c0,0-0.1,0-0.1,0c0,0-0.1,0-0.1-0.1c-0.1,0-0.2,0-0.3,0
								c-0.1-0.2-0.4-0.1-0.6-0.1c-0.3,0-0.4,0-0.7,0L44.9,23.7z"/>
						</g>
						<g>
							<path class="st6" d="M45.6,25.7c0.1,0,0.2,0,0.3,0l0.1,0.1c0,0.1-0.2,0-0.2,0.1c-0.1,0.1-0.2,0-0.2-0.1c-0.1,0-0.1,0-0.2,0
								c0,0,0-0.1,0-0.1C45.4,25.8,45.5,25.8,45.6,25.7z"/>
						</g>
						<g>
							<path class="st6" d="M47.1,25.7c0.1,0,0.1,0,0.2,0l0.1,0c0.1,0,0.1-0.1,0.1-0.1c0,0,0.1,0,0.1,0c0,0,0,0,0.1,0
								c0.1,0,0.2,0,0.3,0c0.1,0.1,0.2,0,0.4,0c0.1,0,0.2,0,0.3,0.1c0.1,0,0.1-0.1,0.1-0.1c0.1,0,0.2,0,0.3,0l0.3,0
								c0,0,0.1,0,0.1,0.1c0.1,0,0.1,0,0.1,0c0,0,0,0,0,0c0,0,0.1,0,0.1,0c0,0.1,0.1,0.1,0.1,0.2c0.1,0,0.1-0.1,0.1,0l0.2,0
								c0,0,0.1,0,0.1,0c0,0,0-0.1,0-0.1l0.1,0c0.1,0,0.1,0,0.2,0c0.1,0,0.2,0,0.3,0l0,0c0,0,0,0.1,0,0.2c0,0-0.1,0.1-0.1,0.1
								c0,0-0.1,0-0.1,0c-0.1,0-0.1,0-0.2,0.1c0,0-0.1,0-0.2,0c-0.1,0-0.1,0-0.1,0c-0.2,0-0.4,0-0.6,0c0,0,0,0,0,0
								c-0.1,0-0.2,0-0.2-0.1c0,0-0.1,0-0.1,0c-0.1-0.1-0.2-0.1-0.2,0c0,0-0.1,0-0.1,0c-0.1,0,0,0.1-0.1,0.1l-0.1-0.1
								c-0.1,0-0.2-0.1-0.2,0c-0.1,0-0.2,0-0.2,0c-0.1,0-0.1,0-0.2,0.1c0-0.1,0-0.1-0.1,0c-0.2-0.1-0.4-0.1-0.5,0
								c-0.1,0-0.2-0.1-0.2,0c-0.2,0-0.3,0-0.5,0c0.1,0.1-0.1,0.1-0.2,0c-0.1-0.2-0.3,0-0.4-0.2c0.1,0,0.1-0.1,0.2-0.1
								C46.6,25.7,46.9,25.7,47.1,25.7z"/>
						</g>
						<g>
							<path class="st6" d="M50.4,23.4c0.1-0.1,0.3-0.1,0.3,0C50.7,23.5,50.6,23.4,50.4,23.4z"/>
						</g>
						<g>
							<path class="st6" d="M51.1,23.3c0.1-0.1,0.2-0.1,0.3,0C51.3,23.3,51.2,23.4,51.1,23.3z"/>
						</g>
						<g>
							<path class="st6" d="M51.4,23.3c0.1-0.1,0.2-0.1,0.2-0.1c0.1,0,0.1,0,0.2,0c0,0,0,0.1-0.2,0.1L51.4,23.3z"/>
						</g>
						<g>
							<path class="st6" d="M52,23.2c0.1-0.1,0.2-0.1,0.2-0.1c0.1,0,0.1,0,0.2-0.1l0.2-0.1c0.1,0,0.2-0.1,0.4-0.1
								c0.1,0,0.1,0,0.2-0.1c0.1,0,0.1,0,0.2,0c0,0,0,0.1,0,0.1l-0.1,0c-0.1,0-0.1,0-0.2,0c0,0,0,0.1,0,0.1c0,0-0.1,0-0.1,0.1l0,0
								c-0.1,0-0.1,0-0.2,0.1l0,0c-0.1,0-0.1,0-0.1,0c-0.1,0-0.1,0.1-0.2,0.1C52.2,23.2,52.1,23.2,52,23.2z"/>
						</g>
						<g>
							<path class="st6" d="M53.8,22.8c0-0.2,0.2-0.1,0.3-0.1c0.1-0.1,0.3-0.1,0.2-0.2c0.1,0,0.1,0,0.1,0.1c0,0,0,0.1,0.1,0.1
								c-0.1,0-0.2,0.1-0.3,0.1l-0.1,0c0,0,0,0,0,0c0,0,0,0-0.1,0C54,22.8,53.9,22.8,53.8,22.8z"/>
						</g>
						<g>
							<path class="st6" d="M54.6,22.4c0-0.1,0-0.1,0-0.1c0-0.1,0-0.1,0.1-0.2c0.1,0,0.1,0.2,0.2,0.3c0,0,0-0.1,0-0.2
								c0,0.2,0.2,0.1,0.2,0.2c0,0,0,0,0,0.1c0,0.1,0.1,0.1,0.2,0.2c0,0.1,0,0.1,0,0.2c-0.1,0,0,0.1,0,0.2c0,0.1,0,0.2,0.1,0.3
								c0,0,0,0.1,0,0.1l-0.2-0.1c0-0.1,0-0.1-0.1-0.2l0-0.1c0,0-0.1-0.1-0.1-0.1c0-0.1,0-0.2,0-0.2c0,0,0-0.1-0.1-0.2
								c-0.1,0-0.1,0.1-0.2,0.1C54.7,22.5,54.6,22.5,54.6,22.4z"/>
						</g>
						<g>
							<path class="st6" d="M55.4,24.5c0-0.1,0-0.1,0.1-0.1c0.1,0,0.1,0.1,0.1,0.2C55.6,24.6,55.5,24.6,55.4,24.5
								C55.4,24.5,55.4,24.5,55.4,24.5z"/>
						</g>
						<g>
							<path class="st9" d="M41.8,25.1c0-0.1,0.2-0.1,0.2,0c-0.1,0,0,0.2-0.1,0.1C41.8,25.2,41.8,25.2,41.8,25.1z"/>
						</g>
						<g>
							<path class="st9" d="M42.4,25.2c0-0.1,0.1,0,0.1,0c0.1,0,0.1,0,0.2,0.1c0,0.1-0.2,0.1-0.3,0.1C42.4,25.3,42.4,25.2,42.4,25.2
								z"/>
						</g>
						<g>
							<path class="st9" d="M52.7,23.4c-0.1,0-0.1,0-0.2,0c-0.1,0-0.1,0.1-0.2,0.1c0-0.1,0.1-0.2,0.2-0.1
								C52.6,23.4,52.7,23.4,52.7,23.4z"/>
						</g>
						<g>
							<path class="st9" d="M52.8,23.3c0.1,0,0.1,0,0.2-0.1l0.1-0.1c0.1,0,0.1,0,0.2,0c0.1,0,0.1,0,0.1,0c0-0.1,0.1,0,0.2-0.1l0.2,0
								c0,0.1,0,0.1,0.1,0.2c0,0,0,0,0,0c-0.1,0-0.2,0-0.4,0c-0.2,0-0.3,0.1-0.4,0.2C52.9,23.4,52.8,23.4,52.8,23.3
								C52.8,23.3,52.8,23.3,52.8,23.3z"/>
						</g>
						<g>
							<path class="st9" d="M54.5,22.7c0,0,0,0.1,0,0.1c-0.1,0-0.1,0.1-0.2,0.1c-0.1,0-0.1,0-0.1-0.1C54.3,22.7,54.4,22.7,54.5,22.7
								z"/>
						</g>
						<g>
							<path class="st7" d="M40.5,25.2c0.1-0.2,0.3-0.1,0.4-0.1c0,0.1,0,0.1,0,0.2L40.5,25.2z"/>
						</g>
						<g>
							<path class="st7" d="M43.3,25.7c0,0,0-0.1,0.1,0C43.5,25.7,43.4,25.7,43.3,25.7C43.4,25.7,43.4,25.7,43.3,25.7z"/>
						</g>
						<g>
							<path class="st7" d="M44,24.8c0.1-0.1,0.1-0.1,0.2-0.2c0,0,0-0.1,0-0.1c0.1,0,0.1,0,0.1,0c0,0,0,0,0.1,0c0,0,0.1,0.1,0.1,0.1
								c0.2-0.1,0.5,0,0.7,0c0.1,0.1,0.3,0,0.5,0.1l0,0c-0.1,0-0.2,0-0.4,0.1l0,0c0.1,0,0.2,0,0.2,0l0.1,0c0,0,0,0,0,0
								c0.1,0,0.2,0,0.2,0c0,0,0.1,0,0.1-0.1c0,0,0.1,0.1,0.1,0.1c0.1-0.1,0.2,0,0.2-0.1l0.2,0.1c0,0,0,0,0,0
								c-0.1-0.1-0.2,0.2-0.2,0l-0.1,0c-0.1,0-0.1,0-0.2,0c-0.1,0-0.1,0-0.2,0.1c-0.1,0-0.1,0-0.2-0.1c0,0-0.1,0-0.1,0.1
								c0,0-0.1-0.1-0.1-0.1c0,0-0.1,0-0.2-0.1c0,0,0.1-0.1,0.1-0.1c-0.1-0.1-0.2,0-0.2,0c-0.1,0-0.2,0-0.3,0c-0.1,0-0.3,0-0.4,0
								C44.2,24.9,44.1,24.9,44,24.8C44,24.9,44,24.9,44,24.8z"/>
						</g>
						<g>
							<path class="st7" d="M46.9,25c0.1,0,0.1,0,0.1,0c0,0,0,0,0,0c0,0,0.1,0,0.1,0l0,0c0,0,0.1,0,0.1,0c0.1,0,0.2,0,0.2,0
								c0,0,0.1,0,0.1,0l0.1,0c-0.1,0-0.1,0.1-0.3,0.1c-0.1,0-0.2,0-0.3,0c0,0,0,0,0,0l-0.2,0C47,25.1,46.9,25.1,46.9,25l-0.1,0
								C46.8,25,46.8,25,46.9,25z"/>
						</g>
						<g>
							<path class="st7" d="M47.3,25.7c0-0.1,0.1-0.1,0.1-0.1l0.1,0C47.5,25.6,47.5,25.7,47.3,25.7L47.3,25.7z"/>
						</g>
						<g>
							<path class="st7" d="M48.7,24.9c0.1,0,0.3,0,0.4-0.1c0.2,0,0.4,0,0.5,0c0,0,0.1-0.1,0.1-0.1c0,0,0.1,0,0.1,0l0.4-0.1
								c0.1,0,0.2,0,0.2,0l-0.2,0.1c-0.1,0-0.2,0.1-0.4,0.1c-0.1,0-0.1,0-0.2,0.1c-0.1,0-0.2,0-0.3,0.1c-0.1,0-0.2,0-0.3,0
								c-0.1,0.1-0.2,0-0.3,0C48.8,24.9,48.7,24.9,48.7,24.9C48.7,24.9,48.7,24.9,48.7,24.9z"/>
						</g>
						<g>
							<path class="st7" d="M49.9,25.6C49.9,25.6,50,25.6,49.9,25.6c0.1,0,0.1,0,0.2-0.1c0,0,0,0,0.1,0c0.1,0.1,0.1,0.1,0.3,0.2
								c0,0,0,0.1,0,0.1c0,0-0.1,0-0.1,0l-0.2,0c-0.1,0-0.1,0.1-0.1,0c0-0.1-0.1-0.1-0.1-0.2L49.9,25.6z"/>
						</g>
						<g>
							<path class="st11" d="M50.5,25.3C50.5,25.3,50.5,25.3,50.5,25.3C50.5,25.3,50.5,25.3,50.5,25.3c0.2,0,0.2,0,0.3,0
								c0,0,0.1,0,0.1,0.1c0.1,0,0.2,0,0.2-0.1c0.2,0,0.4,0,0.6,0c0.2,0,0.1-0.2,0.1-0.3c0.1,0,0.1,0.1,0.1,0.1l0.2-0.1l0-0.1
								c0.1,0,0.1,0,0.1-0.1c0,0,0.1,0,0.1,0l0-0.1c0.1,0,0.2,0,0.3,0c0,0,0.1,0,0.1,0c0.1,0.1,0.2,0,0.3-0.1c0,0,0,0,0,0
								c0,0.1,0.1,0.1,0.1,0.2c0.1,0,0.2,0,0.3-0.1c0,0,0.1-0.1,0.1-0.1c0,0,0.1,0,0.1,0c0,0,0,0,0-0.1c0,0,0.1,0,0.1-0.1l0.2,0
								c0-0.1,0.1-0.2,0.2-0.2c0,0,0,0,0.1,0c0,0.1,0.1,0.1,0.1,0.1c0,0,0-0.1,0-0.2c0,0,0.1-0.1,0,0c0,0.1,0.1,0.2,0.2,0.2l0.1-0.1
								c0.1,0,0.1,0,0.2,0c0.1,0,0.1,0,0.2,0c0,0.1,0,0.1,0,0.2c0,0-0.1,0-0.1,0.1c0,0.1,0,0.2,0.1,0.4c0,0,0,0,0,0c0,0,0,0-0.1,0
								c0,0,0,0,0,0c-0.1,0-0.2,0-0.2,0c0,0,0,0-0.1,0c0,0-0.1,0-0.1,0c0,0,0,0.1-0.1,0.1c0,0-0.1,0-0.1,0c-0.1,0-0.1,0-0.1-0.1
								c-0.1,0-0.2,0-0.3,0c0,0,0,0.1,0.1,0.1c0.1,0,0.2,0,0.2,0c-0.1,0.1-0.2,0.1-0.2,0.1c-0.1,0-0.2,0-0.3,0
								c-0.2,0.1-0.3,0.1-0.5,0.2c0.2,0,0.2,0.1,0.2,0.1c0,0,0,0.1,0,0.1c0,0-0.1,0-0.1,0c0,0.1,0,0.1,0,0.2c0,0-0.1,0-0.1,0
								c0,0,0-0.1,0-0.1c-0.2,0.1-0.2-0.1-0.4,0c0,0,0,0,0,0c-0.1,0-0.1,0-0.2,0l-0.2,0.1c0,0,0,0.1,0,0.1c-0.1,0-0.2,0-0.3,0
								c0-0.1-0.1-0.1-0.1-0.2c0-0.1,0.2,0,0.2-0.1l-0.1-0.1c0,0-0.1,0-0.1,0.1c-0.2,0-0.4,0.1-0.6,0.1c-0.1,0-0.2,0-0.3,0
								c0,0-0.1,0-0.1,0c-0.1,0-0.2,0-0.2,0l-0.1,0l0,0c0,0-0.1,0-0.2,0C50.4,25.4,50.4,25.3,50.5,25.3z"/>
						</g>
						<g>
							<path class="st7" d="M50.6,25.5c0.1,0,0.1,0,0.1,0c0.1,0,0.2,0,0.2,0l0.1,0.1c0,0,0-0.1,0-0.1c0.1,0,0.2,0,0.3,0
								c0,0.1,0.1,0.1,0.1,0.2c0,0-0.1,0-0.1,0c-0.1,0-0.2,0-0.3,0l0,0c-0.1,0-0.2,0-0.3,0c-0.1,0-0.2,0-0.2,0
								C50.5,25.6,50.6,25.5,50.6,25.5z"/>
						</g>
						<g>
							<path class="st7" d="M50.9,24.7c0.3,0.1,0.4,0,0.6-0.1C51.4,24.7,51.2,24.7,50.9,24.7z"/>
						</g>
						<g>
							<path class="st8" d="M52.2,25.4c0,0.2-0.2,0-0.2,0.1c0,0.1,0.1,0.1,0.1,0.2c0,0-0.1,0-0.1,0c0,0,0,0-0.1-0.1c0,0,0-0.1,0-0.1
								c-0.1,0-0.1,0.1-0.2,0.1c-0.1,0-0.2,0-0.3,0c0,0,0-0.1-0.1-0.2c0.2,0,0.4-0.1,0.6-0.1c0-0.1,0.1-0.1,0.1-0.1L52.2,25.4z"/>
						</g>
						<g>
							<path class="st7" d="M51.7,25.6c0.1,0,0.1-0.1,0.2-0.1c0,0,0,0.1,0,0.1C51.9,25.7,51.8,25.7,51.7,25.6
								C51.7,25.7,51.7,25.6,51.7,25.6z"/>
						</g>
						<g>
							<path class="st7" d="M51.9,24.4c0.1,0,0.1,0,0.2,0l0,0C52,24.5,52,24.6,51.9,24.4C51.9,24.5,51.9,24.5,51.9,24.4z"/>
						</g>
						<g>
							<path class="st7" d="M52.2,24.1l0.2,0.1c0,0,0,0,0,0c0.1,0,0.1,0,0.2,0l0-0.1c0.1,0,0.2-0.2,0.4-0.2c0-0.1,0.2,0,0.1-0.1
								c0.3-0.2,0.6,0.1,0.9-0.1c0.1,0,0.1,0,0.2,0c0-0.1-0.1-0.1-0.1-0.1l0-0.1l0.2-0.1c0,0,0.1,0,0.1,0.1c0,0.1,0,0.1,0,0.2
								c-0.1,0.2-0.2,0.3-0.4,0.3c0,0-0.1,0.1-0.2,0.1c0.1,0,0.1,0,0.2,0c0,0,0,0.1,0,0.2c0,0-0.1,0-0.1,0.1c-0.1,0-0.1,0-0.1,0
								c-0.1,0-0.1,0-0.1,0c-0.1,0-0.2,0.1-0.3,0.1c0,0,0,0,0,0c0,0,0,0,0,0l-0.3,0c-0.1,0-0.1,0-0.1,0c0,0-0.1,0-0.1,0
								c-0.1,0-0.1,0-0.2,0c0,0,0,0,0,0c-0.1,0-0.1,0-0.1,0c0,0,0-0.1,0-0.1l-0.1-0.1L52.2,24.1z"/>
						</g>
						<g>
							<path class="st8" d="M53.3,25.2c0.2-0.1,0.3-0.2,0.5-0.2c0.1,0,0.2,0,0.3,0c0-0.1,0.1-0.1,0.2-0.1c-0.1,0-0.1,0-0.2,0
								c0,0,0-0.1-0.1-0.1c0.1-0.1,0.2,0,0.3,0c0.1,0,0.1,0,0.1,0.1c0,0,0.1,0,0.1,0c0,0,0.1-0.1,0.1-0.1c0,0,0.1,0,0.1,0
								c0,0,0,0.1,0,0.2c0,0,0.1,0,0.1,0c0,0,0,0,0,0c0,0,0,0,0,0.1c0,0.1,0,0.1,0,0.2c0,0.1,0.1,0.2,0.1,0.2c0,0-0.1,0-0.1,0.1
								l-0.1-0.1c-0.1,0-0.2,0-0.3,0.1l0,0.1c-0.1,0-0.2,0-0.3,0c-0.1,0-0.2,0-0.3,0.1c-0.1,0.1-0.1,0.1-0.2,0.1
								c-0.1,0-0.2,0-0.2,0.1c-0.1,0-0.1,0-0.1,0c0-0.1,0-0.1,0-0.2c0.1,0,0.1,0,0.1,0c0,0,0-0.1,0-0.1
								C53.5,25.3,53.5,25.2,53.3,25.2z"/>
						</g>
						<g>
							<path class="st7" d="M54.5,25.3l0-0.1c0.1-0.1,0.2-0.1,0.3-0.1l0.1,0.1l-0.2,0.1C54.7,25.3,54.6,25.3,54.5,25.3z"/>
						</g>
						<g>
							<path class="st7" d="M54.7,24.6C54.7,24.6,54.8,24.6,54.7,24.6c0.1,0,0.2,0,0.3,0l-0.2,0.1c0,0,0,0,0,0c0,0-0.1,0-0.1,0
								C54.7,24.7,54.7,24.6,54.7,24.6z"/>
						</g>
						<g>
							<path class="st7" d="M54.9,25c0-0.1,0-0.1,0-0.2c0.1,0,0.1,0,0.2,0.1c0,0,0,0.1,0,0.1c0,0.1-0.1,0.1-0.1,0.2
								C54.9,25.1,54.9,25.1,54.9,25z"/>
						</g>
						<g>
							<path class="st7" d="M55.1,24.6c0.1,0,0.2-0.1,0.3-0.1c0,0,0,0,0,0.1c0,0,0,0.1,0,0.1C55.3,24.6,55.2,24.6,55.1,24.6
								C55.1,24.6,55.1,24.6,55.1,24.6z"/>
						</g>
						<g>
							<path class="st10" d="M40.9,25.2c0.1,0,0.1,0,0.2-0.1l0.1,0c0,0,0,0,0,0.1c0,0-0.1,0.1-0.2,0.1c0,0-0.1,0-0.1,0
								C40.9,25.3,40.9,25.2,40.9,25.2z"/>
						</g>
						<g>
							<path class="st10" d="M44.9,24.9c0.1,0,0.1-0.1,0.2,0c0,0,0,0-0.1,0.1C45,25,44.9,24.9,44.9,24.9z"/>
						</g>
						<g>
							<path class="st10" d="M53.9,23.2c0.1,0,0.2-0.1,0.2-0.2c0-0.1,0-0.1,0-0.2l0.1,0c0,0.1,0.1,0.1,0.1,0.1
								c0.1,0,0.1-0.1,0.2-0.1l0,0.1c0.1,0.3-0.3,0.1-0.2,0.3c0,0,0.1,0,0.1,0c0,0.1,0,0.1,0.1,0.1c0,0,0,0,0,0.1l-0.2,0
								c0,0,0,0,0,0c0,0,0-0.1-0.1-0.1C54.2,23.2,54.1,23.2,53.9,23.2C54,23.2,54,23.2,53.9,23.2z"/>
						</g>
						<g>
							<path class="st10" d="M54.9,24.7l0.2-0.1c0,0,0,0,0,0c0,0.1,0,0.2,0,0.3C55,24.9,54.9,24.8,54.9,24.7
								C54.9,24.8,54.9,24.8,54.9,24.7z"/>
						</g>
						<g>
							<path class="st10" d="M54.9,22.9C54.9,22.9,54.9,22.9,54.9,22.9C54.9,22.9,55,22.9,54.9,22.9c0.1,0,0.1,0.1,0.2,0.1
								c-0.1,0-0.1,0-0.2,0C54.9,23,54.9,23,54.9,22.9z"/>
						</g>
						<g>
							<path class="st8" d="M50.9,25.4c0,0,0.1,0,0.1,0c0,0,0,0.1,0,0.1L50.9,25.4z"/>
						</g>
						<g>
							<path class="st8" d="M52.5,25.6l0.2-0.1c0.1,0,0.1,0,0.2,0c0,0,0,0,0,0c0.1-0.1,0.2,0.1,0.4,0c0,0,0,0.1,0,0.1
								c-0.2,0.1-0.2,0.1-0.4,0.1c-0.1,0-0.3,0-0.4,0C52.5,25.6,52.5,25.6,52.5,25.6z"/>
						</g>
						<g>
							<path class="st8" d="M52.8,24.8c0,0,0.1,0,0.1,0c0,0,0.1,0.1,0.1,0.1c0.2,0.1,0.4-0.2,0.6-0.1c0,0,0,0,0,0.1
								c-0.1,0-0.2,0-0.3,0.1c-0.1,0.1-0.4,0-0.6,0C52.8,24.9,52.8,24.9,52.8,24.8z"/>
						</g>
						<g>
							<path class="st8" d="M53.2,24.3c0.1,0,0.2-0.1,0.3-0.1c0.1,0,0.1,0,0.1,0c0,0,0.1,0,0.1,0c0,0,0,0.1,0,0.1c0,0-0.1,0-0.1,0
								c-0.1,0-0.1,0.1-0.1,0.1c-0.1,0-0.2,0-0.3,0.1C53.3,24.5,53.3,24.4,53.2,24.3C53.2,24.4,53.2,24.3,53.2,24.3z"/>
						</g>
						<g>
							<path class="st8" d="M53.7,24c0.1-0.1,0.1-0.1,0.2-0.1c0.1,0,0.2-0.1,0.4-0.3l0.2,0l0,0.1l0,0.1c0,0,0,0,0,0
								c0,0.1,0,0.1,0,0.2c0,0-0.1,0-0.1-0.1c0,0-0.1,0-0.1,0c-0.1,0.1-0.1,0.2-0.2,0.2l-0.2,0c0,0,0-0.1,0-0.2
								C53.9,24,53.8,24,53.7,24z"/>
						</g>
						<g>
							<path class="st8" d="M54.7,23.6C54.7,23.6,54.7,23.6,54.7,23.6c0.1-0.1,0.2-0.1,0.2-0.2c0,0,0,0,0,0c0.1,0,0.1,0,0.2,0
								l0.2,0.1l0,0l0.1,0.3c0,0.1-0.1,0.2-0.1,0.2c0,0,0,0,0,0.1l0.1,0c0.1,0.1,0.1,0.2,0.1,0.3c0,0-0.1,0.1-0.1,0.1
								c0,0-0.1,0-0.1,0.1c-0.1,0-0.2,0-0.3,0.1c0-0.1,0-0.2-0.1-0.4c0,0,0.1,0,0.1-0.1c0-0.1,0-0.1,0-0.2c-0.1,0-0.1,0-0.2,0
								c0,0-0.1,0-0.2,0c0,0,0,0,0,0c0-0.1,0-0.1,0-0.2c0,0-0.1,0-0.1-0.1C54.7,23.7,54.7,23.6,54.7,23.6z"/>
						</g>
						<g>
							<path class="st8" d="M54.9,22.7c0,0,0.1,0,0.1-0.1c0,0.1,0,0.2,0,0.2c0,0-0.1,0-0.1,0C54.9,22.9,54.9,22.8,54.9,22.7z"/>
						</g>
						<g>
							<path class="st11" d="M49.1,25.6c0.1-0.1,0.2-0.1,0.2-0.2c0,0,0,0,0,0c0,0,0,0,0,0.1c0,0,0,0.1,0,0.2L49.1,25.6
								C49.1,25.6,49.1,25.6,49.1,25.6z"/>
						</g>
						<g>
							<path class="st11" d="M54.3,23.4C54.3,23.4,54.3,23.4,54.3,23.4l0.2,0c0,0,0,0.1,0,0.1l-0.1,0.1l-0.2,0
								C54.3,23.5,54.3,23.5,54.3,23.4z"/>
						</g>
						<g>
							<path class="st11" d="M54.8,23.2C54.8,23.2,54.8,23.2,54.8,23.2c0.1,0,0.1,0,0.1,0l0,0.1c0,0.1-0.1,0.1-0.1,0.2c0,0,0,0,0,0
								c0,0,0,0,0,0c0-0.1,0-0.2-0.1-0.2C54.7,23.3,54.7,23.2,54.8,23.2z"/>
						</g>
						<g>
							<path class="st9" d="M53.8,23.2c0,0,0.1-0.1,0.1-0.1c0-0.1,0-0.1,0-0.2c0.1,0,0.1,0,0.2,0c0,0,0-0.1,0.1-0.1c0,0,0,0,0.1,0
								c0,0,0,0,0,0c0,0.1,0,0.1,0,0.2c0,0.1-0.1,0.2-0.2,0.2c0,0,0,0,0.1,0.1l0.1,0c0.1,0,0.1,0.1,0.1,0.1L54,23.4l0,0.1
								c0,0-0.1,0-0.1,0c-0.1,0.1-0.2-0.1-0.4-0.1c0-0.1,0-0.1,0-0.1C53.7,23.3,53.7,23.3,53.8,23.2C53.8,23.2,53.8,23.2,53.8,23.2z
								"/>
						</g>
						<g>
							<path class="st5" d="M53.8,22.9l0-0.1c0.1,0,0.1,0,0.2,0c0,0,0,0.1-0.1,0.1C53.9,22.9,53.9,22.9,53.8,22.9z"/>
						</g>
						<g>
							<path class="st6" d="M44.5,23.6c0,0,0.1,0,0.1,0C44.6,23.6,44.6,23.7,44.5,23.6z"/>
						</g>
						<g>
							<path class="st6" d="M53.4,22.9c0.1-0.1,0.3-0.1,0.4-0.1l0,0.1c-0.1,0-0.2,0-0.3,0L53.4,22.9z"/>
						</g>
						<g>
							<path class="st9" d="M52.3,23.7c0.1-0.1,0.2-0.1,0.2-0.1C52.6,23.8,52.4,23.8,52.3,23.7z"/>
						</g>
						<g>
							<path class="st9" d="M43.6,24.4C43.7,24.4,43.7,24.5,43.6,24.4c0.1,0.1,0.1,0.2,0,0.2c0,0-0.1,0-0.1,0
								C43.5,24.5,43.6,24.5,43.6,24.4z"/>
						</g>
						<g>
							<path class="st7" d="M47.8,25C47.8,25,47.8,24.9,47.8,25c0.1-0.1,0.2-0.1,0.2,0l0.2-0.1c0,0,0,0,0.1,0.1c0.1,0,0.2,0,0.3,0
								c0.1,0,0.1,0,0.1,0.1c0,0-0.1,0-0.1,0.1c-0.1,0-0.2,0-0.3,0c0,0-0.1,0-0.2,0C47.9,25,47.9,25,47.8,25z"/>
						</g>
					</g>
				</g>
			</g>
		</g>
	</g>
	<line class="st12" x1="32.6" y1="20.9" x2="67.7" y2="21"/>
</g>
</svg>
