<?xml version="1.0" encoding="utf-8"?>
<!-- Generator: Adobe Illustrator 25.0.1, SVG Export Plug-In . SVG Version: 6.00 Build 0)  -->
<svg version="1.1" id="Layer_1" xmlns="http://www.w3.org/2000/svg" xmlns:xlink="http://www.w3.org/1999/xlink" x="0px" y="0px"
	 viewBox="0 0 100 50" style="enable-background:new 0 0 100 50;" xml:space="preserve">
<style type="text/css">
	.st0{fill:#8B5E3C;}
	.st1{fill:#C49A6C;}
	.st2{fill:#F7941D;stroke:#F7941D;stroke-miterlimit:10;}
	.st3{fill:none;stroke:#DDA96C;stroke-miterlimit:10;}
	.st4{fill:none;stroke:#009444;stroke-miterlimit:10;}
	.st5{fill:#8DC63F;stroke:#8DC63F;stroke-miterlimit:10;}
	.st6{fill:none;stroke:#8DC63F;stroke-miterlimit:10;}
</style>
<ellipse class="st0" cx="50.29" cy="19.27" rx="40.15" ry="5.86"/>
<ellipse class="st0" cx="50.29" cy="29.86" rx="40.15" ry="5.86"/>
<rect x="14.99" y="21.19" class="st1" width="70.03" height="7.75"/>
<path class="st2" d="M44.12,32.64c0.57,0.29,1.16,0.61,1.8,0.66c1.44,0.11,2.59-1.11,3.78-1.93c1.19-0.81,2.61-1.28,4.05-1.33
	c1.21-0.04,2.57,0.16,3.49-0.63c-3.92,0.33-7.85,0.4-11.78,0.35c-2.64-0.04-7.52-1.21-9.86,0.02C38.52,30.6,41.36,31.23,44.12,32.64
	z"/>
<line class="st3" x1="14.99" y1="21.19" x2="85.01" y2="21.19"/>
<line class="st4" x1="27.66" y1="20.28" x2="36.32" y2="20.28"/>
<line class="st4" x1="22.8" y1="20.28" x2="30.85" y2="19.27"/>
<line class="st4" x1="54.85" y1="20.28" x2="62.29" y2="19.77"/>
<line class="st4" x1="69.28" y1="21.19" x2="60.47" y2="20.28"/>
<line class="st4" x1="69.13" y1="20.28" x2="77.18" y2="20.73"/>
<path class="st5" d="M15.81,20.25c1.2-0.04,2.2,1.04,3.4,1.07c0.7,0.01,1.35-0.34,2.02-0.54c0.67-0.21,1.51-0.23,1.97,0.3
	c1.03,0.25,2.07-0.25,3.04-0.68c0.38-0.17,0.77-0.39,1.19-0.36c0.39,0.03,0.72,0.27,1.06,0.46c1.47,0.81,3.46,0.54,4.66-0.64
	c1.6-0.38,3.18,0.96,4.74,1.16c1.29,0.16,2.71-0.05,3.99-0.29c1.27-0.23,2.5-0.58,3.79-0.69c1.8-0.16,3.22,0.48,4.97,0.71
	c1.6,0.21,3.26,0.09,4.86,0.02c1.09-0.05,1.72-0.57,2.86-0.17c0.93,0.33,1.69,1.22,2.67,1.6c0.51,0.2,1.05,0.35,1.61,0.34
	c1.78-0.04,3.21-1.72,4.98-1.73"/>
<path class="st5" d="M67.31,20.22c1.34,0.21,2.68,0.44,4.02,0.66c0.58,0.1,1.16,0.19,1.75,0.29c0.98,0.16,1.96,0.33,2.93,0.57
	c1.01,0.25,2.04,0.6,3.07,0.45c0.46-0.06,0.9-0.22,1.34-0.38c1.37-0.5,2.74-1,4.1-1.49"/>
<path class="st6" d="M58.5,20.25c1.5,0.07,3.04,0.15,4.49-0.27c0.95-0.27,1.93-0.75,2.88-0.47c0.43,0.13,0.8,0.41,1.21,0.59
	c0.41,0.19,0.92,0.27,1.29,0.02"/>
</svg>
