<?xml version="1.0" encoding="utf-8"?>
<!-- Generator: Adobe Illustrator 25.0.1, SVG Export Plug-In . SVG Version: 6.00 Build 0)  -->
<svg version="1.1" id="Layer_1" xmlns="http://www.w3.org/2000/svg" xmlns:xlink="http://www.w3.org/1999/xlink" x="0px" y="0px"
	 viewBox="0 0 100 50" style="enable-background:new 0 0 100 50;" xml:space="preserve">
<style type="text/css">
	.st0{fill:#8B5E3C;}
	.st1{fill:none;stroke:#603913;stroke-miterlimit:10;}
	.st2{fill:#F7941D;stroke:#F7941D;stroke-miterlimit:10;}
	.st3{fill:none;stroke:#F7941D;stroke-miterlimit:10;}
	.st4{fill:#BE2026;}
	.st5{fill:#FFDB44;}
	.st6{fill:#FFDD74;}
	.st7{fill:none;stroke:#008152;stroke-width:2;stroke-miterlimit:10;}
	.st8{fill:#FFFFFF;}
</style>
<ellipse class="st0" cx="50.3" cy="22.3" rx="40.2" ry="5.9"/>
<ellipse class="st0" cx="50.3" cy="27.9" rx="40.2" ry="5.9"/>
<path class="st1" d="M25.5,27c16.5,1.1,33.2,1,49.7-0.4"/>
<path class="st2" d="M67.2,27.3c-3,1-6,2.1-8.9,3.4c-1.8,0.8-3.6,1.7-4.6,3.3c-7-1.6-13.8-3.9-20.3-6.9c4.1,1.8,9-0.5,13.5-0.1
	c2.3,0.2,4.6,0.9,7,1.4C59.8,29.4,61.5,29.4,67.2,27.3z"/>
<path class="st3" d="M54.2,27.5c4,1,8.2,1,12.2-0.3"/>
<g>
	<g>
		<path class="st4" d="M30.1,19.1c2.7-0.5,5.3-0.5,8-0.2c0-0.3,0-0.6,0-0.9c-2.3,0.9-4.8,0.8-7-0.2c-0.3,0.3-0.7,0.6-1,0.8
			c4.8,1,9.8-1.1,14.6,0.3c-0.1-0.2-0.1-0.4-0.2-0.6c-1.8,2.2-5.4,1.8-7.9,1.7c-3.3,0-6.4-0.4-9.6-1c-0.2,0.3-0.3,0.6-0.5,0.9
			c7.6-1.1,15.3,0.4,23,0c0-0.3,0-0.6,0-0.9c-3.6,1.2-7.4,1.2-11.2,1s-7.6-0.4-11.4-0.6c-0.2,0.3-0.4,0.6-0.5,1
			c4.8,0.1,9.6-0.5,14.3-1.7c0.7-0.2,0.8-1,0-0.9c-2.1,0.2-3.9,1.4-4.7,3.4c-0.1,0.2,0,0.4,0.3,0.5c1.1,0.3,2.1,0.1,3.1-0.5
			c0.1-0.1,0.4-0.4,0.2-0.6c-1.5-1.3-3.5-1.3-5.1-0.4c-0.3,0.2-0.4,0.7,0,0.7c2,0.4,3.9,0.3,5.9-0.1c0.5-0.1,0.9-0.9,0.1-0.9
			c-4.2-0.2-8.5,0-12.6,0.8c-0.7,0.1-0.8,1,0,0.9c3-0.4,6-0.7,9-1.1c0.1-0.3,0.1-0.6,0.2-1c-3.8,0.6-7.7,1.1-11.5,1.7
			c-0.5,0.1-1.3,0.9-0.3,1c7.2,0.6,14.4-0.7,20.8-3.8c-0.3,0-0.6,0-1-0.1c0.2,0.4-2.1,1.7-0.4,2c0.4,0.1,0.9,0,1.1-0.4
			c0,0,0-0.1,0.1-0.1c0.4-0.5-0.7-0.6-1-0.4c-1.2,0.6-2.5,0.5-3.7-0.2c-0.1,0.3-0.2,0.5-0.3,0.8c1.7-0.7,3.4-0.9,5.1-0.6
			c-0.1-0.2-0.2-0.4-0.3-0.7c-0.3,0.4-0.7,0.6-1.2,0.4C44,19,43,19.8,43.8,20c0.8,0.3,1.6,0.3,2.4,0.2c0.1-0.3,0.1-0.6,0.2-1
			c-4.7,0.8-9.4,1.1-14.1,1.4c-0.1,0.3-0.1,0.6-0.2,1c1.3-0.2,2.6-0.3,3.9-0.5c0.5-0.1,1.5-0.4,2-0.2c0.3,0.1,0.6,0.5,0.9,0.7
			c0.8,0.4,1.7,0.3,2.5,0.3c1.3,0,2.6-0.1,4-0.2c0.4,0,1.3-0.7,0.5-0.9c-0.9-0.3-1.8-0.2-2.6,0.2c-0.3,0.1-0.7,0.7-0.1,0.8
			c2.1,0.4,4.2,0.5,6.3,0.2c0.3,0,1.2-0.5,0.6-0.9c-0.7-0.5-1.5-0.6-2.3-0.5c0.2,0.2,0.4,0.4,0.6,0.5c0.1-0.3,0.3-0.5,0.6-0.7
			s0.4-0.6,0-0.7c-3.2-1-6.3-2-9.5-3c-0.4-0.1-1.7,0.5-1,0.8c2,1.1,4.2,1.8,6.5,2c0-0.3,0.1-0.6,0.1-0.9c-0.2,0-0.4,0-0.6-0.1
			c-0.2,0.3-0.4,0.6-0.6,0.9c1.8-0.2,3.5-0.1,5.2,0.5c0-0.2,0-0.5,0-0.7c-0.8,0.5-1.6,0.6-2.6,0.5c0.1,0.2,0.2,0.4,0.3,0.7
			c1.6-1.4,3.7-1.5,5.5-0.5c0-0.2,0-0.4,0-0.6c-1.9,1.7-4.5,0.2-6.1-1.1c-0.1,0.3-0.2,0.5-0.3,0.8c0.7-0.3,1.7-0.4,2.4,0.1
			c1,0.7-0.2,1.4-1,1.4c-1,0-1.9-0.7-2.4-1.5c-0.1,0.2-0.2,0.5-0.4,0.7c1.8-0.7,3.7-0.8,5.6-0.4c0.3,0.1,1.2,0.2,0.8,0.8
			c-0.1,0.2-1.2,0.2-1.5,0.2c-1,0-1.9-0.2-2.8-0.5c0,0.2,0,0.5,0,0.7c1-0.8,2-1,3.2-0.7c-0.1-0.2-0.2-0.3-0.3-0.5
			c-0.3,0.4-0.6,0.8-0.9,1.3c0.5,0,0.9,0.1,1.4,0.1c0,0,1.1-0.1,1.2-0.1c0.3-0.1,0.7-0.3,0.8-0.7c0.2-0.7-0.4-1-1-0.9
			c-0.8,0.1-1.1,1.1-0.2,1c0.1,0,0.1,0,0.2,0c-0.2-0.1-0.4-0.1-0.6-0.2c-0.3-0.4-1.6,0.5-1.8,0.9c-0.4,0.7,1.1,0.5,1.4,0.1
			c0.3-0.4,0.6-0.8,0.9-1.3c0.1-0.2,0-0.5-0.3-0.5c-1.8-0.4-3.6-0.1-5,1.1c-0.3,0.2-0.4,0.6,0,0.7c1.6,0.5,3.3,0.7,4.9,0.4
			c0.8-0.2,2.5-0.7,1.9-1.9c-0.5-1-2.8-1.1-3.7-1.1c-1.7-0.1-3.3,0.2-4.9,0.8c-0.3,0.1-0.5,0.4-0.4,0.7c1.2,2,4.3,2.6,6.2,1
			c1.2-1,0.5-1.9-0.7-2.4s-2.6-0.4-3.8,0.1c-0.3,0.1-0.6,0.5-0.3,0.8c2.5,1.9,5.8,3,8.4,0.7c0.2-0.2,0.2-0.4,0-0.6
			c-2.5-1.4-5.7-1-7.8,0.9c-0.4,0.3,0,0.6,0.3,0.7c1.5,0.2,2.8-0.2,4-0.9c0.3-0.2,0.4-0.6,0-0.7c-1.9-0.6-3.9-0.8-5.9-0.5
			c-0.3,0-1.3,0.6-0.6,0.9s1.3,0.3,2,0.2c0.5-0.1,0.9-0.8,0.1-0.9c-2.1-0.2-4-0.8-5.9-1.8c-0.3,0.3-0.7,0.6-1,0.8c3.2,1,6.3,2,9.5,3
			c0-0.2,0-0.5,0-0.7c-0.5,0.3-0.8,0.6-1,1.2c-0.2,0.4,0.3,0.6,0.6,0.5c0.5-0.1,1,0.1,1.3,0.4c0.2-0.3,0.4-0.6,0.6-0.9
			c-1.9,0.3-3.7,0.2-5.6-0.1c0,0.3-0.1,0.5-0.1,0.8c0.4,0,0.8-0.1,1.2-0.1c0.2-0.3,0.3-0.6,0.5-0.9c-1.4,0.1-2.8,0.2-4.2,0.2
			c-0.7,0-1.2,0-1.7-0.4c-0.2-0.2-0.3-0.4-0.6-0.5c-0.8-0.3-2,0.1-2.8,0.2c-1.3,0.2-2.6,0.3-3.9,0.5c-0.8,0.1-1.2,1-0.2,1
			c4.7-0.3,9.4-0.6,14.1-1.4c0.7-0.1,1.2-1.1,0.2-1c-0.6,0.1-1.2,0.1-1.7-0.1c-0.2,0.3-0.5,0.6-0.7,0.9c1.1,0.2,2.2-0.2,2.9-1
			c0.3-0.3,0-0.6-0.3-0.7c-2.2-0.4-4.3-0.1-6.3,0.8c-0.3,0.1-0.6,0.5-0.3,0.8c1.6,1.1,3.7,1.1,5.4,0.2c-0.3-0.1-0.7-0.3-1-0.4
			c0,0,0,0.1-0.1,0.1c0.4-0.1,0.7-0.3,1.1-0.4c-0.1,0.2,0,0.3,0.2,0.1c0.1,0,0.1-0.1,0.2-0.1c0.2-0.1,0.4-0.3,0.5-0.5
			c0.3-0.4,0.2-0.8,0-1.2c-0.2-0.3-0.8-0.2-1-0.1c-6.2,2.9-12.9,4.1-19.7,3.6c-0.1,0.3-0.2,0.6-0.3,1c3.8-0.6,7.7-1.1,11.5-1.7
			c0.8-0.1,1.2-1.1,0.2-1c-3,0.4-6,0.7-9,1.1c0,0.3,0,0.6,0,0.9c3.9-0.7,7.9-1,11.9-0.8c0-0.3,0.1-0.6,0.1-0.9
			c-1.6,0.4-3.2,0.4-4.8,0.1c0,0.2,0,0.5,0,0.7c0.9-0.6,2.1-0.3,2.9,0.4c0.1-0.2,0.1-0.4,0.2-0.6c-0.4,0.1-0.8,0.1-1.3,0.2
			c0.1,0.2,0.2,0.3,0.3,0.5c0.5-1.4,1.6-2.4,3.2-2.5c0-0.3,0-0.6,0-0.9C36,19.4,31.5,20,26.9,20c-0.6,0-1.5,0.9-0.5,1
			c4.1,0.2,8.2,0.4,12.3,0.6c3.7,0.1,7.5,0.1,11-1.1c0.7-0.2,0.8-1,0-0.9c-7.7,0.4-15.3-1.1-23,0c-0.4,0.1-1.3,0.8-0.5,0.9
			c3.9,0.8,7.8,1.3,11.8,1.3c2.7,0,5.9-0.1,7.7-2.4c0.2-0.2,0.2-0.5-0.2-0.6c-4.8-1.4-9.7,0.7-14.6-0.3c-0.4-0.1-1.7,0.5-1,0.8
			c2.8,1.3,5.9,1.3,8.7,0.2c0.5-0.2,0.6-0.8,0-0.9c-2.8-0.3-5.6-0.3-8.4,0.2C29.5,18.3,29.1,19.3,30.1,19.1L30.1,19.1z"/>
	</g>
</g>
<g>
	<g>
		<path class="st4" d="M43.5,19.6C43,19,42.4,18.4,41.7,18c-0.8-0.4-1.7-0.5-2.6-0.1c-0.3,0.1-0.5,0.4-0.4,0.7
			c0.1,0.3,0.5,0.3,0.8,0.3c1-0.2,1.9-0.5,2.9-0.8c0.2-0.1,0.5-0.2,0.6-0.4c0.1-0.2,0-0.4-0.1-0.5c-0.3-0.3-0.8-0.3-1.2-0.2
			c-0.3,0.1-0.7,0.4-0.6,0.7C41.2,18,41.7,18,42,18c-0.1,0-0.2,0-0.3,0c0.1,0-0.1-0.1,0,0c0.1-0.3,0.3-0.6,0.4-0.9
			c-1,0.3-1.9,0.6-2.9,0.8c0.2,0.3,0.3,0.6,0.5,1c0.1,0,0.1,0,0,0h0.1c0.1,0,0.1,0,0,0h0.1c0,0,0.3,0,0.1,0c0.1,0,0.2,0,0.2,0h0.1
			c-0.1,0-0.1,0,0,0s0.1,0,0.2,0.1c0.1,0,0.1,0.1,0.2,0.1c0.1,0,0.1,0,0,0c0,0,0.1,0,0.1,0.1c0.6,0.3,0.9,0.7,1.3,1.2
			c0.2,0.3,0.7,0.3,1,0.1C43.4,20.3,43.7,19.9,43.5,19.6L43.5,19.6z"/>
	</g>
</g>
<g>
	<g>
		<path class="st5" d="M52.9,18.1c2.9-0.2,5.8-0.2,8.8-0.1c0.1-0.2,0.1-0.4,0.2-0.6c-1.8,0.6-3.7,0.9-5.6,0.7
			c-0.3,0.2-0.5,0.4-0.8,0.7c2-0.1,3.9,0,5.9,0.3c0.3-0.2,0.5-0.4,0.8-0.7c-2.8,0.1-5.5-0.1-8.2-0.4c-0.3,0.2-0.5,0.4-0.8,0.7
			c2.9-0.1,5.7,0,8.6,0.4c-0.1-0.1-0.2-0.1-0.3-0.2c-0.3,1.3-4.2,1.2-5.3,1.3c-1.8,0.1-3.6,0.1-5.4-0.1c-0.3,0-1.7,0.6-0.9,0.7
			c5.9,0.9,11.8-0.2,17.7,0.5c0.2-0.2,0.4-0.4,0.6-0.7c-4.7,0.7-8.9-2.5-13.5-2.7c-0.3,0.2-0.5,0.4-0.8,0.7c1.9-0.1,3.7,0,5.5,0.4
			c0-0.1-0.1-0.2-0.1-0.3c-0.8,0.8-1.7,0.7-2.6,0.3c-0.2,0.2-0.5,0.4-0.7,0.6c1.5-0.3,3.1-0.2,4.6,0.2c0.1-0.1,0.1-0.3,0.2-0.4
			c-1.1,0.5-2.2,0.9-3.4,1.1c-1,0.2-2.4,0.5-3.5,0.2c-1.6-0.5-0.1-1.5,0.7-2c1.2-0.9,2.5-1.5,4-0.9c0.2-0.2,0.3-0.4,0.5-0.6
			c-3.4,1-6.9,1.3-10.4,1.5c-0.4,0-1.6,0.7-0.6,0.7c3.2,0,6.5,0.1,9.7,0.1c0.2-0.2,0.4-0.5,0.6-0.7c-1.8,0-3.6,0.1-5.3,0.3
			c-0.2,0-1.2,0.5-0.7,0.6c0.7,0.2,2.4,0.8,3.1,0.2c0.4-0.1,0.8-0.1,1.2-0.2c0.1,0.1,0.8-0.7,0.9-0.8c0.4-0.4-0.6-0.3-0.7-0.3
			c-1.7,0.4-3.3,0.9-4.9,1.5c-0.4,0.1-0.7,0.6,0,0.6c1-0.1,2.1-0.3,3.1-0.6c0-0.2-0.1-0.4-0.1-0.6c-1.1,0.4-2.2,0.5-3.4,0.4
			c-0.3,0-1.3,0-1.3-0.3c0-0.7,1.1-0.7,1.6-0.5c0.2-0.2,0.5-0.4,0.7-0.6c-1.1,0.1-2.2,0.3-3.3,0.4c-0.1,0.2-0.2,0.4-0.2,0.6
			c0.9-0.1,1.7-0.2,2.6-0.1c0-0.2,0-0.3,0-0.5c-0.9,0.4-1.7,0.9-2.6,1.3c-0.2,0.1-0.5,0.5,0,0.5c1.2,0.1,2.4-0.1,3.6-0.4
			c0.2-0.1,1.1-0.6,0.4-0.6c-0.4,0-0.8,0-1.2-0.1c-0.1,0.2-0.3,0.4-0.4,0.6c1.6-0.5,3.4-0.6,5.1-0.8c1.7-0.2,3.4-0.4,5-0.6
			c3.3-0.4,6.6-0.8,9.9-1.1c0-0.2,0-0.4,0-0.6c-1.4,0.4-2.7,0.1-3.9-0.6c-0.2,0.2-0.4,0.4-0.6,0.5c0.5-0.1,0.9-0.1,1.4,0
			c-0.1-0.1-0.1-0.2-0.2-0.3c-1.4,2.1-3.9,1.8-5.3-0.1c-0.3,0.2-0.7,0.4-1,0.6c1-0.1,1.9-0.1,2.9-0.1c0.2-0.2,0.4-0.4,0.6-0.7
			c-0.8,0.1-1.7,0.3-2.5,0.4c0,0.2,0.1,0.4,0.1,0.5c1.4-0.5,2.9-0.7,4.4-0.6c0-0.2,0-0.3,0-0.5c-1.3,0.6-2.6,1.2-3.9,1.9
			c-0.1,0-0.5,0.3-0.2,0.4c1,0.5,2,0.8,3.2,0.9c0.2,0,1.5-0.3,1.1-0.6c-0.4-0.3-0.8-0.6-1.2-0.8c-0.1,0.1-0.2,0.3-0.2,0.4
			c0.3-0.1,0.6-0.3,0.8-0.4c0.3-0.1,0.4-0.4,0-0.5c-1.2-0.2-2.4,0-3.6,0.4c-0.6,0.2-0.5,0.6,0.1,0.5c0.8-0.1,1.6-0.2,2.5-0.3
			c-0.1-0.2-0.2-0.3-0.3-0.5c-2.6,1.2-5.4,1.8-8.3,1.7c-0.3,0.2-0.5,0.4-0.8,0.7c4-0.2,7.9-0.2,11.9-0.1c0.3-0.2,0.5-0.4,0.8-0.7
			c-2.9,0.2-5.8,0.3-8.7,0.1c-0.2,0.2-0.4,0.4-0.6,0.7c1.4-0.2,2.7-0.4,4-0.8c0.2,0,1-0.4,0.5-0.6c-0.7-0.3-1.4-0.6-2.1-0.9
			c-0.1,0.2-0.2,0.3-0.3,0.5c0.9-0.3,1.7-0.5,2.6-0.5c0.1-0.2,0.3-0.4,0.4-0.7c-3.5,0.6-7,0.9-10.6,0.8c-0.2,0.2-0.4,0.4-0.6,0.7
			c3.4-0.4,6.8-0.7,10.2-0.7c0.3,0,1.5-0.6,0.8-0.7c-2.2-0.1-4.3-0.2-6.5-0.1c-0.2,0.2-0.4,0.5-0.6,0.7c2.7-0.2,5.3-0.1,8,0.3
			c0-0.2,0-0.3,0-0.5c-0.5,0.2-0.9,0.5-1.3,0.8c-0.2,0.1-0.2,0.3,0,0.4c0.7,0.4,1.5,0.4,2.3,0.2c0.4-0.1,1-0.7,0.2-0.6
			c-1.1,0.1-2,0.3-3,0.8c-0.1,0.1-0.5,0.4-0.2,0.4c0.8,0.3,1.7,0.1,2.4-0.3c0.2-0.1,0.5-0.5,0-0.5c-1.3,0-1.5-2.6,0-2
			c0.7,0.3,0.8,0.7,0.4,1.3c-0.4,0.5-1,1-1.4,1.5c-0.3,0.3,0.4,0.3,0.5,0.3c1.1-0.2,2.2-0.6,3.2-1c-0.3-0.1-0.6-0.2-0.9-0.3
			c-0.6,0.3-1.1,0.6-1.7,0.9c0.4,0,0.7,0.1,1.1,0.1c0.7-0.6,1.5-1.2,2.3-1.7c-0.4,0-0.7-0.1-1.1-0.1c-0.4,0.4-0.9,0.7-1.5,0.6
			c-0.1,0.2-0.3,0.4-0.4,0.7c0.5-0.1,1-0.1,1.4-0.2c-0.2-0.1-0.4-0.2-0.5-0.3c-1.2,1.3,1,1.6,1.5,0.6c0.2-0.3-0.9-0.1-1-0.1
			c-0.8,0.3-1.4,0.7-1.9,1.4c-0.4,0.5,1,0.2,1.2,0c0.9-0.7,1.7-1.5,2.4-2.3c0.2-0.2,0-0.3-0.2-0.3c-1.2-0.1-2.3,0.2-3.4,0.7
			c-0.7,0.3,0.1,0.5,0.5,0.4s0.7-0.1,1.1,0.1c0.4,0.1,1.7-0.4,1.2-0.6c-0.8-0.3-1.6-0.3-2.4,0c0.2,0.1,0.3,0.3,0.5,0.4
			c0.5-0.3,1-0.4,1.6-0.3c-0.1-0.1-0.1-0.2-0.2-0.3c-0.7,0.8-1.4,1.5-2.2,2.1c0.4,0,0.8,0,1.2,0c0.3-0.4,0.6-0.7,1.1-0.9
			c-0.3,0-0.7-0.1-1-0.1l-0.1,0.1c0.3-0.1,0.6-0.3,0.8-0.4c0.1-0.2,0.3-0.4,0.5-0.6c0.3-0.3-0.4-0.3-0.5-0.3c-0.5,0.1-1,0.1-1.4,0.2
			s-1.3,0.6-0.4,0.7c1.3,0,2.5-0.4,3.5-1.4c0.4-0.4-0.9-0.2-1.1-0.1c-1,0.6-1.9,1.2-2.8,2c-0.4,0.4,0.9,0.2,1.1,0.1
			c0.6-0.3,1.1-0.6,1.7-0.9c0.9-0.5-0.5-0.5-0.9-0.3c-0.7,0.3-1.4,0.5-2.1,0.7c0.2,0.1,0.4,0.2,0.5,0.3c0.6-0.6,1.3-1.2,1.8-1.9
			c0.2-0.3,0.2-0.5,0-0.9c-0.6-0.8-1.9-0.9-2.8-0.7c-0.8,0.2-1.7,0.7-1.8,1.6c-0.1,1,0.6,1.8,1.6,1.8c0-0.2,0-0.3,0-0.5
			c-0.1,0-0.3,0-0.4,0c-0.1,0.1-0.1,0.3-0.2,0.4c0.5-0.2,1-0.4,1.5-0.4c0.1-0.2,0.2-0.4,0.2-0.6c-0.4,0-0.7,0-0.9-0.2
			c0,0.1,0,0.2,0,0.4c0.3-0.3,0.7-0.5,1-0.7c0.3-0.1,0.4-0.4,0-0.5c-2.8-0.4-5.5-0.5-8.3-0.3c-0.4,0-1.6,0.7-0.6,0.7
			c2.1,0,4.1,0,6.1,0.1c0.3-0.2,0.5-0.4,0.8-0.7c-3.5,0.1-7.1,0.3-10.6,0.8c-0.2,0-1.3,0.6-0.6,0.7c3.8,0.1,7.5-0.1,11.3-0.8
			c0.4-0.1,1.3-0.7,0.4-0.7c-1.3,0.1-2.5,0.3-3.8,0.8c-0.2,0.1-0.7,0.4-0.3,0.5c0.7,0.3,1.4,0.6,2.1,0.9c0.2-0.2,0.3-0.4,0.5-0.6
			c-1.2,0.3-2.4,0.6-3.7,0.7c-0.2,0-1.3,0.6-0.6,0.7c3,0.2,6,0.1,9-0.1c0.3,0,1.5-0.6,0.8-0.7c-4.1-0.1-8.1-0.1-12.2,0.1
			c-0.3,0-1.5,0.6-0.8,0.7c3.5,0.2,6.9-0.5,10.1-2c0.6-0.3,0.1-0.5-0.3-0.5c-0.8,0.1-1.6,0.2-2.5,0.3c0,0.2,0.1,0.4,0.1,0.5
			c0.7-0.3,1.4-0.3,2.1-0.2c0-0.2,0-0.3,0-0.5c-0.3,0.1-0.6,0.3-0.8,0.4c-0.1,0-0.4,0.3-0.2,0.4c0.4,0.3,0.8,0.6,1.2,0.8
			c0.4-0.2,0.8-0.4,1.1-0.6c-1-0.1-1.8-0.3-2.7-0.8c-0.1,0.1-0.2,0.3-0.2,0.4c1.3-0.6,2.6-1.2,3.9-1.9c0.2-0.1,0.5-0.5,0-0.5
			c-2-0.1-3.9,0.2-5.8,0.9c-0.6,0.2-0.5,0.6,0.1,0.5c0.8-0.1,1.7-0.3,2.5-0.4c0.2,0,1.3-0.6,0.6-0.7c-1.1,0-2.1,0-3.2,0.1
			c-0.2,0-1.3,0.2-1,0.6c2,2.7,6.2,2.2,8-0.4c0.1-0.2,0-0.3-0.2-0.3c-0.8-0.1-1.6-0.1-2.4,0.1c-0.1,0-0.9,0.4-0.6,0.5
			c1.7,1,3.5,1.2,5.4,0.6c0.6-0.2,0.9-0.7,0-0.6c-3.5,0.4-6.9,0.8-10.4,1.2c-1.7,0.2-3.4,0.4-5.1,0.6c-1.7,0.2-3.4,0.3-5,0.8
			c-0.2,0.1-1.1,0.6-0.4,0.6c0.4,0,0.8,0,1.2,0.1c0.1-0.2,0.3-0.4,0.4-0.6c-0.8,0.2-1.7,0.3-2.5,0.2c0,0.2,0,0.3,0,0.5
			c0.9-0.4,1.7-0.9,2.6-1.3c0.3-0.1,0.5-0.4,0-0.5c-1.1-0.1-2.2,0-3.2,0.1c-0.6,0.1-1.3,0.8-0.2,0.6c1.1-0.1,2.2-0.3,3.3-0.4
			c0.2,0,1.2-0.4,0.7-0.6c-1.6-0.6-3.6,0.1-4.4,1.6c0,0.1,0.1,0.2,0.1,0.2c2.1,0.5,4.3,0.5,6.4-0.2c0.8-0.3,0.7-0.8-0.1-0.6
			c-0.8,0.2-1.5,0.4-2.3,0.5c0,0.2,0,0.4,0,0.6c1.5-0.5,3-1,4.5-1.4c-0.2-0.1-0.5-0.2-0.7-0.3c-0.3,0.3-0.7,0.7-1,1
			c0,0-0.1,0.2,0,0.2h0.1c0.3,0.2,1,0,1.2-0.2s0.3-0.2,0.3-0.5c0,0,0,0,0-0.1c-0.3-0.2-0.5-0.2-0.8-0.2c-0.9,0-1.6,0-2.5-0.2
			c-0.2,0.2-0.5,0.4-0.7,0.6c1.7-0.2,3.3-0.3,5-0.3c0.5,0,1.6-0.7,0.6-0.7c-3.2,0-6.5-0.1-9.7-0.1c-0.2,0.2-0.4,0.5-0.6,0.7
			c3.8-0.2,7.5-0.5,11.1-1.6c0.1,0,1-0.4,0.5-0.6c-1.6-0.6-3.3-0.3-4.7,0.4c-0.9,0.4-1.6,1-2.4,1.6c-0.4,0.3-1.2,0.8-0.9,1.5
			c0.4,1.3,3.1,0.8,4,0.7c2.1-0.2,4-0.8,5.9-1.7c0.1-0.1,0.5-0.4,0.2-0.4C59.8,18,58,18,56.1,18.3c-0.2,0-1.2,0.4-0.7,0.6
			c1.7,0.8,3.8,0.3,5.1-1c0.1-0.1,0.1-0.2-0.1-0.3c-2-0.4-4-0.6-6.1-0.5c-0.3,0-1.5,0.6-0.8,0.7c4.9,0.3,9.2,3.5,14.2,2.7
			c0.2,0,1.3-0.6,0.6-0.7c-5.9-0.7-11.8,0.4-17.7-0.5c-0.3,0.2-0.6,0.4-0.9,0.7c2.7,0.2,5.4,0.2,8.1-0.1c1.4-0.2,4.5-0.2,4.9-2
			c0-0.2-0.1-0.2-0.3-0.2c-3-0.4-5.9-0.5-8.9-0.4c-0.3,0-1.5,0.6-0.8,0.7c2.8,0.3,5.7,0.5,8.6,0.4c0.3,0,1.5-0.6,0.8-0.7
			c-2.1-0.3-4.1-0.4-6.2-0.3c-0.3,0-1.5,0.6-0.8,0.7c2.4,0.2,4.8-0.2,7-1c0.2-0.1,0.8-0.5,0.2-0.6c-3-0.2-6-0.1-9.1,0.1
			C53.1,17.4,52,18.1,52.9,18.1L52.9,18.1z"/>
	</g>
</g>
<g>
	<g>
		<path class="st6" d="M67.9,17.9c-0.2-0.5-0.5-0.9-1.1-1c-0.5,0-1.1,0.1-1.5,0.4c-0.5,0.4-0.1,1.1,0,1.7c0.2,0.9,0.5,1.9,0,2.7
			c0.5-0.1,1-0.2,1.4-0.2c0-0.3,0.1-0.6,0.1-0.8c0-0.2-0.1-0.2-0.2-0.2c-5.9-0.4-11.9-0.9-17.8-0.8c0,0.1,0.1,0.2,0.1,0.3
			c0.8-0.5,1.6-0.8,2.5-0.8c0.1-0.2,0.3-0.4,0.4-0.6c-0.9,0.2-1.7,0.4-2.5,0.8c-0.2,0.1-0.5,0.3-0.2,0.4c0.9,0.3,1.8,0.4,2.7,0.3
			c0.1,0,1.4-0.4,0.9-0.6c-0.3-0.1-0.5-0.2-0.8-0.3c-0.1,0.2-0.2,0.3-0.3,0.5c0.5-0.2,1-0.3,1.5-0.2c0.3,0,0.8,0,1-0.3
			c0.1-0.2,0.3-0.3-0.1-0.3c-1,0-2,0.1-3,0.5c-0.1,0-0.7,0.3-0.3,0.5c0.3,0.1,0.5,0.2,0.8,0.3c0.3-0.2,0.6-0.4,0.9-0.6
			c-0.7,0.1-1.4,0-2.1-0.3c-0.1,0.1-0.1,0.3-0.2,0.4c0.5-0.2,0.9-0.4,1.4-0.5c0.3-0.1,1.4-0.6,0.4-0.6c-1.5,0.1-3,0.5-4.3,1.4
			c-0.2,0.1-0.2,0.3,0.1,0.3c6-0.1,11.9,0.4,17.8,0.8c-0.1-0.1-0.2-0.1-0.2-0.2c0,0.3-0.1,0.6-0.1,0.8c-0.1,0.4,1.3,0,1.4-0.2
			c0.5-0.8,0.4-1.6,0.2-2.4c-0.1-0.4-0.2-0.9-0.3-1.3c0-0.1,0-0.2,0-0.4c-0.2,0.1-0.4,0.2-0.6,0.2c0-0.1,0.4,0.7,0.5,0.7
			C66.6,18.6,68,18.2,67.9,17.9L67.9,17.9z"/>
	</g>
</g>
<line class="st7" x1="28.2" y1="18.7" x2="45.2" y2="19.1"/>
<line class="st7" x1="48.4" y1="19" x2="65.4" y2="18.8"/>
<g>
	<g>
		<path class="st8" d="M46.1,19.2c0.5,0,1.5-0.8,0.6-0.8C46.2,18.4,45.1,19.2,46.1,19.2L46.1,19.2z"/>
	</g>
</g>
<g>
	<g>
		<path class="st8" d="M44.9,17.5c0.5,0,1.6-0.7,0.6-0.7C45,16.8,43.9,17.5,44.9,17.5L44.9,17.5z"/>
	</g>
</g>
<g>
	<g>
		<path class="st8" d="M35.5,21.3c0.5,0,1.6-0.7,0.6-0.7C35.6,20.6,34.5,21.3,35.5,21.3L35.5,21.3z"/>
	</g>
</g>
<g>
	<g>
		<path class="st8" d="M38.5,20.8c0.5,0,1.6-0.7,0.6-0.7C38.6,20.1,37.5,20.8,38.5,20.8L38.5,20.8z"/>
	</g>
</g>
<g>
	<g>
		<path class="st8" d="M41.2,21.7c0.3,0,1.6-0.6,0.9-0.6C41.9,21.1,40.5,21.7,41.2,21.7L41.2,21.7z"/>
	</g>
</g>
<g>
	<g>
		<path class="st8" d="M42.8,21.2c0.6,0,1.5-0.9,0.5-0.9C42.8,20.4,41.8,21.2,42.8,21.2L42.8,21.2z"/>
	</g>
</g>
<g>
	<g>
		<path class="st8" d="M44.4,23.1c0.5,0,1.6-0.7,0.6-0.7C44.5,22.4,43.5,23.1,44.4,23.1L44.4,23.1z"/>
	</g>
</g>
<g>
	<g>
		<path class="st8" d="M46.4,20.8c0.4,0,1.6-0.6,0.6-0.6C46.6,20.2,45.4,20.8,46.4,20.8L46.4,20.8z"/>
	</g>
</g>
<g>
	<g>
		<path class="st8" d="M53.1,22c0.5,0,1.5-0.8,0.6-0.8C53.1,21.2,52.1,22,53.1,22L53.1,22z"/>
	</g>
</g>
<g>
	<g>
		<path class="st8" d="M50,20.6c0.3,0,1.6-0.6,0.9-0.6C50.7,20,49.3,20.6,50,20.6L50,20.6z"/>
	</g>
</g>
<g>
	<g>
		<path class="st8" d="M50.7,22.8c0.6,0,1.5-0.9,0.5-0.9C50.6,21.9,49.7,22.8,50.7,22.8L50.7,22.8z"/>
	</g>
</g>
<g>
	<g>
		<path class="st8" d="M54.9,21.8c0.5,0,1.6-0.7,0.6-0.7C55,21,54,21.8,54.9,21.8L54.9,21.8z"/>
	</g>
</g>
<g>
	<g>
		<path class="st8" d="M54.5,20c0.6,0,1.5-0.9,0.6-0.9C54.5,19.2,53.5,20,54.5,20L54.5,20z"/>
	</g>
</g>
<g>
	<g>
		<path class="st8" d="M57.6,21.9c0.4,0,1.6-0.7,0.6-0.7C57.8,21.2,56.7,21.9,57.6,21.9L57.6,21.9z"/>
	</g>
</g>
<g>
	<g>
		<path class="st8" d="M60.3,21.5c0.6,0,1.5-0.9,0.6-0.9C60.2,20.7,59.3,21.5,60.3,21.5L60.3,21.5z"/>
	</g>
</g>
<g>
	<g>
		<path class="st8" d="M58,20.4c0.5,0,1.6-0.7,0.6-0.7C58.1,19.7,57,20.4,58,20.4L58,20.4z"/>
	</g>
</g>
</svg>
