<?xml version="1.0" encoding="utf-8"?>
<!-- Generator: Adobe Illustrator 25.0.1, SVG Export Plug-In . SVG Version: 6.00 Build 0)  -->
<svg version="1.1" id="Layer_1" xmlns="http://www.w3.org/2000/svg" xmlns:xlink="http://www.w3.org/1999/xlink" x="0px" y="0px"
	 viewBox="0 0 100 50" style="enable-background:new 0 0 100 50;" xml:space="preserve">
<style type="text/css">
	.st0{fill:#B48400;stroke:#CC9900;stroke-width:0.5;stroke-miterlimit:10;}
	.st1{fill:none;stroke:#CC9900;stroke-width:0.5;stroke-miterlimit:10;}
	.st2{fill:#2AA200;stroke:#2AA200;stroke-width:0.5;stroke-miterlimit:10;}
	.st3{fill:none;stroke:#FF0A0A;stroke-width:3;stroke-miterlimit:10;}
	.st4{fill:#FFFFFF;}
</style>
<path class="st0" d="M30.6,19.3c0.6,0.1,1.2,0.3,1.8,0.2c0.5-0.1,0.9-0.3,1.3-0.4c1.8-0.5,3.6,0.6,5.4,1.1c2.1,0.6,4.3,0.4,6.5,0.2
	c4.4-0.4,8.9-0.9,13.3-1.6c1.7-0.2,3.4-0.5,5.1,0c0.8,0.3,1.7,0.7,2.5,0.5c0.5-0.1,1-0.5,1.5-0.8c1.6-0.9,3.7-0.5,5.6-0.2
	c1.4,0.3,2.9,0.6,4,1.5c0.7,0.6,1.2,1.4,1.6,2.3c0.7,1.7,0.6,3.7-0.5,5.2s-3.3,2.3-5.1,1.5c-0.4-0.2-0.7-0.4-1.1-0.4
	s-0.7,0.3-1.1,0.5c-1.1,0.7-2.4,0.9-3.7,1.1c-5,0.8-9.9,1.5-15,1.4c-1,0-2-0.1-3,0c-0.9,0.1-1.7,0.4-2.6,0.5
	c-2.1,0.3-4.3-0.2-6.5-0.4c-6.3-0.7-13,1-18.8-1.5c-0.9-0.4-1.8-1.3-1.3-2c0.2-0.3,0.5-0.4,0.8-0.6c1-0.9-0.4-2.4-0.7-3.7
	c-0.6-2.2,1.7-2.7,3.1-3.6c1.3-0.8,0.9-1.2,2.6-1.3C27.7,18.7,29.2,19,30.6,19.3z"/>
<path class="st1" d="M24.5,24c-0.3,0-0.6,0-0.8,0.2c-0.2,0.6-0.2,1.3,0,2c0.1,0.2,0.1,0.3,0.1,0.5c0,0.3-0.3,0.6-0.6,0.8
	c-0.2,0.2-0.5,0.6-0.2,0.9"/>
<path class="st2" d="M21.6,22.4c-0.5-1.1-0.6-2.6,0.3-3.3c0.7-0.5,1.6-0.3,2.5-0.2c2.2,0.1,4.3-1.4,5.1-3.6c0.8,1.1,1.5,2.2,2.6,3
	c1.1,0.8,2.5,1.1,3.6,0.4c0.4-0.2,0.9-0.6,1.3-0.6c0.5,0,1,0.4,1.5,0.7c1.1,0.6,2.5,0.3,3.3-0.6c0.9,1.1,1.8,2.2,2.7,3.3
	c1.2,0.6,2.3-1.1,3.6-1.5c0.6-0.2,1.1-0.1,1.7,0c3,0.2,6-0.4,8.6-1.9c0.4-0.2,0.7-0.4,1.2-0.4c0.8,0,1.3,1,1.9,1.5
	c1.1,0.9,2.6,0.6,3.9,0.2c2.2-0.6,4.3-1.3,6.5-2.1c1-0.4,2.1-0.8,3.2-0.6c0.6,0.1,1.2,0.5,1.8,0.8c0.7,0.4,1.3,0.8,2,1.1
	c0.7,0.4,1.5,0.9,2,1.6s0.7,1.8,0.2,2.6c-1.6,0.3-3.2-0.6-4.7-1.3c-1.5-0.7-3.4-1.2-4.6-0.1c-1.3,1.1-2,3.5-3.5,3.1
	c-1.1-0.2-1.5-1.7-2.6-2.2c-1-0.4-2.1,0.4-3.2,0.5c-1.4,0.1-2.9-1.2-4.1-0.4c-0.7,0.4-1.1,1.4-1.9,1.4c-0.5,0-0.8-0.4-1.3-0.6
	c-1.9-1-3.9,0.9-5.8,1.6c-2,0.7-4.2,0-6.2-1s-3.9-2.1-6-2.4s-4.6,0.5-5.5,2.6c0.6-1.4-3.6-2.8-4.3-2.8
	C25.6,21.3,23.5,22.2,21.6,22.4z"/>
<line class="st3" x1="31.5" y1="18" x2="48.2" y2="20.6"/>
<line class="st3" x1="43.4" y1="16.7" x2="59.6" y2="20.1"/>
<line class="st3" x1="56.6" y1="16.7" x2="70.2" y2="19.3"/>
<g>
	<g>
		<path class="st4" d="M31.5,17.9c1.5,0.8,3.1,1.1,4.8,0.8c0.8-0.2,1.6-0.5,2.3-1c0.6-0.3,1-0.8,1.6-0.5c0.7,0.3,1.3,0.7,2.1,0.6
			c0.4,0,0.8-0.2,1.3-0.2c0.4,0-0.2,0,0.2,0c0.2,0,0.4,0.1,0.6,0.2c1.9,0.5,3.9,0.6,5.8,0.4c0.6-0.1,1.5-0.5,1.6-1.2s-0.8-1.1-1.4-1
			c-1.8,0.2-3.4,0-5.1-0.4c-0.7-0.2-1.4-0.3-2.1-0.1c-0.2,0-0.3,0.1-0.5,0.1c0.2,0,0.1-0.1-0.1-0.1c-0.3-0.2-0.7-0.3-1-0.4
			c-1.6-0.6-3,0-4.3,0.8c-1.2,0.7-2.4,1-3.6,0.3c-0.6-0.4-1.5-0.3-2.1,0.2C31.2,16.7,30.9,17.5,31.5,17.9L31.5,17.9z"/>
	</g>
</g>
<g>
	<g>
		<path class="st4" d="M51.4,16.1c0.7-0.1,1.4-0.1,2.1-0.2c0.7-0.1,1.4-0.2,2.1-0.1c0.7,0.1,1.3,0.4,1.9,0.5c0.7,0.2,1.3,0.2,2,0.2
			c0.4,0,0.7,0,1.1-0.1c0.3,0,0.3,0,0,0c0.1,0.1,0.2,0.2,0.3,0.3c0.3,0.4,0.6,0.7,1.1,0.9c1,0.4,2,0.5,3.1,0.5c0.7,0,1.5-0.2,2-0.5
			c0.4-0.3,0.4-0.6-0.2-0.6c-1,0-2.1,0-2.9-0.7c-0.4-0.3-0.5-0.8-1.1-0.9c-0.6-0.2-1.3,0.1-2,0.1c-1.4,0-2.6-0.8-3.9-0.8
			c-1.5,0-3,0.3-4.4,0.4c-0.6,0.1-1.5,0.2-1.9,0.7C50.3,16.1,51.1,16.1,51.4,16.1L51.4,16.1z"/>
	</g>
</g>
</svg>
