<?xml version="1.0" encoding="utf-8"?>
<!-- Generator: Adobe Illustrator 25.0.1, SVG Export Plug-In . SVG Version: 6.00 Build 0)  -->
<svg version="1.1" id="Layer_1" xmlns="http://www.w3.org/2000/svg" xmlns:xlink="http://www.w3.org/1999/xlink" x="0px" y="0px"
	 viewBox="0 0 100 50" style="enable-background:new 0 0 100 50;" xml:space="preserve">
<style type="text/css">
	.st0{fill:#8E603C;stroke:#8B5E3C;stroke-miterlimit:10;}
	.st1{fill:#8B5E3C;}
	.st2{fill:#69020D;}
	.st3{fill:#69020D;stroke:#69020D;stroke-miterlimit:10;}
	.st4{fill:#FFC63F;stroke:#FFC63F;stroke-miterlimit:10;}
	.st5{fill:none;stroke:#FFC63F;stroke-miterlimit:10;}
	.st6{fill:#E61E25;}
	.st7{fill:#FCED00;}
	.st8{fill:#F2F9FD;}
</style>
<polygon class="st0" points="49.1,37.6 79.5,31.4 18.7,31.4 "/>
<ellipse class="st1" cx="50" cy="27.5" rx="40.2" ry="7.3"/>
<path class="st2" d="M21.5,26c1.6-0.6,3-1.7,4.5-2.6c1.5-0.9,3.3-1.5,5-0.9c1.5,0.5,2.5,2,3.9,2.8c2.2,1.3,5,0.8,7.3-0.2
	s4.3-2.7,6.6-3.8c2.3-1.1,5.1-1.6,7.3-0.4c1.6,0.9,2.7,2.6,4.4,3.4c1.5,0.7,3.4,0.6,5,0c1.6-0.6,3-1.5,4.4-2.5c-0.7-0.5-1.3-1-2-1.6
	c-2.3,2-5.8,2.5-8.6,1.2c-1.3-0.6-2.5-1.6-3.8-2.2c-3.4-1.4-7.2,0.3-10.4,2c-3.2,1.7-6.9,3.5-10.4,2.4c-2.1-0.6-3.8-2.3-5.9-2.6
	c-4.3-0.7-8.1,4.2-12.4,3.6c1,0.7,2.1,1.2,3.3,1.6c0.5,0.1,1,0.3,1.5,0.2c1.4-0.1,2.4-1.2,3.3-2.3"/>
<path class="st3" d="M41.8,18.7c1-0.4,2.1-0.7,3.1-0.4c1.1,0.3,1.8,1.3,2.5,2.1c1.1,1.4,2.1,2.8,3.2,4.2c1.1,1.4,2.3,3,4,3.5
	c2.3,0.6,4.7-0.8,7.1-0.4c3.4,0.5,6.1,4.4,9.5,3.6c0.1,1.3,0.6,2.6,1.4,3.6c-4.1,1-8.8-0.3-11.7-3.3c-0.9-0.9-1.7-1.9-2.8-2.2
	c-1.1-0.2-2.2,0.3-3.2,0.4C52.2,30,50,28,48.3,26.2c-1.7-1.9-3.5-4-6-4.3c-1.7-0.2-3.3,0.4-4.9,1c-1.6,0.6-3.3,1.3-4.9,1.9
	c-1,0.4-3.1,1.7-4.2,1.6c-1.6-0.2-3.4-2.9-1.7-4c1.6-1,4.8-0.6,6.7-1C36.2,20.8,39,19.7,41.8,18.7z"/>
<polygon class="st0" points="49,32.8 79.4,26.6 18.6,26.6 "/>
<path class="st3" d="M76.6,31.4c-1,0.5-2,1-3.1,0.9c-1.1-0.2-2-1-2.7-1.8c-1.2-1.2-2.5-2.5-3.7-3.8c-1.3-1.3-2.7-2.6-4.4-2.9
	c-2.4-0.3-4.6,1.4-6.9,1.4c-3.4,0-6.6-3.6-9.8-2.3c-0.3-1.3-0.9-2.5-1.9-3.4c4-1.6,8.7-0.9,12.1,1.7c1,0.7,1.9,1.7,3.1,1.8
	c1.1,0.1,2.1-0.5,3.2-0.8c2.5-0.5,4.8,1.1,6.8,2.7s4,3.5,6.5,3.4c1.7,0,3.2-0.8,4.7-1.7c1.5-0.9,3.1-1.7,4.6-2.6
	c1-0.5,2.8-2.1,4-2.2c1.6-0.1,3.8,2.4,2.2,3.7c-1.5,1.2-4.7,1.2-6.5,1.9C81.8,28.6,79.2,30.1,76.6,31.4z"/>
<ellipse class="st1" cx="49.9" cy="22.7" rx="40.2" ry="7.3"/>
<path class="st2" d="M21.4,21.2c1.6-0.6,3-1.7,4.5-2.6c1.5-0.9,3.3-1.5,5-0.9c1.5,0.5,2.5,2,3.9,2.8c2.2,1.3,5,0.8,7.3-0.2
	s4.3-2.7,6.6-3.8c2.3-1.1,5.1-1.6,7.3-0.4c1.6,0.9,2.7,2.6,4.4,3.4c1.5,0.7,3.4,0.6,5,0c1.6-0.6,3-1.5,4.4-2.5c-0.7-0.5-1.3-1-2-1.6
	c-2.3,2-5.8,2.5-8.6,1.2c-1.3-0.6-2.5-1.6-3.8-2.2c-3.4-1.4-7.2,0.3-10.4,2c-3.2,1.7-6.9,3.5-10.4,2.4c-2.1-0.6-3.8-2.3-5.9-2.6
	c-4.3-0.7-8.1,4.2-12.4,3.6c1,0.7,2.1,1.2,3.3,1.6c0.5,0.1,1,0.3,1.5,0.2c1.4-0.1,2.4-1.2,3.3-2.3"/>
<path class="st4" d="M15.2,26.8c0.6,0.8,0.9,1.8,1.4,2.6c0.1,0.2,0.3,0.5,0.5,0.5c0.2,0,0.4-0.1,0.5-0.2c0.9-0.5,1.8-1.1,2.7-0.7
	c0.6,0.3,0.9,1,0.9,1.6c0,0.6-0.2,1.3-0.4,1.9c0.4,0.2,0.8-0.1,1-0.4c0.2-0.4,0.3-0.8,0.3-1.2c0.1-0.6,0.2-1.3,0.5-1.8
	c0.3-0.5,1-0.9,1.6-0.8c0.9,0.2,1.2,1.3,1.5,2.2c0.3,0.9,1.2,1.8,2,1.4c0.3-0.1,0.4-0.4,0.7-0.5c0.4-0.1,0.9,0,1.1-0.3
	c0.1-0.2,0.1-0.4,0.2-0.6c0.1-0.2,0.3-0.2,0.5-0.3c0.8-0.2,1.6-0.4,2.4-0.6c-0.9-0.5-1.8-0.9-2.7-1.4c-0.4-0.2-0.9-0.4-1.3-0.6
	c-0.7-0.2-1.5,0-2.3,0c-0.8,0-1.6-0.1-2.4-0.3c-1.8-0.3-8.8-2.9-10-1.9C14.5,25.9,14.9,26.3,15.2,26.8z"/>
<path class="st4" d="M42.3,32.6c0.8,0.8,1.7,1.5,2.7,2.1c0.7,0.4,1.4,0.8,2.2,0.7c1-0.2,1.5-1.2,2.3-1.7c0.5-0.3,1.1-0.4,1.6-0.6
	c0.9-0.3,1.8-1,2.2-1.9c-1.2,0.4-2.4,0.8-3.7,0.8c-2.2,0-4.2-1.3-6.4-1.4c-0.9,0-2.3-0.1-3.1,0.2C40.8,31.3,41.6,31.9,42.3,32.6z"/>
<path class="st4" d="M77.2,31.3c0.5-0.4,0.8-1.2,1.5-1.4c0.9-0.3,2,0.9,2.8,0.3c0.5-0.4,0.3-1.2,0.7-1.7c0.2-0.3,0.6-0.4,0.9-0.7
	c0.3-0.2,0.5-0.8,0.1-1c-1,0.4-2.1,0.1-3.1,0.3c-1,0.2-1.9,0.8-3,1c-0.9,0.2-2.8-0.1-3.5,0.7C72.2,30.3,75.9,32.3,77.2,31.3z"/>
<path class="st5" d="M39.6,30.5c-1.1-0.5-2.3-0.9-3.5-0.8c-0.3,0-0.7,0.1-1,0.2c-0.9,0.1-1.9-0.1-2.8-0.5"/>
<path class="st5" d="M73.9,28.4c-2.4-0.5-4.6,1.1-6.9,1.8c-4,1.2-8.4-0.5-12.6,0c0.3-0.2,0.1,0.3,0.4,0.1"/>
<path class="st5" d="M83.2,27c1.9,0,3.8-0.8,5.2-2"/>
<path class="st2" d="M40.8,28.3c1.6-0.9,2.9-2.6,4.3-3.9c1.4-1.3,3.2-2.3,4.9-1.6c1.6,0.7,2.7,2.7,4.1,3.7c2.3,1.7,5.1,0.9,7.3-0.8
	c2.2-1.6,4.1-4,6.2-5.7s4.9-2.6,7.3-1c1.7,1.1,2.9,3.4,4.6,4.5c1.6,0.9,3.4,0.7,5-0.2c1.6-0.9,2.9-2.3,4.2-3.7
	c-0.7-0.7-1.4-1.4-2.1-2c-2.1,3-5.6,3.9-8.5,2.2c-1.4-0.8-2.6-2.1-4-2.8c-3.5-1.7-7.1,0.8-10.2,3.4c-3.1,2.6-6.6,5.3-10.2,4
	c-2.1-0.8-4-3-6.1-3.3c-4.4-0.7-7.7,6.4-12.1,5.7c1.1,0.9,2.2,1.6,3.4,2c0.5,0.2,1,0.3,1.5,0.2c1.4-0.2,2.3-1.9,3.1-3.4"/>
<path class="st3" d="M39,14.7c0.8-0.7,1.7-1.5,2.7-1.6c1.1-0.1,2.2,0.4,3.1,1c1.5,0.9,3,1.8,4.5,2.7c1.6,0.9,3.3,1.9,5,1.6
	c2.4-0.3,4-2.5,6.3-3.2c3.3-0.9,7.3,1.7,10.1-0.3c0.6,1.2,1.6,2.2,2.7,2.8c-3.4,2.5-8.2,3.1-12.1,1.5c-1.1-0.5-2.3-1.1-3.5-0.9
	c-1.1,0.2-1.9,1.1-2.8,1.6c-2.2,1.2-5,0.2-7.2-0.8c-2.3-1.1-4.8-2.3-7.2-1.6c-1.6,0.5-2.9,1.7-4.1,2.9c-1.2,1.2-2.5,2.5-3.8,3.7
	c-0.8,0.8-2.2,2.8-3.3,3.1c-1.5,0.5-4.3-1.4-3.1-3c1.1-1.6,4.2-2.4,5.8-3.6C34.7,18.8,36.8,16.7,39,14.7z"/>
<g>
	<g>
		<path class="st6" d="M33.5,17.6c1.5-0.5,2.9,0.3,4.2,0.9c1.5,0.7,3,1.5,4.4,2.4c0-0.4,0-0.8,0-1.2c-3.9-1.7-8.4-0.5-12.2-2.5
			c0,0.4,0,0.8,0,1.2c1.8-0.9,3.7-0.4,5.4,0.6c0.9,0.5,1.7,1.1,2.5,1.7c0.6,0.4,1.4,0.9,2.1,1c1.2,0.1,1.4-1.3,1-2.2
			c-0.6-1.6-2.9-2.4-4.4-2.5c-0.2,0-0.2,1.1,0,1.2c1.1,0.8,2.5,0.6,3.8,0.8c1.8,0.2,3.4,0.8,5,1.7c0-0.4,0-0.8,0-1.2
			c-1.1,1.7-3.5,2.1-5.1,1c0,0.4,0,0.8,0,1.2c1.3-0.8,2.7-1.2,4.2-1.2c0.2,0,0.1-1.1,0-1.2c-1.1-1-2.3-1.8-3.6-2.4
			c0,0.4,0,0.8,0.1,1.2c1.6-1.6,4.2-1.9,6-0.5c0-0.4,0-0.8-0.1-1.1c-0.3,0.8-1.7,0.6-2.4,0.6c-1,0-2,0-3,0c-1.7,0-3.4-0.2-4.9-1.1
			c0,0.4,0,0.8,0,1.2c3.4,0.3,6.4,2.4,9.8,2.2c0-0.4,0-0.8-0.1-1.2c-1.3,1.2-2.8,2.1-4.5,2.7c-0.2,0.1-0.2,1.2,0,1.2
			c2.4,0,4.7-0.6,6.9-1.8c0.2-0.1,0.2-1.1,0-1.2c-2.4-1.7-5.5-2.1-8.3-1.1c-0.3,0.1,0,1.3,0,1.2c2.7-1,5.8-0.6,8.2,1
			c0-0.4,0-0.8,0-1.2c-2.1,1.1-4.4,1.7-6.9,1.8c0,0.4,0,0.8,0,1.2c1.7-0.6,3.3-1.5,4.6-2.8c0.1-0.1,0.1-1.2-0.1-1.2
			c-3.4,0.2-6.4-1.9-9.8-2.2c-0.2,0-0.2,1.1,0,1.2c1.7,1,3.6,1.1,5.6,1.1c1.1,0,2.2,0,3.3,0c0.7,0,1.3-0.1,1.6-0.8
			c0.1-0.2,0.2-1-0.1-1.1c-1.9-1.4-4.6-1.2-6.2,0.5c-0.2,0.2-0.2,1.1,0.1,1.2c1.3,0.6,2.5,1.4,3.5,2.4c0-0.4,0-0.8,0-1.2
			c-1.5,0-2.9,0.4-4.2,1.2c-0.2,0.1-0.2,1.1,0,1.2c1.7,1.2,4.1,0.8,5.3-1c0.1-0.2,0.2-1.1,0-1.2c-1.4-0.8-2.8-1.4-4.4-1.7
			c-1.4-0.3-3.2,0.1-4.4-0.8c0,0.4,0,0.8,0,1.2c0.7,0.1,1.4,0.3,2.1,0.6c0.5,0.2,1.7,0.8,1.9,1.4c0.3-0.1,0.3,0-0.1,0.2
			c-0.1,0.1-0.3,0.1-0.4,0.1c-0.2,0-0.5,0-0.7-0.1c-0.7-0.2-1.4-0.7-2-1.1c-2.2-1.5-4.8-3.5-7.5-2c-0.2,0.1-0.2,1.1,0,1.2
			c3.8,2,8.3,0.8,12.2,2.5c0.1,0,0.2-1.1,0-1.2c-1.3-0.8-2.7-1.6-4.1-2.3c-1.4-0.7-3-1.5-4.5-1C33.2,16.4,33.4,17.6,33.5,17.6
			L33.5,17.6z"/>
	</g>
</g>
<g>
	<g>
		<path class="st6" d="M32.4,17.4c1.6-0.2,3.3-0.4,4.9-0.4c0-0.4,0-0.8-0.1-1.2c-1.2,1.1-2.7,1.6-4.3,1.6c0,0.4,0,0.8,0,1.2
			c1.9-0.1,3.8,0,5.7,0.3c0-0.4,0-0.8,0-1.2c-0.8,0.1-1.5,0.3-2.3,0.4c-0.2,0-0.2,1.2,0,1.2c1.5,0.6,3.1,1.1,4.8,1.4
			c0-0.4,0-0.8-0.1-1.2c-0.6,0.4-1.3,0.6-2,0.8c-0.2,0-0.2,1.2,0,1.2c1.6,0,3.1-0.3,4.5-0.8c0.2-0.1,0.2-1.2,0-1.2
			c-1-0.1-2,0.2-2.8,0.9c-0.2,0.1-0.1,1.1,0.1,1.2c1.4,0.7,3.1,0.5,4.2-0.6c0.1-0.1,0.1-1.3-0.1-1.2c-0.7,0.1-1.4,0.4-2,0.8
			c-0.3,0.2,0,1.3,0,1.2c1.2-0.6,2.4-1.3,3.6-2c0.2-0.2,0-1.3,0-1.2c-1.4,0.6-2.7,1.3-4.1,2c-0.2,0.1-0.2,1.2,0,1.2
			c1.8,0,3.5-0.5,5-1.4c0.2-0.1,0.1-1.3,0-1.2c-1.1,0.4-2.2,0.7-3.4,1.1c-0.3,0.1-3.1,1.2-3.2,0.8c0,0.3,0,0.6,0.1,0.8
			c0.1-1.2,0.9-2.2,1.9-2.8c0.2-0.1,0.1-1.2-0.1-1.2c-0.9,0.2-1.8,0.4-2.7,0.6c-0.2,0-0.2,1.2,0,1.2c1,0.4,3.1,1.1,3.8-0.1
			c0.5-0.9,0.1-2.2-0.4-3c0,0.4,0,0.8,0,1.2c0.5-0.1,0.9-0.3,1.4-0.4c0.2-0.1,0.2-1.2,0-1.2c-1.5,0-3,0.1-4.5,0.4
			c-0.2,0-0.2,1.2,0,1.2c0.8,0,1.6-0.1,2.4-0.1c0.7,0,1.5-0.2,2.2-0.1c0.2,0,0.8,0.2,0.8,0.5c0,0.3-0.5,0.5-0.7,0.6
			c-0.7,0.1-1.3-0.3-1.9,0c0,0.4,0,0.8,0,1.2c0.4-0.2,0.7-0.2,1.1-0.2c0.1,0,0.2-1.2,0-1.2c-2.1-0.6-4.2-1-6.5-0.9
			c-0.5,0-1,0.1-1.4,0c-0.5-0.1-0.9-0.4-1.4-0.5c-1-0.3-2-0.5-3.1-0.4c0,0.4,0,0.8,0,1.2c1,0,1.9,0,2.9,0.2c0.1,0,0.2-1.2,0-1.2
			c-0.5-0.1-1-0.1-1.6,0c-0.3,0.1-0.1,1.3,0,1.2c0.5-0.1,1-0.2,1.6,0c0-0.4,0-0.8,0-1.2c-1-0.1-1.9-0.2-2.9-0.2
			c-0.2,0-0.2,1.2,0,1.2c1,0,2.1,0.1,3.1,0.4c0.4,0.1,0.9,0.4,1.3,0.5c0.5,0.2,1,0.1,1.5,0.1c2.2-0.2,4.3,0.3,6.5,0.9
			c0-0.4,0-0.8,0-1.2c-0.4-0.1-0.7,0-1.1,0.2c-0.3,0.1-0.1,1.3,0,1.2c0.9-0.3,2,0.5,2.7-0.4c0.4-0.5,0.4-1.4,0.3-2
			c-0.2-0.9-0.9-1.1-1.8-1.1c-1.3,0-2.7,0.1-4,0.2c0,0.4,0,0.8,0,1.2c1.5-0.2,3-0.4,4.5-0.4c0-0.4,0-0.8,0-1.2
			c-0.5,0.1-0.9,0.3-1.4,0.4c-0.3,0.1-0.1,1.1,0,1.2c0.3,0.5,0.5,0.8-0.1,1.1c-0.3,0.1-0.6,0.2-0.9,0.2c-0.8,0-1.6-0.2-2.3-0.5
			c0,0.4,0,0.8,0,1.2c0.9-0.2,1.8-0.4,2.7-0.6c0-0.4,0-0.8-0.1-1.2c-0.8,0.6-1.5,1.3-1.8,2.3c-0.2,0.5-0.5,1.6-0.1,2.1
			c0.3,0.3,0.8,0,1.1-0.1c0.6-0.2,1.2-0.4,1.8-0.6c1.3-0.4,2.5-0.8,3.8-1.2c0-0.4,0-0.8,0-1.2c-1.5,1-3.2,1.5-5,1.4
			c0,0.4,0,0.8,0,1.2c1.3-0.7,2.7-1.4,4.1-2c0-0.4,0-0.8,0-1.2c-1.2,0.7-2.4,1.4-3.6,2c0,0.4,0,0.8,0,1.2c0.6-0.4,1.3-0.6,2-0.8
			c0-0.4,0-0.8-0.1-1.2c-1.1,1.1-2.8,1.3-4.2,0.6c0,0.4,0,0.8,0.1,1.2c0.8-0.7,1.7-1,2.7-0.9c0-0.4,0-0.8,0-1.2
			c-1.5,0.6-3,0.8-4.5,0.8c0,0.4,0,0.8,0,1.2c0.7-0.2,1.4-0.3,2-0.8c0.2-0.1,0.2-1.2-0.1-1.2c-1.6-0.3-3.2-0.8-4.8-1.4
			c0,0.4,0,0.8,0,1.2c0.8-0.1,1.5-0.3,2.3-0.4c0.2,0,0.2-1.2,0-1.2c-1.9-0.3-3.8-0.4-5.7-0.3c-0.2,0-0.2,1.2,0,1.2
			c1.6,0.1,3.1-0.5,4.3-1.6c0.1-0.1,0.1-1.2-0.1-1.2c-1.6,0-3.3,0.2-4.9,0.4C32.2,16.2,32.3,17.4,32.4,17.4L32.4,17.4z"/>
	</g>
</g>
<g>
	<g>
		<path class="st7" d="M50.8,19.9c1.9,0.1,3.8,0.4,5.6,0.7c0-0.4,0-0.8,0-1.2c-1.4,0.2-2.8,0.4-4.2,0.6c-0.9,0.1-3.3,0.6-3.8-0.5
			c0,0.3,0,0.6,0.1,0.8c0-0.6,1.5-1.1,2-1.2c0.7-0.3,1.5-0.4,2.3-0.4c0.2,0,0.2-1.2,0-1.2c-1.8-0.2-3.6-0.5-5.3-1
			c-0.1,0-0.1,0.3-0.1,0.3c-0.1,0.8,0,1.7,0.9,2.1c1.3,0.5,3.1,0.3,4.4,0.2c0.2,0,0.2-1.2,0-1.2c-1.3,0-2.6,0.2-3.9,0.5
			c-0.2,0.1-0.2,1.1,0,1.2c1.7,1.1,3.6,1.3,5.6,1.5c0.2,0,0.2-1.2,0-1.2c-1.4-0.1-2.7-0.3-4-0.5c-1-0.2-2.6-0.4-3.1-1.5
			c0,0.4,0,0.8,0,1.2c1.7-0.5,3.7-0.3,5.4-0.3c1.9,0.1,3.8,0.2,5.8,0.4c0-0.4,0-0.8,0-1.2c-1.7,0.1-3.3,0.2-5,0.3
			c-0.2,0-0.2,1.2,0,1.2c2.4,0.3,4.8,0.3,7.1,0c0.2,0,0.1-1.3,0-1.2c-1.1,0.1-2.2,0.3-3.2,0.9c-0.2,0.1-0.1,1.2,0.1,1.2
			c1.6,0.5,3.3,0.7,5,0.8c0-0.4,0-0.8,0-1.2c-3.1,0.1-6.3,0.2-9.4,0.5c0,0.4,0,0.8,0,1.2c3.1-0.9,6.4-1.1,9.6-0.7
			c0.1,0,0.2-1.2,0-1.2c-1.9-0.5-3.8-1.2-5.6-2c0,0.4,0,0.8,0,1.2c1.9-0.3,3.8-0.1,5.5,0.6c0-0.4,0-0.8-0.1-1.2
			c-0.4,0.5-1.1,0.3-1.6,0.3c-0.7,0-1.3-0.1-2-0.1c-1.3-0.1-2.5-0.1-3.8-0.2c-1.1-0.1-2.1-0.3-3.1-0.8c-1-0.5-1.8-1.1-2.9-1.1
			c-0.2,0-0.2,1.2,0,1.2c4.5,1.2,9,2.2,13.6,3c0.1,0,0.2-1.2,0-1.2c-0.7-0.2-1.4-0.5-2.2-0.7c0,0.4,0,0.8,0,1.2
			c1.1-0.6,2.4-0.7,3.5,0c0-0.4,0-0.8,0-1.2c-4.5,2.1-9.4,0.9-14.1,1c-0.2,0-0.2,1.2,0,1.2c1.5,0.5,3,0.8,4.6,0.9
			c0.2,0,0.2-1.2,0-1.2c-1.5-0.3-2.9-0.4-4.4-0.4c-0.2,0-0.2,1.1,0,1.2c0.3,0.2,0.4,0.2,0.8,0.2c0.2,0,0.2-1.2,0-1.2
			c-0.2,0-0.5,0-0.7-0.2c0,0.4,0,0.8,0,1.2c1.5,0,2.9,0.2,4.4,0.4c0-0.4,0-0.8,0-1.2c-1.6-0.1-3.1-0.4-4.6-0.9c0,0.4,0,0.8,0,1.2
			c4.7-0.1,9.7,1.1,14.1-1c0.2-0.1,0.2-1.1,0-1.2c-1.1-0.6-2.4-0.6-3.5,0c-0.2,0.1-0.2,1.2,0,1.2c0.7,0.2,1.4,0.5,2.2,0.7
			c0-0.4,0-0.8,0-1.2c-4.6-0.8-9.1-1.8-13.6-3c0,0.4,0,0.8,0,1.2c1.1,0,2,0.6,2.9,1.1c1.1,0.6,2.2,0.7,3.4,0.8
			c1.3,0.1,2.6,0.1,4,0.2c0.7,0,1.3,0.1,2,0.1c0.5,0,0.9,0,1.2-0.3c0.1-0.2,0.2-1.1-0.1-1.2c-1.8-0.7-3.7-0.9-5.5-0.6
			c-0.2,0-0.2,1.2,0,1.2c1.8,0.8,3.7,1.4,5.6,2c0-0.4,0-0.8,0-1.2c-3.2-0.4-6.5-0.2-9.6,0.7c-0.2,0.1-0.1,1.3,0,1.2
			c3.1-0.3,6.3-0.4,9.4-0.5c0.2,0,0.2-1.2,0-1.2c-1.7-0.1-3.4-0.3-5-0.8c0,0.4,0,0.8,0.1,1.2c0.9-0.6,2-0.8,3.1-0.9
			c0-0.4,0-0.8,0-1.2c-2.4,0.3-4.8,0.3-7.1,0c0,0.4,0,0.8,0,1.2c1.7-0.1,3.3-0.2,5-0.3c0.2,0,0.2-1.2,0-1.2
			c-1.9-0.2-3.8-0.4-5.8-0.4c-1.7-0.1-3.7-0.3-5.4,0.3c-0.3,0.1-0.1,1,0,1.2c0.4,1,1.5,1.3,2.6,1.5c1.5,0.3,3.1,0.6,4.7,0.7
			c0-0.4,0-0.8,0-1.2c-1.9-0.1-3.9-0.3-5.5-1.4c0,0.4,0,0.8,0,1.2c1.3-0.3,2.6-0.5,3.9-0.5c0-0.4,0-0.8,0-1.2
			c-0.9,0.1-1.9,0.1-2.8,0c-0.4,0-0.8,0-1.2-0.1c-0.2,0-0.3,0-0.5-0.1c-0.1,0-0.6-0.4-0.6-0.2c0,0.1-0.1,0.2-0.1,0.3
			c1.7,0.5,3.5,0.9,5.3,1c0-0.4,0-0.8,0-1.2c-1.3,0.1-2.8,0.4-3.9,1.2C48.2,19,48,20,48.4,20.6c0.6,0.9,2.3,0.7,3.2,0.6
			c1.6-0.2,3.2-0.4,4.8-0.6c0.2,0,0.2-1.2,0-1.2c-1.9-0.3-3.8-0.5-5.6-0.7C50.6,18.7,50.6,19.9,50.8,19.9L50.8,19.9z"/>
	</g>
</g>
<g>
	<g>
		<path class="st8" d="M46.3,18.8c3.7-1.1,8.2-2.2,11.4,0.6c0-0.4,0-0.8,0-1.2c-2.6,0.8-5.2-1.1-7.9-0.5c0,0.4,0,0.8,0.1,1.2
			c2.3-1.8,5.4-1.4,8.1-1.1c1.5,0.2,2.9,0.2,4.4,0.1c1.5-0.2,2.9-0.4,4.4-0.2c0-0.4,0-0.8-0.1-1.2c-1.6,1.6-3.8,1.4-5.8,0.9
			c-2.3-0.5-4.6-1.2-6.9-1.8c0,0.4,0,0.8,0,1.2c1.8,0.4,3.5,0.9,5.3,1.3c0.1,0,0.2-1.2,0-1.2c-3.2-0.8-6.5-1.4-9.8-1.6
			c-0.8-0.1-1.6-0.1-2.5-0.1c-0.5,0-1.3-0.2-1.7,0.1c-0.4,0.3-0.4,1.3,0,1.7c0.4,0.4,1.1,0.3,1.6,0.3c0.7,0.1,1.5,0.1,2.2,0.1
			c1.5,0,3,0,4.5,0.1c3,0.1,6,0.5,8.8,1.8c0.1,0,0.2-1.1,0-1.2c-2.3-1.7-5-2.5-7.9-2.2c-0.2,0-0.1,1.3,0,1.2
			c2.8-0.3,5.6,0.4,7.8,2.2c0-0.4,0-0.8,0-1.2c-2.6-1.3-5.5-1.6-8.4-1.8c-1.4-0.1-2.9-0.1-4.3-0.1c-0.6,0-4.2,0.2-4.4-0.5
			c0,0.3,0,0.7,0,1c0.7-0.7,2.4-0.3,3.3-0.2c1.2,0.1,2.5,0.2,3.7,0.4c2.4,0.3,4.8,0.8,7.1,1.3c0-0.4,0-0.8,0-1.2
			c-1.8-0.4-3.5-0.9-5.3-1.3c-0.1,0-0.2,1.2,0,1.2c2.4,0.6,4.8,1.3,7.3,1.8c1.9,0.4,4,0.5,5.5-1c0.1-0.1,0.2-1.2-0.1-1.2
			c-1.6-0.2-3.1,0.1-4.6,0.3c-1.6,0.2-3.1,0-4.7-0.1c-2.7-0.3-5.5-0.6-7.8,1.2c-0.1,0.1-0.1,1.2,0.1,1.2c2.7-0.5,5.2,1.3,7.9,0.5
			c0.2-0.1,0.2-1.1,0-1.2c-3.3-2.9-7.7-1.8-11.5-0.7C46,17.6,46.2,18.8,46.3,18.8L46.3,18.8z"/>
	</g>
</g>
<path class="st3" d="M39,15.8c0.8-0.7,1.7-1.5,2.7-1.6c1.1-0.1,2.2,0.4,3.1,1c1.5,0.9,3,1.8,4.5,2.7c1.6,0.9,3.3,1.9,5,1.6
	c2.4-0.3,4-2.5,6.3-3.2c3.3-0.9,7.3,1.7,10.1-0.3c0.6,1.2,1.6,2.2,2.7,2.8c-3.4,2.5-8.2,3.1-12.1,1.5c-1.1-0.5-2.3-1.1-3.5-0.9
	c-1.1,0.2-1.9,1.1-2.8,1.6c-2.2,1.2-5,0.2-7.2-0.8c-2.3-1.1-4.8-2.3-7.2-1.6c-1.6,0.5-2.9,1.7-4.1,2.9c-1.2,1.2-2.5,2.5-3.8,3.7
	c-0.8,0.8-2.2,2.8-3.3,3.1c-1.5,0.5-4.3-1.4-3.1-3c1.1-1.6,4.2-2.4,5.8-3.6C34.7,19.8,36.8,17.8,39,15.8z"/>
</svg>
