<?xml version="1.0" encoding="utf-8"?>
<!-- Generator: Adobe Illustrator 25.0.1, SVG Export Plug-In . SVG Version: 6.00 Build 0)  -->
<svg version="1.1" id="Layer_1" xmlns="http://www.w3.org/2000/svg" xmlns:xlink="http://www.w3.org/1999/xlink" x="0px" y="0px"
	 viewBox="0 0 100 50" style="enable-background:new 0 0 100 50;" xml:space="preserve">
<style type="text/css">
	.st0{fill:#B48400;stroke:#CC9900;stroke-width:0.5;stroke-miterlimit:10;}
	.st1{fill:none;stroke:#CC9900;stroke-width:0.5;stroke-miterlimit:10;}
	.st2{fill:#408800;stroke:#408800;stroke-width:0.5;stroke-miterlimit:10;}
	.st3{fill:none;stroke:#F40000;stroke-width:3;stroke-miterlimit:10;}
	.st4{fill:#FFFFFF;}
</style>
<path class="st0" d="M69.2,17.9c-0.6,0.2-1.2,0.4-1.8,0.3c-0.5,0-0.9-0.3-1.4-0.4c-1.9-0.4-3.6,0.9-5.4,1.6
	c-2.1,0.8-4.4,0.8-6.6,0.7c-4.5-0.2-9-0.4-13.6-0.9c-1.7-0.2-3.5-0.3-5.1,0.3c-0.8,0.3-1.7,0.9-2.5,0.7c-0.6-0.1-1-0.5-1.5-0.7
	c-1.7-0.9-3.8-0.4-5.6,0.2c-1.4,0.4-2.9,0.9-4,2c-0.7,0.7-1.1,1.7-1.4,2.6c-0.5,1.9-0.4,4.2,0.9,5.8c1.2,1.6,3.6,2.3,5.3,1.3
	c0.3-0.2,0.7-0.5,1.1-0.5c0.4,0,0.8,0.2,1.1,0.4c1.2,0.7,2.5,0.8,3.9,0.9c5.1,0.5,10.2,1,15.3,0.5c1-0.1,2-0.2,3.1-0.2
	c0.9,0.1,1.8,0.3,2.7,0.4c2.2,0.2,4.4-0.5,6.5-0.9c6.3-1.2,13.3,0.3,19-2.9c0.8-0.5,1.7-1.5,1.1-2.3c-0.2-0.3-0.6-0.4-0.8-0.6
	c-1.1-1,0.2-2.7,0.5-4.1c0.5-2.4-1.9-2.9-3.4-3.9c-1.3-0.8-1-1.2-2.8-1.3C72.1,17,70.5,17.5,69.2,17.9z"/>
<path class="st1" d="M76.7,23c-0.3,0-0.6,0-0.8,0.2c-0.2,0.6-0.2,1.3,0,2c0.1,0.2,0.1,0.3,0.1,0.5c0,0.3-0.3,0.6-0.6,0.8
	c-0.2,0.2-0.5,0.6-0.2,0.9"/>
<path class="st2" d="M26,18.5c-1-0.8-2.4-0.5-3.4,0.3c-1,0.8-1.5,1.9-2,3c1.2,0.2,2.3-0.4,3.4-0.8c1.1-0.4,2.5-0.5,3.4,0.3
	c1,1,0.6,2.7,1.4,3.9c0.9,1.3,2.9,1.4,4.4,0.7c1.4-0.7,2.5-2,3.7-3.1c1.1-1,2.4-1.8,3.9-2.3c0.3-0.1,0.7-0.3,1.1-0.2
	c0.6,0.1,1,0.6,1.4,1c1.5,1.5,4.3,1.4,5.7-0.2c0.3-0.4,0.7-0.8,1.2-0.9c0.5-0.1,1,0.2,1.4,0.6c1.7,1.5,2.7,4,4.9,4.5
	c1.3,0.3,2.7-0.2,3.7-1.1c1-0.9,1.6-2.1,2.1-3.3c0.2-0.6,0.4-1.3,1-1.5c1-0.5,2.1,0.6,3,1.3c2.3,1.9,6.1,1.5,8-0.7
	c0.7,0.9,2.2,1.2,3.2,0.6c0.4-0.2,0.8-0.6,1.2-0.8s1.1,0.1,1.1,0.5c0.3-0.3,0-0.8-0.3-1c-0.4-0.2-0.8-0.2-1.2-0.4
	c-1-0.5-0.7-2-1.4-2.9c-0.5-0.7-1.6-0.9-2.4-0.7c-0.9,0.2-1.6,0.7-2.3,1.3c-1.2-1-2.4-2-3.6-3.1c-0.4-0.3-0.8-0.7-1.3-0.7
	c-0.5,0-0.9,0.2-1.3,0.4c-2.2,1.1-4.3,2.5-6.2,4.2c-0.4,0.3-0.7,0.6-1.2,0.8c-1.4,0.4-2.7-1.3-4.1-1c-0.7,0.2-1.2,0.8-1.9,0.8
	c-1.3,0.1-1.9-1.5-3-2c-1-0.5-2.2,0-3.1,0.6s-1.7,1.4-2.6,1.9c-0.4,0.2-0.8,0.3-1.2,0.2c-0.8-0.2-1.2-1.1-1.7-1.8
	c-1-1.5-2.8-2.4-4.5-2.2c-1.8,0.2-3.4,1.4-3.9,3.1c-1-0.3-1.7-1.2-2.4-1.9s-1.8-1.3-2.8-1c-0.3,0.8-0.6,1.7-0.8,2.5
	c-1.5,0.2-2.9,0.6-4.4,1c-0.2,0.3-0.2,0.6-0.1,0.9"/>
<line class="st3" x1="31.2" y1="16.1" x2="64.2" y2="17.6"/>
<g>
	<g>
		<path class="st4" d="M29.6,17c1.9-0.7,3.7-1.4,5.7-1.4c1.8,0,3.7,0.2,5.5,0.4c3.6,0.3,7.6,1.6,11.2,0.6c1.5-0.4,3-1.4,4.5-1.5
			c0.9,0,1.7,0.5,2.5,0.9c0.8,0.4,1.6,0.5,2.4,0.5c1.8,0,3.5-0.5,5.4-0.2c2,0.4,3.9,1.3,5.8,2.1c0.9,0.4,3.6-0.5,2.3-1.6
			c-2.7-2.2-6.3-2-9.5-1.7c-2,0.2-3.9,0.2-5.8-0.6c-1.7-0.7-3.2-1.3-5.1-0.9c-0.5,0.1-1.4,0.7-1.2,1.3c0.2,0.7,1.2,0.7,1.7,0.5
			c0.8-0.2,1.6,0.3,2.3,0.6c0.7,0.3,1.5,0.6,2.3,0.8c1.5,0.4,3,0.3,4.6,0.2c2.9-0.2,6.1-0.8,8.5,1.3c0.8-0.5,1.5-1.1,2.3-1.6
			C72.9,16,71,15.2,69,14.7c-2-0.5-3.9-0.5-6-0.2c-1.1,0.1-1.8,0-2.8-0.6c-0.7-0.4-1.5-0.7-2.3-0.7c-1.8-0.2-3.6,0.6-5.3,1.2
			c-2,0.8-3.8,0.6-5.9,0.3c-2.1-0.3-4.2-0.5-6.3-0.7c-2-0.2-4.2-0.4-6.2-0.2c-2.1,0.2-4,1-5.9,1.7c-0.5,0.2-1.1,0.9-0.7,1.4
			C28.1,17.5,29.1,17.3,29.6,17L29.6,17z"/>
	</g>
</g>
</svg>
