<?xml version="1.0" encoding="utf-8"?>
<!-- Generator: Adobe Illustrator 25.0.1, SVG Export Plug-In . SVG Version: 6.00 Build 0)  -->
<svg version="1.1" id="Layer_1" xmlns="http://www.w3.org/2000/svg" xmlns:xlink="http://www.w3.org/1999/xlink" x="0px" y="0px"
	 viewBox="0 0 100 50" style="enable-background:new 0 0 100 50;" xml:space="preserve">
<style type="text/css">
	.st0{fill:#8E603C;stroke:#8B5E3C;stroke-miterlimit:10;}
	.st1{fill:#8B5E3C;}
	.st2{fill:#69020D;}
	.st3{fill:#FFC63F;stroke:#FFC63F;stroke-miterlimit:10;}
	.st4{fill:none;stroke:#FFC63F;stroke-miterlimit:10;}
	.st5{fill:#469759;stroke:#469759;stroke-miterlimit:10;}
	.st6{fill:none;stroke:#C82127;stroke-width:3;stroke-miterlimit:10;}
	.st7{fill:none;stroke:#FFFFFF;stroke-width:2;stroke-miterlimit:10;}
	.st8{fill:none;stroke:#1C6925;stroke-width:2;stroke-miterlimit:10;}
</style>
<polygon class="st0" points="49.1,37.6 79.5,31.4 18.7,31.4 "/>
<ellipse class="st1" cx="50" cy="27.5" rx="40.2" ry="7.3"/>
<path class="st2" d="M21.5,26c1.6-0.6,3-1.7,4.5-2.6c1.5-0.9,3.3-1.5,5-0.9c1.5,0.5,2.5,2,3.9,2.8c2.2,1.3,5,0.8,7.3-0.2
	s4.3-2.7,6.6-3.8c2.3-1.1,5.1-1.6,7.3-0.4c1.6,0.9,2.7,2.6,4.4,3.4c1.5,0.7,3.4,0.6,5,0c1.6-0.6,3-1.5,4.4-2.5c-0.7-0.5-1.3-1-2-1.6
	c-2.3,2-5.8,2.5-8.6,1.2c-1.3-0.6-2.5-1.6-3.8-2.2c-3.4-1.4-7.2,0.3-10.4,2c-3.2,1.7-6.9,3.5-10.4,2.4c-2.1-0.6-3.8-2.3-5.9-2.6
	c-4.3-0.7-8.1,4.2-12.4,3.6c1,0.7,2.1,1.2,3.3,1.6c0.5,0.1,1,0.3,1.5,0.2c1.4-0.1,2.4-1.2,3.3-2.3"/>
<polygon class="st0" points="49,32.8 79.4,26.6 18.6,26.6 "/>
<ellipse class="st1" cx="49.9" cy="22.7" rx="40.2" ry="7.3"/>
<path class="st3" d="M15.2,26.8c0.6,0.8,0.9,1.8,1.4,2.6c0.1,0.2,0.3,0.5,0.5,0.5c0.2,0,0.4-0.1,0.5-0.2c0.9-0.5,1.8-1.1,2.7-0.7
	c0.6,0.3,0.9,1,0.9,1.6c0,0.6-0.2,1.3-0.4,1.9c0.4,0.2,0.8-0.1,1-0.4c0.2-0.4,0.3-0.8,0.3-1.2c0.1-0.6,0.2-1.3,0.5-1.8
	c0.3-0.5,1-0.9,1.6-0.8c0.9,0.2,1.2,1.3,1.5,2.2c0.3,0.9,1.2,1.8,2,1.4c0.3-0.1,0.4-0.4,0.7-0.5c0.4-0.1,0.9,0,1.1-0.3
	c0.1-0.2,0.1-0.4,0.2-0.6c0.1-0.2,0.3-0.2,0.5-0.3c0.8-0.2,1.6-0.4,2.4-0.6c-0.9-0.5-1.8-0.9-2.7-1.4c-0.4-0.2-0.9-0.4-1.3-0.6
	c-0.7-0.2-1.5,0-2.3,0c-0.8,0-1.6-0.1-2.4-0.3c-1.8-0.3-8.8-2.9-10-1.9C14.5,25.9,14.9,26.3,15.2,26.8z"/>
<path class="st3" d="M42.3,32.6c0.8,0.8,1.7,1.5,2.7,2.1c0.7,0.4,1.4,0.8,2.2,0.7c1-0.2,1.5-1.2,2.3-1.7c0.5-0.3,1.1-0.4,1.6-0.6
	c0.9-0.3,1.8-1,2.2-1.9c-1.2,0.4-2.4,0.8-3.7,0.8c-2.2,0-4.2-1.3-6.4-1.4c-0.9,0-2.3-0.1-3.1,0.2C40.8,31.3,41.6,31.9,42.3,32.6z"/>
<path class="st3" d="M77.2,31.3c0.5-0.4,0.8-1.2,1.5-1.4c0.9-0.3,2,0.9,2.8,0.3c0.5-0.4,0.3-1.2,0.7-1.7c0.2-0.3,0.6-0.4,0.9-0.7
	c0.3-0.2,0.5-0.8,0.1-1c-1,0.4-2.1,0.1-3.1,0.3c-1,0.2-1.9,0.8-3,1c-0.9,0.2-2.8-0.1-3.5,0.7C72.2,30.3,75.9,32.3,77.2,31.3z"/>
<path class="st4" d="M39.6,30.5c-1.1-0.5-2.3-0.9-3.5-0.8c-0.3,0-0.7,0.1-1,0.2c-0.9,0.1-1.9-0.1-2.8-0.5"/>
<path class="st4" d="M73.9,28.4c-2.4-0.5-4.6,1.1-6.9,1.8c-4,1.2-8.4-0.5-12.6,0c0.3-0.2,0.1,0.3,0.4,0.1"/>
<path class="st4" d="M83.2,27c1.9,0,3.8-0.8,5.2-2"/>
<path class="st3" d="M27.4,24.4c2.6,0.6,5.3,1.3,7,3.4c0.8,1,1.8,2.4,3,1.8c1-0.5,1.4-2.2,2.4-1.8c0.3,0.1,0.5,0.4,0.7,0.5
	c0.3,0.2,0.7,0.3,1,0.3c2.6,0.6,4.8,2.8,5.4,5.4c0.1,0.7,0.3,1.5,1,1.6c0.7-2.3,1.3-4.6,1.7-7c0.1-0.6,0.2-1.1,0.6-1.5
	c0.5-0.6,1.4-0.6,2.2-0.5c2.3,0.3,4.5,1.6,6.7,1.1c0.7-0.2,1.4-0.5,2.1-0.6c1.3-0.2,2.6,0.2,3.8,0.6c0.5,1,1,2,1.4,3
	c0.1,0.3,0.3,0.6,0.6,0.7c0.5,0.1,0.9-0.5,1-1c0.4-1.2,0.7-2.4,1.1-3.6c4.4,1.2,8.7-2.1,13.3-2.4c0.7,0,1.4,0,2.1-0.1
	c1.9-0.2,3.6-1.1,5-2.4c0.2-0.2,0.4-0.4,0.3-0.6c0-0.2-0.2-0.3-0.4-0.4c-4.4-2.3-9.5-3-14.5-3.6c-4.3-0.5-8.6-1-12.9-1.6
	c-5.8-0.7-11.6-1.4-17.4-1c-2.6,0.2-5.3,0.6-7.9,0.9c-2.7,0.4-5.4,0.8-8.2,1.2c-1.7,0.3-12.5,1.4-12.5,3.8
	C15.9,22.7,26.1,24.1,27.4,24.4z"/>
<path class="st5" d="M22,22.6c1.3,0.7,0.6,2.7,1.2,4.1c0.3,0.8,1.2,1.4,2.1,1.4c0.9,0,1.8-0.6,2.1-1.4c0.3-0.7,0.2-1.4,0.4-2.1
	c0.3-1.2,1.3-2.1,2.3-2.9c0.1-0.1,0.3-0.2,0.4-0.3c0.8-0.2,1.1,0.9,1.2,1.7c0,0.8,0.5,1.9,1.2,1.6c0.3-0.2,0.5-0.6,0.6-0.9
	c0.3-1,0.7-2,1.3-2.9c0.2-0.4,0.6-0.9,1.1-0.9c0.3,0,0.6,0.1,0.9,0.3c1.3,1.1,0.8,3.1,0.2,4.7c-0.8,2.1-1.7,4.2-2.5,6.3
	c1,0.5,2-0.5,2.7-1.4c2.4-3.1,5.6-5.5,9.2-7c0.1,1.5,1.1,2.9,2.5,3.4c1.1-0.8,1.5-2.8,2.8-2.8c0.9,0,1.5,0.9,1.9,1.7
	c0.5,0.8,1.2,1.7,2.1,1.4c0.5-0.1,0.9-0.6,1.2-1c2-2.2,6.2-1.8,7.7,0.8c0.5,0.8,1.1,1.9,2,1.5c0.2-0.1,0.3-0.3,0.5-0.4
	c1.5-2.3-0.3-6,1.8-7.7c0.9-0.7,2.2-0.7,3.1-0.1c0.9,0.6,1.5,1.6,1.7,2.7c0.1,0.8,0,1.7,0.3,2.5c0.4,1.4,2,2.3,3.4,2
	c1.4-0.3,2.5-1.8,2.3-3.2c1,1.9,2.7,3.3,4.7,4c0.3-2.1,1.8-3.8,3.2-5.4c0.7-0.8,1.5-1.6,2.2-2.4c-1.9-1.7-5-0.4-7.5-1.1
	c-1.7-0.5-3-1.8-4.7-2.4c-1.7-0.6-3.7-0.3-5.2-1.2c-0.6-0.4-1.3-1-2-0.9c-1.1,0.2-1.7,1.9-2.7,1.5c-0.3-0.1-0.5-0.4-0.7-0.7
	c-0.8-1.4-1.1-3-0.9-4.6c-3.2-0.1-4.7,4.8-7.9,5c-1.4,0.1-2.7-0.8-4-1.3c-1.5-0.5-3.3-0.5-4.8,0.1c-0.5,0.2-0.9,0.4-1.4,0.5
	c-1.3,0.1-2.3-0.9-3.4-1.6c-1.7-1-3.8-1.1-5.7-0.7s-3.7,1.5-5.3,2.5c-1,0.6-2.1,1.3-3.3,1.6c-2,0.5-4-0.2-6-0.7s-4.3-0.6-5.8,0.7
	c-0.3,0.3-0.6,0.6-1,0.8c-0.4,0.2-1,0.3-1.5,0.4c-1.6,0.3-3.3,1.1-4.2,2.4c2.3,0.4,2.9,1.2,4.8,2.4C18.6,23.9,20.3,21.6,22,22.6z"/>
<line class="st6" x1="25.4" y1="19.4" x2="50.7" y2="17.9"/>
<line class="st6" x1="47.9" y1="14.7" x2="73.9" y2="17.3"/>
<line class="st7" x1="20.3" y1="15.7" x2="50.7" y2="16"/>
<line class="st7" x1="53.3" y1="14" x2="79.7" y2="16"/>
<line class="st8" x1="39.6" y1="13.5" x2="54.1" y2="14.2"/>
<line class="st8" x1="50" y1="12.1" x2="64.2" y2="14.7"/>
</svg>
