<?xml version="1.0" encoding="utf-8"?>
<!-- Generator: Adobe Illustrator 25.0.1, SVG Export Plug-In . SVG Version: 6.00 Build 0)  -->
<svg version="1.1" id="Layer_1" xmlns="http://www.w3.org/2000/svg" xmlns:xlink="http://www.w3.org/1999/xlink" x="0px" y="0px"
	 viewBox="0 0 100 50" style="enable-background:new 0 0 100 50;" xml:space="preserve">
<style type="text/css">
	.st0{fill:#F4B669;stroke:#F4B669;stroke-width:0.25;stroke-miterlimit:10;}
	.st1{fill:none;stroke:#6B974F;stroke-width:0.25;stroke-miterlimit:10;}
</style>
<path class="st0" d="M35.5,28c1-0.4,2-1.1,3.1-1.4c3.6-1.2,7.4,1.1,11.1,2.2c3.1,0.9,6.4,0.8,9.6,0.8c1.9,0,3.8-0.1,5.5-1
	c1.6-0.9,2.8-2.9,2.1-4.7c-0.8-2-3.4-2.5-5.5-2.6c-8.7-0.7-17.6-1.3-25.9,1.2c-1.6,0.5-4.6,1.8-4.5,4C31,28.7,33.9,28.7,35.5,28z"/>
<path class="st1" d="M35.4,24.7c0.1,0,0.2,0,0.2,0"/>
<path class="st1" d="M36.4,25.8c0.1,0,0.1-0.1,0.1-0.2"/>
<path class="st1" d="M37.4,24.6c0.1-0.2,0.2-0.4,0.3-0.6"/>
<path class="st1" d="M44.7,24c0-0.1,0-0.2,0-0.2"/>
<path class="st1" d="M33.5,27.7c0.1-0.1,0.2-0.2,0.3-0.1"/>
<path class="st1" d="M40,23.6c0,0,0.1-0.1,0.1-0.1"/>
<path class="st1" d="M44.9,25.2c0.2,0.2,0.3,0.5,0.5,0.7"/>
<path class="st1" d="M48.7,25.8c0,0,0.1,0.1,0.1,0.1"/>
<path class="st1" d="M49.7,24.7c0.1,0.1,0.2,0.2,0.2,0.2"/>
<path class="st1" d="M56,23.9c0.2,0,0.3,0,0.5,0"/>
<path class="st1" d="M57.3,25.4c0.1,0.1,0.2,0.1,0.2,0.2"/>
<path class="st1" d="M59.1,24.7c0.2,0,0.5,0.2,0.6,0.4"/>
<path class="st1" d="M59.1,26.9c0.4-0.1,0.8,0.2,0.9,0.6"/>
<path class="st1" d="M61.8,26.4c0-0.2,0.3,0,0.2,0.1"/>
<path class="st1" d="M62.6,25.2c0,0,0.1,0.1,0.1,0.1"/>
<path class="st1" d="M53.2,26.5c0.3,0,0.6,0.2,0.7,0.5"/>
<path class="st1" d="M52.6,23.9c0.4,0.1,0.9,0.4,1.2,0.6"/>
<path class="st1" d="M50.5,22.7c0.5-0.2,1-0.3,1.5-0.1"/>
<path class="st1" d="M49,23.7c0.1-0.3,0.3-0.6,0.4-0.9"/>
<path class="st1" d="M47.4,21.5c0.2-0.1,0.4-0.2,0.6-0.2"/>
<path class="st1" d="M40.8,22.4c0.3-0.2,0.7-0.3,1-0.3"/>
<path class="st1" d="M41.6,24.1c0.2-0.2,0.4-0.5,0.6-0.7"/>
<path class="st1" d="M39.8,25.3c0.2-0.2,0.3-0.3,0.5-0.5"/>
<path class="st1" d="M55.5,21.3c0,0,0-0.1,0-0.1"/>
<path class="st1" d="M63.4,23c0.3,0,0.7,0,1,0c0.1,0,0.2,0,0.2,0.1s0.6,0.3,0.5,0.3c0,0.1,0,0.2,0,0.2"/>
<path class="st1" d="M61.6,22.5c0.4,0.2,0.8,0.5,1,1"/>
<path class="st1" d="M64.6,25.2c0,0.2-0.1,0.5-0.1,0.7"/>
</svg>
