<?xml version="1.0" encoding="utf-8"?>
<!-- Generator: Adobe Illustrator 25.0.1, SVG Export Plug-In . SVG Version: 6.00 Build 0)  -->
<svg version="1.1" id="Layer_1" xmlns="http://www.w3.org/2000/svg" xmlns:xlink="http://www.w3.org/1999/xlink" x="0px" y="0px"
	 viewBox="0 0 100 50" style="enable-background:new 0 0 100 50;" xml:space="preserve">
<style type="text/css">
	.st0{fill:#FBC1A2;}
	.st1{fill:#FFFFFF;}
</style>
<path class="st0" d="M97.08,40.95c0.09,0,0.17,0.01,0.26,0.01C96.32,23.21,75.52,9.04,50,9.04c-25.52,0-46.31,14.17-47.33,31.92
	H97.08z"/>
<g>
	<g>
		<path class="st1" d="M14.9,34.48c0.53,0,1.64-0.21,1.93-0.73c0.3-0.55-0.26-0.62-0.72-0.62c-0.53,0-1.64,0.21-1.93,0.73
			C13.87,34.4,14.44,34.48,14.9,34.48L14.9,34.48z"/>
	</g>
</g>
<g>
	<g>
		<path class="st1" d="M16.96,26.51c0.54,0,1.64-0.21,1.93-0.74c0.3-0.55-0.26-0.64-0.73-0.64c-0.54,0-1.64,0.21-1.93,0.74
			C15.93,26.42,16.49,26.51,16.96,26.51L16.96,26.51z"/>
	</g>
</g>
<g>
	<g>
		<path class="st1" d="M22.96,39.34c0.66,0,1.59-0.18,1.89-0.86c0.27-0.6-0.24-1.11-0.85-1.11c-0.66,0-1.59,0.18-1.89,0.86
			C21.84,38.83,22.34,39.34,22.96,39.34L22.96,39.34z"/>
	</g>
</g>
<g>
	<g>
		<path class="st1" d="M21.79,20.55c0.6,0,1.62-0.19,1.91-0.81c0.27-0.59-0.23-0.94-0.81-0.94c-0.6,0-1.62,0.19-1.91,0.81
			C20.71,20.2,21.22,20.55,21.79,20.55L21.79,20.55z"/>
	</g>
</g>
<g>
	<g>
		<path class="st1" d="M29.5,31.41c1.63,0,2.25-2.06,0.27-2.06C28.14,29.35,27.52,31.41,29.5,31.41L29.5,31.41z"/>
	</g>
</g>
<g>
	<g>
		<path class="st1" d="M22.42,29.68c0.53,0,1.64-0.22,1.93-0.73c0.31-0.54-0.26-0.6-0.72-0.6c-0.53,0-1.64,0.22-1.93,0.73
			C21.39,29.62,21.97,29.68,22.42,29.68L22.42,29.68z"/>
	</g>
</g>
<g>
	<g>
		<path class="st1" d="M9.05,37.7c0.64,0,1.59-0.18,1.9-0.84c0.28-0.59-0.24-1.03-0.83-1.03c-0.64,0-1.59,0.18-1.9,0.84
			C7.94,37.26,8.46,37.7,9.05,37.7L9.05,37.7z"/>
	</g>
</g>
<g>
	<g>
		<path class="st1" d="M32.95,16.44c0.6,0,1.62-0.19,1.91-0.81c0.27-0.59-0.23-0.92-0.8-0.92c-0.6,0-1.62,0.19-1.91,0.81
			C31.88,16.1,32.38,16.44,32.95,16.44L32.95,16.44z"/>
	</g>
</g>
<g>
	<g>
		<path class="st1" d="M37.47,33.39c0.55,0,1.63-0.21,1.92-0.75c0.3-0.56-0.25-0.7-0.75-0.7c-0.55,0-1.63,0.21-1.92,0.75
			C36.43,33.24,36.98,33.39,37.47,33.39L37.47,33.39z"/>
	</g>
</g>
<g>
	<g>
		<path class="st1" d="M29.57,36.82c0.65,0,1.59-0.18,1.9-0.85c0.27-0.6-0.24-1.1-0.85-1.1c-0.65,0-1.59,0.18-1.9,0.85
			C28.45,36.33,28.95,36.82,29.57,36.82L29.57,36.82z"/>
	</g>
</g>
<g>
	<g>
		<path class="st1" d="M36.86,20.64c0.65,0,1.59-0.18,1.9-0.85c0.27-0.6-0.24-1.09-0.85-1.09c-0.65,0-1.59,0.18-1.9,0.85
			C35.74,20.15,36.24,20.64,36.86,20.64L36.86,20.64z"/>
	</g>
</g>
<g>
	<g>
		<path class="st1" d="M51.59,30.92c1.6,0,2.27-1.99,0.29-1.99C50.28,28.93,49.61,30.92,51.59,30.92L51.59,30.92z"/>
	</g>
</g>
<g>
	<g>
		<path class="st1" d="M54.78,38.8c0.53,0,1.64-0.22,1.93-0.73c0.31-0.54-0.26-0.61-0.72-0.61c-0.53,0-1.64,0.22-1.93,0.73
			C53.75,38.73,54.32,38.8,54.78,38.8L54.78,38.8z"/>
	</g>
</g>
<g>
	<g>
		<path class="st1" d="M41.13,37.14c1.66,0,2.22-2.13,0.26-2.13C39.72,35.01,39.16,37.14,41.13,37.14L41.13,37.14z"/>
	</g>
</g>
<g>
	<g>
		<path class="st1" d="M47.06,22.51c0.57,0,1.63-0.2,1.92-0.78c0.29-0.57-0.24-0.8-0.77-0.8c-0.57,0-1.63,0.2-1.92,0.78
			C46,22.29,46.53,22.51,47.06,22.51L47.06,22.51z"/>
	</g>
</g>
<g>
	<g>
		<path class="st1" d="M34.79,24.47c0.62,0,1.61-0.18,1.9-0.84c0.26-0.6-0.23-1.02-0.83-1.02c-0.62,0-1.61,0.18-1.9,0.84
			C33.7,24.05,34.19,24.47,34.79,24.47L34.79,24.47z"/>
	</g>
</g>
<g>
	<g>
		<path class="st1" d="M52.79,13.07c0.62,0,1.61-0.18,1.9-0.83c0.27-0.59-0.23-1-0.83-1c-0.62,0-1.61,0.18-1.9,0.83
			C51.7,12.66,52.19,13.07,52.79,13.07L52.79,13.07z"/>
	</g>
</g>
<g>
	<g>
		<path class="st1" d="M62.14,27.22c0.64,0,1.59-0.18,1.9-0.84c0.28-0.6-0.24-1.04-0.84-1.04c-0.64,0-1.59,0.18-1.9,0.84
			C61.02,26.77,61.55,27.22,62.14,27.22L62.14,27.22z"/>
	</g>
</g>
<g>
	<g>
		<path class="st1" d="M63.22,38.27c1.65,0,2.23-2.1,0.26-2.1C61.84,36.17,61.25,38.27,63.22,38.27L63.22,38.27z"/>
	</g>
</g>
<g>
	<g>
		<path class="st1" d="M57.06,26.59c1.61,0,2.26-2,0.29-2C55.74,24.6,55.08,26.59,57.06,26.59L57.06,26.59z"/>
	</g>
</g>
<g>
	<g>
		<path class="st1" d="M63.23,15.06c1.67,0,2.21-2.17,0.24-2.17C61.8,12.89,61.27,15.06,63.23,15.06L63.23,15.06z"/>
	</g>
</g>
<g>
	<g>
		<path class="st1" d="M67.54,27.97c1.61,0,2.26-2.01,0.29-2.01C66.22,25.96,65.57,27.97,67.54,27.97L67.54,27.97z"/>
	</g>
</g>
<g>
	<g>
		<path class="st1" d="M71.18,34.7c0.53,0,1.64-0.21,1.93-0.73c0.31-0.55-0.26-0.62-0.72-0.62c-0.53,0-1.64,0.21-1.93,0.73
			C70.15,34.63,70.72,34.7,71.18,34.7L71.18,34.7z"/>
	</g>
</g>
<g>
	<g>
		<path class="st1" d="M70.56,21.26c0.62,0,1.61-0.18,1.9-0.83c0.27-0.59-0.23-0.99-0.82-0.99c-0.62,0-1.61,0.18-1.9,0.83
			C69.47,20.87,69.97,21.26,70.56,21.26L70.56,21.26z"/>
	</g>
</g>
<g>
	<g>
		<path class="st1" d="M58.72,20.61c0.64,0,1.59-0.18,1.9-0.84c0.28-0.59-0.24-1.03-0.83-1.03c-0.64,0-1.59,0.18-1.9,0.84
			C57.61,20.17,58.13,20.61,58.72,20.61L58.72,20.61z"/>
	</g>
</g>
<g>
	<g>
		<path class="st1" d="M84.22,30.11c0.6,0,1.62-0.19,1.91-0.81c0.27-0.59-0.23-0.92-0.8-0.92c-0.6,0-1.62,0.19-1.91,0.81
			C83.14,29.77,83.65,30.11,84.22,30.11L84.22,30.11z"/>
	</g>
</g>
<g>
	<g>
		<path class="st1" d="M76.44,39.53c0.08,0,0.15,0,0.23,0c0.19,0,0.38-0.03,0.56-0.07c0.2-0.03,0.39-0.09,0.57-0.17
			c0.17-0.06,0.32-0.14,0.46-0.24c0.13-0.07,0.23-0.16,0.33-0.27c0.04-0.06,0.07-0.12,0.11-0.19c0.04-0.13,0.01-0.24-0.09-0.33
			c-0.06-0.04-0.12-0.07-0.19-0.11c-0.19-0.06-0.38-0.09-0.58-0.08c-0.08,0-0.15,0-0.23,0c-0.19,0-0.38,0.03-0.56,0.07
			c-0.2,0.03-0.39,0.09-0.57,0.17c-0.17,0.06-0.32,0.14-0.46,0.24c-0.13,0.07-0.23,0.16-0.33,0.27c-0.04,0.06-0.07,0.12-0.11,0.19
			c-0.04,0.13-0.01,0.24,0.09,0.33c0.06,0.04,0.12,0.07,0.19,0.11C76.04,39.52,76.24,39.54,76.44,39.53L76.44,39.53z"/>
	</g>
</g>
<g>
	<g>
		<path class="st1" d="M87.25,37.79c0.64,0,1.53-0.14,2.05-0.55c0.37-0.3,0.47-0.61-0.16-0.61c-0.64,0-1.53,0.14-2.05,0.55
			C86.71,37.49,86.61,37.79,87.25,37.79L87.25,37.79z"/>
	</g>
</g>
<g>
	<g>
		<path class="st1" d="M77.22,29.81c0.64,0,1.53-0.14,2.05-0.55c0.38-0.3,0.47-0.59-0.16-0.59c-0.64,0-1.53,0.14-2.05,0.55
			C76.68,29.52,76.59,29.81,77.22,29.81L77.22,29.81z"/>
	</g>
</g>
<g>
	<g>
		<path class="st1" d="M82.58,20.91c1.62,0,2.26-2.02,0.28-2.02C81.25,18.89,80.61,20.91,82.58,20.91L82.58,20.91z"/>
	</g>
</g>
</svg>
