<?xml version="1.0" encoding="utf-8"?>
<!-- Generator: Adobe Illustrator 25.0.1, SVG Export Plug-In . SVG Version: 6.00 Build 0)  -->
<svg version="1.1" id="Layer_1" xmlns="http://www.w3.org/2000/svg" xmlns:xlink="http://www.w3.org/1999/xlink" x="0px" y="0px"
	 viewBox="0 0 100 50" style="enable-background:new 0 0 100 50;" xml:space="preserve">
<style type="text/css">
	.st0{fill:#FBC1A2;}
	.st1{fill:#FFFFFF;}
</style>
<path class="st0" d="M97.08,40.95c0.09,0,0.17,0.01,0.26,0.01C96.32,23.21,75.52,9.04,50,9.04c-25.52,0-46.31,14.17-47.33,31.92
	H97.08z"/>
<g>
	<g>
		<path class="st1" d="M12.48,34.88c1.65,0,1.02-1.71-0.34-1.71C10.5,33.17,11.13,34.88,12.48,34.88L12.48,34.88z"/>
	</g>
</g>
<g>
	<g>
		<path class="st1" d="M19.62,23.04c0.56,0,1.18-0.2,1.63-0.55c0.15-0.12,0.76-0.71,0.17-0.71c-0.56,0-1.18,0.2-1.63,0.55
			C19.64,22.45,19.04,23.04,19.62,23.04L19.62,23.04z"/>
	</g>
</g>
<g>
	<g>
		<path class="st1" d="M17.5,34.87c0.35,0-0.39-0.78-0.43-0.83c-0.28-0.28-0.84-0.87-1.28-0.87c-0.35,0,0.39,0.78,0.43,0.83
			C16.5,34.29,17.06,34.87,17.5,34.87L17.5,34.87z"/>
	</g>
</g>
<g>
	<g>
		<path class="st1" d="M15.41,24.89c0.44,0-0.25-0.86-0.32-0.94c-0.3-0.33-0.82-0.85-1.31-0.85c-0.44,0,0.25,0.86,0.32,0.94
			C14.4,24.38,14.92,24.89,15.41,24.89L15.41,24.89z"/>
	</g>
</g>
<g>
	<g>
		<path class="st1" d="M42.16,36.74c0.58,0-0.27-2.25-0.9-2.25C40.68,34.5,41.53,36.74,42.16,36.74L42.16,36.74z"/>
	</g>
</g>
<g>
	<g>
		<path class="st1" d="M29.9,35.91c0.53,0-0.17-0.43-0.28-0.5c-0.44-0.27-1.1-0.54-1.62-0.54c-0.53,0,0.17,0.43,0.28,0.5
			C28.72,35.64,29.38,35.91,29.9,35.91L29.9,35.91z"/>
	</g>
</g>
<g>
	<g>
		<path class="st1" d="M32.9,26.7c1.64,0,0.53-1.76-0.61-1.76C30.65,24.94,31.76,26.7,32.9,26.7L32.9,26.7z"/>
	</g>
</g>
<g>
	<g>
		<path class="st1" d="M27.85,30.09c0.58,0,0.26-0.65,0.08-0.89c-0.33-0.43-0.97-0.81-1.52-0.81c-0.58,0-0.26,0.65-0.08,0.89
			C26.65,29.72,27.3,30.09,27.85,30.09L27.85,30.09z"/>
	</g>
</g>
<g>
	<g>
		<path class="st1" d="M37.04,13.41c0.56,0,1.16-0.14,1.68-0.33c0.12-0.04,0.87-0.36,0.37-0.36c-0.56,0-1.16,0.14-1.68,0.33
			C37.29,13.1,36.54,13.41,37.04,13.41L37.04,13.41z"/>
	</g>
</g>
<g>
	<g>
		<path class="st1" d="M45.04,22.8c-0.08,0.08-0.15,0.15-0.23,0.23c-0.1,0.1-0.16,0.22-0.19,0.36c-0.05,0.13-0.06,0.26-0.03,0.39
			c0.02,0.14,0.08,0.26,0.18,0.35c0.08,0.12,0.18,0.2,0.31,0.26c0.09,0.03,0.19,0.07,0.28,0.1c0.21,0.05,0.43,0.05,0.65,0.01
			c0.11-0.03,0.21-0.07,0.32-0.1c0.19-0.08,0.36-0.2,0.49-0.35c0.08-0.08,0.15-0.15,0.23-0.23c0.1-0.1,0.16-0.22,0.19-0.36
			c0.05-0.13,0.06-0.26,0.03-0.39c-0.02-0.14-0.08-0.26-0.18-0.35c-0.08-0.12-0.18-0.2-0.31-0.26c-0.09-0.03-0.19-0.07-0.28-0.1
			c-0.21-0.05-0.43-0.05-0.65-0.01c-0.11,0.03-0.21,0.07-0.32,0.1C45.34,22.53,45.17,22.64,45.04,22.8L45.04,22.8z"/>
	</g>
</g>
<g>
	<g>
		<path class="st1" d="M36.18,29.5c0.44,0,1.02-0.49,1.35-0.74c0.09-0.07,0.8-0.68,0.59-0.68c-0.44,0-1.02,0.49-1.35,0.74
			C36.68,28.88,35.97,29.5,36.18,29.5L36.18,29.5z"/>
	</g>
</g>
<g>
	<g>
		<path class="st1" d="M45.13,17.58c0.15,0,0.3,0,0.46,0c0.14-0.01,0.27-0.04,0.41-0.08c0.16-0.04,0.31-0.09,0.46-0.16
			c0.15-0.06,0.29-0.14,0.43-0.23c0.12-0.07,0.23-0.15,0.33-0.25c0.05-0.05,0.1-0.11,0.14-0.16c0.07-0.08,0.09-0.17,0.07-0.27
			c-0.03-0.03-0.06-0.06-0.09-0.09c-0.12-0.05-0.24-0.07-0.37-0.05c-0.15,0-0.3,0-0.46,0c-0.14,0.01-0.27,0.04-0.41,0.08
			c-0.16,0.04-0.31,0.09-0.46,0.16c-0.15,0.06-0.29,0.14-0.43,0.23c-0.12,0.07-0.23,0.15-0.33,0.25c-0.05,0.05-0.1,0.11-0.14,0.16
			c-0.07,0.08-0.09,0.17-0.07,0.27c0.03,0.03,0.06,0.06,0.09,0.09C44.87,17.58,45,17.59,45.13,17.58L45.13,17.58z"/>
	</g>
</g>
<g>
	<g>
		<path class="st1" d="M63.41,21.53c0.66,0,2.57-1.45,1.25-1.45C64,20.09,62.1,21.53,63.41,21.53L63.41,21.53z"/>
	</g>
</g>
<g>
	<g>
		<path class="st1" d="M51.39,33.05c0.74,0-0.35-2.14-1.14-2.14C49.51,30.9,50.6,33.05,51.39,33.05L51.39,33.05z"/>
	</g>
</g>
<g>
	<g>
		<path class="st1" d="M62.43,37.89c0.95,0,0-2.27-0.89-2.27C60.59,35.63,61.54,37.89,62.43,37.89L62.43,37.89z"/>
	</g>
</g>
<g>
	<g>
		<path class="st1" d="M55.75,23.91c0.78,0,2.48-1.64,1.09-1.64C56.06,22.27,54.35,23.91,55.75,23.91L55.75,23.91z"/>
	</g>
</g>
<g>
	<g>
		<path class="st1" d="M56.2,14.64c1.43,0,0.45-2.24-0.72-2.24C54.05,12.4,55.02,14.64,56.2,14.64L56.2,14.64z"/>
	</g>
</g>
<g>
	<g>
		<path class="st1" d="M80.99,32.8c1.41,0-0.28-1.66-1.1-1.66C78.48,31.15,80.17,32.8,80.99,32.8L80.99,32.8z"/>
	</g>
</g>
<g>
	<g>
		<path class="st1" d="M62.05,32.76c0.15,0,0.3,0,0.46,0c0.1,0.01,0.2,0,0.29-0.04c0.07-0.01,0.12-0.05,0.15-0.12
			c0.01-0.07,0-0.13-0.05-0.18c-0.05-0.09-0.12-0.15-0.2-0.21c-0.07-0.05-0.15-0.09-0.22-0.14c-0.19-0.1-0.38-0.19-0.58-0.25
			c-0.11-0.03-0.21-0.06-0.32-0.09c-0.18-0.05-0.37-0.07-0.56-0.08c-0.15,0-0.3,0-0.46,0c-0.1-0.01-0.2,0-0.29,0.04
			c-0.07,0.01-0.12,0.05-0.15,0.12c-0.01,0.07,0,0.13,0.05,0.18c0.05,0.09,0.12,0.15,0.2,0.21c0.07,0.05,0.15,0.09,0.22,0.14
			c0.19,0.1,0.38,0.19,0.58,0.25c0.11,0.03,0.21,0.06,0.32,0.09C61.68,32.73,61.86,32.75,62.05,32.76L62.05,32.76z"/>
	</g>
</g>
<g>
	<g>
		<path class="st1" d="M70.53,25.25c0.55,0,1.16-0.16,1.68-0.35c0.12-0.04,0.87-0.33,0.38-0.33c-0.55,0-1.16,0.16-1.68,0.35
			C70.79,24.96,70.04,25.25,70.53,25.25L70.53,25.25z"/>
	</g>
</g>
<g>
	<g>
		<path class="st1" d="M69.54,35.58c0.37,0,1.24-0.2,1.21-0.71c-0.03-0.54-0.93-0.57-1.29-0.57c-0.37,0-1.24,0.2-1.21,0.71
			C68.29,35.55,69.19,35.58,69.54,35.58L69.54,35.58z"/>
	</g>
</g>
<g>
	<g>
		<path class="st1" d="M66.48,27.83c0.39,0-0.34-0.81-0.39-0.87c-0.29-0.3-0.83-0.86-1.29-0.86c-0.39,0,0.34,0.81,0.39,0.87
			C65.47,27.27,66.01,27.83,66.48,27.83L66.48,27.83z"/>
	</g>
</g>
<g>
	<g>
		<path class="st1" d="M78.94,19.99c0.58,0,1.02-0.56,0.86-1.11c-0.18-0.64-0.91-0.89-1.5-0.89c-0.58,0-1.02,0.56-0.86,1.11
			C77.62,19.74,78.35,19.99,78.94,19.99L78.94,19.99z"/>
	</g>
</g>
<g>
	<g>
		<path class="st1" d="M90.74,29.37c1.35,0,1.99-2.08,0.36-2.08C89.76,27.29,89.11,29.37,90.74,29.37L90.74,29.37z"/>
	</g>
</g>
<g>
	<g>
		<path class="st1" d="M82.07,37.19c1.37,0,2.04-1.78,0.39-1.78C81.09,35.42,80.42,37.19,82.07,37.19L82.07,37.19z"/>
	</g>
</g>
<g>
	<g>
		<path class="st1" d="M79.14,25.85c0.19,0-0.57-0.6-0.62-0.64c-0.3-0.22-0.91-0.79-1.32-0.79c-0.19,0,0.57,0.6,0.62,0.64
			C78.11,25.28,78.73,25.85,79.14,25.85L79.14,25.85z"/>
	</g>
</g>
<g>
	<g>
		<path class="st1" d="M67.67,16.71c0.52,0,0.56-0.31,0.28-0.66c-0.32-0.42-1.11-0.69-1.63-0.69c-0.52,0-0.56,0.31-0.28,0.66
			C66.37,16.43,67.16,16.71,67.67,16.71L67.67,16.71z"/>
	</g>
</g>
<g>
	<g>
		<path class="st1" d="M48.57,13.81c0.17,0-0.8-1.96-1.41-1.96C46.99,11.86,47.96,13.81,48.57,13.81L48.57,13.81z"/>
	</g>
</g>
<g>
	<g>
		<path class="st1" d="M39.88,19.93c0.5,0,1.35-0.14,1.6-0.66c0.23-0.49-0.19-0.77-0.66-0.77c-0.5,0-1.35,0.14-1.6,0.66
			C38.98,19.64,39.4,19.93,39.88,19.93L39.88,19.93z"/>
	</g>
</g>
<g>
	<g>
		<path class="st1" d="M30.8,16.81c0.33,0,1.24-0.15,1.22-0.63c-0.03-0.49-0.98-0.5-1.28-0.5c-0.33,0-1.24,0.15-1.22,0.63
			C29.55,16.81,30.5,16.81,30.8,16.81L30.8,16.81z"/>
	</g>
</g>
<g>
	<g>
		<path class="st1" d="M22.57,26.74c1.4,0,0.62-2.28-0.47-2.28C20.71,24.45,21.49,26.74,22.57,26.74L22.57,26.74z"/>
	</g>
</g>
<g>
	<g>
		<path class="st1" d="M11.65,30.78c1.4,0,2.04-2.16,0.42-2.16C10.67,28.61,10.02,30.78,11.65,30.78L11.65,30.78z"/>
	</g>
</g>
<g>
	<g>
		<path class="st1" d="M21.01,36.1c0.5,0,1.03-0.23,1.48-0.43c0.12-0.05,0.88-0.52,0.73-0.52c-0.5,0-1.03,0.23-1.48,0.43
			C21.62,35.63,20.86,36.1,21.01,36.1L21.01,36.1z"/>
	</g>
</g>
</svg>
