<?xml version="1.0" encoding="utf-8"?>
<!-- Generator: Adobe Illustrator 25.0.1, SVG Export Plug-In . SVG Version: 6.00 Build 0)  -->
<svg version="1.1" id="Layer_1" xmlns="http://www.w3.org/2000/svg" xmlns:xlink="http://www.w3.org/1999/xlink" x="0px" y="0px"
	 viewBox="0 0 100 50" style="enable-background:new 0 0 100 50;" xml:space="preserve">
<style type="text/css">
	.st0{fill:#FFFFFF;}
	.st1{fill:#FBC1A2;}
	.st2{fill:none;stroke:#C59982;stroke-width:3;stroke-miterlimit:10;}
</style>
<g>
	<g>
		<g>
			<g>
				<g>
					<g>
						<path class="st0" d="M37.3,32.1C37.3,32,37.4,32.1,37.3,32.1c0.2,0,0.2,0,0.2-0.1c0-0.1,0.2,0,0.1,0.1l0.2-0.2l-0.1,0
							c0-0.1,0.2,0,0.2-0.2l-0.2,0.1l0,0c0,0.1-0.1,0.1-0.2,0.1c0,0,0-0.1,0-0.1C37.2,31.7,37.4,31.9,37.3,32.1
							C37.3,32.1,37.3,32.1,37.3,32.1z"/>
						<path class="st0" d="M37,31.8l0,0.2l-0.2,0c0,0.1-0.1,0.1,0,0.2c0,0,0,0,0.1,0c0,0.1-0.2,0.1-0.1,0.2c0.1-0.1,0.1,0,0.2-0.2
							c0.1,0,0.2,0,0.3,0c0,0,0-0.1,0-0.1l0,0l-0.1-0.2c0,0-0.1,0-0.1,0.1l0.1-0.3c-0.1-0.2-0.2,0-0.3-0.1
							C37,31.7,36.8,31.7,37,31.8z"/>
						<path class="st0" d="M37.2,32.1L37.2,32.1L37.2,32.1z"/>
						<path class="st0" d="M23.5,32.2C23.5,32.2,23.5,32.3,23.5,32.2l0.4,0.2c0-0.1-0.1-0.2,0-0.2c0-0.1-0.1-0.1-0.2,0l0.1-0.1
							c-0.1,0.1-0.1-0.2,0-0.2h0l-0.4,0.3C23.4,32.3,23.4,32.2,23.5,32.2z"/>
						<path class="st0" d="M15.7,27.2C15.7,27.2,15.8,27.2,15.7,27.2C15.7,27.2,15.7,27.2,15.7,27.2z"/>
						<path class="st0" d="M23.2,32.3L23,32.4C23.1,32.4,23.1,32.4,23.2,32.3z"/>
						<path class="st0" d="M24.5,30.7C24.5,30.7,24.5,30.7,24.5,30.7L24.5,30.7L24.5,30.7L24.5,30.7z"/>
						<path class="st0" d="M21,31.9C21,31.9,21,31.9,21,31.9C21,31.9,21,31.9,21,31.9z"/>
						<path class="st0" d="M25.8,30.4l-0.2,0.1c0,0,0-0.1,0-0.1c0,0-0.1,0-0.1,0l0,0c-0.1,0.1-0.1,0.2-0.3,0.3
							c0.1,0.1,0.1,0.1,0.2,0c0,0,0,0,0,0l0.2-0.2L25.8,30.4z"/>
						<path class="st0" d="M18.5,28.1L18.5,28.1C18.5,28.1,18.5,28.1,18.5,28.1z"/>
						<path class="st0" d="M18.5,28L18.5,28C18.5,28.1,18.6,28.1,18.5,28z"/>
						<path class="st0" d="M23.2,32.2C23.2,32.3,23.2,32.3,23.2,32.2L23.2,32.2C23.3,32.3,23.2,32.3,23.2,32.2z"/>
						<path class="st0" d="M23.5,32l0.2,0l0.1-0.1C23.7,32,23.6,31.9,23.5,32z"/>
						<path class="st0" d="M21.2,32.1c-0.3-0.1,0.2-0.1,0-0.3c-0.1,0-0.2,0-0.2,0c0.3,0.1-0.2,0.3,0.1,0.4c-0.1,0.1-0.3,0.1-0.3,0
							c0-0.2,0.1-0.1,0.2-0.2c-0.1,0-0.1,0-0.2,0.1c-0.1-0.1-0.4,0-0.4-0.2c-0.1,0-0.2,0-0.3,0.1c-0.1,0.2,0.1,0.2,0.1,0.3
							c0,0,0,0,0-0.1l0.1,0.1c-0.1-0.1,0.1-0.2,0.2-0.1c0,0,0.1,0,0.1,0.1h-0.1c0,0.1,0.2,0,0.3,0.1c0,0,0,0-0.1,0.1
							c0.1-0.1,0.2,0,0.4,0l-0.2,0.1c0.2-0.1,0.4,0,0.5,0.2c0,0,0-0.1,0-0.1c0.1,0,0.1,0.2,0,0.2c0.2-0.1,0.3,0.3,0.5,0.2
							c0.3-0.2,0.6-0.4,1-0.6c0,0-0.1,0-0.1,0c0-0.2,0-0.2,0.1-0.3c-0.1,0-0.1,0.2-0.3,0.1c0.1,0,0.2-0.2,0-0.3
							c-0.4,0-0.8,0.3-1.2,0.4C21.7,32.3,21.4,32.2,21.2,32.1c0.2-0.1,0.3-0.1,0.4-0.1c-0.1,0-0.1-0.1-0.2-0.1L21.2,32.1z"/>
						<path class="st0" d="M22.2,32.1C22.2,32.1,22.2,32.1,22.2,32.1C22.2,32.1,22.2,32.1,22.2,32.1z"/>
						<path class="st0" d="M21.6,32C21.6,32,21.6,32,21.6,32L21.6,32L21.6,32z"/>
						<path class="st0" d="M23.3,32C23.3,31.9,23.3,31.9,23.3,32C23.3,31.9,23.3,31.9,23.3,32C23.3,31.9,23.3,32,23.3,32z"/>
						<path class="st0" d="M23.2,32.2L23.2,32.2C23.2,32.2,23.2,32.2,23.2,32.2C23.2,32.2,23.3,32.2,23.2,32.2z"/>
						<path class="st0" d="M20.5,30.5L20.5,30.5C20.5,30.5,20.5,30.5,20.5,30.5z"/>
						<path class="st0" d="M21,31.8c0.1,0,0.1-0.2,0.2-0.1l0,0c0.1,0,0.3,0.1,0.5,0.2c0,0.1,0,0.1,0,0.2c0.1,0,0.2,0,0.3,0
							c0,0.1,0.2,0,0.2,0.1c0-0.1,0.2-0.2,0-0.2c0,0,0,0,0,0c-0.1-0.1-0.2,0-0.3-0.1c0-0.1,0.1,0,0.1-0.1c-0.1,0-0.4-0.3-0.5,0
							c-0.1,0-0.1-0.1-0.1-0.1c-0.3,0.2-0.5-0.4-0.6-0.1c0.1,0,0.1,0.1,0.2,0L21,31.8z"/>
						<path class="st0" d="M23.1,31.9C23.1,31.9,23,31.9,23.1,31.9L23.1,31.9z"/>
						<path class="st0" d="M24.2,33.4L24,33.6c-0.3-0.1-0.4-0.2-0.6-0.2c0,0,0,0,0,0c-0.2,0-0.4-0.2-0.6-0.2c0,0-0.2-0.2-0.1-0.2
							c0,0-0.1,0-0.1,0c0-0.1,0.1,0,0.1,0c0,0,0,0,0,0c0.1,0,0.1-0.3,0.2-0.2c0,0.2-0.1,0-0.2,0.2c0.1,0,0.1,0,0.1-0.1
							c0.1,0,0.1,0.1,0,0.1c0.1,0,0.1,0.1,0.2,0c0.2,0-0.1,0.1,0,0.2l0.1-0.2l0.2,0.1c0.3,0,0.1-0.3,0.4-0.4c-0.1,0.1,0,0.3,0.1,0.4
							c-0.1,0-0.3,0-0.4,0c0.1,0.2-0.2-0.1-0.2,0.2c0.1-0.1,0.2,0,0.3,0.1l0,0c0.1,0.1,0.2-0.1,0.4,0c0.1,0,0,0.1,0,0.1
							C24.1,33.4,24.2,33.4,24.2,33.4z M24,33.4L24,33.4C23.9,33.4,24,33.4,24,33.4z"/>
						<path class="st0" d="M35.8,32.1L35.8,32.1C35.8,32.1,35.8,32.1,35.8,32.1z"/>
						<path class="st0" d="M28.1,31.9L28.1,31.9C28.1,31.9,28.1,31.9,28.1,31.9z"/>
						<path class="st0" d="M29.4,31.4L29.4,31.4C29.4,31.4,29.4,31.4,29.4,31.4z"/>
						<path class="st0" d="M35.2,32.2L35.2,32.2C35.2,32.2,35.2,32.2,35.2,32.2L35.2,32.2z"/>
						<path class="st0" d="M31.5,32.1C31.5,32.2,31.5,32.2,31.5,32.1C31.5,32.2,31.5,32.2,31.5,32.1z"/>
						<path class="st0" d="M29.3,31.4L29.3,31.4C29.3,31.4,29.3,31.4,29.3,31.4L29.3,31.4z"/>
						<path class="st0" d="M27.8,31.2C27.8,31.2,27.8,31.2,27.8,31.2C27.8,31.2,27.8,31.2,27.8,31.2z"/>
						<path class="st0" d="M27.7,31.8C27.7,31.8,27.7,31.8,27.7,31.8L27.7,31.8z"/>
						<path class="st0" d="M26.1,31L26.1,31C26.1,31,26.1,31,26.1,31z"/>
						<path class="st0" d="M27.6,31.6L27.6,31.6C27.6,31.7,27.6,31.6,27.6,31.6z"/>
						<polygon class="st0" points="36.4,32.6 36.4,32.6 36.4,32.6 						"/>
						<path class="st0" d="M36.5,32.3L36.5,32.3C36.5,32.2,36.5,32.2,36.5,32.3z"/>
						<path class="st0" d="M32.5,32.5C32.5,32.5,32.6,32.6,32.5,32.5C32.6,32.5,32.6,32.4,32.5,32.5z"/>
						<path class="st0" d="M36.3,34C36.3,34,36.3,33.9,36.3,34C36.3,33.9,36.3,34,36.3,34z"/>
						<path class="st0" d="M36.3,33.9L36.3,33.9C36.4,33.9,36.3,33.9,36.3,33.9z"/>
						<path class="st0" d="M32,34.2C32,34.2,32,34.2,32,34.2C32,34.2,32,34.3,32,34.2z"/>
						<path class="st0" d="M36.6,32.3c0,0,0.2-0.2,0-0.2c0-0.1,0.1-0.1,0.2-0.2c0,0,0-0.1,0-0.1c0,0,0,0.1-0.1,0.1
							c0-0.1,0-0.1,0.1-0.1c-0.1-0.1,0-0.1-0.1-0.2c-0.2,0.1-0.3,0.2-0.4,0.5c0.1-0.1,0.2-0.1,0.3-0.1l0,0.1c-0.1-0.1-0.2,0-0.3,0
							l0.3,0C36.7,32.1,36.6,32.2,36.6,32.3C36.5,32.2,36.6,32.2,36.6,32.3z"/>
						<polygon class="st0" points="36.7,33.5 36.7,33.5 36.7,33.5 						"/>
						<path class="st0" d="M25.3,33.6L25.3,33.6C25.3,33.6,25.3,33.6,25.3,33.6z"/>
						<path class="st0" d="M36.4,32.8L36.4,32.8L36.4,32.8z"/>
						<path class="st0" d="M25.9,33.8L25.9,33.8L25.9,33.8z"/>
						<path class="st0" d="M26.8,31L26.8,31C26.8,31,26.8,31,26.8,31z"/>
						<path class="st0" d="M25.9,33.8L25.9,33.8L25.9,33.8z"/>
						<path class="st0" d="M28.7,33.9C28.7,33.9,28.7,33.9,28.7,33.9C28.7,33.8,28.7,33.9,28.7,33.9z"/>
						<path class="st0" d="M28.2,33.6L28.2,33.6L28.2,33.6z"/>
						<path class="st0" d="M32.4,31.9C32.3,31.9,32.3,31.9,32.4,31.9C32.3,31.9,32.3,31.9,32.4,31.9z"/>
						<path class="st0" d="M25.9,33.8C25.9,33.8,25.9,33.8,25.9,33.8C25.9,33.8,25.9,33.8,25.9,33.8z"/>
						<polygon class="st0" points="29.7,33.3 29.6,33.3 29.6,33.3 						"/>
						<path class="st0" d="M29.9,33.5C29.9,33.5,29.9,33.5,29.9,33.5c0.1,0,0.3,0.1,0.3-0.1c0,0-0.2-0.1-0.2-0.2
							c-0.1,0-0.2-0.1-0.2-0.1c0.1,0.1,0,0.1-0.1,0.2c-0.1,0,0-0.1,0-0.2l-0.2,0l0.1,0l-0.1,0.1l0,0C29.9,33.3,29.7,33.5,29.9,33.5z
							"/>
						<path class="st0" d="M29.9,33.5C29.9,33.5,29.9,33.5,29.9,33.5C29.9,33.5,29.9,33.5,29.9,33.5z"/>
						<path class="st0" d="M30.9,33.8C30.9,33.8,30.9,33.8,30.9,33.8C30.9,33.8,30.9,33.8,30.9,33.8z"/>
						<path class="st0" d="M23.9,32c0,0,0.1,0.2,0.1,0.1L23.9,32L23.9,32z"/>
						<path class="st0" d="M33.5,33.2C33.5,33.2,33.5,33.2,33.5,33.2L33.5,33.2C33.5,33.2,33.5,33.2,33.5,33.2z"/>
						<path class="st0" d="M30.1,33.2C30.1,33.2,30.1,33.2,30.1,33.2C30.1,33.2,30.1,33.2,30.1,33.2z"/>
						<path class="st0" d="M33.5,33.5c0,0,0,0.1,0.1,0.1c0,0,0.1-0.1,0.1-0.1C33.7,33.5,33.6,33.5,33.5,33.5z"/>
						<path class="st0" d="M33.7,33.5L33.7,33.5L33.7,33.5z"/>
						<path class="st0" d="M23.8,31.9L23.8,31.9L23.8,31.9L23.8,31.9c-0.1-0.1-0.1-0.1-0.1-0.1c0,0,0,0,0,0l0,0
							c-0.1,0.1-0.3,0.1-0.4,0.1c-0.1,0-0.2,0-0.2,0c0,0,0.1,0,0.1,0c-0.1-0.1,0-0.3-0.3-0.2l0.1,0l-0.3,0.1c0-0.1,0.2-0.1,0.2-0.1
							c-0.2,0-0.2-0.3-0.4-0.2c0-0.1,0.1-0.3,0-0.4c0,0.2-0.1,0-0.1,0.2c-0.1,0-0.1-0.1-0.1,0l0,0c-0.1-0.3-0.3,0-0.4,0
							c-0.2-0.1-0.3-0.2-0.5-0.3c0-0.1,0.1-0.3,0-0.3c-0.1,0.1-0.3,0-0.4,0.2c0.1,0.1,0.2,0,0.2,0c0,0.2-0.1,0.1,0,0.3
							c0-0.1-0.4-0.1-0.4-0.3h0c-0.1-0.1,0.1-0.5-0.2-0.4l-0.1,0c0,0,0,0,0,0c-0.1-0.1,0-0.2-0.3-0.2c0,0,0,0,0,0
							c-0.1-0.1-0.2,0-0.3-0.1c0-0.1,0.1-0.1,0.1-0.1c-0.1-0.1-0.4-0.1-0.6,0l-0.1-0.1c0.1,0,0.2-0.1,0.2-0.1c-0.1,0-0.1,0-0.2,0
							c0-0.1,0.1-0.1,0.2-0.1c-0.1-0.2-0.2,0.2-0.2-0.1c0,0-0.1,0-0.2,0.1l0-0.2c-0.1,0.1-0.2,0-0.3,0c0,0,0,0.1,0,0.1
							c0,0.1-0.2,0.1-0.2,0c0.1-0.2-0.4-0.2-0.2-0.4c-0.3-0.1-0.6-0.3-0.9-0.3c0-0.1-0.1-0.2,0-0.2c-0.2-0.1-0.4,0-0.6-0.2
							c0,0,0.1,0.1,0.1,0c-0.2,0-0.2-0.2-0.4-0.3c0,0,0.1,0,0.1,0c0,0-0.1,0-0.2,0c0,0,0,0,0.1,0c-0.3-0.4-0.8-0.3-1.1-0.6
							c0.1,0.1,0.2,0,0.3-0.1L16,27.2c-0.1,0-0.2,0-0.3,0c0,0,0-0.1,0.1-0.1c-0.1-0.3-0.5,0-0.7-0.3l0.5,0v-0.1l0.2,0
							c0-0.1-0.2,0-0.1-0.1c0,0,0.1,0,0.1,0c0-0.1-0.1,0-0.2-0.1c0.3-0.1,0.6,0.2,0.8,0.2c0,0-0.1,0-0.1,0c0.1,0,0.1,0.1,0.2,0.2
							c0.1,0,0-0.1,0-0.1c0.1-0.1,0.1,0,0.1,0c-0.1,0.1,0.2,0.2,0.2,0.4c0.3,0.1,0.2-0.3,0.4-0.1l0,0.2c0.2,0,0.4,0.1,0.6,0.2l0,0
							c-0.1,0,0,0.1,0,0.1c0.1,0.1,0.3,0.1,0.3,0.2c0.2,0,0.5,0,0.7,0.1c-0.1,0.2-0.3,0-0.4,0l0.1,0.1c-0.1-0.1-0.2,0-0.3,0
							c0.1,0.1,0.2,0,0.4,0c0,0,0,0.1,0,0.1l0.1-0.1c0,0,0,0,0,0l0.2,0.1c0-0.1,0-0.2,0-0.2c0,0.1-0.1,0-0.1,0c0.1,0,0-0.1,0-0.1
							c0.1,0.1,0.2,0.1,0.3,0.2l0,0.1c0.1,0.1,0.2,0.1,0.3,0.2l0,0c0.1,0.1,0.3,0.1,0.3,0.3c0.2,0,0.4,0,0.5-0.1
							c0.1-0.1,0.2,0.4,0.5,0.3c0,0-0.1,0-0.2,0.1c0.1,0.1,0.2,0,0.2,0.1c-0.2-0.2,0,0.1-0.2,0.1c0.1,0,0.2,0.1,0.3,0.1
							c-0.1-0.1,0.2-0.1,0-0.2c0.2,0,0.4,0,0.5,0.1c0,0.1,0,0.1,0,0.1l0.1-0.1c0,0-0.2,0-0.1,0.1c0.2-0.1,0.4,0.3,0.5,0.1
							c0,0.2-0.2,0-0.2,0.2c-0.1,0-0.2-0.1-0.3,0c0.1,0,0,0.1,0,0.2l0.1,0l0,0c0.2,0,0.5,0.2,0.7,0.2c0.2,0,0.5-0.2,0.7-0.1
							c-0.1,0,0.1,0.2-0.1,0.2c0.1,0.1,0.2,0.1,0.2,0c-0.1-0.1,0,0-0.1-0.1c0.1,0,0.2,0,0.2,0.1c0,0,0,0,0,0c0.1,0.1,0.1,0,0.2,0
							c0,0.1,0.1,0.1,0.2,0.2l0.2-0.1c-0.1,0.1,0.1,0.1,0.1,0.2c0.1,0,0.2-0.1,0.3,0c-0.1,0,0.1,0.1,0,0.2c0.1,0.2,0.4-0.1,0.5,0.1
							c0,0-0.1,0.1,0,0.1c0,0,0.1,0,0.2,0l0,0l0,0c0,0,0,0,0,0c0.1-0.1,0.2-0.1,0.4-0.2c0-0.1-0.1-0.1-0.2-0.1l-0.1,0.1
							c0-0.2-0.1,0-0.2-0.1c0.2-0.2,0.4,0,0.6-0.1c0-0.2-0.2-0.3-0.4-0.4l0,0.1l-0.1,0l0,0.1c-0.1-0.1-0.2,0-0.2-0.1
							c0.1,0,0.1,0.2,0,0.2c-0.1-0.1-0.1,0-0.2,0c0,0,0.1,0,0,0.1c-0.1-0.2-0.2-0.1-0.3-0.3c-0.1,0.2-0.2,0-0.3,0.1l0.1,0l-0.2,0
							c-0.1-0.2,0.2-0.1,0-0.3c-0.2-0.1-0.2,0.1-0.4,0c0.1-0.1,0.2-0.1,0.4-0.1l0-0.1c0.1,0,0.2,0,0.3,0.1c-0.2,0.1,0,0.1,0.1,0.2
							c0.1-0.1,0-0.1,0.1-0.2c-0.1,0-0.1,0-0.2-0.1c0.2,0.2,0.4-0.3,0.6-0.1c-0.1,0,0,0.2,0,0.2c0,0,0.2,0,0.2,0l0-0.2
							c0.1,0,0.1,0.3,0.3,0.2c0.1-0.1-0.1-0.1-0.1-0.1c0.2,0,0.2,0.3,0.4,0.5c0,0,0.1-0.1,0.2-0.2c0,0.1,0,0.1-0.1,0.2
							c0,0.1,0.1,0,0.2,0c-0.1-0.1,0.1-0.1,0.1-0.2c0.1,0,0,0.1-0.1,0.1c0,0,0.1,0.2,0.1,0.1c0,0.1-0.2,0.2-0.4,0.2l0.1,0
							c-0.1,0-0.1,0-0.1,0c0,0.1,0,0.2,0,0.2c0,0,0,0,0,0c0,0-0.1,0-0.1,0c-0.1,0.1,0,0.1,0.1,0.2h0.1l0.4-0.3
							c0.1,0,0.1,0.1,0.2,0.2l0.1-0.1c0.1,0,0.2,0.1,0.1,0.2c0,0,0,0,0,0c0,0,0,0,0,0l0,0c0.1,0,0.2,0,0.2,0
							c-0.2,0.1-0.1,0.2-0.2,0.4l0.2,0c-0.1-0.1,0-0.1,0.1-0.1c0,0.1,0.2,0,0.2,0.1l0,0c0,0.1,0.2,0.1,0.2,0.1c0,0,0.2-0.2,0.2-0.3
							c-0.1-0.1,0-0.1,0-0.2c0,0,0,0,0,0c0,0,0,0,0-0.1c-0.2,0-0.3,0-0.4,0.1c0,0.1,0.1,0,0.1,0c-0.1,0.1-0.2,0-0.3,0l0-0.1l-0.1,0
							c0.1,0,0.1-0.1,0.2-0.1c0-0.1-0.1,0-0.2-0.1L26,30.9c0-0.1-0.1-0.1,0-0.2l0.2,0l0-0.1l0.2,0l-0.1,0.1c0.3,0,0,0.3,0.3,0.2
							c0.1-0.1,0.2-0.1,0.4,0c-0.1,0,0,0.1-0.1,0.2c0.1,0.1,0.2,0,0.2-0.1c0,0.1,0,0.2-0.1,0.1c-0.1,0.2,0.1,0,0.1,0.2
							c0.4,0.1,0.4-0.5,0.8-0.2l0,0.1c0.3,0,0.4,0.1,0.6,0.1l0.1,0.2c0,0-0.2,0.1-0.1,0.2c-0.1-0.2-0.2-0.2-0.2-0.3c0,0,0,0.1,0,0.1
							c-0.1,0-0.1-0.1-0.2-0.1c0,0,0.1,0.1,0,0.1l-0.1-0.1c-0.1,0-0.1,0.3-0.3,0.2c0.1-0.1,0.1-0.2,0.2-0.2c-0.1,0,0.1,0,0.1-0.1
							c-0.1,0.1-0.2,0-0.3,0.1c0,0,0,0,0.1,0L27.6,31c0,0.1-0.2,0.1-0.2,0.2c0.2,0.1,0.2,0,0.4,0.1c-0.1,0-0.2,0.1-0.3,0.2
							c0,0,0,0,0,0c-0.1,0.1,0,0.2-0.1,0.4c0.2-0.1,0.2,0,0.4,0c0.1-0.1,0-0.2-0.1-0.2l0.1-0.1l0,0l0.3,0.1C28,31.9,28,31.9,28,32
							c0,0,0.1,0.1,0.1,0.1c0-0.1,0-0.2,0.1-0.2c0.2,0.1,0.3,0.2,0.3,0.4h0c0-0.1,0.2-0.2,0.3-0.3c0,0.1,0.1,0.1,0.1,0.2
							c0.1-0.1,0-0.4,0-0.5c-0.2,0.1-0.1,0.1-0.2,0.3L28.5,32l0.1-0.1c-0.1-0.1-0.2,0.1-0.2-0.1c0.1-0.1,0.2,0,0.2-0.1l-0.1-0.1
							c0.2-0.1,0,0.2,0.2,0.1c0-0.1,0,0,0.1-0.1c0-0.1-0.3,0-0.2-0.2c0.1-0.1,0.2,0.3,0.4,0.1l0,0c0.1,0.1,0.2-0.1,0.3-0.1
							c0.1,0.1,0.2,0,0.2,0l0,0.1l0.1,0c-0.1,0.1-0.1,0-0.2,0l0,0.1c-0.1-0.2-0.2,0-0.3,0.1c0.1-0.1,0.3,0.1,0.4-0.2l0,0.1l0,0
							c0,0.1,0,0.2-0.1,0.2c0,0,0,0,0-0.1c-0.1,0-0.1,0.1-0.2,0.1l0.1-0.1c-0.1,0-0.3,0-0.4,0.1c0.2,0.1,0.4,0.1,0.6,0.2
							c0.1-0.3,0.2-0.4,0.2-0.7c0.1,0,0.3,0,0.4,0.1l0,0c0,0,0.1,0,0.1,0c0,0.1,0,0.1,0,0.2l0.2-0.1c0,0.1-0.2,0.1-0.3,0.1
							c0,0,0,0,0,0c-0.1-0.1-0.3,0.1-0.3,0c0,0,0.1-0.1,0-0.1c-0.1-0.1-0.1,0.1-0.1,0.1c0,0.1,0.1,0.1,0.1,0.2c0.1,0,0.1-0.1,0.2,0
							c-0.1,0-0.2,0.1-0.2,0c-0.2,0.1-0.2,0.4-0.1,0.4c0-0.1,0.3-0.1,0.1-0.2c0.1-0.1,0.3-0.1,0.4-0.2l0,0l0.1,0
							c0,0-0.1,0.1-0.1,0.1l0.2-0.2c-0.1,0.1,0.1,0.1,0.1,0.1c0-0.1,0.1-0.2,0-0.2c-0.1-0.1,0,0-0.1,0l0.1-0.1l0,0l0.1-0.1
							c0.1,0-0.1,0.3,0.1,0.2l0-0.2c0.2,0,0.5,0.3,0.6,0.2c0,0.1-0.1,0.3,0,0.4c-0.1,0-0.2,0-0.3,0c0,0,0.1-0.2,0.2-0.2
							c0-0.3-0.3,0.2-0.3-0.1c-0.2-0.1-0.2,0.3-0.4,0.1c0,0.1-0.1,0.1-0.1,0.2c0,0.2,0.3,0,0.4,0.1c0,0,0,0,0,0c0.1,0,0.1,0,0.2,0
							l0,0c0.1-0.1,0.1,0.1,0.1,0.2c0,0,0.1,0,0.1-0.1l0.1,0.1v-0.2c0.1,0,0.1,0.1,0.2,0l0-0.1l-0.2,0c0.1,0,0-0.1,0.1-0.1
							c-0.1,0.1,0.1,0.1,0.1,0.2l0.1-0.1l0,0c0.1,0.1,0.1,0,0.1,0c-0.1-0.1-0.1-0.2-0.2-0.1c0.1-0.1,0.2-0.1,0.3-0.1
							c0.1-0.1,0.1,0,0.2,0.1c-0.1,0,0,0.4-0.2,0.3c0,0,0,0,0,0c0-0.2-0.2,0-0.2,0.1c0,0.1,0,0.1,0.1,0.2c0-0.1,0.1-0.2,0.2-0.1
							l0,0.2l0.2,0l0,0c0.1,0.1,0.2,0,0.3,0c0.1-0.1,0.4,0,0.2-0.2c0.1,0.1,0.2,0,0.3-0.1l-0.1-0.1c0.2-0.2,0.1-0.1,0.2-0.3
							c0,0.1,0,0.1,0,0.2c0.2,0,0.5,0,0.6-0.1c0.1,0,0.2,0.2,0.4,0.1c0,0,0-0.2,0.1-0.1c0,0-0.1,0.2,0,0.1c0.1-0.2,0.3,0.1,0.4-0.1
							c0.1,0,0.2,0,0.2,0.1c-0.1,0-0.3,0-0.3,0.1c0-0.1-0.1-0.1,0-0.1c-0.2-0.1-0.1,0.1-0.3,0.1c0,0,0.1,0.1,0.1,0.1
							c0,0.2-0.3,0.1-0.1,0.3c0.2,0,0.2-0.4,0.3-0.2c0,0.1-0.2,0-0.2,0.2l0.1,0l0.1-0.1v0c0.2,0.1,0.2-0.2,0.3-0.3
							c-0.1-0.1,0-0.3-0.1-0.4c0.1,0,0.2,0,0.2,0.1c-0.2,0.2,0,0.2-0.2,0.4c0,0.1,0,0.3,0.1,0.3c0.1-0.2-0.1-0.1,0.1-0.2
							c0,0,0,0,0,0c0-0.1,0.1,0,0.2-0.1l0,0c0.1,0.1,0.1-0.1,0.2,0c-0.1-0.1,0-0.1,0.1-0.2c-0.1,0-0.2-0.2-0.3-0.2
							c0,0.1,0,0.2,0,0.2l0.1,0c0,0,0,0,0,0.1l-0.1,0c0.1-0.1,0-0.2,0.1-0.3c0.1,0,0.1,0,0.2,0c0,0.1,0.3,0.2,0.5,0.3c0,0,0,0-0.1,0
							c-0.1,0.1,0.1,0.1,0.1,0.1l0.1-0.1c0,0,0,0,0,0.1c0.1,0,0.1-0.2,0.2-0.2c0,0.1,0,0.2,0,0.2c0,0.1,0.2,0.2,0.3,0.1
							c0,0,0-0.1,0.1-0.1c0,0,0,0,0,0l0.1,0.1c0,0.2-0.2,0-0.2,0.1l0,0.1c-0.1,0-0.1,0.1-0.2,0.2c0.1,0,0.1,0,0.2-0.1
							c0,0.1,0,0.2,0,0.2v-0.1c-0.2-0.1-0.2,0.2-0.3,0.2c0,0,0,0,0,0c-0.1,0.2-0.3,0-0.4,0.2l0-0.1c-0.1,0.1-0.2,0.2-0.4,0.4l0,0
							c0,0,0,0-0.1,0l0,0c-0.1,0.1-0.2,0.2-0.2,0.2c0,0,0.1,0,0.1,0c0-0.1,0.2,0,0.1-0.2c0.1,0.1,0.2-0.1,0.2,0
							c-0.1-0.1,0-0.1,0-0.2c0,0.1,0.1,0,0.2,0.1c0,0-0.1-0.1-0.1,0c-0.1,0.1,0.2,0.1,0.1,0.2c0.2-0.1,0.4-0.1,0.5-0.3l-0.1,0
							c0.1,0,0.2-0.1,0.3,0c0,0-0.1,0-0.2,0.1c0,0.1,0.2,0,0.2,0l0.2-0.3l-0.1,0c0-0.1,0.2,0,0.4-0.1c0,0.2-0.2,0.1-0.3,0.2
							c-0.1,0.1,0.1,0.2,0,0.2c0,0,0.1,0,0.1,0l0,0c0,0.2-0.3,0.2-0.4,0.4c0,0,0,0,0-0.1c-0.1,0-0.2,0-0.3,0c0.1,0,0.1,0,0.1,0
							c0,0-0.1,0.1-0.1,0.1c0.1,0,0,0.1,0.1,0.1c-0.1,0-0.1,0-0.2,0c0,0,0-0.1,0-0.2c-0.1,0.1-0.1-0.1-0.2,0c0.2,0,0,0.2,0,0.2h0
							c0,0.1-0.1,0.1-0.1,0c0.1,0,0.1,0,0.1-0.1c0,0-0.1,0-0.1,0.1l0-0.1L35.3,34c0,0.1-0.1,0.2-0.1,0.3c-0.1-0.1-0.1,0-0.2,0l0,0
							c-0.1-0.1-0.3,0-0.3,0.1c-0.1-0.1,0.4-0.5,0-0.4c-0.2,0-0.1,0.2-0.2,0.3c0,0,0,0,0,0c-0.1,0-0.1,0.1-0.1,0.1c0,0,0.1,0,0.1,0
							c0,0.1-0.2,0-0.2,0.1c0.1-0.2-0.2,0-0.1-0.1c-0.2-0.1-0.3,0-0.4,0.2c-0.1-0.2-0.2,0-0.4,0c0,0,0.1,0,0.1,0
							c0.1-0.1-0.2-0.1,0-0.2c0,0,0,0.1,0,0c0.1,0,0.1-0.1,0.1-0.1l-0.2-0.1l0,0L33.3,34c0,0,0,0.1,0,0.1c-0.2-0.1-0.5,0-0.7,0
							c0,0.3-0.5,0.2-0.7,0.4c0-0.1,0.1-0.3,0-0.3c0,0,0.1-0.2,0.2-0.1c0,0.1,0.1,0.1,0,0.2c0.2,0,0-0.2,0-0.3
							c-0.3,0-0.4,0.2-0.6,0.3v0l-0.1,0.1c0.1,0,0.1,0.2,0,0.2l0,0c-0.1-0.1-0.2,0-0.4,0l-0.1,0.1c-0.1,0-0.1-0.2-0.1-0.4
							c-0.2,0-0.3,0.1-0.5,0.2c0-0.1-0.3-0.2-0.2-0.2c-0.2,0.1-0.2,0.6-0.5,0.3l0.1-0.1c-0.3,0-0.7,0.1-0.8,0
							c0.1-0.3-0.3-0.4-0.3-0.7c0,0.1-0.1,0.1-0.1,0.1c0,0,0-0.1-0.1,0c0.1,0.1-0.1,0.3,0.1,0.2c-0.1,0.2-0.3,0.3-0.5,0.3l0-0.1
							l0.2,0.1c0-0.1,0.1-0.1,0.1-0.1c-0.3-0.1,0.1-0.3-0.2-0.3c0,0.1,0,0-0.1,0.1c0,0,0.1-0.1,0-0.1L28,33.8
							c-0.1-0.2,0.2-0.1,0.1-0.3c0.1-0.1,0.4-0.1,0.4-0.3c-0.2-0.1-0.2,0.3-0.5,0.2l0-0.1c-0.1,0-0.1,0.1-0.2,0.2c0,0,0-0.1-0.1-0.1
							c-0.2,0.1-0.3,0.2-0.4,0.3c0.4-0.1,0.2,0.2,0.6,0.1c-0.1,0-0.3,0-0.4,0.2l0-0.1c-0.1,0-0.2,0.1-0.4,0l0.1,0
							c-0.2,0-0.3-0.3-0.5-0.1c0,0,0.1,0,0.1,0c-0.1,0-0.2,0-0.3,0L26.5,34c0-0.1-0.1-0.1,0-0.2c-0.1-0.1-0.2,0-0.3,0
							c-0.1-0.2,0.1,0,0.2-0.2c-0.2-0.1-0.4-0.1-0.6,0c0,0,0,0.1,0,0.1c0,0-0.1-0.1-0.1-0.1l-0.1,0.1c-0.1-0.1,0-0.1,0-0.2
							c-0.1,0-0.2,0.1-0.2,0c0.2-0.1,0.3,0.1,0.4,0c-0.3,0-0.2-0.3-0.6-0.3c0,0,0.1-0.1,0-0.1c-0.2,0-0.1,0.2-0.2,0.2
							c0.1,0,0.2,0,0.2,0.2l0,0.1c0,0-0.1-0.1-0.1-0.1l-0.1,0.1c0.1-0.2,0-0.3-0.1-0.3c0.1,0.1,0,0.1,0,0.3
							c-0.2,0.1-0.1-0.2-0.3-0.1c0,0,0.2,0,0.1-0.1c-0.1,0-0.1,0.1-0.2,0.1c0.1-0.1,0.1-0.2,0.2-0.3c0.2,0,0.1,0,0.2,0L25,33
							c0.1,0,0.1-0.1,0.2-0.2c-0.2-0.2-0.2,0.1-0.4,0c-0.1,0.1,0.1,0.1,0,0.1c-0.1-0.1-0.1,0.1-0.2,0.1l0,0c0-0.1-0.1,0-0.2,0
							c-0.1,0-0.1,0.5-0.3,0.4c0,0,0,0,0-0.1l0.6-1c-0.2-0.1-0.5-0.2-0.8-0.4c0-0.2,0.3-0.1,0.3-0.2l0.1,0.1c0,0.1-0.3-0.1-0.2,0.1
							c0.2,0,0.3,0.2,0.6,0.1c0-0.2-0.3-0.1-0.4-0.3c0,0,0.1,0,0.2,0c-0.1-0.1-0.2-0.2-0.4-0.2l0,0c0.1,0.1,0.1,0.1,0.2,0.1
							c-0.1-0.1-0.3,0-0.3,0.1l0,0L23.8,31.9L23.8,31.9z M16,27.2C16,27.2,16.1,27.2,16,27.2C16,27.2,16,27.2,16,27.2z M26.6,32.3
							c-0.2-0.1-0.4-0.2-0.5-0.2c0.2,0.4,0.4,0.7-0.1,0.5l0,0c0.1,0.1,0.2,0.1,0.3,0.1c0.1-0.1,0.5-0.4,0.5-0.4
							C26.7,32.2,26.6,32.3,26.6,32.3L26.6,32.3z M26.6,32.8c0.1,0.1,0.1,0,0.1-0.1L26.6,32.8C26.6,32.8,26.6,32.8,26.6,32.8z
							 M26.7,32.7C26.7,32.7,26.7,32.7,26.7,32.7L26.7,32.7z M24.8,32L24.8,32L24.8,32C24.7,32,24.7,32,24.8,32z M24.9,32.2
							L24.9,32.2v-0.1C24.9,32.2,24.9,32.2,24.9,32.2z M25.5,32.8c0.1-0.1,0.2-0.1,0.3-0.2c0,0,0-0.1,0-0.1s-0.1,0-0.1,0
							c0,0,0,0,0,0c0,0,0,0.1,0,0.2c0-0.2-0.1,0.1-0.2,0C25.2,32.8,25.4,32.9,25.5,32.8z M34.7,33.3C34.7,33.3,34.7,33.4,34.7,33.3
							l0,0.2c-0.2,0-0.3-0.2-0.4,0c-0.1,0-0.1-0.1-0.2-0.2c0,0,0.1,0,0.1,0C34.5,33,34.4,33.6,34.7,33.3z M33,33.2
							C33,33.2,33,33.2,33,33.2c-0.3,0.3-0.6,0.3-0.8,0.3c0,0.1,0.2,0.2,0.3,0.2l-0.1,0.1l0-0.1L32.2,34c0,0.1,0.1,0.1,0.2,0.1
							c0,0,0.2-0.2,0.3-0.3l-0.2-0.1c0,0,0.3,0,0.3,0c0-0.1-0.2-0.2-0.2,0c0-0.1,0.2-0.1,0-0.2c0.1-0.1,0.3,0,0.4,0l0,0.2
							c0.1,0.1,0.1-0.2,0.2-0.1c-0.2,0,0,0.2-0.1,0.2c0,0.1,0,0.2,0.1,0.2c0.1-0.2,0.1,0.1,0.2-0.1c0.1,0.1-0.1,0.1,0.1,0.2
							c0.1-0.1,0.1-0.2,0.1-0.4c-0.1,0-0.1,0.2-0.2,0.2l0.2-0.3c0,0-0.1,0-0.1,0c0,0,0.1-0.1,0.1-0.1c0,0,0-0.1,0-0.1
							c-0.1,0-0.2,0-0.3,0l0-0.1c0-0.1-0.1,0-0.1,0c-0.1,0-0.2,0.1-0.2,0l0-0.1C33.1,33.2,33.1,33.2,33,33.2z M28.6,32.7
							c0,0.3,0.1,0.5,0.5,0.6l0,0c0.2,0.2,0.4-0.2,0.6,0c-0.1,0.1-0.1,0.1-0.3,0.3l0.1-0.1c0,0.2,0.1,0.1,0.2,0.1l-0.1,0.2
							c0-0.1-0.2-0.1-0.2-0.1c0,0-0.2-0.2-0.3-0.2c0,0.1,0.2,0.1,0.1,0.3c0.1-0.1,0.1,0,0.2,0c-0.1,0.1,0,0.2-0.1,0.2l0.2,0
							c0,0-0.3,0-0.1,0.2c0.1,0,0.2,0,0.3-0.1v0c0.1,0,0.1-0.2,0.2-0.1c0-0.1,0-0.1-0.1-0.1c0,0-0.1,0.1-0.2,0.1
							c0-0.1,0.1,0,0.1-0.2c0-0.1-0.3,0-0.2-0.2l0.1,0c0-0.1,0.1-0.1,0.1-0.2c0.1,0,0.1,0.1,0.2,0c0-0.1,0-0.2,0.1-0.2
							c0.1,0.2,0.4,0.2,0.5,0.2l0.1-0.1c0-0.1-0.2,0-0.1-0.1l0.2,0l0,0c0,0,0.1,0,0.1-0.1c0,0.1-0.2,0-0.1,0.2
							c0.1,0,0.1,0.1,0.1,0.1c0,0,0,0,0,0c0.1,0.1,0.1-0.1,0.2-0.2c0.2-0.2-0.1-0.2-0.1-0.3l0.4,0c0,0-0.1,0.1-0.1,0.1
							c0.1,0.1,0,0.1,0.1,0.1c0-0.2,0.2-0.1,0.3-0.2c0,0.1,0.1,0.1,0,0.1c0,0.1,0.1,0.1,0.2,0.1c0,0,0.1,0,0.1-0.1
							c0-0.1,0-0.1,0.1-0.2l0,0c-0.1,0-0.4-0.2-0.5,0l0-0.1c-0.2-0.1-0.4,0.2-0.5,0c0-0.1,0,0,0-0.2L31,33l0-0.1l-0.2,0l0,0
							c-0.1,0.1-0.2,0.2-0.3,0.3c0,0.1,0,0.1,0,0.1c0,0-0.1,0-0.1,0l0,0l0,0c0,0-0.1-0.1-0.1-0.2l0.2,0c0-0.1,0-0.2-0.1-0.3
							c0,0,0.1-0.1,0-0.1c0,0-0.1,0-0.1,0.1c-0.2,0-0.5-0.3-0.8-0.1c0.2-0.1-0.1-0.2,0.1-0.2c-0.1-0.2-0.1,0.1-0.3,0.1
							c0-0.1,0.1,0,0.1-0.1c-0.3-0.1-0.5,0.2-0.7,0.1l0-0.1C28.7,32.7,28.6,32.7,28.6,32.7z M28,32.8l-0.2,0l0,0l-0.2,0.1
							c0.1,0.1,0.1,0.2,0,0.2c0,0,0-0.1,0-0.1c-0.1-0.1-0.2-0.2-0.2,0c0.2-0.1,0,0.2,0.1,0.1c-0.1,0.1-0.2,0-0.2,0.1
							c0.1-0.1,0-0.2-0.1-0.3c0,0-0.2,0-0.2,0c0,0.1-0.1,0.2,0,0.2c0,0-0.1,0-0.2,0c0,0,0.1,0,0.1,0c0-0.1-0.1-0.1-0.1-0.2h-0.1
							c0,0,0,0,0,0l-0.1,0.1c0.1,0,0,0.1,0,0.1c0-0.1-0.1,0-0.1,0l0,0.2c-0.1,0.1-0.1-0.1-0.1,0c0.2,0.1,0.2,0.1,0.4,0.1l0-0.1
							c0.2,0,0.1,0.2,0.3,0.3c0.1-0.1,0.3,0.1,0.4-0.1c0,0,0.1,0.2,0.2,0.1c0.1-0.2,0.4-0.1,0.3-0.2c-0.1,0-0.2,0.1-0.2-0.1l0.1,0
							L28,33C28,33,28,32.9,28,32.8z M25.7,31L25.7,31L25.7,31L25.7,31z"/>
						<path class="st0" d="M36.5,32.6c0,0,0.1-0.1,0.1-0.2C36.5,32.6,36.4,32.5,36.5,32.6z"/>
						<path class="st0" d="M36.6,32.7C36.6,32.7,36.6,32.6,36.6,32.7L36.6,32.7L36.6,32.7z"/>
						<path class="st0" d="M36.9,33.4c0-0.1,0.1-0.2,0.2-0.2c0.1,0.2-0.1,0.1-0.1,0.3c0.2,0,0.2-0.2,0.3-0.3
							C37.1,33.2,36.8,33.2,36.9,33.4z"/>
						<polygon class="st0" points="36.9,33.7 37,33.6 36.9,33.6 36.9,33.7 						"/>
						<path class="st0" d="M34.5,31.8C34.5,31.8,34.5,31.9,34.5,31.8C34.5,31.9,34.5,31.9,34.5,31.8z"/>
						<path class="st0" d="M18.6,27.1l-0.6-0.3C18.2,26.9,18.4,27,18.6,27.1z"/>
						<path class="st0" d="M32.4,32.5c0.2-0.1,0.3-0.2,0.4-0.3c-0.2-0.2-0.3,0.3-0.5,0.1L32.4,32.5z"/>
						<path class="st0" d="M32.5,31.9c0,0.1-0.1,0.2-0.1,0.3c0.1,0,0-0.2,0.2-0.1L32.5,31.9z"/>
						<polygon class="st0" points="33.4,34.4 33.3,34.5 33.4,34.4 						"/>
						<polygon class="st0" points="31.6,32 31.7,32 31.6,31.9 						"/>
						<path class="st0" d="M31.7,31.9L31.7,31.9L31.7,31.9z"/>
						<polygon class="st0" points="33.3,34.7 33.4,34.7 33.4,34.7 						"/>
						<path class="st0" d="M32.5,33.9L32.5,33.9C32.6,33.9,32.5,33.8,32.5,33.9z"/>
						<polygon class="st0" points="31.1,31.9 31,32 31,32 31.1,31.9 						"/>
						<path class="st0" d="M31.9,34.3c0,0.1-0.2,0,0,0.1C31.9,34.5,31.9,34.4,31.9,34.3z"/>
						<path class="st0" d="M30.8,33.5C30.8,33.5,30.8,33.5,30.8,33.5C30.8,33.5,30.8,33.5,30.8,33.5z"/>
						<path class="st0" d="M30.8,33.5c0,0,0.1,0,0.1,0C30.8,33.4,30.8,33.5,30.8,33.5z"/>
						<path class="st0" d="M30.3,33.5L30.3,33.5C30.3,33.5,30.3,33.5,30.3,33.5c0.1,0,0.1,0,0.1-0.1l0,0L30.3,33.5
							C30.3,33.4,30.3,33.4,30.3,33.5z"/>
						<path class="st0" d="M29,31.3c0.1,0.1,0.1,0.1,0.1,0.2c0.1,0,0.1-0.1,0.2-0.1C29.1,31.3,29.1,31.3,29,31.3z"/>
						<path class="st0" d="M29.3,31.3C29.3,31.3,29.3,31.3,29.3,31.3C29.3,31.3,29.3,31.3,29.3,31.3z"/>
						<polygon class="st0" points="30.8,34.5 30.7,34.6 30.7,34.6 						"/>
						<path class="st0" d="M28.8,31.2C28.8,31.2,28.8,31.2,28.8,31.2C28.9,31.2,28.8,31.2,28.8,31.2z"/>
						<path class="st0" d="M29,33.1c0,0.1,0.1,0,0.1,0.1C29,33.1,29,32.9,29,33.1z"/>
						<path class="st0" d="M28.4,31.5c0,0,0,0.1,0,0.1C28.4,31.6,28.5,31.5,28.4,31.5z"/>
						<polygon class="st0" points="28.7,33 28.7,33 28.8,33 						"/>
						<path class="st0" d="M28.8,34.4c0.1-0.1-0.1-0.3,0.1-0.3c-0.2-0.2,0,0.2-0.2,0.1C28.8,34.2,28.9,34.3,28.8,34.4z"/>
						<path class="st0" d="M28.7,34.2C28.7,34.1,28.7,34.1,28.7,34.2C28.7,34.1,28.7,34.2,28.7,34.2z"/>
						<path class="st0" d="M27.4,33.2C27.4,33.2,27.4,33.2,27.4,33.2C27.4,33.2,27.4,33.2,27.4,33.2z"/>
						<path class="st0" d="M28.1,34.1l0.2-0.1c-0.1,0.1-0.4,0-0.4,0.2C28,34.2,28.1,34.2,28.1,34.1L28.1,34.1z"/>
						<path class="st0" d="M27.1,30.9L27.1,30.9L27.1,30.9C27.1,30.8,27.1,30.9,27.1,30.9z"/>
						<path class="st0" d="M27.1,30.8L27.1,30.8L27.1,30.8z"/>
						<path class="st0" d="M27.7,33.2c0,0,0.1,0,0.1,0C27.8,33.2,27.7,33.1,27.7,33.2z"/>
						<polygon class="st0" points="26.6,31 26.7,31 26.6,31 						"/>
						<polygon class="st0" points="26.2,30.6 26.2,30.5 26.1,30.6 26.1,30.6 						"/>
						<path class="st0" d="M26,33.8c0.1,0,0.2-0.1,0.2-0.1l-0.1,0c0,0.1,0,0,0.1,0.1L26,33.8z"/>
						<path class="st0" d="M22.8,29.5c0.1-0.1,0.2,0,0.1,0.1c0,0-0.1,0-0.1,0.1l0.2-0.1c0.1,0.2-0.2,0.2-0.3,0.2
							c0.1,0.1,0.2,0,0.4,0.1c0,0,0-0.1,0-0.1c0.1-0.1,0.2,0,0.3,0c0-0.1,0-0.1,0.1-0.1c0,0,0,0,0,0l0,0l0,0c0,0,0,0,0-0.1
							c-0.1,0-0.1-0.1-0.2-0.2c0,0.2-0.2,0-0.3,0l-0.1,0l0,0c0,0,0,0,0.1-0.1c-0.1,0-0.2,0-0.2,0l-0.3-0.1c0,0,0,0,0,0c0,0,0,0,0,0
							c-0.4-0.2-0.8-0.4-1.2-0.7c0,0,0.1,0.1,0.1,0.2c-0.2,0.1,0.1,0.1,0,0.2c-0.1,0-0.1,0-0.1-0.1c0,0.1,0,0.1-0.1,0.2
							c0.1,0.2,0.3-0.1,0.4,0c0,0.1-0.1,0.1,0,0.2h0c0.2,0,0,0.2,0.2,0.1l-0.1,0.1c0.1,0,0.3,0,0.4,0l0,0c0.3,0,0.1,0,0.4,0.1
							l-0.2,0.1c0.1,0.1,0.2,0,0.2,0c0,0,0,0.1-0.1,0.1l0.4-0.1C22.9,29.6,22.8,29.5,22.8,29.5z"/>
						<path class="st0" d="M23.1,29.8C23.2,29.8,23.2,29.9,23.1,29.8C23.2,29.9,23.2,29.8,23.1,29.8z"/>
						<path class="st0" d="M21.2,28.3L21.2,28.3C21.2,28.4,21.2,28.4,21.2,28.3z"/>
						<path class="st0" d="M23.7,29.8c0-0.1,0.1-0.1,0.1-0.1l-0.2-0.1c0,0-0.1,0.1-0.1,0.1L23.7,29.8z"/>
						<path class="st0" d="M23.6,29.5C23.6,29.5,23.6,29.5,23.6,29.5l0,0.1C23.6,29.5,23.7,29.5,23.6,29.5z"/>
						<polygon class="st0" points="22.5,32 22.5,31.9 22.4,31.9 						"/>
						<path class="st0" d="M22,31.5c0,0.1,0.1,0.1,0.2,0.1C22.1,31.5,22.1,31.5,22,31.5z"/>
						<polygon class="st0" points="21.8,32.3 21.7,32.3 21.7,32.3 						"/>
						<path class="st0" d="M20.3,28.4L20.3,28.4C20.2,28.4,20.3,28.4,20.3,28.4z"/>
						<path class="st0" d="M21.1,28.7c-0.1-0.2,0.2,0,0.2-0.2l-0.1,0l0,0L21,28.4c0,0.1,0,0.1,0,0.2c-0.2-0.1,0-0.1-0.1-0.3
							l-0.2-0.1l0,0c0,0,0,0,0,0L20,27.8c-0.2,0,0,0.2-0.2,0.2c0.1,0.1,0.3,0.3,0.4,0.1c0,0,0,0.1,0,0.1l0.2-0.1l0-0.1
							c0.2-0.1,0.4,0.1,0.4,0.2c-0.2,0-0.2,0.1-0.4-0.1c0,0,0,0.1-0.1,0.1C20.5,28.5,20.7,28.7,21.1,28.7z"/>
						<path class="st0" d="M18.6,27.3L18.6,27.3C18.6,27.2,18.6,27.3,18.6,27.3z"/>
						<path class="st0" d="M18.7,27.3l0.2-0.1l-0.2-0.1L18.7,27.3C18.6,27.2,18.7,27.2,18.7,27.3L18.7,27.3z"/>
						<path class="st0" d="M19.1,27.3c-0.1,0-0.2,0.1-0.2,0.2c-0.1,0,0-0.2-0.1-0.1c-0.1,0.1,0.1,0.1,0.1,0.1L19.1,27.3z"/>
						<polygon class="st0" points="19.7,27.8 19.7,27.8 19.7,27.9 						"/>
						<path class="st0" d="M19.7,27.8L19.7,27.8c-0.1,0-0.1,0-0.1,0.1L19.7,27.8z"/>
						<path class="st0" d="M19.5,27.6C19.4,27.6,19.4,27.6,19.5,27.6L19.5,27.6z"/>
						<polygon class="st0" points="19.5,27.7 19.5,27.7 19.5,27.6 						"/>
						<path class="st0" d="M19.6,27.8c0-0.1,0.1-0.2,0-0.2L19.6,27.8L19.6,27.8z"/>
						<polygon class="st0" points="21.2,31.8 21.1,31.8 21.1,31.8 21.2,31.8 						"/>
						<path class="st0" d="M20.7,31.5C20.7,31.5,20.7,31.5,20.7,31.5C20.7,31.5,20.7,31.5,20.7,31.5z"/>
						<path class="st0" d="M20,31.9c0-0.1,0.2,0,0-0.2c0-0.1,0.2-0.2,0.2-0.1c0,0.1-0.1,0-0.1,0.1c0.1-0.1,0.1,0,0.1-0.1
							c0.1,0,0.2-0.1,0.3-0.1c-0.1,0-0.3-0.3-0.5-0.2c-0.2,0.1-0.2,0.3-0.3,0.5C19.7,31.9,19.9,32,20,31.9z"/>
						<path class="st0" d="M20.1,32.2c0,0,0.1,0,0.1,0C20.2,32.1,20.1,32.2,20.1,32.2z"/>
						<path class="st0" d="M19.9,30c0,0-0.1,0-0.1,0.1l0.1,0C19.9,30.1,19.9,30.1,19.9,30z"/>
						<path class="st0" d="M20,30.1L20,30.1C19.9,30.1,20,30.1,20,30.1z"/>
						<path class="st0" d="M19.9,30L19.9,30C19.9,30,19.9,30,19.9,30z"/>
						<path class="st0" d="M19.2,27.4C19.3,27.4,19.2,27.4,19.2,27.4C19.2,27.4,19.2,27.4,19.2,27.4z"/>
						<path class="st0" d="M17.3,26.3L17.3,26.3C17.3,26.3,17.3,26.3,17.3,26.3z"/>
						<path class="st0" d="M15.5,27.2C15.5,27.2,15.5,27.2,15.5,27.2C15.5,27.2,15.5,27.2,15.5,27.2z"/>
						<path class="st0" d="M15.5,27.2c-0.1,0-0.1-0.1-0.2-0.1l0,0l-0.1,0C15.3,27.1,15.4,27.2,15.5,27.2z"/>
					</g>
				</g>
			</g>
		</g>
	</g>
</g>
<g>
	<g>
		<g>
			<g>
				<g>
					<g>
						<path class="st0" d="M89,32.7c0.1,0,0.1,0.1,0.1,0.1c0.1-0.1,0.1,0,0.2-0.1c0.1-0.1,0.1,0.1,0,0.1l0.2,0l-0.1-0.1
							c0.1-0.1,0.2,0.1,0.3-0.1l-0.2,0l0,0c-0.1,0-0.2,0-0.2,0c0,0,0-0.1,0.1-0.1C89,32.4,89.2,32.7,89,32.7
							C88.9,32.7,89,32.7,89,32.7z"/>
						<path class="st0" d="M88.9,32.3l-0.1,0.2l-0.1-0.1c0,0.1-0.1,0.1-0.1,0.2c0,0,0.1,0,0.1,0c-0.1,0.1-0.2,0-0.2,0.2
							c0.1,0,0.1,0,0.2-0.1c0.1,0,0.2,0.1,0.2,0.2c0,0,0.1-0.1,0.1-0.1h0l0.1-0.2c-0.1,0-0.1,0-0.1,0l0.2-0.2c0-0.2-0.2-0.1-0.3-0.2
							C88.9,32.2,88.7,32.1,88.9,32.3z"/>
						<path class="st0" d="M88.9,32.7L88.9,32.7L88.9,32.7z"/>
						<path class="st0" d="M75.7,34.2C75.7,34.3,75.7,34.3,75.7,34.2l0.4,0c0,0-0.2-0.1-0.1-0.1c-0.1,0-0.2,0-0.2,0.1l0-0.1
							c-0.1,0.1-0.2-0.1-0.1-0.1h0l-0.2,0.5C75.7,34.4,75.6,34.3,75.7,34.2z"/>
						<path class="st0" d="M66.9,33.7C66.9,33.7,66.9,33.6,66.9,33.7C66.9,33.6,66.9,33.6,66.9,33.7z"/>
						<path class="st0" d="M75.5,34.5l-0.1,0.2C75.5,34.7,75.5,34.6,75.5,34.5z"/>
						<path class="st0" d="M75.7,32.5C75.7,32.5,75.7,32.5,75.7,32.5L75.7,32.5L75.7,32.5L75.7,32.5z"/>
						<path class="st0" d="M73.6,35.4C73.6,35.4,73.6,35.4,73.6,35.4C73.6,35.4,73.6,35.4,73.6,35.4z"/>
						<path class="st0" d="M76.6,31.5l-0.2,0.2c0-0.1-0.1,0-0.1-0.1c0,0-0.1,0-0.1,0.1l0,0c-0.1,0.2,0,0.2-0.1,0.4
							c0.1,0.1,0.2,0,0.2-0.1c0,0,0,0,0,0l0.1-0.3L76.6,31.5z"/>
						<path class="st0" d="M69.6,33.4L69.6,33.4C69.6,33.3,69.6,33.4,69.6,33.4z"/>
						<path class="st0" d="M69.7,33.3L69.7,33.3C69.7,33.3,69.7,33.3,69.7,33.3z"/>
						<path class="st0" d="M75.5,34.4c0,0,0,0.1,0,0.1L75.5,34.4C75.5,34.4,75.5,34.4,75.5,34.4z"/>
						<path class="st0" d="M75.6,34l0.2-0.1l0-0.1C75.7,33.9,75.6,34,75.6,34z"/>
						<path class="st0" d="M73.9,35.5c-0.3,0.1,0.1-0.2-0.1-0.2c-0.1,0-0.1,0.1-0.2,0.2c0.3-0.1,0,0.3,0.3,0.2
							c0,0.2-0.2,0.2-0.3,0.2c-0.1-0.2,0.1-0.1,0.1-0.3c-0.1,0-0.1,0.1-0.1,0.2c-0.2,0-0.4,0.2-0.5,0c-0.1,0-0.1,0.1-0.2,0.2
							c0,0.2,0.2,0.1,0.3,0.2c0,0,0,0,0-0.1l0.1,0c-0.1,0,0-0.2,0.1-0.2c0,0,0.1,0,0.1,0l-0.1,0c0.1,0,0.2-0.2,0.3-0.1
							c0,0,0,0.1,0,0.1c0.1-0.1,0.2-0.1,0.3-0.2l-0.1,0.2c0.1-0.2,0.3-0.2,0.6-0.1c0,0-0.1,0-0.1-0.1c0.1-0.1,0.2,0,0.2,0.2
							c0.1-0.2,0.4,0.1,0.5-0.2c0.2-0.3,0.3-0.7,0.4-1c0,0,0,0-0.1,0.1c-0.1-0.1-0.1-0.1-0.1-0.3c-0.1,0.1,0,0.2-0.2,0.3
							c0-0.1,0-0.3-0.1-0.3c-0.3,0.2-0.4,0.7-0.7,1C74.3,35.4,74.1,35.4,73.9,35.5c0.1-0.2,0.2-0.2,0.3-0.3c-0.1,0-0.2,0-0.2,0
							L73.9,35.5z"/>
						<path class="st0" d="M74.6,34.9C74.6,34.9,74.6,34.9,74.6,34.9C74.6,34.9,74.6,34.9,74.6,34.9z"/>
						<path class="st0" d="M74.1,35.2L74.1,35.2L74.1,35.2L74.1,35.2z"/>
						<path class="st0" d="M75.4,34.2C75.4,34.1,75.4,34.1,75.4,34.2C75.4,34.1,75.4,34.1,75.4,34.2C75.4,34.2,75.4,34.2,75.4,34.2z
							"/>
						<path class="st0" d="M75.5,34.4L75.5,34.4C75.5,34.4,75.5,34.4,75.5,34.4C75.5,34.4,75.5,34.4,75.5,34.4z"/>
						<path class="st0" d="M72.4,34.5L72.4,34.5C72.4,34.5,72.4,34.5,72.4,34.5z"/>
						<path class="st0" d="M73.4,35.3c0.1,0,0-0.2,0.2-0.2h-0.1C73.7,35,73.9,35,74,35c0,0.1,0.1,0.1,0.1,0.2c0.1,0,0.2-0.1,0.2-0.2
							c0.1,0,0.1-0.1,0.2-0.1c0-0.1,0.1-0.2-0.1-0.1c0,0,0,0,0,0c-0.1-0.1-0.2,0.1-0.3,0.1c-0.1-0.1,0.1-0.1,0-0.1
							c-0.1,0.1-0.4,0-0.4,0.2c-0.1,0-0.1,0-0.2-0.1c-0.1,0.3-0.6,0-0.5,0.3c0.1,0,0.2,0,0.2-0.1L73.4,35.3z"/>
						<path class="st0" d="M75.2,34.2C75.2,34.2,75.2,34.2,75.2,34.2L75.2,34.2z"/>
						<path class="st0" d="M76.8,34.9v0.2c-0.3,0.1-0.4,0.1-0.6,0.1c0,0,0,0,0-0.1c-0.2,0.1-0.4,0.1-0.5,0.2c-0.1,0-0.2,0-0.2-0.1
							c0,0-0.1,0-0.1,0c0-0.1,0.1,0,0.1-0.1c0,0,0,0,0,0c0-0.1-0.1-0.3,0.1-0.3c0.1,0.2-0.1,0,0,0.2c0.1,0,0-0.1,0-0.1
							c0.1,0,0.1,0,0.1,0.1c0-0.1,0.1,0,0.2-0.1c0.2,0,0,0.2,0.1,0.1l0-0.2h0.2c0.2-0.1-0.1-0.3,0.1-0.5c0,0.1,0.1,0.3,0.3,0.3
							c-0.1,0-0.2,0.2-0.3,0.2c0.2,0.1-0.2,0.1-0.1,0.2c0.1-0.1,0.2-0.1,0.3-0.1l0,0c0.1,0,0.1-0.2,0.3-0.2c0.1,0,0.1,0,0.1,0.1
							C76.8,34.9,76.8,34.8,76.8,34.9z M76.7,35L76.7,35C76.7,35,76.7,35,76.7,35z"/>
						<path class="st0" d="M87.6,32L87.6,32C87.6,32.1,87.6,32.1,87.6,32z"/>
						<path class="st0" d="M79.5,31.8L79.5,31.8C79.5,31.8,79.5,31.8,79.5,31.8z"/>
						<path class="st0" d="M80.6,30.9L80.6,30.9C80.7,30.9,80.6,30.9,80.6,30.9z"/>
						<path class="st0" d="M87,31.9L87,31.9C87,31.9,87,31.9,87,31.9L87,31.9z"/>
						<path class="st0" d="M83.1,31.3C83.1,31.3,83.1,31.3,83.1,31.3C83.1,31.3,83.1,31.3,83.1,31.3z"/>
						<path class="st0" d="M80.6,30.9L80.6,30.9C80.6,30.9,80.6,30.9,80.6,30.9L80.6,30.9z"/>
						<path class="st0" d="M78.9,31.2C78.9,31.2,78.9,31.3,78.9,31.2C78.9,31.3,78.9,31.2,78.9,31.2z"/>
						<path class="st0" d="M79.1,31.8C79,31.8,79,31.8,79.1,31.8L79.1,31.8z"/>
						<path class="st0" d="M77.2,31.8L77.2,31.8C77.2,31.8,77.2,31.8,77.2,31.8z"/>
						<path class="st0" d="M78.8,31.7L78.8,31.7C78.8,31.7,78.8,31.7,78.8,31.7z"/>
						<polygon class="st0" points="87.9,32.8 87.9,32.8 87.9,32.8 						"/>
						<path class="st0" d="M88.2,32.5L88.2,32.5C88.2,32.5,88.2,32.5,88.2,32.5z"/>
						<path class="st0" d="M84.1,31.7c0,0,0.1,0.1,0,0.1C84.2,31.7,84.2,31.6,84.1,31.7z"/>
						<path class="st0" d="M87.3,34C87.3,34,87.3,34,87.3,34C87.3,34,87.3,34,87.3,34z"/>
						<path class="st0" d="M87.4,33.9L87.4,33.9C87.4,33.9,87.4,33.9,87.4,33.9z"/>
						<path class="st0" d="M83.6,33.4C83.6,33.4,83.6,33.4,83.6,33.4C83.6,33.4,83.6,33.4,83.6,33.4z"/>
						<path class="st0" d="M88.2,32.5c0,0,0.3-0.1,0.1-0.2c0-0.2,0.2,0,0.2-0.1c0,0,0.1-0.1,0.1-0.2c0,0-0.1,0-0.1,0
							c0-0.1,0.1-0.1,0.1-0.1c-0.1-0.1,0.1-0.1,0-0.2c-0.2,0-0.4,0-0.6,0.2c0.1,0,0.3,0,0.4,0.1l-0.1,0.1c-0.1-0.1-0.2-0.1-0.3-0.1
							l0.2,0.1C88.4,32.5,88.3,32.5,88.2,32.5C88.2,32.5,88.2,32.5,88.2,32.5z"/>
						<polygon class="st0" points="87.8,33.7 87.8,33.7 87.8,33.7 						"/>
						<path class="st0" d="M77.8,34.5L77.8,34.5C77.8,34.5,77.8,34.5,77.8,34.5z"/>
						<path class="st0" d="M87.8,33L87.8,33L87.8,33z"/>
						<path class="st0" d="M78.3,34.4L78.3,34.4L78.3,34.4z"/>
						<path class="st0" d="M77.8,31.5L77.8,31.5C77.8,31.5,77.8,31.5,77.8,31.5z"/>
						<path class="st0" d="M78.3,34.3L78.3,34.3L78.3,34.3z"/>
						<path class="st0" d="M80.7,33.5C80.7,33.5,80.7,33.4,80.7,33.5C80.6,33.4,80.6,33.4,80.7,33.5z"/>
						<path class="st0" d="M80.2,33.3L80.2,33.3L80.2,33.3z"/>
						<path class="st0" d="M84,31.1C84,31.1,84,31.1,84,31.1C84,31.1,84,31.1,84,31.1z"/>
						<path class="st0" d="M78.3,34.4C78.3,34.4,78.3,34.4,78.3,34.4C78.3,34.4,78.3,34.4,78.3,34.4z"/>
						<polygon class="st0" points="81.4,32.7 81.3,32.7 81.3,32.7 						"/>
						<path class="st0" d="M81.6,32.8C81.6,32.8,81.6,32.8,81.6,32.8c0.1,0,0.2,0,0.3-0.1c0,0-0.2-0.1-0.2-0.2c-0.1,0-0.2,0-0.2,0
							c0.1,0.1,0,0.1-0.1,0.2c-0.1,0,0-0.1-0.1-0.1l-0.2,0l0.1,0l0,0.1l0,0C81.6,32.6,81.4,32.9,81.6,32.8z"/>
						<path class="st0" d="M81.6,32.8C81.6,32.8,81.6,32.9,81.6,32.8C81.6,32.9,81.6,32.8,81.6,32.8z"/>
						<path class="st0" d="M82.5,33C82.6,33,82.6,33,82.5,33C82.6,33,82.6,33,82.5,33z"/>
						<path class="st0" d="M75.9,33.9c0,0,0.2,0.1,0.1,0L75.9,33.9L75.9,33.9z"/>
						<path class="st0" d="M85.1,32.5C85.1,32.5,85,32.5,85.1,32.5L85.1,32.5C85,32.5,85.1,32.5,85.1,32.5z"/>
						<path class="st0" d="M81.8,32.5C81.7,32.5,81.7,32.5,81.8,32.5C81.7,32.5,81.7,32.5,81.8,32.5z"/>
						<path class="st0" d="M85.1,32.8c0,0,0,0.1,0,0.1c0,0,0.1,0,0.1-0.1C85.2,32.8,85.1,32.8,85.1,32.8z"/>
						<path class="st0" d="M85.2,32.8L85.2,32.8L85.2,32.8z"/>
						<path class="st0" d="M75.8,33.8L75.8,33.8L75.8,33.8l-0.1,0c0,0,0,0,0,0c0,0,0,0,0,0l0,0c-0.1,0.1-0.2,0.2-0.2,0.3
							c-0.1,0.1-0.1,0.1-0.2,0.1c0.1,0,0.1,0,0.1-0.1c-0.1,0-0.2-0.2-0.3,0l0.1,0l-0.2,0.3c-0.1-0.1,0.1-0.1,0.1-0.2
							c-0.2,0.2-0.4-0.1-0.4,0.1c0-0.1-0.1-0.3-0.2-0.3c0.1,0.1-0.1,0.1,0,0.2c0,0.1-0.1,0-0.1,0.1v0C74,34.1,74,34.4,74,34.5
							c-0.2,0.1-0.3,0-0.6,0.1c0-0.1-0.1-0.3-0.2-0.3c0,0.1-0.2,0.2-0.2,0.3c0.2,0,0.1-0.1,0.2-0.2c0.1,0.1,0,0.2,0.1,0.2
							c-0.1,0-0.3,0.1-0.4,0l0,0c-0.2-0.1-0.2-0.4-0.4-0.2l-0.1,0.1c0,0,0,0,0,0c-0.2,0-0.1-0.2-0.3,0c0,0,0,0,0,0
							c-0.1-0.1-0.2,0.1-0.3,0.1c-0.1-0.1,0-0.1,0-0.2c-0.2,0-0.4,0.2-0.5,0.3l-0.1-0.1c0.1,0,0.2-0.2,0.2-0.2c-0.1,0-0.1,0.1-0.2,0
							c0-0.1,0.1-0.1,0.1-0.2c-0.2-0.1-0.1,0.3-0.2,0c-0.1,0-0.1,0.1-0.1,0.2l-0.1-0.1c0,0.1-0.2,0.1-0.3,0.1c0,0,0.1,0.1,0.1,0.1
							c0,0.1-0.1,0.1-0.2,0.1c0-0.2-0.4,0-0.3-0.3c-0.3,0-0.7,0-0.9,0c-0.1-0.1-0.2-0.1-0.1-0.2c-0.2-0.1-0.4,0.2-0.6,0
							c0,0,0.1,0,0.1,0c-0.2,0-0.2-0.2-0.5-0.2c0,0,0.1,0,0.1-0.1c0,0-0.1,0-0.2,0.1c0,0,0.1,0,0,0c-0.4-0.2-0.8,0-1.2-0.1
							c0.1,0,0.2-0.1,0.2-0.2l-0.1,0c-0.1,0.1-0.2,0-0.2,0.1c0,0,0-0.1,0-0.1c-0.2-0.2-0.4,0.2-0.7,0.1c0.1-0.1,0.2-0.2,0.4-0.3
							l-0.1-0.1l0.2-0.1c-0.1-0.1-0.2,0.1-0.2,0c0,0,0.1,0,0.1-0.1c-0.1-0.1-0.1,0-0.2,0c0.2-0.2,0.6-0.2,0.8-0.2c0,0,0,0-0.1,0.1
							c0.1,0,0.1,0.1,0.2,0.1c0.1-0.1,0-0.1-0.1-0.1c0-0.1,0.1-0.1,0.1-0.1c0,0.1,0.3,0.1,0.3,0.3c0.3,0,0-0.3,0.3-0.2l0,0.2
							c0.2-0.1,0.4-0.1,0.6,0l0,0c0,0,0,0.1,0,0.1c0.1,0.1,0.3,0,0.3,0.1c0.2-0.1,0.5-0.1,0.6-0.2c0,0.2-0.2,0.1-0.3,0.2l0.2,0
							c-0.1,0-0.2,0-0.2,0.1c0.1,0.1,0.2-0.1,0.3-0.1c0,0,0,0.1,0.1,0.1l0-0.1c0,0,0,0,0,0l0.2,0c0-0.1,0-0.2-0.1-0.2
							c0,0.1-0.1,0.1-0.1,0.1c0.1-0.1,0-0.1,0-0.1c0.1,0,0.2,0,0.3,0v0.1c0.1,0,0.2,0,0.3,0l0,0.1c0.1,0.1,0.3,0,0.4,0.1
							c0.1-0.1,0.3-0.2,0.4-0.3c0.1-0.1,0.3,0.2,0.5,0c0,0-0.1,0.1-0.1,0.2c0.1,0,0.2-0.2,0.2,0c-0.2-0.1,0,0.1-0.1,0.2
							c0.1,0,0.2,0,0.2-0.1c-0.2,0,0.1-0.2-0.1-0.1c0.1-0.1,0.3-0.2,0.4-0.1c0,0.1,0,0.1,0.1,0.1l0-0.1c0.1,0-0.1,0.1,0,0.2
							c0.1-0.2,0.4,0.1,0.4-0.2c0.1,0.1-0.2,0.1,0,0.3c-0.1,0.1-0.2,0-0.2,0.2c0.1,0,0,0.1,0.1,0.1l0.1-0.1h0
							c0.2-0.2,0.4-0.1,0.7-0.2c0.2-0.2,0.3-0.4,0.5-0.4c-0.1,0.1,0.2,0,0.1,0.2c0.1,0.1,0.2,0,0.2-0.1c-0.1,0,0,0-0.1,0
							c0-0.1,0.2-0.1,0.2-0.1c0,0,0,0,0,0c0.1,0,0-0.1,0.1-0.1c0,0.1,0.2,0,0.3,0l0.1-0.2c0,0.1,0.1,0,0.1,0.1
							c0.1-0.1,0.1-0.2,0.2-0.2c0,0.1,0.1,0.1,0.1,0.2c0.2,0.1,0.3-0.3,0.5-0.2c0,0,0,0.1,0,0.1c0,0,0.1,0,0.2-0.1l0,0l0,0
							c0,0,0,0,0,0c0.1-0.1,0.1-0.2,0.2-0.3c0-0.1-0.2,0-0.2,0l0,0.1c-0.1-0.2-0.1,0.1-0.2,0c0.1-0.2,0.3-0.2,0.4-0.4
							c-0.1-0.1-0.3-0.1-0.5-0.1l0.1,0l-0.1,0l0.1,0.1c-0.1,0-0.2,0-0.2,0.1c0.1,0,0.2,0.1,0.1,0.1c-0.1-0.1-0.1,0.1-0.2,0.1
							c0.1,0,0.1,0,0.1,0.1c-0.2-0.1-0.2,0-0.4-0.1c0.1,0.2-0.2,0.1-0.2,0.2h0.1l-0.1,0.2c-0.2-0.1,0.1-0.2-0.1-0.3
							c-0.2,0-0.1,0.2-0.3,0.3c0-0.1,0.1-0.2,0.2-0.3l-0.1,0c0-0.1,0.2-0.1,0.3-0.1c-0.1,0.2,0.1,0,0.2,0.1c0-0.1-0.1-0.1,0-0.2
							c-0.1,0-0.1,0-0.2,0c0.3,0,0.2-0.4,0.4-0.4C74.8,31.9,75,32,75,32c0.1,0,0.1-0.1,0.2-0.1l-0.1-0.2c0.1-0.1,0.2,0.2,0.4,0
							c0-0.1-0.1,0-0.1,0c0.2-0.1,0.3,0.1,0.5,0.2c0,0,0-0.2,0-0.3c0,0.1,0.1,0.1,0,0.2c0.1,0,0.1-0.1,0.2-0.1c-0.2,0,0-0.1,0-0.2
							c0.1,0,0,0.1,0,0.1c0.1,0,0.2,0.1,0.2,0c0,0.1-0.1,0.3-0.2,0.4h0.1c0,0.1-0.1,0-0.1,0c0.1,0.1,0.1,0.2,0.1,0.2c0,0,0,0,0,0
							c-0.1,0-0.1,0-0.1,0.1c0,0.2,0.1,0.1,0.2,0.1l0.1,0l0.2-0.5c0.1-0.1,0.2,0,0.3,0.1v-0.1c0.1,0,0.2,0,0.2,0.2c0,0,0,0-0.1,0
							c0,0,0,0,0,0v0C77,32,77.1,32,77.1,32c-0.2,0.2,0,0.2,0.1,0.4l0.2-0.1c-0.1,0,0-0.1,0-0.1c0,0.1,0.2,0,0.2,0v0
							c0.1,0,0.2,0,0.3-0.1c0,0,0.1-0.3,0.1-0.4c-0.2,0-0.1-0.1-0.1-0.1c0,0,0,0,0,0c0,0,0,0-0.1-0.1c-0.1,0.1-0.3,0.1-0.3,0.3
							c0.1,0.1,0.1-0.1,0.1,0c-0.1,0.1-0.2,0.1-0.3,0.1l0-0.2l-0.1,0.1c0-0.1,0-0.2,0.1-0.2c0-0.1-0.1,0-0.2,0l0,0.1
							c0-0.1-0.2,0-0.1-0.2l0.2-0.1l-0.1-0.1l0.2-0.1l0,0.1c0.2-0.1,0.1,0.2,0.4,0c0.1-0.2,0.1-0.2,0.3-0.2c-0.1,0.1,0,0.1,0,0.2
							c0.1,0,0.2-0.1,0.2-0.2c0.1,0.1,0.1,0.1,0,0.1c0,0.2,0.1-0.1,0.2,0.1c0.4-0.1,0.2-0.7,0.7-0.5v0.1c0.3-0.1,0.5-0.1,0.7-0.2
							l0.2,0.2c0,0-0.2,0.2-0.1,0.3c-0.1-0.2-0.2-0.1-0.3-0.2c0,0,0.1,0.1,0.1,0.1c-0.1,0-0.1-0.1-0.2,0c0,0,0.1,0.1,0,0.1l-0.1-0.1
							c-0.2,0.1,0,0.3-0.2,0.3c0-0.1,0.1-0.3,0.1-0.3c-0.1,0,0.1-0.1,0-0.1c-0.1,0.2-0.2,0.1-0.3,0.2c0,0,0-0.1,0.1-0.1l-0.2,0
							c0.1,0.1-0.2,0.1-0.1,0.3c0.3,0,0.2-0.1,0.5,0c-0.1,0-0.2,0.2-0.2,0.3c0,0,0,0,0,0c0,0.1,0,0.2,0.1,0.4
							c0.1-0.2,0.2-0.1,0.3-0.2c0-0.1-0.1-0.1-0.2-0.1l0.1-0.1l0,0.1l0.3,0c-0.1,0-0.1,0.1-0.1,0.2c0,0,0.1,0,0.1,0.1
							c0-0.1,0-0.2,0-0.2c0.2,0,0.4,0.1,0.5,0.2l0,0c-0.1-0.1,0.1-0.2,0.2-0.4c0,0.1,0.1,0.1,0.2,0.1c0-0.1-0.1-0.4-0.1-0.5
							c-0.1,0.1-0.1,0.1-0.1,0.4l-0.2,0.2l0-0.1c-0.1,0-0.2,0.1-0.2,0c0.1-0.1,0.2-0.1,0.2-0.2l-0.1,0c0.1-0.2,0.1,0.1,0.2,0
							c-0.1-0.1,0,0,0.1-0.1c-0.1-0.1-0.3,0.1-0.3-0.2c0.1-0.1,0.3,0.2,0.4,0v0c0.2,0,0.2-0.1,0.3-0.2c0.1,0.1,0.2,0,0.3-0.1V31
							l0.1,0c0,0.1-0.1,0-0.2,0l0,0.1c-0.1-0.1-0.2,0.1-0.3,0.2c0.1-0.1,0.4,0,0.4-0.2l0.1,0.1l0,0c0.1,0.1,0,0.2-0.1,0.3
							c0,0,0,0,0-0.1c-0.1,0.1-0.1,0.2-0.2,0.1l0.1-0.1c-0.2,0-0.3,0.1-0.3,0.2c0.2,0,0.4,0,0.7,0c0-0.3,0.1-0.4,0.1-0.7
							c0.1-0.1,0.3-0.1,0.5,0l0,0c0.1,0,0.1,0,0.2,0c0.1,0.1,0,0.1,0,0.2L82,31c0,0.1-0.2,0.1-0.3,0.1c0,0,0.1,0,0,0
							c-0.1,0-0.3,0.2-0.3,0c-0.1,0,0.1-0.1-0.1-0.1c-0.1-0.1-0.1,0.1-0.1,0.1c0,0.1,0.2,0.1,0.1,0.2c0.1,0,0.1-0.1,0.2,0
							c-0.1,0-0.2,0.2-0.2,0.1c-0.2,0.1-0.1,0.4,0,0.5c0-0.1,0.3-0.1,0.1-0.2c0.1-0.1,0.3-0.1,0.4-0.2v0l0.2,0c0,0-0.1,0.1-0.1,0.1
							l0.2-0.2c-0.1,0.1,0.1,0.1,0.1,0.1c0-0.1,0.1-0.2,0-0.2c-0.1-0.1-0.1,0.1-0.1,0.1l0.1-0.2l0,0l0.1-0.1c0.2,0-0.1,0.3,0.1,0.2
							l0-0.2c0.2,0,0.5,0.2,0.7,0.1c-0.1,0.1-0.1,0.3,0,0.4c-0.1,0-0.2,0-0.3,0c0,0,0.1-0.2,0.2-0.2c-0.1-0.3-0.3,0.2-0.3-0.1
							c-0.3-0.1-0.2,0.3-0.4,0.1c0,0.1-0.1,0.1-0.1,0.2c0.1,0.2,0.3,0,0.5,0.1c0,0-0.1,0-0.1,0c0.1,0,0.2,0,0.2,0l0,0
							c0.1-0.1,0.1,0.1,0.2,0.1c0,0,0.1,0,0.1-0.1l0.1,0.1l0-0.1c0.1,0,0.1,0.1,0.2,0l0-0.1l-0.2,0c0.1,0,0-0.1,0.1-0.1
							c-0.1,0.1,0.1,0.1,0.1,0.2l0.1-0.1l0,0c0.1,0.1,0.1,0,0.2,0c-0.1-0.1-0.1-0.2-0.3-0.1c0.1-0.1,0.2-0.1,0.3-0.1
							c0.1,0,0.2,0,0.2,0.1c-0.2,0,0,0.4-0.3,0.3c0,0,0,0,0,0c0-0.2-0.2,0-0.3,0.1c0,0.1-0.1,0.1,0.1,0.2c0-0.1,0.1-0.2,0.2-0.1
							l0,0.2l0.2,0l0,0c0.1,0.1,0.2,0,0.3,0.1c0.1-0.1,0.4,0,0.3-0.2c0.1,0.1,0.2,0,0.3,0l-0.1-0.1c0.2-0.1,0.1,0,0.3-0.3
							c0,0.1,0,0.1,0,0.2c0.2,0,0.5,0.1,0.7,0c0.2,0,0.2,0.3,0.4,0.2c0.1,0,0-0.2,0.1-0.1c0,0-0.2,0.1,0,0.1c0.1-0.1,0.3,0.1,0.4,0
							c0.1,0.1,0.2,0.1,0.2,0.2c-0.1,0-0.3,0-0.3,0c0-0.1-0.1-0.1,0-0.1c-0.2-0.1-0.1,0.1-0.3,0c0,0,0.1,0.1,0.1,0.1
							c0,0.2-0.3,0-0.2,0.3c0.2,0,0.3-0.3,0.4-0.1c-0.1,0.1-0.2,0-0.3,0.2l0.1,0.1l0.1-0.1l0,0c0.2,0.2,0.2-0.1,0.4-0.2
							c-0.1-0.1,0.1-0.3,0-0.4c0.1,0,0.2,0,0.2,0.2c-0.3,0.1,0,0.2-0.3,0.3c0,0.1-0.1,0.2,0,0.3c0.2-0.1,0-0.2,0.1-0.2
							c0,0,0,0,0,0.1c0.1-0.1,0.1,0,0.2,0l0,0c0.1,0.1,0.1-0.1,0.2,0c0-0.1,0.1-0.1,0.2-0.2c-0.1-0.1-0.1-0.3-0.3-0.3
							c0,0.1,0,0.1-0.1,0.2l0.1,0c0,0-0.1,0-0.1,0l-0.1-0.1c0.2,0,0.1-0.2,0.2-0.3c0.1,0.1,0.1,0,0.2,0c0,0.1,0.2,0.3,0.3,0.4
							c0,0-0.1,0-0.1,0c-0.1,0.1,0.1,0.1,0.1,0.2l0.1-0.1c0,0,0,0,0,0.1c0.1,0,0.1-0.2,0.2-0.2c0,0.1-0.1,0.2-0.1,0.2
							c0,0.1,0,0.3,0.2,0.2c0,0,0.1,0,0.1,0c0,0,0,0,0,0l0.1,0.1c-0.1,0.1-0.2-0.1-0.3,0l0,0.1c-0.1,0-0.2,0-0.2,0.1
							c0.1,0,0.1,0,0.2,0c0,0.1-0.1,0.1-0.1,0.1l0-0.1c-0.1-0.1-0.2,0.1-0.4,0c0,0,0,0,0,0c-0.2,0.1-0.2-0.1-0.4,0l0.1-0.1
							c-0.1,0-0.3,0.1-0.5,0.2l0,0c0,0-0.1,0-0.1,0l0,0c-0.1,0-0.2,0.1-0.2,0.1c0,0,0,0.1,0.1,0.1c0-0.1,0.2,0,0.2-0.1
							c0.1,0.1,0.2,0,0.2,0c-0.1-0.1,0.1-0.1,0.1-0.2c0,0.1,0.1,0,0.1,0.1c0,0,0-0.1-0.1,0c-0.1,0.1,0.2,0.1,0,0.2
							c0.2,0,0.4,0,0.5,0l-0.1-0.1c0.1,0,0.2,0,0.2,0.1c-0.1,0-0.1,0-0.2,0c0,0.1,0.2,0,0.2,0.1l0.2-0.2l-0.1,0
							c0.1-0.1,0.2,0.1,0.3,0.1c-0.1,0.2-0.2,0-0.3,0c-0.1,0,0,0.2-0.1,0.2c0,0,0.1,0,0.1,0l0,0c-0.1,0.1-0.3,0.1-0.4,0.2
							c0,0,0,0,0,0c-0.1-0.1-0.2-0.1-0.3-0.1c0,0.1,0.1,0,0.1,0c0,0-0.1,0-0.1,0.1c0.1,0.1,0,0.1,0.1,0.1c-0.1,0-0.1,0-0.2,0
							c0-0.1,0-0.1,0.1-0.2c-0.1,0-0.1-0.2-0.2-0.1c0.1,0.1-0.1,0.2-0.1,0.2l0,0c-0.1,0.1-0.1,0.1-0.1,0c0.1,0,0.1,0,0.1-0.1
							c0,0-0.1,0-0.1,0l0.1-0.1l-0.2,0c0,0.1-0.1,0.2-0.2,0.3c0-0.1-0.1,0-0.2,0l0,0c-0.1-0.1-0.2,0-0.3,0c-0.1-0.1,0.5-0.4,0.1-0.4
							c-0.2,0-0.1,0.2-0.2,0.3c0,0,0,0,0,0c-0.1,0-0.1,0.1-0.1,0.1c0,0,0.1,0,0.1,0c0,0.1-0.1,0-0.2,0c0.1-0.2-0.1-0.1-0.1-0.2
							c-0.1-0.1-0.3,0-0.4,0.1c-0.1-0.2-0.2,0-0.3-0.1c0,0,0.1,0,0.1,0c0.1-0.1-0.2-0.1,0-0.2c0,0,0,0.1,0,0c0.1,0,0.1-0.1,0.1-0.1
							l-0.1-0.1l0.1,0l-0.2-0.2c0,0,0,0.1,0,0.1c-0.2-0.1-0.5,0-0.7,0c-0.1,0.3-0.5,0.1-0.6,0.3c0-0.1,0.1-0.3,0.1-0.3
							c0,0,0.1-0.2,0.2-0.1c0,0.1,0.1,0.1,0,0.2c0.2,0,0-0.2,0.1-0.3c-0.2,0-0.4,0.2-0.5,0.3v0l-0.1,0.1c0.1,0,0.1,0.2,0,0.2l0,0
							c-0.1-0.1-0.2,0-0.3,0l-0.1,0.1c-0.1,0-0.1-0.2-0.2-0.3c-0.2,0-0.3,0.2-0.4,0.3c-0.1-0.1-0.3-0.1-0.2-0.2
							c-0.2,0.1-0.1,0.6-0.4,0.3l0.1-0.1c-0.2,0-0.6,0.2-0.7,0.2c0.1-0.3-0.3-0.3-0.4-0.6c0,0.1-0.1,0.1-0.1,0.1c0,0-0.1-0.1-0.1,0
							c0.1,0,0,0.3,0.1,0.2c-0.1,0.2-0.2,0.4-0.4,0.4l0-0.1l0.2,0c0-0.1,0.1-0.1,0.1-0.2c-0.3,0,0-0.3-0.3-0.3c0,0.1,0,0-0.1,0.1
							c0,0,0-0.1,0-0.1l0,0.1c-0.1-0.2,0.2-0.2,0.1-0.3c0.1-0.1,0.3-0.2,0.2-0.4c-0.2,0-0.1,0.3-0.3,0.3l0-0.1
							c-0.1,0.1-0.1,0.2-0.1,0.2c0,0,0-0.1-0.1-0.1c-0.1,0.2-0.2,0.2-0.2,0.4c0.3-0.2,0.3,0.1,0.6-0.1c0,0.1-0.2,0.1-0.2,0.3l0-0.1
							c-0.1,0.1-0.2,0.2-0.3,0.1l0.1-0.1c-0.1,0.1-0.3-0.2-0.4,0.1c0.1,0,0.1,0,0.1,0c-0.1,0.1-0.2,0.1-0.3,0.1L79,34.3
							c0-0.1-0.1,0-0.1-0.2c-0.2-0.1-0.2,0.1-0.2,0.2c-0.2-0.1,0.1-0.1,0.1-0.3c-0.2,0-0.4,0.1-0.5,0.2c0,0,0.1,0,0.1,0.1
							c0,0-0.1,0-0.1,0l0,0.1c-0.1,0-0.1-0.1,0-0.2c-0.1,0-0.1,0.2-0.2,0.1c0.1-0.1,0.3-0.1,0.3-0.2c-0.2,0.1-0.3-0.2-0.6,0
							c0,0,0-0.1,0-0.1c-0.1,0.1,0,0.2,0,0.3c0.1-0.1,0.2,0,0.2,0.1l0,0.1c0,0-0.1,0-0.1,0l0,0.1c0-0.2-0.2-0.2-0.2-0.2
							c0.1,0.1,0.1,0.1,0.2,0.3c-0.1,0.2-0.2-0.1-0.3,0.1c0,0,0.1-0.1,0-0.1c-0.1,0-0.1,0.1-0.1,0.2c0-0.1,0-0.2,0-0.4
							c0.2,0,0.1,0,0.2-0.1l-0.2-0.1c0.1,0,0.1-0.2,0.1-0.2c-0.2-0.1-0.1,0.2-0.3,0.2c-0.1,0.1,0.1,0,0.1,0.1c-0.1,0,0,0.1-0.1,0.2
							l0-0.1c-0.1-0.1-0.1,0-0.1,0.1c-0.1,0,0.2,0.4-0.1,0.5c0,0,0-0.1,0-0.1l0-1.1c-0.2,0.1-0.5,0.1-0.8,0.1
							c-0.1-0.2,0.2-0.2,0.1-0.3l0.1,0c0,0.1-0.3,0.1-0.1,0.2c0.2-0.1,0.3,0,0.5-0.3c-0.1-0.2-0.3,0.1-0.4,0c0.1,0,0.1,0,0.1-0.1
							c-0.1,0-0.3,0-0.4,0l0,0.1c0.1,0,0.2,0,0.2,0c-0.1,0-0.2,0.2-0.2,0.3h0l0,0.1L75.8,33.8z M67.2,33.5
							C67.2,33.5,67.2,33.5,67.2,33.5C67.2,33.5,67.2,33.5,67.2,33.5z M78.2,32.8c-0.2,0-0.4,0-0.5,0c0.4,0.2,0.6,0.4,0.1,0.5l0,0
							c0.1,0,0.2,0,0.3,0C78.1,33.2,78.3,32.7,78.2,32.8C78.3,32.6,78.3,32.7,78.2,32.8L78.2,32.8z M78.5,33.2c0.1,0,0.1,0,0.1-0.1
							L78.5,33.2C78.5,33.2,78.5,33.2,78.5,33.2z M78.5,33.1C78.5,33.1,78.5,33.1,78.5,33.1L78.5,33.1z M76.6,33.4L76.6,33.4
							L76.6,33.4C76.5,33.4,76.6,33.4,76.6,33.4z M76.8,33.5v-0.1h-0.1C76.8,33.4,76.8,33.5,76.8,33.5z M77.6,33.7
							c0-0.1,0.1-0.2,0.1-0.3c0,0,0,0-0.1-0.1c0,0-0.1,0-0.1,0c0,0,0,0,0,0.1c0,0,0.1,0,0.1,0.1c-0.2-0.2-0.1,0.2-0.2,0.1
							C77.4,33.8,77.5,33.8,77.6,33.7z M86.1,32.9C86.1,32.9,86.1,32.9,86.1,32.9L86.1,33c-0.1,0-0.2-0.3-0.4-0.1
							c-0.1-0.1-0.1-0.2-0.1-0.2c0,0,0.1,0,0.1,0C86.1,32.5,85.8,33,86.1,32.9z M84.5,32.4C84.5,32.4,84.5,32.4,84.5,32.4
							c-0.3,0.2-0.6,0.3-0.8,0.3c0,0.1,0.2,0.2,0.2,0.3l-0.1,0.1l0-0.1l-0.1,0.1c0,0.1,0.1,0.1,0.2,0.1c0,0,0.2-0.2,0.3-0.2
							l-0.2-0.1c0,0,0.2,0,0.3,0c0-0.1-0.1-0.2-0.2,0c0-0.1,0.2-0.1,0.1-0.2c0.1-0.1,0.3,0,0.4,0.1v0.2c0.1,0.1,0.1-0.2,0.2-0.1
							c-0.2,0,0,0.2-0.1,0.2c0,0.1,0,0.2,0.1,0.2c0.1-0.2,0.1,0.2,0.2,0c0.1,0.1-0.1,0.1,0,0.2c0.1-0.1,0.2-0.2,0.2-0.3
							c-0.1-0.1-0.2,0.2-0.3,0.1l0.2-0.2c0,0-0.1,0-0.1,0c0,0,0.1,0,0.1-0.1c0,0,0,0,0.1-0.1c-0.1,0-0.2,0-0.2-0.1l0-0.1
							c0-0.1-0.1,0-0.2,0c-0.1,0-0.2,0.1-0.2,0l0.1-0.1C84.7,32.4,84.7,32.4,84.5,32.4z M80.2,32.4c0.1,0.3,0.2,0.5,0.6,0.4l0,0
							c0.2,0.2,0.3-0.3,0.6-0.1c-0.1,0.1-0.1,0.1-0.2,0.3l0.1-0.1c0,0.2,0.1,0.1,0.2,0.1l-0.1,0.2c-0.1,0-0.2-0.1-0.2,0
							c0,0-0.2-0.2-0.3-0.2c0,0.1,0.2,0,0.2,0.3c0.1-0.1,0.1,0,0.2,0c-0.1,0.1,0,0.2-0.1,0.3l0.2,0c0,0-0.2,0.1-0.1,0.2
							c0.1-0.1,0.2,0,0.2-0.1l0,0c0.1,0,0-0.2,0.2-0.1c0-0.1,0-0.1-0.1-0.1c0,0,0,0.1-0.1,0.2c-0.1-0.1,0.1,0,0-0.2
							c0-0.1-0.2,0.1-0.2-0.1l0.1,0c0-0.1,0.1-0.1,0.1-0.2c0.1,0,0.1,0.1,0.2,0c0-0.1,0-0.2,0.1-0.2c0.1,0.2,0.4,0.1,0.5,0.1
							l0.1-0.1c0-0.1-0.2,0-0.1-0.1l0.1,0l0,0c0.1,0,0.1,0,0.1-0.1c0,0.1-0.2,0.1-0.1,0.2c0.1,0,0.1,0.1,0.1,0c0,0,0,0,0,0
							c0.1,0.1,0.1-0.2,0.2-0.2c0.1-0.2-0.1-0.2-0.1-0.3l0.4-0.1c0,0-0.1,0.1-0.1,0.2c0.1,0.1,0,0.1,0.1,0.1c0-0.2,0.2-0.1,0.3-0.2
							c0,0.1,0.1,0.1-0.1,0.1c0,0.1,0.1,0.1,0.2,0.1c0,0,0.1,0,0.1-0.1c0-0.1,0-0.1,0.1-0.2l0,0c-0.1,0-0.4-0.2-0.5,0l0-0.1
							c-0.2-0.1-0.4,0.2-0.4,0c0-0.1,0,0,0-0.2l-0.1,0.1l0-0.1l-0.2,0v0c-0.1,0.1-0.2,0.2-0.2,0.3c0,0.1,0,0.1,0,0.1
							c0,0-0.1,0-0.1,0l0,0l0,0c-0.1,0-0.1-0.1-0.2-0.1l0.2,0c0-0.1,0-0.2-0.1-0.3c0,0,0.1-0.1,0-0.1c0,0-0.1,0.1-0.1,0.1
							c-0.2,0-0.5-0.2-0.8,0c0.2-0.1-0.2-0.1,0.1-0.2c-0.2-0.1-0.1,0.2-0.3,0.2c0-0.1,0.1,0,0.1-0.1c-0.3,0-0.4,0.3-0.7,0.3l0-0.1
							C80.3,32.3,80.3,32.3,80.2,32.4z M79.7,32.6l-0.1,0.1h0l-0.1,0.1c0.1,0,0.2,0.2,0.1,0.2c0,0,0-0.1,0-0.1
							c-0.1-0.1-0.3-0.1-0.2,0.1c0.1-0.2,0.1,0.2,0.2,0.1c-0.1,0.1-0.1,0.1-0.2,0.2c0.1-0.1-0.1-0.2-0.2-0.2c0,0-0.2,0-0.2,0.1
							c0.1,0.1,0,0.2,0.1,0.2c0,0-0.1,0.1-0.2,0c0,0,0.1,0,0.1-0.1c-0.1-0.1-0.1-0.1-0.2-0.1l-0.1,0c0,0,0,0,0,0l-0.1,0.1
							c0.1-0.1,0.1,0,0.1,0.1c0-0.1-0.1,0-0.1,0l0.1,0.1c0,0.1-0.2-0.1-0.1,0.1c0.2,0,0.2,0,0.4-0.1l-0.1-0.1
							c0.2-0.1,0.1,0.2,0.3,0.1c0.1-0.1,0.3,0,0.3-0.2c0,0.1,0.2,0.2,0.2,0.1c0.1-0.2,0.3-0.2,0.2-0.3c-0.1,0-0.1,0.1-0.2,0l0.1,0
							l-0.1-0.1C79.8,32.8,79.8,32.7,79.7,32.6z M76.8,32L76.8,32L76.8,32L76.8,32z"/>
						<path class="st0" d="M88,32.8c0,0,0.1,0,0.1-0.1C88.1,32.8,88,32.7,88,32.8z"/>
						<path class="st0" d="M88.1,32.9C88.1,32.9,88.1,32.9,88.1,32.9L88.1,32.9L88.1,32.9z"/>
						<path class="st0" d="M88,33.7c0.1-0.1,0.1-0.1,0.2-0.1c0,0.3-0.2,0-0.2,0.3c0.1,0.1,0.2-0.2,0.4-0.1
							C88.3,33.6,88.1,33.5,88,33.7z"/>
						<polygon class="st0" points="87.9,34 88,33.9 87.9,33.9 87.9,33.9 						"/>
						<path class="st0" d="M86.4,31.4C86.4,31.3,86.3,31.4,86.4,31.4C86.3,31.4,86.3,31.4,86.4,31.4z"/>
						<path class="st0" d="M69.5,32.4l-0.6-0.1C69.1,32.3,69.2,32.4,69.5,32.4z"/>
						<path class="st0" d="M84,31.7c0.2-0.1,0.3-0.2,0.5-0.2c-0.2-0.2-0.3,0.2-0.6,0.1L84,31.7z"/>
						<path class="st0" d="M84.1,31.1c0,0.1-0.2,0.2-0.1,0.3c0.1,0,0.1-0.1,0.2-0.1L84.1,31.1z"/>
						<polygon class="st0" points="84.8,33.6 84.7,33.7 84.8,33.7 						"/>
						<polygon class="st0" points="83.2,31.2 83.2,31.1 83.2,31.1 						"/>
						<path class="st0" d="M83.3,31.1L83.3,31.1L83.3,31.1z"/>
						<polygon class="st0" points="84.7,34 84.7,34 84.8,33.9 						"/>
						<path class="st0" d="M84,33.1L84,33.1C84.1,33.1,84,33,84,33.1z"/>
						<polygon class="st0" points="82.6,31.1 82.6,31.2 82.6,31.2 82.7,31.1 						"/>
						<path class="st0" d="M83.5,33.5c0.1,0.1-0.1,0,0,0.1C83.5,33.6,83.5,33.5,83.5,33.5z"/>
						<path class="st0" d="M82.4,32.7C82.4,32.7,82.4,32.7,82.4,32.7C82.4,32.7,82.4,32.7,82.4,32.7z"/>
						<path class="st0" d="M82.4,32.7C82.5,32.7,82.5,32.7,82.4,32.7C82.5,32.7,82.5,32.7,82.4,32.7z"/>
						<path class="st0" d="M82,32.7L82,32.7C82,32.8,82,32.8,82,32.7C82.1,32.7,82.1,32.7,82,32.7l0.1-0.1L82,32.7
							C82,32.7,82,32.7,82,32.7z"/>
						<path class="st0" d="M80.2,30.9c0.1,0,0.2,0,0.2,0.1c0.1,0,0.1-0.1,0.2-0.2C80.4,30.9,80.3,30.9,80.2,30.9z"/>
						<path class="st0" d="M80.5,30.9C80.5,30.9,80.5,30.8,80.5,30.9C80.5,30.8,80.5,30.9,80.5,30.9z"/>
						<polygon class="st0" points="82.5,33.7 82.4,33.9 82.5,33.8 						"/>
						<path class="st0" d="M79.9,30.9C80,30.9,80,30.9,79.9,30.9C80,30.8,79.9,30.9,79.9,30.9z"/>
						<path class="st0" d="M80.7,32.6c0,0,0.1,0,0.1,0C80.7,32.6,80.7,32.5,80.7,32.6z"/>
						<path class="st0" d="M79.6,31.3c0,0,0.1,0.1,0.1,0.1C79.7,31.4,79.7,31.2,79.6,31.3z"/>
						<polygon class="st0" points="80.4,32.6 80.4,32.6 80.5,32.6 						"/>
						<path class="st0" d="M80.9,33.9c0.1-0.1-0.2-0.2,0-0.3c-0.2-0.1,0,0.2-0.1,0.2C80.8,33.7,80.9,33.9,80.9,33.9z"/>
						<path class="st0" d="M80.7,33.7C80.7,33.7,80.7,33.7,80.7,33.7C80.7,33.7,80.7,33.7,80.7,33.7z"/>
						<path class="st0" d="M79.3,33.2C79.3,33.2,79.3,33.2,79.3,33.2C79.3,33.2,79.3,33.2,79.3,33.2z"/>
						<path class="st0" d="M80.2,33.9l0.1-0.2c-0.1,0.1-0.3,0.1-0.3,0.3C80.2,34,80.2,34,80.2,33.9L80.2,33.9z"/>
						<path class="st0" d="M78.1,31.2L78.1,31.2L78.1,31.2C78.1,31.2,78,31.3,78.1,31.2z"/>
						<path class="st0" d="M78,31.1L78,31.1C78,31.1,78,31.1,78,31.1z"/>
						<path class="st0" d="M79.6,33.1c0.1,0,0.1,0,0.1,0C79.7,33,79.5,33,79.6,33.1z"/>
						<polygon class="st0" points="77.6,31.6 77.7,31.5 77.6,31.5 						"/>
						<polygon class="st0" points="77.1,31.4 77.1,31.4 77,31.5 77,31.5 						"/>
						<path class="st0" d="M78.4,34.4c0.1,0,0.1-0.2,0.1-0.2l-0.1,0c0.1,0.1,0,0,0.1,0L78.4,34.4z"/>
						<path class="st0" d="M73.6,32.4c0-0.1,0.2-0.1,0.2,0c0,0-0.1,0.1,0,0.1l0.1-0.2c0.2,0.1-0.1,0.3-0.1,0.4
							c0.2,0,0.2-0.1,0.3-0.2c-0.1,0-0.1-0.1-0.1-0.1c0-0.2,0.1-0.1,0.2-0.1c-0.1,0-0.1-0.1,0-0.2c0,0,0,0,0,0l0,0h0c0,0,0,0,0-0.1
							c-0.1,0.1-0.2,0-0.2,0c0.1,0.2-0.2,0.1-0.2,0.2l-0.1,0l0,0c0,0,0-0.1,0-0.1c0,0-0.2,0.1-0.1,0.1l-0.3,0c0,0,0,0,0,0
							c0,0,0,0,0,0c-0.4,0.1-0.8,0.1-1.2,0.1c0.1,0,0.1,0.1,0.2,0.1c-0.1,0.2,0.1,0,0.1,0.2c0,0.1-0.1,0-0.1,0c0,0.1,0.1,0.1,0,0.2
							c0.2,0.1,0.2-0.3,0.3-0.2c0,0.1,0,0.2,0.1,0.2l0,0c0.2-0.1,0.2,0.2,0.2-0.1l0,0.1c0.1-0.1,0.2-0.1,0.3-0.2v0
							c0.2-0.2,0.1,0,0.4-0.2l-0.1,0.2c0.1,0,0.1-0.1,0.2-0.1c0,0,0,0.1,0,0.2l0.3-0.3C73.8,32.4,73.7,32.4,73.6,32.4z"/>
						<path class="st0" d="M74.1,32.5C74.1,32.5,74.1,32.5,74.1,32.5C74.1,32.5,74.1,32.5,74.1,32.5z"/>
						<path class="st0" d="M71.8,32.3L71.8,32.3C71.9,32.3,71.9,32.3,71.8,32.3z"/>
						<path class="st0" d="M74.5,32.1c-0.1-0.1,0-0.1,0-0.1l-0.2,0c0,0,0,0.1,0,0.2L74.5,32.1z"/>
						<path class="st0" d="M74.2,31.9c0,0,0,0.1,0,0.1L74.2,31.9C74.3,32,74.3,31.9,74.2,31.9z"/>
						<polygon class="st0" points="74.8,34.6 74.7,34.6 74.7,34.7 						"/>
						<path class="st0" d="M74.1,34.5c0.1,0.1,0.1,0,0.2,0C74.2,34.5,74.2,34.4,74.1,34.5z"/>
						<polygon class="st0" points="74.4,35.3 74.3,35.3 74.3,35.3 						"/>
						<path class="st0" d="M71.2,32.8L71.2,32.8C71.2,32.9,71.2,32.9,71.2,32.8z"/>
						<path class="st0" d="M71.9,32.7c-0.2-0.1,0.1-0.1,0.1-0.3l-0.1,0.1l0,0l-0.1,0c0,0.1,0.1,0.1,0,0.2c-0.2,0-0.1-0.1-0.2-0.2
							c-0.1,0-0.1,0-0.2,0l0,0c0,0,0,0,0,0c-0.2,0-0.4,0-0.6,0c-0.1,0.1,0.1,0.2-0.1,0.3c0.1,0,0.3,0.1,0.4,0c0,0,0,0.1,0,0.1
							l0.1-0.2l-0.1,0c0.1-0.2,0.3-0.1,0.4,0c-0.2,0-0.1,0.2-0.3,0.1c0,0,0,0.1,0,0.2C71.4,32.8,71.7,32.9,71.9,32.7z"/>
						<path class="st0" d="M69.5,32.5L69.5,32.5C69.5,32.5,69.5,32.5,69.5,32.5z"/>
						<path class="st0" d="M69.6,32.6l0.2-0.1l-0.2,0L69.6,32.6C69.5,32.5,69.6,32.5,69.6,32.6L69.6,32.6z"/>
						<path class="st0" d="M69.9,32.4c-0.1,0-0.1,0.2-0.1,0.2c-0.1,0,0-0.2-0.1,0c0,0.1,0.1,0.1,0.1,0.1L69.9,32.4z"/>
						<polygon class="st0" points="70.6,32.6 70.5,32.6 70.6,32.7 						"/>
						<path class="st0" d="M70.5,32.6L70.5,32.6C70.5,32.7,70.5,32.7,70.5,32.6L70.5,32.6z"/>
						<path class="st0" d="M70.3,32.5C70.3,32.5,70.2,32.5,70.3,32.5L70.3,32.5z"/>
						<polygon class="st0" points="70.4,32.6 70.4,32.6 70.3,32.5 						"/>
						<path class="st0" d="M70.5,32.6c0-0.1,0-0.2-0.1-0.2L70.5,32.6L70.5,32.6z"/>
						<polygon class="st0" points="73.6,35.2 73.6,35.3 73.6,35.3 73.6,35.2 						"/>
						<path class="st0" d="M73.1,35.2C73.1,35.2,73,35.2,73.1,35.2C73.1,35.2,73.1,35.2,73.1,35.2z"/>
						<path class="st0" d="M72.7,35.9c-0.1-0.1,0.2-0.2-0.1-0.2c0-0.1,0.1-0.2,0.2-0.2c0,0.1-0.1,0.1,0,0.2c0.1-0.1,0.1,0,0.1-0.2
							c0.1-0.1,0.1-0.2,0.2-0.3c-0.1,0.1-0.4,0-0.6,0.1c-0.1,0.2,0,0.4,0,0.6C72.5,36.1,72.7,36.1,72.7,35.9z"/>
						<path class="st0" d="M72.9,36.2C73,36.2,73,36.2,72.9,36.2C73,36.1,73,36.2,72.9,36.2z"/>
						<path class="st0" d="M71.7,34.4c0,0-0.1,0.1-0.1,0.1L71.7,34.4C71.7,34.5,71.7,34.5,71.7,34.4z"/>
						<path class="st0" d="M71.8,34.5L71.8,34.5C71.7,34.5,71.7,34.5,71.8,34.5z"/>
						<path class="st0" d="M71.7,34.4L71.7,34.4C71.7,34.4,71.7,34.4,71.7,34.4z"/>
						<path class="st0" d="M70.1,32.4C70.1,32.4,70,32.4,70.1,32.4C70,32.4,70,32.4,70.1,32.4z"/>
						<path class="st0" d="M67.9,32.1L67.9,32.1C67.9,32.1,67.9,32.1,67.9,32.1z"/>
						<path class="st0" d="M66.8,33.7C66.8,33.7,66.8,33.7,66.8,33.7C66.8,33.7,66.8,33.7,66.8,33.7z"/>
						<path class="st0" d="M66.7,33.7c0,0-0.1,0-0.2,0l0,0l-0.1,0C66.6,33.8,66.7,33.8,66.7,33.7z"/>
					</g>
				</g>
			</g>
		</g>
	</g>
</g>
<rect x="2.7" y="25.3" class="st1" width="94.7" height="14.6"/>
<line class="st2" x1="2.7" y1="26.3" x2="97.3" y2="26.3"/>
</svg>
