<?xml version="1.0" encoding="utf-8"?>
<!-- Generator: Adobe Illustrator 25.0.1, SVG Export Plug-In . SVG Version: 6.00 Build 0)  -->
<svg version="1.1" id="Layer_1" xmlns="http://www.w3.org/2000/svg" xmlns:xlink="http://www.w3.org/1999/xlink" x="0px" y="0px"
	 viewBox="0 0 100 50" style="enable-background:new 0 0 100 50;" xml:space="preserve">
<style type="text/css">
	.st0{fill:#FBC1A2;}
	.st1{fill:#FFFFFF;}
</style>
<path class="st0" d="M97.08,40.95c0.09,0,0.17,0.01,0.26,0.01C96.32,23.21,75.52,9.04,50,9.04c-25.52,0-46.31,14.17-47.33,31.92
	H97.08z"/>
<g>
	<g>
		<path class="st1" d="M21.06,21.96c0.54,0,1.64-0.21,1.93-0.74c0.3-0.55-0.26-0.65-0.73-0.65c-0.54,0-1.64,0.21-1.93,0.74
			C20.03,21.86,20.59,21.96,21.06,21.96L21.06,21.96z"/>
	</g>
</g>
<g>
	<g>
		<path class="st1" d="M12.87,32.82c1.66,0,2.22-2.15,0.25-2.15C11.46,30.67,10.91,32.82,12.87,32.82L12.87,32.82z"/>
	</g>
</g>
<g>
	<g>
		<path class="st1" d="M24.28,32.54c0.57,0,1.63-0.2,1.92-0.78c0.29-0.58-0.24-0.81-0.77-0.81c-0.57,0-1.63,0.2-1.92,0.78
			C23.22,32.31,23.75,32.54,24.28,32.54L24.28,32.54z"/>
	</g>
</g>
<g>
	<g>
		<path class="st1" d="M22.22,27.95c0.56,0,1.63-0.2,1.92-0.77c0.29-0.57-0.25-0.75-0.76-0.75c-0.56,0-1.63,0.2-1.92,0.77
			C21.17,27.76,21.71,27.95,22.22,27.95L22.22,27.95z"/>
	</g>
</g>
<g>
	<g>
		<path class="st1" d="M35.92,16.89c0.6,0,1.62-0.19,1.91-0.81c0.28-0.59-0.24-0.91-0.8-0.91c-0.6,0-1.62,0.19-1.91,0.81
			C34.84,16.56,35.35,16.89,35.92,16.89L35.92,16.89z"/>
	</g>
</g>
<g>
	<g>
		<path class="st1" d="M37.69,26.83c1.61,0,2.26-2.01,0.29-2.01C36.37,24.82,35.72,26.83,37.69,26.83L37.69,26.83z"/>
	</g>
</g>
<g>
	<g>
		<path class="st1" d="M30.06,21.18c0.64,0,1.53-0.12,2.05-0.55c0.37-0.3,0.47-0.64-0.17-0.64c-0.64,0-1.53,0.12-2.05,0.55
			C29.52,20.84,29.42,21.18,30.06,21.18L30.06,21.18z"/>
	</g>
</g>
<g>
	<g>
		<path class="st1" d="M31.6,34.26c0.62,0,1.61-0.18,1.9-0.83c0.26-0.6-0.23-1.01-0.83-1.01c-0.62,0-1.61,0.18-1.9,0.83
			C30.51,33.85,31,34.26,31.6,34.26L31.6,34.26z"/>
	</g>
</g>
<g>
	<g>
		<path class="st1" d="M33.61,26.21c1.66,0,2.22-2.14,0.25-2.14C32.2,24.07,31.64,26.21,33.61,26.21L33.61,26.21z"/>
	</g>
</g>
<g>
	<g>
		<path class="st1" d="M49.78,14.8c1.65,0,2.23-2.11,0.26-2.11C48.39,12.69,47.81,14.8,49.78,14.8L49.78,14.8z"/>
	</g>
</g>
<g>
	<g>
		<path class="st1" d="M50.21,29.2c0.51,0,1.66-0.22,1.93-0.72c0.3-0.53-0.26-0.56-0.71-0.56c-0.51,0-1.66,0.22-1.93,0.72
			C49.2,29.17,49.76,29.2,50.21,29.2L50.21,29.2z"/>
	</g>
</g>
<g>
	<g>
		<path class="st1" d="M41.35,34.41c1.66,0,2.22-2.13,0.25-2.13C39.95,32.28,39.39,34.41,41.35,34.41L41.35,34.41z"/>
	</g>
</g>
<g>
	<g>
		<path class="st1" d="M45.49,16.23c0.61,0,1.62-0.19,1.91-0.82c0.27-0.59-0.23-0.96-0.81-0.96c-0.61,0-1.62,0.19-1.91,0.82
			C44.41,15.86,44.91,16.23,45.49,16.23L45.49,16.23z"/>
	</g>
</g>
<g>
	<g>
		<path class="st1" d="M44.09,21.43c1.67,0,2.21-2.16,0.25-2.16C42.67,19.27,42.13,21.43,44.09,21.43L44.09,21.43z"/>
	</g>
</g>
<g>
	<g>
		<path class="st1" d="M60.83,31.46c0.65,0,1.54-0.1,2.05-0.55c0.36-0.31,0.47-0.7-0.19-0.7c-0.65,0-1.54,0.1-2.05,0.55
			C60.28,31.07,60.17,31.46,60.83,31.46L60.83,31.46z"/>
	</g>
</g>
<g>
	<g>
		<path class="st1" d="M58.02,22.38c0.61,0,1.62-0.19,1.91-0.82c0.27-0.59-0.23-0.96-0.81-0.96c-0.61,0-1.62,0.19-1.91,0.82
			C56.94,22.01,57.44,22.38,58.02,22.38L58.02,22.38z"/>
	</g>
</g>
<g>
	<g>
		<path class="st1" d="M53.87,35.96c1.63,0,2.25-2.05,0.28-2.05C52.52,33.91,51.9,35.96,53.87,35.96L53.87,35.96z"/>
	</g>
</g>
<g>
	<g>
		<path class="st1" d="M71.43,32.97c0.56,0,1.63-0.2,1.92-0.77c0.29-0.57-0.25-0.77-0.76-0.77c-0.56,0-1.63,0.2-1.92,0.77
			C70.38,32.77,70.92,32.97,71.43,32.97L71.43,32.97z"/>
	</g>
</g>
<g>
	<g>
		<path class="st1" d="M67.57,21.02c1.7,0,2.19-2.24,0.23-2.24C66.1,18.78,65.61,21.02,67.57,21.02L67.57,21.02z"/>
	</g>
</g>
<g>
	<g>
		<path class="st1" d="M62.35,13.47c0.6,0,1.62-0.19,1.91-0.81c0.28-0.59-0.24-0.92-0.8-0.92c-0.6,0-1.62,0.19-1.91,0.81
			C61.27,13.14,61.78,13.47,62.35,13.47L62.35,13.47z"/>
	</g>
</g>
<g>
	<g>
		<path class="st1" d="M50.74,19.66c0.23,0,0.46,0,0.68,0c0.19,0.01,0.38,0,0.56-0.05c0.2-0.03,0.39-0.08,0.57-0.17
			c0.17-0.07,0.32-0.16,0.45-0.28c0.13-0.09,0.23-0.2,0.31-0.33c0.03-0.08,0.06-0.16,0.09-0.24c0.03-0.16-0.01-0.31-0.12-0.44
			c-0.07-0.05-0.13-0.1-0.2-0.16c-0.19-0.1-0.39-0.15-0.6-0.16c-0.23,0-0.46,0-0.68,0c-0.19-0.01-0.38,0-0.56,0.05
			c-0.2,0.03-0.39,0.08-0.57,0.17c-0.17,0.07-0.32,0.16-0.45,0.28c-0.13,0.09-0.23,0.2-0.31,0.33c-0.03,0.08-0.06,0.16-0.09,0.24
			c-0.03,0.16,0.01,0.31,0.12,0.44c0.07,0.05,0.13,0.1,0.2,0.16C50.33,19.61,50.53,19.66,50.74,19.66L50.74,19.66z"/>
	</g>
</g>
<g>
	<g>
		<path class="st1" d="M66.75,28.26c0.65,0,1.54-0.11,2.05-0.55c0.36-0.31,0.47-0.69-0.18-0.69c-0.65,0-1.54,0.11-2.05,0.55
			C66.21,27.89,66.1,28.26,66.75,28.26L66.75,28.26z"/>
	</g>
</g>
<g>
	<g>
		<path class="st1" d="M81.44,23.78c0.54,0,1.64-0.21,1.93-0.74c0.3-0.55-0.26-0.65-0.73-0.65c-0.54,0-1.64,0.21-1.93,0.74
			C80.41,23.68,80.97,23.78,81.44,23.78L81.44,23.78z"/>
	</g>
</g>
<g>
	<g>
		<path class="st1" d="M75.77,18.17c0.57,0,1.63-0.2,1.92-0.77c0.29-0.57-0.25-0.79-0.77-0.79c-0.57,0-1.63,0.2-1.92,0.77
			C74.71,17.96,75.25,18.17,75.77,18.17L75.77,18.17z"/>
	</g>
</g>
<g>
	<g>
		<path class="st1" d="M78.59,28.46c0.64,0,1.53-0.13,2.05-0.55c0.37-0.3,0.47-0.62-0.17-0.62c-0.64,0-1.53,0.13-2.05,0.55
			C78.05,28.14,77.95,28.46,78.59,28.46L78.59,28.46z"/>
	</g>
</g>
<g>
	<g>
		<path class="st1" d="M71.2,20.95c1.65,0,2.23-2.1,0.26-2.1C69.81,18.85,69.23,20.95,71.2,20.95L71.2,20.95z"/>
	</g>
</g>
<g>
	<g>
		<path class="st1" d="M72.12,28.04c1.66,0,2.22-2.15,0.25-2.15C70.7,25.89,70.15,28.04,72.12,28.04L72.12,28.04z"/>
	</g>
</g>
<g>
	<g>
		<path class="st1" d="M80.52,35.59c0.52,0,1.64-0.22,1.93-0.72c0.31-0.54-0.27-0.59-0.71-0.59c-0.52,0-1.64,0.22-1.93,0.72
			C79.5,35.54,80.07,35.59,80.52,35.59L80.52,35.59z"/>
	</g>
</g>
<g>
	<g>
		<path class="st1" d="M83.73,29.52c0.55,0,1.63-0.21,1.92-0.75c0.3-0.56-0.25-0.71-0.75-0.71c-0.55,0-1.63,0.21-1.92,0.75
			C82.68,29.37,83.23,29.52,83.73,29.52L83.73,29.52z"/>
	</g>
</g>
<g>
	<g>
		<path class="st1" d="M90.66,36.17c0.64,0,1.53-0.16,2.05-0.55c0.39-0.29,0.47-0.55-0.15-0.55c-0.64,0-1.53,0.16-2.05,0.55
			C90.12,35.91,90.04,36.17,90.66,36.17L90.66,36.17z"/>
	</g>
</g>
<g>
	<g>
		<path class="st1" d="M69.63,36.22c0.59,0,1.62-0.19,1.91-0.8c0.28-0.58-0.24-0.87-0.79-0.87c-0.59,0-1.62,0.19-1.91,0.8
			C68.56,35.94,69.08,36.22,69.63,36.22L69.63,36.22z"/>
	</g>
</g>
<g>
	<g>
		<path class="st1" d="M44.23,37.75c0.08,0.08,0.15,0.15,0.23,0.23c0.09,0.08,0.2,0.12,0.31,0.14c0.15,0.04,0.29,0.06,0.45,0.05
			c0.19,0,0.38-0.03,0.56-0.07c0.2-0.03,0.39-0.09,0.57-0.17c0.11-0.05,0.22-0.1,0.33-0.15c0.18-0.09,0.33-0.21,0.46-0.36
			c0.04-0.06,0.07-0.12,0.11-0.18c0.04-0.13,0.01-0.23-0.09-0.32c-0.08-0.08-0.15-0.15-0.23-0.23c-0.09-0.08-0.2-0.12-0.31-0.14
			c-0.15-0.04-0.29-0.06-0.45-0.05c-0.19,0-0.38,0.03-0.56,0.07c-0.2,0.03-0.39,0.09-0.57,0.17c-0.11,0.05-0.22,0.1-0.33,0.15
			c-0.18,0.09-0.33,0.21-0.46,0.36c-0.04,0.06-0.07,0.12-0.11,0.18C44.1,37.55,44.13,37.66,44.23,37.75L44.23,37.75z"/>
	</g>
</g>
<g>
	<g>
		<path class="st1" d="M24.28,39.48c1.7,0,2.18-2.26,0.22-2.26C22.8,37.22,22.32,39.48,24.28,39.48L24.28,39.48z"/>
	</g>
</g>
<g>
	<g>
		<path class="st1" d="M32.71,39.62c0.58,0,1.62-0.2,1.91-0.79c0.28-0.58-0.24-0.83-0.78-0.83c-0.58,0-1.62,0.2-1.91,0.79
			C31.65,39.37,32.17,39.62,32.71,39.62L32.71,39.62z"/>
	</g>
</g>
<g>
	<g>
		<path class="st1" d="M14.74,38.14c0.62,0,1.61-0.18,1.9-0.84c0.26-0.6-0.23-1.02-0.83-1.02c-0.62,0-1.61,0.18-1.9,0.84
			C13.65,37.72,14.14,38.14,14.74,38.14L14.74,38.14z"/>
	</g>
</g>
<g>
	<g>
		<path class="st1" d="M6.06,38.03c0.08,0,0.15,0,0.23,0c0.19,0.01,0.38-0.01,0.56-0.06c0.2-0.03,0.39-0.09,0.57-0.17
			c0.17-0.06,0.32-0.15,0.46-0.26c0.13-0.08,0.23-0.18,0.32-0.3c0.03-0.07,0.07-0.14,0.1-0.21c0.03-0.15,0-0.27-0.1-0.38
			C8.13,36.6,8.07,36.56,8,36.52c-0.19-0.08-0.38-0.12-0.59-0.12c-0.08,0-0.15,0-0.23,0c-0.19-0.01-0.38,0.01-0.56,0.06
			c-0.2,0.03-0.39,0.09-0.57,0.17c-0.17,0.06-0.32,0.15-0.46,0.26c-0.13,0.08-0.23,0.18-0.32,0.3c-0.03,0.07-0.07,0.14-0.1,0.21
			c-0.03,0.15,0,0.27,0.1,0.38c0.06,0.04,0.13,0.09,0.19,0.13C5.65,37.99,5.85,38.03,6.06,38.03L6.06,38.03z"/>
	</g>
</g>
<g>
	<g>
		<path class="st1" d="M15.14,26.17c1.63,0,2.24-2.06,0.27-2.06C13.78,24.11,13.17,26.17,15.14,26.17L15.14,26.17z"/>
	</g>
</g>
</svg>
