<?xml version="1.0" encoding="utf-8"?>
<!-- Generator: Adobe Illustrator 25.0.1, SVG Export Plug-In . SVG Version: 6.00 Build 0)  -->
<svg version="1.1" id="Layer_1" xmlns="http://www.w3.org/2000/svg" xmlns:xlink="http://www.w3.org/1999/xlink" x="0px" y="0px"
	 viewBox="0 0 100 50" style="enable-background:new 0 0 100 50;" xml:space="preserve">
<style type="text/css">
	.st0{fill:#B5893D;}
	.st1{opacity:0.75;}
	.st2{opacity:0.1091;fill:#FFFFFF;}
</style>
<path class="st0" d="M97.08,40.95c0.09,0,0.17,0.01,0.26,0.01C96.32,23.21,75.52,9.04,50,9.04c-25.52,0-46.31,14.17-47.33,31.92
	H97.08z"/>
<g class="st1">
	<g>
		<g>
			<path class="st2" d="M70.18,20.3c5.17,0,9.7,1.7,13.6,5.11c-0.44-0.45-0.88-0.9-1.31-1.34c1.15,1.28,2.3,2.56,3.45,3.85
				c-0.37-0.49-0.74-0.98-1.1-1.48c2.3,3.26,4.3,6.69,6,10.29c0.32,0.64,0.74,0.36,0.88-0.17c0.2-0.79-0.25-2.83-0.69-3.51
				c-2.99-4.62-5.88-9.1-10.64-12.08c-4.11-2.57-8.55-3.4-13.28-3.83c-0.98-0.09,0.4,1.35,0.37,1.33
				C68.12,19.09,69.2,20.22,70.18,20.3z"/>
			<path class="st2" d="M67.79,18.6c5.15,0.02,9.69,1.7,13.61,5.06c-0.5-0.47-0.99-0.94-1.49-1.41c1.22,1.29,2.44,2.59,3.67,3.88
				c-0.45-0.53-0.89-1.06-1.34-1.59c2.11,3.44,4.22,6.89,6.32,10.33c0.42,0.79,0.81,0.29,0.85-0.29c-0.15-0.72-0.35-1.42-0.6-2.11
				c-0.22-0.7-0.5-1.38-0.82-2.03c-2.43-3.62-4.86-7.46-8.42-10.1c-2.19-1.63-4.52-2.88-7.16-3.65c-2.73-0.8-5.08-1.1-7.94-1.37
				c-1.02-0.09,0.49,1.41,0.44,1.36C65.61,17.32,66.77,18.51,67.79,18.6z"/>
			<path class="st2" d="M69.12,16.66c2.53-0.06,5,0.3,7.4,1.09c5.91,4.03,10.11,9.19,12.6,15.47c0.13,0.29,0.63,0.28,0.85,0.09
				c0.28-0.25,0.2-0.58,0.05-0.9c-1.86-3.98-3.64-8.39-6.73-11.62c-1-1.04-2.12-1.98-3.38-2.71c-1.12-0.57-2.24-1.13-3.36-1.7
				c-2.4-0.75-4.85-1.08-7.36-0.99C68.41,15.35,68.35,16.62,69.12,16.66z"/>
			<path class="st2" d="M69.61,17.6c6.21,0.54,11.47,1.54,15.8,7.27c2.05,2.71,3.59,5.75,5.19,8.73c0.63,1.17,0.86,0.2,0.83-0.7
				c-0.03-0.95-0.25-1.92-0.42-2.85c-0.14-0.74-0.22-1.69-0.69-2.31c-2.54-3.44-4.99-6.84-8.36-9.5c-1.72-1.35-3-2.39-5.19-3.34
				c-1.27-0.46-2.54-0.93-3.81-1.39c-2.48-0.82-5.03-1.27-7.65-1.33c-1.18-0.12,0.63,1.86,0.61,1.83c0.74,0.85,1.51,1.68,2.3,2.48
				C68.6,16.98,69.07,17.34,69.61,17.6z"/>
			<path class="st2" d="M70.49,16.03c2.62,0.03,5.16,0.49,7.62,1.37c2.36,0.76,4.28,2.12,5.78,4.09c1.83,1.4,3.2,3.16,4.11,5.28
				c1.03,2.01,2.01,4.05,2.93,6.12c0.34,0.75,1.36,0.06,1-0.71c-0.99-2.12-1.94-4.27-3.07-6.32c-1.1-2-2.38-4.24-4.04-5.79
				c-1.48-1.38-3.16-2.49-4.96-3.4c-3.06-1.55-5.98-1.94-9.4-2.28C69.31,14.28,69.78,15.96,70.49,16.03z"/>
			<path class="st2" d="M67.57,18.65c4.78-0.44,8.46,1.77,11.03,6.62c4.25,2.05,7.13,5.14,8.65,9.27c0.51,1.05,1.56,0.63,1.04-0.45
				c-1.88-3.92-3.76-8.4-6.92-11.51c-1.65-1.62-2.9-2.33-4.8-3.28c-2.99-1.49-5.88-1.78-9.23-1.97
				C66.49,17.28,66.8,18.6,67.57,18.65z"/>
			<path class="st2" d="M68.74,20.84c3.85-0.01,7.49,0.96,10.91,2.9c-0.37-0.23-0.74-0.46-1.1-0.69c4.65,3.83,8.19,8.39,10.62,13.7
				c0.23,0.45,0.71,1.19,1.08,0.4c0.31-0.66-0.53-2.3-0.86-2.85c-1.97-3.34-3.82-6.62-6.53-9.4c-1.26-1.3-2.6-2.27-4.24-3.18
				c-3.61-2-7.36-2.57-11.39-2.91c-0.52-0.04-0.64,0.34-0.48,0.75C66.91,20.01,68.26,20.8,68.74,20.84z"/>
			<path class="st2" d="M71.15,17.5c6.26,0.57,11.54,1.6,15.85,7.47c2.04,2.77,3.52,5.88,5.08,8.94c0.29,0.58,0.66,0.51,0.89-0.05
				c0.28-0.67,0.17-2.84-0.2-3.47c-2.59-4.35-5.2-9.04-9.36-12.11c-1.73-1.28-3.56-2.3-5.54-3.11c-1.2-0.59-2.46-1.01-3.77-1.28
				c-1.84-0.6-3.74-0.91-5.69-0.92c-0.99-0.11,0.08,1.42,0.16,1.55C69,15.17,70.22,17.42,71.15,17.5z"/>
			<path class="st2" d="M67.89,17.2c10.34,0.97,13.97,3.26,20.22,16.33c0.17,0.35,0.59,0.63,0.93,0.25
				c0.33-0.38-0.05-1.19-0.23-1.55c-1.92-3.83-3.79-7.97-6.88-11.03c-1.1-1.08-2.33-2.04-3.69-2.78c-1.15-0.53-2.29-1.06-3.44-1.59
				c-2.39-0.85-4.86-1.29-7.4-1.33C66.19,15.38,67.16,17.13,67.89,17.2z"/>
			<path class="st2" d="M68.94,16.02c1.3,0.13,2.61,0.26,3.91,0.38c3.18,0.43,5.95,1.64,8.3,3.61c2,1.23,3.44,3,4.33,5.29
				c1.77,2.23,3.22,4.64,4.36,7.24c0.29,0.58,0.75,0.29,0.88-0.17c0.21-0.73-0.23-2.46-0.6-3.11c-3.04-5.19-6.26-10.79-11.84-13.62
				c-1.15-0.58-2.45-1.12-3.65-1.56c-2.63-0.96-5.2-1.26-7.97-1.57c-0.89-0.1-0.01,1.2,0.08,1.32
				C67.15,14.44,68.1,15.93,68.94,16.02z"/>
			<path class="st2" d="M70.95,18.97c3.21-0.17,6.13,0.71,8.76,2.66c3.05,0.67,5.38,2.27,7.02,4.81c2,2.75,3.49,5.82,5.05,8.83
				c0.47,0.9,0.84,0.21,0.9-0.49c0.09-1.11,0.02-2.92-0.6-3.88c-2.73-4.18-5.47-8.5-9.63-11.42c-1.07-0.75-2.28-1.49-3.45-2.09
				c-3.54-1.83-7.49-2.43-11.38-2.82c-1.06-0.11,0.34,1.55,0.36,1.57c0.58,0.69,1.19,1.35,1.83,1.99
				C70.1,18.53,70.49,18.81,70.95,18.97z"/>
			<path class="st2" d="M67.38,19.52c4.73-0.32,8.44,1.84,11.1,6.47c4.39,2.09,7.39,5.28,9,9.58c0.18,0.37,0.65,0.7,0.98,0.25
				c0.33-0.46-0.28-1.39-0.48-1.78c-1.84-3.63-3.69-7.86-6.81-10.66c-1.01-0.9-2.23-1.78-3.38-2.49c-3.37-2.08-7.23-2.57-11.08-2.91
				c-0.35-0.03-0.57,0.46-0.51,0.74C66.29,19.06,67.05,19.49,67.38,19.52z"/>
		</g>
	</g>
</g>
</svg>
